<?xml version="1.0" encoding="UTF-8"?>
<svg version="1.1" xmlns="http://www.w3.org/2000/svg" width="165" height="53">
<path d="M0 0 C165.99 0 331.98 0 503 0 C503 47.52 503 95.04 503 144 C337.01 144 171.02 144 0 144 C0 96.48 0 48.96 0 0 Z " fill="none" transform="translate(0,0)"/>
<path d="M0 0 C0.78058273 -0.00807175 1.56116547 -0.01614349 2.36540222 -0.02445984 C4.01709789 -0.03828195 5.6688219 -0.04901248 7.32055664 -0.05688477 C9.8360051 -0.07408566 12.35013452 -0.11798482 14.86523438 -0.16210938 C16.47264662 -0.17223817 18.08007 -0.18075369 19.6875 -0.1875 C20.43457718 -0.20500809 21.18165436 -0.22251617 21.95137024 -0.24055481 C28.19598924 -0.21484586 31.71447521 1.90978771 36.04296875 6.23828125 C36.29833984 8.66503906 36.29833984 8.66503906 36.31640625 11.69140625 C36.33703125 12.78582031 36.35765625 13.88023438 36.37890625 15.0078125 C36.40477173 17.31242695 36.42310576 19.61713927 36.43359375 21.921875 C36.60757371 30.16659191 37.53615089 33.82138179 43.48046875 39.61328125 C50.82616575 47.1381416 52.23362958 53.81161437 52.29296875 63.98828125 C52.31359375 64.85710937 52.33421875 65.7259375 52.35546875 66.62109375 C52.39093566 72.52633379 51.43171717 76.8321664 49.04296875 82.23828125 C53.66296875 82.23828125 58.28296875 82.23828125 63.04296875 82.23828125 C63.00171875 80.01078125 62.96046875 77.78328125 62.91796875 75.48828125 C62.76930718 67.46055658 62.76930718 67.46055658 65.04296875 64.23828125 C68.46713276 61.95550525 70.11419328 62.07113868 74.1015625 62.6953125 C76.99815898 63.50542701 78.36005184 64.78402742 80.04296875 67.23828125 C80.04296875 68.55828125 80.04296875 69.87828125 80.04296875 71.23828125 C81.13609375 71.17640625 82.22921875 71.11453125 83.35546875 71.05078125 C87.04296875 71.23828125 87.04296875 71.23828125 88.98046875 72.23828125 C90.71575568 75.50470371 90.2227959 78.58179577 90.04296875 82.23828125 C93.34296875 82.23828125 96.64296875 82.23828125 100.04296875 82.23828125 C100.04296875 87.51828125 100.04296875 92.79828125 100.04296875 98.23828125 C96.74296875 98.23828125 93.44296875 98.23828125 90.04296875 98.23828125 C90.10484375 99.68203125 90.16671875 101.12578125 90.23046875 102.61328125 C90.3359375 105.07421875 90.3359375 105.07421875 90.04296875 107.23828125 C86.95408353 109.29753806 86.33360948 109.47731865 82.85546875 109.36328125 C81.59734375 109.32203125 80.33921875 109.28078125 79.04296875 109.23828125 C79.08421875 110.18703125 79.12546875 111.13578125 79.16796875 112.11328125 C79.04296875 115.23828125 79.04296875 115.23828125 77.04296875 117.23828125 C74.546875 117.5390625 74.546875 117.5390625 71.60546875 117.55078125 C70.15333984 117.57591797 70.15333984 117.57591797 68.671875 117.6015625 C66.04296875 117.23828125 66.04296875 117.23828125 64.20703125 116.23046875 C62.33230931 113.02205201 62.73380331 109.65014019 62.85546875 106.05078125 C62.91734375 103.47265625 62.97921875 100.89453125 63.04296875 98.23828125 C53.47296875 98.23828125 43.90296875 98.23828125 34.04296875 98.23828125 C34.16154492 103.74336531 34.16154492 103.74336531 34.31323242 109.24755859 C34.33508643 111.24637775 34.19217253 113.24491881 34.04296875 115.23828125 C30.81261342 117.39185147 29.73163417 117.53420762 25.98046875 117.55078125 C25.10261719 117.56753906 24.22476563 117.58429688 23.3203125 117.6015625 C22.56878906 117.48167969 21.81726562 117.36179687 21.04296875 117.23828125 C18.89102505 114.0103657 18.84210432 112.95427316 19.04296875 109.23828125 C17.99109375 109.30015625 16.93921875 109.36203125 15.85546875 109.42578125 C11.80885201 109.22676731 9.99243083 109.00898805 7.04296875 106.23828125 C6.9140625 102.6171875 6.9140625 102.6171875 7.04296875 99.23828125 C6.38288818 99.26970215 5.72280762 99.30112305 5.04272461 99.33349609 C2.02232799 99.45900394 -0.99751923 99.53649692 -4.01953125 99.61328125 C-5.05787109 99.66355469 -6.09621094 99.71382813 -7.16601562 99.765625 C-12.28841777 99.86319456 -15.94470451 99.8698932 -20 96.51171875 C-29.81281712 86.43898897 -32.46287082 74.75106309 -32.37890625 61.14355469 C-32.1966247 55.10188065 -31.4471901 50.3070658 -27.95703125 45.23828125 C-27.48652344 44.54734375 -27.01601563 43.85640625 -26.53125 43.14453125 C-24.3093144 40.06712173 -22.09611214 37.36653793 -19.296875 34.78515625 C-15.47462371 30.21091623 -16.37244888 24.3265341 -16.45703125 18.67578125 C-16.62881381 7.15974299 -16.62881381 7.15974299 -13.61328125 3.0234375 C-9.15408017 0.02659207 -5.19524335 0.05095521 0 0 Z " fill="#1C1817" transform="translate(41.95703125,14.76171875)"/>
<path d="M0 0 C9.20431615 5.38079004 16.16188279 12.46269043 19.5625 22.625 C19.975 23.57375 20.3875 24.5225 20.8125 25.5 C23.00542368 34.63718201 21.23762297 42.14268492 17.5625 50.625 C14.9225 50.625 12.2825 50.625 9.5625 50.625 C9.51351562 49.57699219 9.46453125 48.52898437 9.4140625 47.44921875 C9.33901857 46.07028646 9.26347143 44.6913815 9.1875 43.3125 C9.1565625 42.62220703 9.125625 41.93191406 9.09375 41.22070312 C8.88125081 37.55509211 8.64316139 35.74599208 6.5625 32.625 C1.31246969 32.00670769 1.31246969 32.00670769 -3.375 33.875 C-4.53539619 35.78624078 -5.05870265 37.42797535 -5.4375 39.625 C-6.530625 39.769375 -7.62375 39.91375 -8.75 40.0625 C-12.36872987 40.50788104 -12.36872987 40.50788104 -15.4375 41.625 C-15.7675 44.595 -16.0975 47.565 -16.4375 50.625 C-20.3975 50.625 -24.3575 50.625 -28.4375 50.625 C-28.4375 54.255 -28.4375 57.885 -28.4375 61.625 C-38.20729955 62.57815118 -38.20729955 62.57815118 -41.328125 60.16015625 C-42.91030264 58.05752544 -44.18640434 55.93971827 -45.4375 53.625 C-45.91058594 52.83480469 -46.38367188 52.04460937 -46.87109375 51.23046875 C-52.20346379 42.12163268 -52.5381156 33.76697474 -50.3125 23.4375 C-47.63872107 13.81189584 -40.81208536 6.38817204 -32.25390625 1.3359375 C-22.42405277 -3.6781896 -10.19880451 -4.71429115 0 0 Z " fill="#E55160" transform="translate(66.4375,46.375)"/>
<path d="M0 0 C6 0 6 0 8.25 1.25 C10.11892832 3.11892832 11.09827052 4.52024392 12 7 C12 8.32 12 9.64 12 11 C12.66 11 13.32 11 14 11 C15.625 13 15.625 13 17 15 C17.66 14.01 18.32 13.02 19 12 C19.66 12 20.32 12 21 12 C21.0825 11.29875 21.165 10.5975 21.25 9.875 C22.20999382 6.19502369 23.51781399 3.88470266 26 1 C27.98 1 29.96 1 32 1 C32 10.24 32 19.48 32 29 C30.02 29 28.04 29 26 29 C26 24.71 26 20.42 26 16 C25.34 16 24.68 16 24 16 C23.773125 16.721875 23.54625 17.44375 23.3125 18.1875 C21.75168987 21.53209313 19.6968713 23.51603959 17 26 C12.57320993 24.52440331 12.08567304 22.09942632 10 18 C10 17.34 10 16.68 10 16 C9.34 16 8.68 16 8 16 C8 20.29 8 24.58 8 29 C5.36 29 2.72 29 0 29 C0 19.43 0 9.86 0 0 Z " fill="#464646" transform="translate(215,47)"/>
<path d="M0 0 C0 9.57 0 19.14 0 29 C-1.98 29 -3.96 29 -6 29 C-6 23.72 -6 18.44 -6 13 C-6.66 13 -7.32 13 -8 13 C-8.0825 13.845625 -8.165 14.69125 -8.25 15.5625 C-9.15733853 19.72113491 -10.76541273 22.39582699 -13 26 C-15.3125 26.25 -15.3125 26.25 -18 26 C-19.97610386 23.95575462 -21 22.8823175 -21 20 C-21.66 20 -22.32 20 -23 20 C-23 18.68 -23 17.36 -23 16 C-23.66 16 -24.32 16 -25 16 C-25 20.29 -25 24.58 -25 29 C-27.31 29 -29.62 29 -32 29 C-32 19.76 -32 10.52 -32 1 C-25 1 -25 1 -22.75 3.0625 C-20.81067272 6.31779936 -19.39541011 9.47825067 -18 13 C-17.67 13.66 -17.34 14.32 -17 15 C-16.01 15 -15.02 15 -14 15 C-13.63648438 14.00419922 -13.63648438 14.00419922 -13.265625 12.98828125 C-8.33576642 0 -8.33576642 0 0 0 Z " fill="#454545" transform="translate(461,47)"/>
<path d="M0 0 C16.13559322 -0.57627119 16.13559322 -0.57627119 23 4 C25 6 25 6 25.1953125 8.3828125 C25.17210937 9.28773437 25.14890625 10.19265625 25.125 11.125 C25.10695313 12.03507812 25.08890625 12.94515625 25.0703125 13.8828125 C25.04710937 14.58148438 25.02390625 15.28015625 25 16 C24.34 16 23.68 16 23 16 C22.67 16.99 22.34 17.98 22 19 C21.34 19 20.68 19 20 19 C20.3609375 19.47050781 20.721875 19.94101563 21.09375 20.42578125 C21.78984375 21.35970703 21.78984375 21.35970703 22.5 22.3125 C22.9640625 22.92738281 23.428125 23.54226562 23.90625 24.17578125 C25 26 25 26 25 29 C21.6875 29.25 21.6875 29.25 18 29 C16.0625 27.125 16.0625 27.125 15 25 C15 24.34 15 23.68 15 23 C12.36 22.34 9.72 21.68 7 21 C7 23.64 7 26.28 7 29 C4.69 29 2.38 29 0 29 C0 19.43 0 9.86 0 0 Z " fill="#454545" transform="translate(359,47)"/>
<path d="M0 0 C6 0 6 0 8.5625 1.5625 C13.17518726 6.17518726 16.28889182 10.62223315 18 17 C18.66 17 19.32 17 20 17 C20 11.72 20 6.44 20 1 C21.98 1 23.96 1 26 1 C26 10.24 26 19.48 26 29 C21 29 21 29 18.10546875 26.375 C17.11867823 25.26237713 16.14634804 24.13679181 15.1875 23 C14.68541016 22.42765625 14.18332031 21.8553125 13.66601562 21.265625 C12.43142481 19.85466407 11.21399032 18.42872416 10 17 C9.34 20.96 8.68 24.92 8 29 C5.36 29 2.72 29 0 29 C0 19.43 0 9.86 0 0 Z " fill="#434343" transform="translate(293,47)"/>
<path d="M0 0 C3.70883107 7.23476088 7.25278142 14.33670607 10 22 C10.66 22.99 11.32 23.98 12 25 C12 25.99 12 26.98 12 28 C9.36 28 6.72 28 4 28 C3.34 26.35 2.68 24.7 2 23 C-4.93 22.505 -4.93 22.505 -12 22 C-12.33 23.98 -12.66 25.96 -13 28 C-14.98 28 -16.96 28 -19 28 C-18.38677273 20.76391817 -16.23157767 14.79783263 -13 8.375 C-12.64357422 7.66408203 -12.28714844 6.95316406 -11.91992188 6.22070312 C-8.62121552 -0.12391153 -6.99718443 -0.12957749 0 0 Z " fill="#444444" transform="translate(275,48)"/>
<path d="M0 0 C2.64 0 5.28 0 8 0 C8.33 6.93 8.66 13.86 9 21 C11.70879335 22.35439668 14.00933268 22.06501451 17 22 C18.15013193 19.69973614 18.29232399 17.98752064 18.53515625 15.4296875 C18.62216797 14.53378906 18.70917969 13.63789062 18.79882812 12.71484375 C18.88583984 11.77769531 18.97285156 10.84054688 19.0625 9.875 C19.15337891 8.93011719 19.24425781 7.98523437 19.33789062 7.01171875 C19.56214099 4.67479389 19.78269057 2.33757884 20 0 C22.31 0 24.62 0 27 0 C27.14522934 3.91627663 27.23404757 7.83186153 27.3125 11.75 C27.35439453 12.86117187 27.39628906 13.97234375 27.43945312 15.1171875 C27.56339536 23.34695211 27.56339536 23.34695211 24.66796875 26.703125 C20.7793008 28.59337062 17.84683897 29.15843393 13.5625 29.1875 C12.14130859 29.20876953 12.14130859 29.20876953 10.69140625 29.23046875 C7.84376449 28.98662134 6.41745202 28.4768162 4 27 C-0.30449412 21.54162051 -0.51667232 15.67706454 -0.25 9 C-0.23195313 8.12988281 -0.21390625 7.25976562 -0.1953125 6.36328125 C-0.14868436 4.24170093 -0.07696077 2.12069665 0 0 Z " fill="#4B4B4B" transform="translate(392,47)"/>
<path d="M0 0 C2.47067185 1.07359365 3.93896286 2.21748139 6 4 C5.67 5.32 5.34 6.64 5 8 C3.53626953 7.96519531 3.53626953 7.96519531 2.04296875 7.9296875 C0.77066406 7.91164063 -0.50164062 7.89359375 -1.8125 7.875 C-3.07707031 7.85179687 -4.34164062 7.82859375 -5.64453125 7.8046875 C-9.1338024 7.72418082 -9.1338024 7.72418082 -12 10 C-12.47790518 12.36284864 -12.47790518 12.36284864 -12.375 15 C-12.38273438 15.886875 -12.39046875 16.77375 -12.3984375 17.6875 C-12.26695312 18.450625 -12.13546875 19.21375 -12 20 C-7.93274566 22.7115029 -4.8452389 22.57867488 0 23 C0 20.03 0 17.06 0 14 C1.98 14 3.96 14 6 14 C6 18.29 6 22.58 6 27 C-0.19108305 29.47643322 -5.40020448 29.95555322 -12 29 C-14.91450981 27.45507285 -17.0815838 25.69275873 -19 23 C-19 22.34 -19 21.68 -19 21 C-19.66 21 -20.32 21 -21 21 C-22.22282871 9.70581814 -22.22282871 9.70581814 -19.2890625 5.61328125 C-13.04213939 0.2346128 -8.2081193 -0.88892431 0 0 Z " fill="#434343" transform="translate(168,47)"/>
<path d="M0 0 C5.1698545 -0.70099722 5.1698545 -0.70099722 8 0 C10.63158944 2.73785315 13 6.10955894 13 10 C13.99 10 14.98 10 16 10 C16.0825 9.278125 16.165 8.55625 16.25 7.8125 C17.18673526 4.29974279 18.35875545 2.49847457 21 0 C24.25 -0.3125 24.25 -0.3125 27 0 C25.60663125 4.60721928 23.70028279 8.63287276 21.4375 12.875 C18.79289108 17.9600113 17.11542164 22.2289178 17 28 C14.69 28 12.38 28 10 28 C9.97421875 27.38253906 9.9484375 26.76507813 9.921875 26.12890625 C9.39207265 18.21799393 7.51087575 11.69294192 2.25 5.625 C0 3 0 3 0 0 Z " fill="#454545" transform="translate(181,48)"/>
<path d="M0 0 C0.79789444 0.00202423 1.59578888 0.00404846 2.41786194 0.00613403 C3.23295731 0.00517731 4.04805267 0.00422058 4.8878479 0.00323486 C6.61538266 0.002553 8.34291996 0.0044077 10.07044983 0.00857544 C12.71951547 0.01391679 15.36841103 0.00863422 18.01747131 0.00222778 C19.6926019 0.0028887 21.36773238 0.00417014 23.04286194 0.00613403 C23.83873215 0.0041098 24.63460236 0.00208557 25.45458984 0 C31.06685731 0.02399109 31.06685731 0.02399109 33.29676819 1.13894653 C33.29676819 8.06894653 33.29676819 14.99894653 33.29676819 22.13894653 C31.97676819 21.80894653 30.65676819 21.47894653 29.29676819 21.13894653 C29.09760803 19.53213013 29.09760803 19.53213013 28.89442444 17.89285278 C28.71626259 16.49568884 28.537865 15.09855494 28.35926819 13.70144653 C28.22875061 12.64087036 28.22875061 12.64087036 28.09559631 11.55886841 C27.91460628 8.05076685 27.91460628 8.05076685 26.29676819 5.13894653 C24.30919791 5.03911596 22.31809299 5.008139 20.32801819 5.00613403 C18.51237366 5.00420044 18.51237366 5.00420044 16.66004944 5.00222778 C15.38516663 5.00609497 14.11028381 5.00996216 12.79676819 5.01394653 C11.52188538 5.01007935 10.24700256 5.00621216 8.93348694 5.00222778 C7.72305725 5.00351685 6.51262756 5.00480591 5.26551819 5.00613403 C4.14596741 5.00726196 3.02641663 5.00838989 1.87294006 5.009552 C-0.63464983 4.84678286 -0.63464983 4.84678286 -1.70323181 6.13894653 C-1.93976704 8.66490913 -2.12496873 11.1700186 -2.26573181 13.70144653 C-2.30891541 14.4123645 -2.352099 15.12328247 -2.39659119 15.85574341 C-2.50294958 17.61656565 -2.60362027 19.37772973 -2.70323181 21.13894653 C-4.02323181 21.46894653 -5.34323181 21.79894653 -6.70323181 22.13894653 C-6.73210995 18.65979712 -6.74998868 15.18067823 -6.76573181 11.70144653 C-6.77411072 10.70822388 -6.78248962 9.71500122 -6.79112244 8.69168091 C-6.79434509 7.74744263 -6.79756775 6.80320435 -6.80088806 5.83035278 C-6.80612488 4.95580444 -6.81136169 4.0812561 -6.8167572 3.1802063 C-6.57836868 -1.1061732 -3.59838727 0.01544828 0 0 Z " fill="#CDAB49" transform="translate(38.70323181152344,20.861053466796875)"/>
<path d="M0 0 C8.25 0 16.5 0 25 0 C25 1.65 25 3.3 25 5 C21.7 5 18.4 5 15 5 C15 12.59 15 20.18 15 28 C13.02 28 11.04 28 9 28 C9 20.41 9 12.82 9 5 C6.03 5 3.06 5 0 5 C0 3.35 0 1.7 0 0 Z " fill="#3C3C3C" transform="translate(327,48)"/>
<path d="M0 0 C4.61143034 1.15285759 5.47287827 2.11906305 8 6 C8 7.32 8 8.64 8 10 C8.99 10 9.98 10 11 10 C12.65 7.03 14.3 4.06 16 1 C17.32 1 18.64 1 20 1 C20 6.94 20 12.88 20 19 C18.68 19 17.36 19 16 19 C16 16.69 16 14.38 16 12 C15.34 12 14.68 12 14 12 C13.34 14.31 12.68 16.62 12 19 C8.73045798 18.43628586 7.17424117 17.50037734 5 15 C4.67 16.32 4.34 17.64 4 19 C2.68 19 1.36 19 0 19 C0 12.73 0 6.46 0 0 Z " fill="#DFDFDF" transform="translate(337,102)"/>
<path d="M0 0 C5 1 5 1 7 2 C8.31745857 5.87918356 9 8.88375865 9 13 C9.99 13 10.98 13 12 13 C12.33 10.36 12.66 7.72 13 5 C13.66 5 14.32 5 15 5 C15.33 3.35 15.66 1.7 16 0 C17.32 0 18.64 0 20 0 C20 5.94 20 11.88 20 18 C18.68 18 17.36 18 16 18 C16 16.02 16 14.04 16 12 C13.7522025 14.05233685 12.9977758 15.00667261 12 18 C10.0625 17.6875 10.0625 17.6875 8 17 C7.67 16.01 7.34 15.02 7 14 C6.34 14 5.68 14 5 14 C5 15.32 5 16.64 5 18 C3.35 18 1.7 18 0 18 C0 12.06 0 6.12 0 0 Z " fill="#E3E3E3" transform="translate(208,103)"/>
<path d="M0 0 C1.32 0 2.64 0 4 0 C4 13.53 4 27.06 4 41 C1.525 41.495 1.525 41.495 -1 42 C-1.02464638 36.17928378 -1.0428343 30.35859766 -1.05493164 24.5378418 C-1.05997267 22.55606559 -1.06680538 20.57429311 -1.07543945 18.5925293 C-1.08751515 15.75047891 -1.09323045 12.90847753 -1.09765625 10.06640625 C-1.10281754 9.17474258 -1.10797882 8.28307892 -1.11329651 7.36439514 C-1.11349177 5.24259399 -1.0621003 3.1208922 -1 1 C-0.67 0.67 -0.34 0.34 0 0 Z " fill="#5D646F" transform="translate(112,85)"/>
<path d="M0 0 C1.32 0 2.64 0 4 0 C4 13.53 4 27.06 4 41 C1.525 41.495 1.525 41.495 -1 42 C-1.02464638 36.17928378 -1.0428343 30.35859766 -1.05493164 24.5378418 C-1.05997267 22.55606559 -1.06680538 20.57429311 -1.07543945 18.5925293 C-1.08751515 15.75047891 -1.09323045 12.90847753 -1.09765625 10.06640625 C-1.10281754 9.17474258 -1.10797882 8.28307892 -1.11329651 7.36439514 C-1.11349177 5.24259399 -1.0621003 3.1208922 -1 1 C-0.67 0.67 -0.34 0.34 0 0 Z " fill="#5C646D" transform="translate(67,85)"/>
<path d="M0 0 C7.59 0 15.18 0 23 0 C23 2.97 23 5.94 23 9 C15.41 9 7.82 9 0 9 C0 6.03 0 3.06 0 0 Z " fill="#E9E9E9" transform="translate(40,30)"/>
<path d="M0 0 C2.85552862 0.44501745 4.13933104 1.20558997 6.10546875 3.328125 C6.2421875 6.10546875 6.2421875 6.10546875 5.79296875 9.265625 C5.29592204 12.94559465 4.91505421 15.77400966 6.10546875 19.328125 C4.78546875 18.998125 3.46546875 18.668125 2.10546875 18.328125 C2.10546875 17.668125 2.10546875 17.008125 2.10546875 16.328125 C1.44546875 16.328125 0.78546875 16.328125 0.10546875 16.328125 C0.10546875 15.338125 0.10546875 14.348125 0.10546875 13.328125 C-0.55453125 13.328125 -1.21453125 13.328125 -1.89453125 13.328125 C-1.89453125 15.308125 -1.89453125 17.288125 -1.89453125 19.328125 C-3.54453125 19.328125 -5.19453125 19.328125 -6.89453125 19.328125 C-6.92137112 16.34889907 -6.94129162 13.36991205 -6.95703125 10.390625 C-6.96541016 9.54048828 -6.97378906 8.69035156 -6.98242188 7.81445312 C-6.98564453 7.00556641 -6.98886719 6.19667969 -6.9921875 5.36328125 C-6.99742432 4.6144165 -7.00266113 3.86555176 -7.00805664 3.09399414 C-6.74649096 -0.97461777 -3.34855665 0.12564941 0 0 Z " fill="#E0E0E0" transform="translate(470.89453125,101.671875)"/>
<path d="M0 0 C2.4375 1.3125 2.4375 1.3125 4 3 C4 3.99 4 4.98 4 6 C2.68 6 1.36 6 0 6 C0 5.34 0 4.68 0 4 C-4.34184202 4.18464366 -4.34184202 4.18464366 -8 6 C-8.23075082 7.34747084 -8.41153063 8.70377565 -8.5625 10.0625 C-8.706875 11.361875 -8.85125 12.66125 -9 14 C-6.03 14 -3.06 14 0 14 C0.33 13.01 0.66 12.02 1 11 C-0.98 11 -2.96 11 -5 11 C-5 10.34 -5 9.68 -5 9 C-1.7 9 1.6 9 5 9 C5.36627907 14.49418605 5.36627907 14.49418605 3.6875 16.8125 C-0.01299667 19.41655321 -3.62434792 19.45265366 -8 19 C-11.07858499 16.96944394 -12.645391 15.4855968 -13.515625 11.83984375 C-13.84949668 7.29463616 -13.43292832 5.51740214 -10.4375 1.9375 C-6.48976751 -0.28758559 -4.45830957 -0.66049031 0 0 Z " fill="#DDDDDD" transform="translate(309,102)"/>
<path d="M0 0 C4.93297869 1.23324467 6.03373926 2.99153955 9 7 C9.33 7.99 9.66 8.98 10 10 C10.66 10.33 11.32 10.66 12 11 C12 7.37 12 3.74 12 0 C12.99 0 13.98 0 15 0 C15 6.27 15 12.54 15 19 C11 18 11 18 9.515625 16.22265625 C9.09796875 15.50980469 8.6803125 14.79695313 8.25 14.0625 C7.82203125 13.35222656 7.3940625 12.64195313 6.953125 11.91015625 C6 10 6 10 6 8 C5.34 8 4.68 8 4 8 C4 11.63 4 15.26 4 19 C2.68 19 1.36 19 0 19 C0 12.73 0 6.46 0 0 Z " fill="#DEDEDE" transform="translate(410,102)"/>
<path d="M0 0 C9.9 0 19.8 0 30 0 C30 1.98 30 3.96 30 6 C20.1 6 10.2 6 0 6 C0 4.02 0 2.04 0 0 Z " fill="#C3C5C9" transform="translate(76,102)"/>
<path d="M0 0 C1.65 0 3.3 0 5 0 C5.50559908 1.43554025 6.0042749 2.8735202 6.5 4.3125 C6.7784375 5.11300781 7.056875 5.91351563 7.34375 6.73828125 C8 9 8 9 8 12 C8.66 12 9.32 12 10 12 C10 13.98 10 15.96 10 18 C9.01 18 8.02 18 7 18 C7 16.68 7 15.36 7 14 C4.36 14.33 1.72 14.66 -1 15 C-1.33 15.99 -1.66 16.98 -2 18 C-2.99 18 -3.98 18 -5 18 C-4.56699236 11.18012971 -3.09212176 6.08356979 0 0 Z " fill="#DDDDDD" transform="translate(239,103)"/>
<path d="M0 0 C1.32 0.66 2.64 1.32 4 2 C4 10.58 4 19.16 4 28 C2.35 28 0.7 28 -1 28 C-3.58955157 25.41044843 -2.18558792 18.04822397 -2.1875 14.5625 C-2.19974609 13.39138672 -2.21199219 12.22027344 -2.22460938 11.01367188 C-2.22654297 9.89669922 -2.22847656 8.77972656 -2.23046875 7.62890625 C-2.23457764 6.59838135 -2.23868652 5.56785645 -2.24291992 4.50610352 C-2 2 -2 2 0 0 Z " fill="#565D66" transform="translate(56,91)"/>
<path d="M0 0 C0.99 0 1.98 0 3 0 C3.66 4.95 4.32 9.9 5 15 C7.97 15.495 7.97 15.495 11 16 C11 11.05 11 6.1 11 1 C12.32 1 13.64 1 15 1 C15.05418326 3.08304538 15.09287551 5.16649768 15.125 7.25 C15.14820313 8.41015625 15.17140625 9.5703125 15.1953125 10.765625 C15.00925052 13.84681133 14.71695953 15.4785909 13 18 C9.94306678 19.52846661 7.37015453 19.23242445 4 19 C1.7890625 17.99609375 1.7890625 17.99609375 0 16 C-0.29561076 13.12961948 -0.37943016 10.66245255 -0.25 7.8125 C-0.23195312 7.06291016 -0.21390625 6.31332031 -0.1953125 5.54101562 C-0.14824109 3.6934629 -0.07649766 1.84656841 0 0 Z " fill="#DEDEDE" transform="translate(148,102)"/>
<path d="M0 0 C5.23274388 -0.02467917 10.46545403 -0.04285003 15.69824219 -0.05493164 C17.47917267 -0.05996711 19.260099 -0.06679581 21.04101562 -0.07543945 C23.59766665 -0.08753942 26.15426312 -0.09323609 28.7109375 -0.09765625 C29.50994476 -0.10281754 30.30895203 -0.10797882 31.13217163 -0.11329651 C36.77225659 -0.11387171 36.77225659 -0.11387171 39 1 C39 7.93 39 14.86 39 22 C37.68 21.67 36.36 21.34 35 21 C34.80083984 19.41058594 34.80083984 19.41058594 34.59765625 17.7890625 C34.41946125 16.40101721 34.2410654 15.01299769 34.0625 13.625 C33.93198242 12.57699219 33.93198242 12.57699219 33.79882812 11.5078125 C33.33681872 7.63216425 33.33681872 7.63216425 32 4 C32.33 3.01 32.66 2.02 33 1 C22.11 1 11.22 1 0 1 C0 0.67 0 0.34 0 0 Z " fill="#B09443" transform="translate(33,21)"/>
<path d="M0 0 C2 2 2 2 2 5 C1.484375 4.835 0.96875 4.67 0.4375 4.5 C-2.75195119 3.8457536 -5.75385905 3.87750412 -9 4 C-10.49743119 5.49743119 -10.33202693 6.98824239 -10.5625 9.0625 C-10.706875 10.361875 -10.85125 11.66125 -11 13 C-7.04 13.33 -3.08 13.66 1 14 C-2 18 -2 18 -5.3125 18.5625 C-10.07618421 17.83583631 -11.90722677 16.69624118 -15 13 C-15.7909742 9.82480356 -15.76492946 7.17831156 -15 4 C-11.33070065 -1.01470911 -5.75217866 -0.87555286 0 0 Z " fill="#DDDDDD" transform="translate(386,103)"/>
<path d="M0 0 C1.32 0 2.64 0 4 0 C4 8.25 4 16.5 4 25 C2.35 25 0.7 25 -1 25 C-1.02886984 21.02084841 -1.04675406 17.04172347 -1.0625 13.0625 C-1.07087891 11.92619141 -1.07925781 10.78988281 -1.08789062 9.61914062 C-1.09111328 8.53955078 -1.09433594 7.45996094 -1.09765625 6.34765625 C-1.10289307 5.34742432 -1.10812988 4.34719238 -1.11352539 3.31665039 C-1 1 -1 1 0 0 Z " fill="#5C636D" transform="translate(123,93)"/>
<path d="M0 0 C3.3 0 6.6 0 10 0 C10 0.99 10 1.98 10 3 C7.69 3 5.38 3 3 3 C3 4.65 3 6.3 3 8 C5.31 8 7.62 8 10 8 C10 8.99 10 9.98 10 11 C7.69 11 5.38 11 3 11 C3 12.65 3 14.3 3 16 C5.31 16 7.62 16 10 16 C10 16.99 10 17.98 10 19 C6.7 19 3.4 19 0 19 C0 12.73 0 6.46 0 0 Z " fill="#DFDFDF" transform="translate(394,102)"/>
<path d="M0 0 C3 1 3 1 4.1875 2.875 C5 5 5 5 5 8 C5.99 7.67 6.98 7.34 8 7 C9.22969878 3.48809191 9.22969878 3.48809191 10 0 C10.99 0 11.98 0 13 0 C13.125 2.375 13.125 2.375 13 5 C12.34 5.66 11.68 6.32 11 7 C10.3162387 9.88717605 10.3162387 9.88717605 9.875 13.125 C9.62363281 14.76855469 9.62363281 14.76855469 9.3671875 16.4453125 C9.18542969 17.70988281 9.18542969 17.70988281 9 19 C7.35 19 5.7 19 4 19 C3.52040222 16.77092605 3.0413392 14.54173703 2.5625 12.3125 C2.16224609 10.45044922 2.16224609 10.45044922 1.75390625 8.55078125 C1.14944864 5.70387985 0.56235316 2.85544374 0 0 Z " fill="#E1E1E1" transform="translate(319,102)"/>
<path d="M0 0 C3.3 0 6.6 0 10 0 C10 0.66 10 1.32 10 2 C7.69 2 5.38 2 3 2 C3 3.65 3 5.3 3 7 C5.31 7 7.62 7 10 7 C10 7.99 10 8.98 10 10 C7.69 10 5.38 10 3 10 C3 11.65 3 13.3 3 15 C5.64 15 8.28 15 11 15 C11 15.99 11 16.98 11 18 C7.37 18 3.74 18 0 18 C0 12.06 0 6.12 0 0 Z " fill="#DFDFDF" transform="translate(448,103)"/>
<path d="M0 0 C3.3 0 6.6 0 10 0 C10 0.66 10 1.32 10 2 C7.69 2 5.38 2 3 2 C3 3.65 3 5.3 3 7 C5.31 7 7.62 7 10 7 C10 7.99 10 8.98 10 10 C7.69 10 5.38 10 3 10 C3 11.65 3 13.3 3 15 C5.64 15 8.28 15 11 15 C11 15.99 11 16.98 11 18 C7.37 18 3.74 18 0 18 C0 12.06 0 6.12 0 0 Z " fill="#DFDFDF" transform="translate(271,103)"/>
<path d="M0 0 C6.8359375 -0.1953125 6.8359375 -0.1953125 9 0 C11 2 11 2 11.25 5 C11 8 11 8 9 10 C5.98173347 10.27240673 3.03629378 10.08675125 0 10 C0 6.7 0 3.4 0 0 Z " fill="#E6E6E6" transform="translate(366,53)"/>
<path d="M0 0 C2.97 0.495 2.97 0.495 6 1 C6 14.86 6 28.72 6 43 C5.67 43 5.34 43 5 43 C5 29.47 5 15.94 5 2 C3.68 2.33 2.36 2.66 1 3 C0.67 16.2 0.34 29.4 0 43 C-0.33 43 -0.66 43 -1 43 C-1.02464574 37.03686834 -1.042834 31.07376605 -1.05493164 25.1105957 C-1.05997278 23.08031702 -1.06680557 21.05004198 -1.07543945 19.01977539 C-1.08751467 16.10822653 -1.09323034 13.1967255 -1.09765625 10.28515625 C-1.10281754 9.3716188 -1.10797882 8.45808136 -1.11329651 7.51686096 C-1.11349168 5.34424573 -1.06211805 3.17172704 -1 1 C-0.67 0.67 -0.34 0.34 0 0 Z " fill="#36393E" transform="translate(66,83)"/>
<path d="M0 0 C2.97 0.495 2.97 0.495 6 1 C6 14.86 6 28.72 6 43 C5.67 43 5.34 43 5 43 C5 29.47 5 15.94 5 2 C3.68 2.33 2.36 2.66 1 3 C0.67 16.2 0.34 29.4 0 43 C-0.33 43 -0.66 43 -1 43 C-1.02464574 37.03686834 -1.042834 31.07376605 -1.05493164 25.1105957 C-1.05997278 23.08031702 -1.06680557 21.05004198 -1.07543945 19.01977539 C-1.08751467 16.10822653 -1.09323034 13.1967255 -1.09765625 10.28515625 C-1.10281754 9.3716188 -1.10797882 8.45808136 -1.11329651 7.51686096 C-1.11349168 5.34424573 -1.06211805 3.17172704 -1 1 C-0.67 0.67 -0.34 0.34 0 0 Z " fill="#3A3D43" transform="translate(111,83)"/>
<path d="M0 0 C1.32 0 2.64 0 4 0 C4 5.94 4 11.88 4 18 C2.68 18 1.36 18 0 18 C0 15.69 0 13.38 0 11 C-0.99 11 -1.98 11 -3 11 C-2.69217504 9.35328588 -2.37860766 7.70764424 -2.0625 6.0625 C-1.88847656 5.14597656 -1.71445313 4.22945313 -1.53515625 3.28515625 C-1 1 -1 1 0 0 Z " fill="#DADADA" transform="translate(224,103)"/>
<path d="M0 0 C4.29 0 8.58 0 13 0 C13 0.66 13 1.32 13 2 C11.68 2 10.36 2 9 2 C9 7.28 9 12.56 9 18 C7.68 18 6.36 18 5 18 C5 12.72 5 7.44 5 2 C3.35 2 1.7 2 0 2 C0 1.34 0 0.68 0 0 Z " fill="#DEDEDE" transform="translate(181,103)"/>
<path d="M0 0 C3.96 0 7.92 0 12 0 C12 0.66 12 1.32 12 2 C10.68 2 9.36 2 8 2 C8 7.28 8 12.56 8 18 C6.68 18 5.36 18 4 18 C4 12.72 4 7.44 4 2 C2.68 2 1.36 2 0 2 C0 1.34 0 0.68 0 0 Z " fill="#E0E0E0" transform="translate(431,103)"/>
<path d="M0 0 C3.96 0 7.92 0 12 0 C12 0.66 12 1.32 12 2 C10.68 2 9.36 2 8 2 C8 7.28 8 12.56 8 18 C6.68 18 5.36 18 4 18 C4 12.72 4 7.44 4 2 C2.68 2 1.36 2 0 2 C0 1.34 0 0.68 0 0 Z " fill="#E0E0E0" transform="translate(254,103)"/>
<path d="M0 0 C0.99 0 1.98 0 3 0 C3 5.28 3 10.56 3 16 C4.98 16 6.96 16 9 16 C9 16.99 9 17.98 9 19 C6.03 19 3.06 19 0 19 C0 12.73 0 6.46 0 0 Z " fill="#DFDFDF" transform="translate(168,102)"/>
<path d="M0 0 C1.65 0 3.3 0 5 0 C5.33 1.65 5.66 3.3 6 5 C5.34 5 4.68 5 4 5 C4.33 7.31 4.66 9.62 5 12 C3.35 12 1.7 12 0 12 C-0.33 10.35 -0.66 8.7 -1 7 C-1.66 7.66 -2.32 8.32 -3 9 C-2.44271087 5.65626525 -1.64826111 2.96687001 0 0 Z " fill="#DDDDDD" transform="translate(239,103)"/>
<path d="M0 0 C2.97 0.495 2.97 0.495 6 1 C6 9.58 6 18.16 6 27 C5.67 27 5.34 27 5 27 C5 18.75 5 10.5 5 2 C3.68 2.33 2.36 2.66 1 3 C0.67 10.92 0.34 18.84 0 27 C0.99 27.33 1.98 27.66 3 28 C1.68 28 0.36 28 -1 28 C-1.02886338 23.52084672 -1.04675187 19.04171709 -1.0625 14.5625 C-1.07087891 13.28310547 -1.07925781 12.00371094 -1.08789062 10.68554688 C-1.09111328 9.47060547 -1.09433594 8.25566406 -1.09765625 7.00390625 C-1.10289307 5.87799072 -1.10812988 4.7520752 -1.11352539 3.59204102 C-1 1 -1 1 0 0 Z " fill="#383B40" transform="translate(122,91)"/>
<path d="M0 0 C0.99 0 1.98 0 3 0 C3 6.27 3 12.54 3 19 C2.01 19 1.02 19 0 19 C0 12.73 0 6.46 0 0 Z " fill="#DFDFDF" transform="translate(199,102)"/>
<path d="M0 0 C0.99 0 1.98 0 3 0 C3.66 3.3 4.32 6.6 5 10 C2.36 10 -0.28 10 -3 10 C-2.01 6.7 -1.02 3.4 0 0 Z " fill="#CDCDCD" transform="translate(269,55)"/>
<path d="M0 0 C1.98 0 3.96 0 6 0 C6 1.98 6 3.96 6 6 C4.02 6 2.04 6 0 6 C0 4.02 0 2.04 0 0 Z " fill="#F7F7F7" transform="translate(468,105)"/>
<path d="M0 0 C1.65 0 3.3 0 5 0 C5 1.98 5 3.96 5 6 C3.35 6 1.7 6 0 6 C0 4.02 0 2.04 0 0 Z " fill="#9A9C9D" transform="translate(45,102)"/>
<path d="M0 0 C1.65 0 3.3 0 5 0 C5 1.98 5 3.96 5 6 C3.35 6 1.7 6 0 6 C0 4.02 0 2.04 0 0 Z " fill="#989A9C" transform="translate(132,102)"/>
<path d="M0 0 C-1.55603771 3.81936528 -3.95604931 6.26044438 -7 9 C-7.66 9 -8.32 9 -9 9 C-7.45665977 5.21180126 -4.44676575 0 0 0 Z " fill="#C54754" transform="translate(30,52)"/>
<path d="M0 0 C0.66 0 1.32 0 2 0 C2.33 1.98 2.66 3.96 3 6 C1.35 6 -0.3 6 -2 6 C-1.34 4.02 -0.68 2.04 0 0 Z " fill="#F4F4F4" transform="translate(241,109)"/>
<path d="M0 0 C1.98 0 3.96 0 6 0 C6 0.66 6 1.32 6 2 C5.01 2.495 5.01 2.495 4 3 C3.01 4.485 3.01 4.485 2 6 C1.67 5.01 1.34 4.02 1 3 C0.34 3.66 -0.32 4.32 -1 5 C-0.67 3.35 -0.34 1.7 0 0 Z " fill="#E7E7E7" transform="translate(237,107)"/>
<path d="M0 0 C1.67542976 0.28604898 3.34385343 0.61781233 5 1 C4.03320312 1.35191406 4.03320312 1.35191406 3.046875 1.7109375 C0.7922092 2.81161073 0.7922092 2.81161073 0.390625 5.1640625 C0.34421875 5.97617188 0.2978125 6.78828125 0.25 7.625 C0.19328125 8.44226563 0.1365625 9.25953125 0.078125 10.1015625 C0.05234375 10.72804688 0.0265625 11.35453125 0 12 C-0.33 12 -0.66 12 -1 12 C-1.02687279 10.18757948 -1.04633715 8.37504767 -1.0625 6.5625 C-1.07410156 5.55316406 -1.08570312 4.54382813 -1.09765625 3.50390625 C-1 1 -1 1 0 0 Z " fill="#44494F" transform="translate(66,83)"/>
<path d="M0 0 C0.33 0.66 0.66 1.32 1 2 C-0.61594832 4.04119788 -2.2856382 6.04072937 -4 8 C-4.66 8 -5.32 8 -6 8 C-4.55746343 4.63408134 -2.66735273 2.48952921 0 0 Z " fill="#484747" transform="translate(23,49)"/>
</svg>
