<?xml version="1.0" encoding="UTF-8"?>
<svg version="1.1" xmlns="http://www.w3.org/2000/svg" width="165" height="53">
<path d="M0 0 C356.4 0 712.8 0 1080 0 C1080 356.4 1080 712.8 1080 1080 C723.6 1080 367.2 1080 0 1080 C0 723.6 0 367.2 0 0 Z " fill="#FEFEFE" transform="translate(0,0)"/>
<path d="M0 0 C0.33872513 1.41538717 0.67074624 2.83237963 1 4.25 C1.185625 5.03890625 1.37125 5.8278125 1.5625 6.640625 C2 9 2 9 2 13 C0.96875 13.33 -0.0625 13.66 -1.125 14 C-6.42388495 16.22940891 -9.49030875 20.98061749 -12 26 C-12.66 26 -13.32 26 -14 26 C-14.66 28.97 -15.32 31.94 -16 35 C-15.57589844 34.29875 -15.15179688 33.5975 -14.71484375 32.875 C-6.3497254 19.34373164 -6.3497254 19.34373164 -2 16 C0.7109375 15.79296875 0.7109375 15.79296875 3 16 C3 17.65 3 19.3 3 21 C2.071875 21.0825 1.14375 21.165 0.1875 21.25 C-3.02994485 21.71193894 -3.02994485 21.71193894 -4.8125 23.8125 C-5.94781962 25.90387824 -6.58322069 27.66603586 -7 30 C-7.66 30 -8.32 30 -9 30 C-9.15855469 30.61746094 -9.31710938 31.23492187 -9.48046875 31.87109375 C-11.2082881 38.14279163 -13.45489074 43.53971676 -17 49 C-17.40734375 49.6290625 -17.8146875 50.258125 -18.234375 50.90625 C-23.02759173 57.33479949 -30.54756179 60.51585393 -38 63 C-39.64371491 63.09329934 -41.29114677 63.12995144 -42.9375 63.125 C-44.21947266 63.12886719 -44.21947266 63.12886719 -45.52734375 63.1328125 C-47.82680852 63.00930254 -49.79640348 62.64420687 -52 62 C-51.67 62.66 -51.34 63.32 -51 64 C-44.10225415 66.29924862 -35.33694749 66.25652814 -28.53515625 63.6953125 C-23.98684891 61.24460116 -23.98684891 61.24460116 -20 58 C-14.23308318 57.2791354 -10.0266282 59.49785619 -5 62 C-5 62.66 -5 63.32 -5 64 C-4.24976563 64.24621094 -3.49953125 64.49242187 -2.7265625 64.74609375 C2.52632199 67.16181856 5.79434531 72.30525601 8.11328125 77.48828125 C9.26002268 80.80894008 10 83.46923234 10 87 C10.66 87 11.32 87 12 87 C12.33 88.65 12.66 90.3 13 92 C13 87.05 13 82.1 13 77 C20.75 78.875 20.75 78.875 23 80 C23 80.66 23 81.32 23 82 C23.73734375 82.226875 24.4746875 82.45375 25.234375 82.6875 C28.58162047 84.27602327 30.01597072 86.06677072 32.25 89 C32.93578125 89.886875 33.6215625 90.77375 34.328125 91.6875 C36 94 36 94 37 96 C37.33 95.34 37.66 94.68 38 94 C44.97288016 95.14101675 50.05271613 97.8686815 55 103 C55.75390625 105.2265625 55.75390625 105.2265625 56 107 C56.66 107 57.32 107 58 107 C62.91872792 119.14310954 62.91872792 119.14310954 62 125 C58.77632753 130.87168914 55.34638718 134.79575554 49 137 C41.13976488 138.47677145 33.46393685 138.78908456 26.51171875 134.4453125 C22.72985164 131.63454683 19.85808615 129.41660269 18 125 C18.72760266 130.0932186 20.07059064 132.50213614 24.0625 135.8125 C31.45787291 141.01492321 38.39407905 141.16492676 47.1875 141.3125 C48.3465686 141.33944946 48.3465686 141.33944946 49.52905273 141.36694336 C54.35225628 141.35914135 58.00140667 140.97922507 62 138 C64.59338685 132.25107596 64.36667261 126.16222395 64.375 119.9375 C64.39949219 118.97005859 64.42398438 118.00261719 64.44921875 117.00585938 C64.47324947 111.1543801 64.05641384 107.54598102 60 103 C52.75260834 96.68078306 43.89176522 92.4780179 35 89 C36 86 36 86 37.9375 84.875 C42.24068233 83.64551933 46.54811358 83.32848871 51 83 C51.15855469 83.77085937 51.31710938 84.54171875 51.48046875 85.3359375 C51.71378906 86.33882812 51.94710937 87.34171875 52.1875 88.375 C52.40792969 89.37273437 52.62835938 90.37046875 52.85546875 91.3984375 C53.7767034 94.23122363 53.7767034 94.23122363 56.61328125 95.3515625 C57.40089844 95.56554687 58.18851563 95.77953125 59 96 C58.67 95.401875 58.34 94.80375 58 94.1875 C57 92 57 92 57 89 C56.01 88.67 55.02 88.34 54 88 C53.26953125 86.07421875 53.26953125 86.07421875 52.8125 83.6875 C52.65394531 82.90761719 52.49539063 82.12773438 52.33203125 81.32421875 C52 79 52 79 52 75 C51.01 75 50.02 75 49 75 C47.86235649 70.73383684 47 67.43513689 47 63 C50 63 50 63 51.6875 64.5 C52.120625 64.995 52.55375 65.49 53 66 C53 63.36 53 60.72 53 58 C51.515 58.495 51.515 58.495 50 59 C48.77731899 48.65815644 48.77731899 48.65815644 51.7109375 44.6796875 C56.817897 40.27332173 59.8503557 38.87108192 66.625 38.9375 C67.81351563 38.94652344 69.00203125 38.95554687 70.2265625 38.96484375 C71.14179688 38.97644531 72.05703125 38.98804688 73 39 C73 39.66 73 40.32 73 41 C73.70125 41.103125 74.4025 41.20625 75.125 41.3125 C79.29091304 42.3086966 82.67398296 43.80658467 85.875 46.6875 C87.61957104 50.2735627 87.31553775 53.0242244 87 57 C86.34 57.99 85.68 58.98 85 60 C84.34 60 83.68 60 83 60 C83 61.65 83 63.3 83 65 C83.99 64.01 83.99 64.01 85 63 C85.99 63 86.98 63 88 63 C87.93999894 64.6260287 87.8512115 66.25101549 87.75 67.875 C87.70359375 68.77992188 87.6571875 69.68484375 87.609375 70.6171875 C87 73 87 73 84.953125 74.3203125 C84.30859375 74.54460937 83.6640625 74.76890625 83 75 C83.185625 76.60875 83.185625 76.60875 83.375 78.25 C83.44257933 84.51235116 79.97834622 89.68152462 77 95 C80.8860348 93.14769614 80.8860348 93.14769614 82.92578125 89.51953125 C83.11720703 88.17955078 83.11720703 88.17955078 83.3125 86.8125 C83.45300781 85.91144531 83.59351563 85.01039063 83.73828125 84.08203125 C83.86783203 83.05142578 83.86783203 83.05142578 84 82 C85.89772191 82.25726693 87.79315677 82.53143339 89.6875 82.8125 C90.74324219 82.96332031 91.79898438 83.11414063 92.88671875 83.26953125 C96.10193753 84.02391759 98.28100323 85.15874987 101 87 C100.67 87.99 100.34 88.98 100 90 C97.8203125 90.94921875 97.8203125 90.94921875 95.125 91.6875 C94.24070312 91.93886719 93.35640625 92.19023438 92.4453125 92.44921875 C90 93 90 93 87 93 C87 93.66 87 94.32 87 95 C85.4609375 96.11328125 85.4609375 96.11328125 83.375 97.3125 C77.47488599 100.88389644 72.24646396 104.13580456 70 111 C69.07771616 121.11584337 69.81788437 130.75717916 76 139 C76 139.66 76 140.32 76 141 C79.45803731 141.11795981 82.91554557 141.18782752 86.375 141.25 C87.82326172 141.30027344 87.82326172 141.30027344 89.30078125 141.3515625 C96.3719584 141.44647763 101.65073649 140.06549909 108 137 C108.94875 136.566875 109.8975 136.13375 110.875 135.6875 C113.94216771 133.251808 115.2275315 130.47929001 117 127 C116.67 126.67 116.34 126.34 116 126 C115.64808594 126.45890625 115.29617188 126.9178125 114.93359375 127.390625 C110.53232493 132.86060923 106.06995257 136.57254291 99 138 C92.60569039 138.6357631 86.79795781 137.84257854 81 135 C78.125 132.5625 78.125 132.5625 76 130 C75.46503906 129.41605469 74.93007813 128.83210937 74.37890625 128.23046875 C72.54746217 125.26799121 72.69992789 123.20221147 72.8125 119.75 C72.85310547 118.13351562 72.85310547 118.13351562 72.89453125 116.484375 C72.92933594 115.66453125 72.96414063 114.8446875 73 114 C73.66 114 74.32 114 75 114 C75.165 113.030625 75.33 112.06125 75.5 111.0625 C77.26351566 104.95229081 81.97507403 100.04209803 87.1640625 96.5390625 C90.81666073 94.61016231 92.74916312 94 97 94 C97.33 94.66 97.66 95.32 98 96 C98.37511719 95.48050781 98.75023437 94.96101562 99.13671875 94.42578125 C104.37831293 87.28295392 110.21735022 79.70235378 119 77 C120.32 77 121.64 77 123 77 C122.835 77.7425 122.67 78.485 122.5 79.25 C121.79945413 84.50409401 121.92292501 89.70751749 122 95 C122.13535156 94.04480469 122.27070313 93.08960938 122.41015625 92.10546875 C124.50908504 79.4993276 128.98050805 71.07468525 138.7890625 62.55859375 C143.94409505 58.92456904 148.84538808 58.25496803 155 59 C158.5625 60.5 158.5625 60.5 161 62 C161 62.66 161 63.32 161 64 C165.57099957 64.89017921 169.90846438 65.1343926 174.5625 65.125 C175.84253906 65.12757813 177.12257813 65.13015625 178.44140625 65.1328125 C181.44307844 65.02078522 184.09086189 64.70355355 187 64 C187 63.34 187 62.68 187 62 C185.515 62.495 185.515 62.495 184 63 C175.297446 64.02481813 165.83358355 62.42214561 158.60546875 57.3046875 C152.10519495 51.16484953 147.76634017 43.53018423 144.83203125 35.15625 C143.75931283 32.37624735 142.51746466 29.72930252 141.1875 27.0625 C140.72730469 26.12535156 140.26710938 25.18820312 139.79296875 24.22265625 C138.11566308 21.68937912 138.11566308 21.68937912 134.80078125 21.18359375 C133.87652344 21.12300781 132.95226562 21.06242187 132 21 C132 19.35 132 17.7 132 16 C136.46482837 16.5102661 138.68422984 18.01833798 142 21 C143.984375 23.69140625 143.984375 23.69140625 145.75 26.5625 C146.34296875 27.51253906 146.9359375 28.46257812 147.546875 29.44140625 C149 32 149 32 150 35 C150.66 35.33 151.32 35.66 152 36 C151.67 33.69 151.34 31.38 151 29 C150.34 29 149.68 29 149 29 C148.56300781 28.11248047 148.56300781 28.11248047 148.1171875 27.20703125 C144.66282164 20.5481436 141.11577195 16.0105189 134 13 C133.80705592 8.17639811 134.24252386 4.50353262 136 0 C140.23429756 1.31061591 144.07407404 2.94356259 148 5 C148 5.66 148 6.32 148 7 C148.7115625 7.22042969 149.423125 7.44085938 150.15625 7.66796875 C153.62035554 9.29057862 155.9082073 11.57913879 158.5 14.3125 C159.87671875 15.72982422 159.87671875 15.72982422 161.28125 17.17578125 C163.02045537 18.98245579 164.75291341 20.7956656 166.4765625 22.6171875 C169.11737187 25.11083102 171.78768793 26.90798931 174.875 28.8125 C180.38930841 32.40937934 186.67570598 36.62140937 188.67578125 43.234375 C188.83626953 44.10835938 188.83626953 44.10835938 189 45 C189.66 45 190.32 45 191 45 C193.09570426 50.69398894 194.45018084 55.95198929 195 62 C196.62849969 57.64409432 197.34118446 53.76065388 197.625 49.125 C197.69976562 47.97257812 197.77453125 46.82015625 197.8515625 45.6328125 C197.90054687 44.76398438 197.94953125 43.89515625 198 43 C206.77659574 50.0212766 206.77659574 50.0212766 207.4375 55.875 C207.18943591 61.27287455 204.42435753 64.29835976 201.09375 68.27734375 C196.46584674 73.79983124 196.46584674 73.79983124 193.125 80.125 C188.60309806 91.28035281 182.18873014 101.42174752 172 108 C171.2059375 108.66128906 170.411875 109.32257813 169.59375 110.00390625 C162.44720349 115.50373346 153.90397472 117.78331035 145 118 C144.7641604 112.22192976 145.13216954 107.48675196 147 102 C146.18357746 103.26831693 145.37200895 104.53975931 144.5625 105.8125 C144.11003906 106.52019531 143.65757812 107.22789062 143.19140625 107.95703125 C141.05150452 111.62643651 140.90318688 114.72786626 140.81054688 118.90454102 C140.59801932 127.13741294 140.24539878 140.75460122 134 147 C131.13732433 147.07325168 128.299281 147.09238205 125.4375 147.0625 C124.63119141 147.05798828 123.82488281 147.05347656 122.99414062 147.04882812 C120.99606244 147.03700518 118.99802217 147.01906914 117 147 C117 144.69 117 142.38 117 140 C116.56429687 140.5775 116.12859375 141.155 115.6796875 141.75 C110.76953908 147.87174349 110.76953908 147.87174349 106.625 148.5625 C104 148 104 148 103 147 C101.33570949 146.90176063 99.66718069 146.87026369 98 146.875 C97.0925 146.87242187 96.185 146.86984375 95.25 146.8671875 C93.03033389 146.74826221 93.03033389 146.74826221 92 148 C90.44530745 148.09846461 88.886176 148.12798613 87.32836914 148.12939453 C86.33386246 148.13254669 85.33935577 148.13569885 84.31471252 148.13894653 C83.23245895 148.1369223 82.15020538 148.13489807 81.03515625 148.1328125 C79.37969032 148.13424759 79.37969032 148.13424759 77.69078064 148.13571167 C75.35122623 148.13639372 73.01166994 148.1345377 70.67211914 148.13037109 C67.08149986 148.12502827 63.49100596 148.13031266 59.90039062 148.13671875 C57.63281222 148.13605787 55.3652339 148.13477651 53.09765625 148.1328125 C52.01742691 148.13483673 50.93719757 148.13686096 49.82423401 148.13894653 C48.82657516 148.13579437 47.82891632 148.13264221 46.80102539 148.12939453 C45.92023819 148.12859894 45.03945099 148.12780334 44.13197327 148.12698364 C42 148 42 148 40 147 C38.865625 147 37.73125 147 36.5625 147 C33 147 33 147 30 146 C30 145.34 30 144.68 30 144 C29.01 144 28.02 144 27 144 C27.33 144.99 27.66 145.98 28 147 C25.29068581 146.84518205 23.53415961 146.51827919 21.5546875 144.59765625 C20.32320358 143.10228292 19.1570163 141.5537076 18 140 C18 142.31 18 144.62 18 147 C12.39 147 6.78 147 1 147 C0.505 144.525 0.505 144.525 0 142 C-0.66 142 -1.32 142 -2 142 C-5.5618869 131.17992847 -5.71275105 120.29316882 -6 109 C-6.66 109 -7.32 109 -8 109 C-8.66 107.02 -9.32 105.04 -10 103 C-10.66 103 -11.32 103 -12 103 C-11.505 104.175625 -11.01 105.35125 -10.5 106.5625 C-8.97000653 110.59220111 -8.73258645 113.72138314 -9 118 C-11.64 118 -14.28 118 -17 118 C-17 117.34 -17 116.68 -17 116 C-17.90878906 115.87044922 -17.90878906 115.87044922 -18.8359375 115.73828125 C-31.86144205 113.55400433 -41.44391919 106.92912724 -49.77026367 96.76489258 C-52.12674416 93.38291968 -53.61648656 89.58030656 -55.25 85.8125 C-58.90370421 77.72708117 -62.9836469 71.55701964 -69 65 C-72.95801071 60.42829077 -72.95801071 60.42829077 -73.3125 56.8125 C-73 54 -73 54 -72 52 C-71.34 52 -70.68 52 -70 52 C-69.6596875 50.948125 -69.6596875 50.948125 -69.3125 49.875 C-67.68343133 46.30656387 -65.59359269 43.93485489 -63 41 C-61.97844189 44.34400663 -61.92842721 47.32779971 -62 50.8125 C-62.04440011 55.34686163 -61.81013594 59.54425231 -61 64 C-60.34 64 -59.68 64 -59 64 C-59.04640625 63.40574219 -59.0928125 62.81148437 -59.140625 62.19921875 C-59.52867986 53.287816 -57.52026575 45.5843514 -51.6875 38.6875 C-46.33908498 33.11197606 -40.62694455 28.64705543 -34.1484375 24.45703125 C-32.16613011 23.11266642 -30.37141935 21.69125944 -28.5625 20.125 C-26 18 -26 18 -24 18 C-23.773125 17.443125 -23.54625 16.88625 -23.3125 16.3125 C-19.035504 8.77684038 -8.93056088 0 0 0 Z " fill="#313131" transform="translate(204,450)"/>
<path d="M0 0 C3.41732254 6.98997792 5 14.20997279 5 22 C5.66 22 6.32 22 7 22 C7 17.38 7 12.76 7 8 C10.76687864 6.11656068 12.02958963 5.77942165 16 6 C16.33 8.64 16.66 11.28 17 14 C17.66 14 18.32 14 19 14 C19 14.99 19 15.98 19 17 C19.99 17 20.98 17 22 17 C22 16.01 22 15.02 22 14 C24.64 14 27.28 14 30 14 C30 15.98 30 17.96 30 20 C32.31 20 34.62 20 37 20 C38.62950412 24.12168689 39.26264601 26.70700357 38 31 C36.35 31 34.7 31 33 31 C33 33.64 33 36.28 33 39 C28.45804635 39.37849614 27.9855604 38.9891703 24 36 C24 39.96 24 43.92 24 48 C21.36 48.33 18.72 48.66 16 49 C14.68 45.7 13.36 42.4 12 39 C11.34 39 10.68 39 10 39 C10.2165625 39.90878906 10.2165625 39.90878906 10.4375 40.8359375 C11.80960489 47.0294665 12.18115509 52.65957181 12 59 C7.05 59.495 7.05 59.495 2 60 C-1.27369046 47.10773448 -4.47865322 34.21074884 -7.3503418 21.22216797 C-8.18514618 17.46857935 -9.04135873 13.75061187 -10.1328125 10.0625 C-10.94514181 7.19373343 -11.1792713 4.9579765 -11 2 C-7.17679443 0.57741188 -4.08718695 -0.24042276 0 0 Z " fill="#363636" transform="translate(212,428)"/>
<path d="M0 0 C1.64630328 0.14042877 3.29204179 0.28749329 4.9375 0.4375 C6.31228516 0.55931641 6.31228516 0.55931641 7.71484375 0.68359375 C10 1 10 1 11 2 C11.19517125 10.23901476 9.37779943 17.67649724 7.01586914 25.46459961 C4.68326974 33.46579244 3.49654332 41.60571821 2.34448242 49.84863281 C2.12175659 51.39309082 2.12175659 51.39309082 1.89453125 52.96875 C1.76925049 53.89107422 1.64396973 54.81339844 1.51489258 55.76367188 C1 58 1 58 -1 60 C-4.693507 60.20146402 -7.47940432 60.17353189 -11 59 C-11.26404456 52.13484138 -10.25841946 45.74153283 -9 39 C-9.99 39 -10.98 39 -12 39 C-12 39.66 -12 40.32 -12 41 C-12.66 41 -13.32 41 -14 41 C-13.979375 41.94875 -13.95875 42.8975 -13.9375 43.875 C-14 47 -14 47 -15 49 C-17.97 48.67 -20.94 48.34 -24 48 C-23.67 44.04 -23.34 40.08 -23 36 C-23.66 36 -24.32 36 -25 36 C-25.33 36.66 -25.66 37.32 -26 38 C-28.31 38 -30.62 38 -33 38 C-33 35.69 -33 33.38 -33 31 C-34.65 30.67 -36.3 30.34 -38 30 C-37.85950482 28.52031676 -37.71245174 27.04125484 -37.5625 25.5625 C-37.48128906 24.73878906 -37.40007812 23.91507812 -37.31640625 23.06640625 C-37 21 -37 21 -36 20 C-34.33382885 19.95936168 -32.66611905 19.957279 -31 20 C-30.01 18.02 -29.02 16.04 -28 14 C-25.69 14 -23.38 14 -21 14 C-21 14.99 -21 15.98 -21 17 C-20.01 17 -19.02 17 -18 17 C-17.34 13.7 -16.68 10.4 -16 7 C-11 6 -11 6 -7 7 C-7.33 11.29 -7.66 15.58 -8 20 C-7.34 20 -6.68 20 -6 20 C-6 20.66 -6 21.32 -6 22 C-5.34 22 -4.68 22 -4 22 C-3.81824219 20.49759766 -3.81824219 20.49759766 -3.6328125 18.96484375 C-3.46382849 17.6223597 -3.29454142 16.27991377 -3.125 14.9375 C-3.04636719 14.28072266 -2.96773438 13.62394531 -2.88671875 12.94726562 C-2.31282513 8.4664808 -1.33592224 4.31648825 0 0 Z " fill="#353535" transform="translate(330,428)"/>
<path d="M0 0 C0.33 2.64 0.66 5.28 1 8 C1.66 8 2.32 8 3 8 C3 8.99 3 9.98 3 11 C3.99 11 4.98 11 6 11 C6 10.01 6 9.02 6 8 C8.64 8 11.28 8 14 8 C14 9.98 14 11.96 14 14 C16.31 14 18.62 14 21 14 C22.62950412 18.12168689 23.26264601 20.70700357 22 25 C20.35 25 18.7 25 17 25 C17 27.64 17 30.28 17 33 C12.45804635 33.37849614 11.9855604 32.9891703 8 30 C8 33.96 8 37.92 8 42 C5.36 42.33 2.72 42.66 0 43 C-0.13575439 42.4016333 -0.27150879 41.8032666 -0.41137695 41.18676758 C-1.50291471 36.37670299 -2.59602477 31.56700332 -3.69140625 26.7578125 C-4.45596487 23.39990179 -5.21595989 20.04112708 -5.96484375 16.6796875 C-6.22394531 15.52726562 -6.48304688 14.37484375 -6.75 13.1875 C-6.97171875 12.19105469 -7.1934375 11.19460938 -7.421875 10.16796875 C-7.79630574 8.03668217 -7.79630574 8.03668217 -9 7 C-9.04063832 5.33382885 -9.042721 3.66611905 -9 2 C-5.86501708 0.14223235 -3.62528568 -0.20140476 0 0 Z " fill="#353535" transform="translate(228,434)"/>
<path d="M0 0 C1.64630328 0.14042877 3.29204179 0.28749329 4.9375 0.4375 C6.31228516 0.55931641 6.31228516 0.55931641 7.71484375 0.68359375 C10 1 10 1 11 2 C11.19517125 10.23901476 9.37779943 17.67649724 7.01586914 25.46459961 C4.68326974 33.46579244 3.49654332 41.60571821 2.34448242 49.84863281 C2.19599854 50.87827148 2.04751465 51.90791016 1.89453125 52.96875 C1.70661011 54.35223633 1.70661011 54.35223633 1.51489258 55.76367188 C1 58 1 58 -1 60 C-4.693507 60.20146402 -7.47940432 60.17353189 -11 59 C-11.48350422 51.10276444 -9.67664721 43.66467297 -8 36 C-7.34 36 -6.68 36 -6 36 C-5.96261719 35.41476562 -5.92523438 34.82953125 -5.88671875 34.2265625 C-5.41086161 28.0124281 -4.57415668 21.89557795 -3.5625 15.75 C-3.44028076 14.99412598 -3.31806152 14.23825195 -3.19213867 13.45947266 C-2.4151725 8.85825776 -1.3637324 4.46312422 0 0 Z " fill="#343434" transform="translate(330,428)"/>
<path d="M0 0 C0 0.66 0 1.32 0 2 C0.66 2.33 1.32 2.66 2 3 C-2.86401719 9.97880727 -10.01797775 14.39551979 -17.0625 18.9375 C-25.94906723 24.83546373 -32.21229009 30.45071881 -35 41 C-35.83195593 45.31756439 -36.47996348 49.63443025 -37 54 C-37.66 54 -38.32 54 -39 54 C-41.66912948 45.76568152 -43.40694007 35.37048503 -39.75 27.2109375 C-37.9880055 24.90239841 -36.12202182 22.98081519 -34 21 C-32.96939453 19.88431641 -32.96939453 19.88431641 -31.91796875 18.74609375 C-23.75460637 10.05321598 -12.65670542 0 0 0 Z " fill="#E4E4E4" transform="translate(182,460)"/>
<path d="M0 0 C2.33425788 0.3267961 4.66742506 0.66140041 7 1 C8.03125 1.0825 9.0625 1.165 10.125 1.25 C13.96340185 2.25132222 15.29431961 4.10555121 18 7 C19.3996076 8.12571179 20.81816402 9.22807656 22.25 10.3125 C39.5007824 23.60878411 39.5007824 23.60878411 43 32 C43.66375998 39.44240875 42.59383544 46.43734399 39 53 C38.67 53 38.34 53 38 53 C37.80083984 51.55367188 37.80083984 51.55367188 37.59765625 50.078125 C37.42105469 48.81484375 37.24445313 47.5515625 37.0625 46.25 C36.88847656 44.99703125 36.71445312 43.7440625 36.53515625 42.453125 C36.13950662 39.90017407 35.69553578 37.4813709 35 35 C34.34 35 33.68 35 33 35 C31.921875 33.42578125 31.921875 33.42578125 30.75 31.3125 C27.72754107 26.33894367 24.22300011 23.38530065 19.3359375 20.33984375 C11.14626649 15.18691122 5.19536444 9.31735957 -1 2 C-0.67 1.34 -0.34 0.68 0 0 Z " fill="#EEEEEE" transform="translate(360,460)"/>
<path d="M0 0 C10.30232141 4.02577391 21.69378489 8.72136638 27 19 C27.54848605 22.63905057 27.51371675 26.20184436 27.4375 29.875 C27.44458984 30.83019531 27.45167969 31.78539062 27.45898438 32.76953125 C27.40503381 38.82029415 26.85099751 43.61143389 24 49 C19.35709616 52.48733666 14.76431147 52.44216625 9.1875 52.3125 C8.38578369 52.29904541 7.58406738 52.28559082 6.75805664 52.27172852 C-3.62118819 52.00868201 -10.36757462 50.56934748 -18 43 C-20.125 39.75 -20.125 39.75 -21 37 C-20.67 36.01 -20.34 35.02 -20 34 C-19.505 35.051875 -19.505 35.051875 -19 36.125 C-15.44062066 41.24160781 -10.76005392 44.82396682 -4.6875 46.4375 C2.73703601 47.70698025 11.01862213 46.82225914 18 44 C19.3498008 42.21734114 19.3498008 42.21734114 20 40 C20.53625 39.236875 21.0725 38.47375 21.625 37.6875 C25.06884872 30.95634114 22.06196099 23.78728826 20 17 C19.34 17 18.68 17 18 17 C17.46375 16.113125 16.9275 15.22625 16.375 14.3125 C12.72349054 8.54911007 6.40231031 5.76063534 0 4 C-0.33 4.99 -0.66 5.98 -1 7 C-1.66 5.68 -2.32 4.36 -3 3 C-1.68 2.67 -0.36 2.34 1 2 C0.67 1.34 0.34 0.68 0 0 Z " fill="#F3F3F3" transform="translate(242,540)"/>
<path d="M0 0 C0.33 0.99 0.66 1.98 1 3 C0.01 3.495 0.01 3.495 -1 4 C-1 3.01 -1 2.02 -1 1 C-10.27385176 4.17214245 -16.4189978 7.43896772 -20.9375 16.375 C-21.64128662 17.90930009 -22.33468857 19.44862865 -23 21 C-23.66 21 -24.32 21 -25 21 C-24.88007675 30.52945235 -24.88007675 30.52945235 -20.45703125 38.66796875 C-15.0409756 43.61937619 -8.35412612 44.31976684 -1.3359375 44.21484375 C7.92084461 43.36346747 13.80217329 37.38011573 20 31 C19.68901503 35.35378951 18.67906702 38.26631442 15.7265625 41.546875 C8.07132975 47.98974057 -0.34002735 49.2234247 -9.9375 49.375 C-10.83146484 49.41238281 -11.72542969 49.44976563 -12.64648438 49.48828125 C-17.18360259 49.54891089 -19.3025898 49.52598984 -23.01953125 46.72265625 C-28.987728 38.51785716 -30.1093092 27.90547863 -29 18 C-26.65677662 11.24465846 -20.93570073 6.66335734 -15 3 C-12.72265625 2.30859375 -12.72265625 2.30859375 -11 2 C-11 1.34 -11 0.68 -11 0 C-6.94952424 -1.35015859 -4.2079832 -0.62084998 0 0 Z " fill="#EBEBEB" transform="translate(302,543)"/>
<path d="M0 0 C0.33 0.99 0.66 1.98 1 3 C1.99 3 2.98 3 4 3 C4 2.01 4 1.02 4 0 C6.64 0 9.28 0 12 0 C12 1.98 12 3.96 12 6 C14.31 6 16.62 6 19 6 C20.62950412 10.12168689 21.26264601 12.70700357 20 17 C18.35 17 16.7 17 15 17 C15 19.64 15 22.28 15 25 C11.85375007 25.26218749 10.38162983 25.24754367 7.6875 23.5 C7.130625 23.005 6.57375 22.51 6 22 C6 23.65 6 25.3 6 27 C5.67 27 5.34 27 5 27 C4.87882813 26.35933594 4.75765625 25.71867187 4.6328125 25.05859375 C3.8735837 21.1398051 3.09813949 17.32328304 1.9375 13.5 C0.7394396 9.02724118 0.35219194 4.60629982 0 0 Z " fill="#3E3E3E" transform="translate(230,442)"/>
<path d="M0 0 C2.31 0 4.62 0 7 0 C7 0.99 7 1.98 7 3 C7.99 3 8.98 3 10 3 C8.60073684 13.38747119 6.87242802 23.68916301 5 34 C4.67 34 4.34 34 4 34 C4.33 30.04 4.66 26.08 5 22 C4.34 22 3.68 22 3 22 C2.67 22.66 2.34 23.32 2 24 C-0.31 24 -2.62 24 -5 24 C-5 21.69 -5 19.38 -5 17 C-6.65 16.67 -8.3 16.34 -10 16 C-9.85950482 14.52031676 -9.71245174 13.04125484 -9.5625 11.5625 C-9.48128906 10.73878906 -9.40007812 9.91507812 -9.31640625 9.06640625 C-9 7 -9 7 -8 6 C-6.33382885 5.95936168 -4.66611905 5.957279 -3 6 C-2.01 4.02 -1.02 2.04 0 0 Z " fill="#333333" transform="translate(302,442)"/>
<path d="M0 0 C5 1 5 1 6.36328125 2.9609375 C6.67652344 3.75757813 6.98976563 4.55421875 7.3125 5.375 C7.63863281 6.16648437 7.96476562 6.95796875 8.30078125 7.7734375 C9 10 9 10 9 13 C9.66 13 10.32 13 11 13 C11.19335938 12.39671875 11.38671875 11.7934375 11.5859375 11.171875 C11.84632813 10.37265625 12.10671875 9.5734375 12.375 8.75 C12.63023437 7.96109375 12.88546875 7.1721875 13.1484375 6.359375 C13.95173667 4.13372042 14.89711662 2.09068328 16 0 C17.32 0 18.64 0 20 0 C20 5.94 20 11.88 20 18 C18.68 18 17.36 18 16 18 C15.67 15.36 15.34 12.72 15 10 C13.68 12.64 12.36 15.28 11 18 C10.01 17.67 9.02 17.34 8 17 C6.3125 13.4375 6.3125 13.4375 5 10 C4.67 12.64 4.34 15.28 4 18 C2.68 18 1.36 18 0 18 C0 12.06 0 6.12 0 0 Z " fill="#DFDFDF" transform="translate(486,573)"/>
<path d="M0 0 C10.30232141 4.02577391 21.69378489 8.72136638 27 19 C27.54848605 22.63905057 27.51371675 26.20184436 27.4375 29.875 C27.44458984 30.83019531 27.45167969 31.78539062 27.45898438 32.76953125 C27.40472955 38.85441827 26.47783135 43.43966757 24 49 C23.34 48.67 22.68 48.34 22 48 C22.495 47.1646875 22.495 47.1646875 23 46.3125 C24.1309601 43.69715478 24.15662974 41.8193354 24 39 C23.01 39 22.02 39 21 39 C21.33 38.484375 21.66 37.96875 22 37.4375 C24.79044078 30.6358006 22.02664824 23.67105047 20 17 C19.34 17 18.68 17 18 17 C17.46375 16.113125 16.9275 15.22625 16.375 14.3125 C12.72349054 8.54911007 6.40231031 5.76063534 0 4 C-0.33 4.99 -0.66 5.98 -1 7 C-1.66 5.68 -2.32 4.36 -3 3 C-1.68 2.67 -0.36 2.34 1 2 C0.67 1.34 0.34 0.68 0 0 Z " fill="#E6E6E6" transform="translate(242,540)"/>
<path d="M0 0 C10.00274377 0.19269734 10.00274377 0.19269734 13.625 3.125 C14.40875 4.07375 15.1925 5.0225 16 6 C17.39418001 7.13242685 18.81367838 8.23402483 20.25 9.3125 C23.54434377 11.84533717 26.77883172 14.42410973 29.9375 17.125 C30.66839844 17.74632812 31.39929688 18.36765625 32.15234375 19.0078125 C34.20035703 21.21602978 35.06135405 23.15949026 36 26 C34.02 25.01 32.04 24.02 30 23 C30 22.34 30 21.68 30 21 C29.05125 20.690625 28.1025 20.38125 27.125 20.0625 C24 19 24 19 22 18 C22 17.34 22 16.68 22 16 C21.21625 15.814375 20.4325 15.62875 19.625 15.4375 C12.75852071 12.7145858 7.16448055 8.20881086 2 3 C1.34 2.67 0.68 2.34 0 2 C0 1.34 0 0.68 0 0 Z " fill="#434343" transform="translate(362,461)"/>
<path d="M0 0 C3.89600061 0.25973337 5.64205355 0.98967531 8.75 3.25 C8 10 8 10 5.75 12.25 C6.4925 13.425625 6.4925 13.425625 7.25 14.625 C8.75 17.25 8.75 17.25 8.75 19.25 C6.9375 19.0625 6.9375 19.0625 4.75 18.25 C3.125 15.75 3.125 15.75 1.75 13.25 C1.09 12.92 0.43 12.59 -0.25 12.25 C-0.25 14.56 -0.25 16.87 -0.25 19.25 C-1.57 19.25 -2.89 19.25 -4.25 19.25 C-4.27683987 16.27077407 -4.29676037 13.29178705 -4.3125 10.3125 C-4.32087891 9.46236328 -4.32925781 8.61222656 -4.33789062 7.73632812 C-4.34111328 6.92744141 -4.34433594 6.11855469 -4.34765625 5.28515625 C-4.35289307 4.5362915 -4.35812988 3.78742676 -4.36352539 3.01586914 C-4.15818779 -0.17812411 -3.26203256 0.25092558 0 0 Z " fill="#DCDCDC" transform="translate(746.25,571.75)"/>
<path d="M0 0 C4 1 4 1 5.703125 3.72265625 C7.8515625 8.36132812 7.8515625 8.36132812 10 13 C11.98 9.04 13.96 5.08 16 1 C16.99 1 17.98 1 19 1 C19 6.94 19 12.88 19 19 C18.01 19 17.02 19 16 19 C15.67 16.36 15.34 13.72 15 11 C13.68 13.64 12.36 16.28 11 19 C8 18 8 18 6.83203125 15.93359375 C5.88802083 13.62239583 4.94401042 11.31119792 4 9 C3.67 12.3 3.34 15.6 3 19 C2.01 19 1.02 19 0 19 C0 12.73 0 6.46 0 0 Z " fill="#D9D9D9" transform="translate(615,572)"/>
<path d="M0 0 C1.89772191 0.25726693 3.79315677 0.53143339 5.6875 0.8125 C6.74324219 0.96332031 7.79898437 1.11414063 8.88671875 1.26953125 C12.10193753 2.02391759 14.28100323 3.15874987 17 5 C16.67 5.99 16.34 6.98 16 8 C13.8203125 8.94921875 13.8203125 8.94921875 11.125 9.6875 C9.79855469 10.06455078 9.79855469 10.06455078 8.4453125 10.44921875 C6 11 6 11 3 11 C3 11.66 3 12.32 3 13 C1.3203125 14.25390625 1.3203125 14.25390625 -0.875 15.5625 C-1.59429687 15.99691406 -2.31359375 16.43132813 -3.0546875 16.87890625 C-4.34834796 17.62444953 -5.66451742 18.33225871 -7 19 C-7.33 18.34 -7.66 17.68 -8 17 C-8.66 17 -9.32 17 -10 17 C-10 16.01 -10 15.02 -10 14 C-8.88625 13.608125 -7.7725 13.21625 -6.625 12.8125 C-3.93434297 11.65161169 -3.16779689 11.28220386 -1.625 8.6875 C-0.95490904 5.80610887 -0.47512083 2.91917458 0 0 Z " fill="#383838" transform="translate(288,532)"/>
<path d="M0 0 C0.495 0.99 0.495 0.99 1 2 C-6.84800941 13.37363801 -14.12313766 20.91625281 -28 24 C-31.4375 24.125 -31.4375 24.125 -34 24 C-31.25327686 21.02543808 -28.74274109 19.16737629 -25.125 17.375 C-16.09735445 12.61849858 -7.90503695 6.42469295 0 0 Z " fill="#E6E6E6" transform="translate(369,523)"/>
<path d="M0 0 C-9.30870211 9.57466502 -20.67479869 16.103355 -32 23 C-32.33 22.01 -32.66 21.02 -33 20 C-13.34265241 -0.8086456 -13.34265241 -0.8086456 0 0 Z " fill="#3C3C3C" transform="translate(180,462)"/>
<path d="M0 0 C3.37521665 1.53847085 6.16494827 3.52348878 9.125 5.75 C17.01433826 11.55160114 25.4153749 16.31370707 34 21 C34 21.33 34 21.66 34 22 C23.42230491 21.35959675 14.16350354 19.3477387 6.5625 11.51953125 C0 3.921875 0 3.921875 0 0 Z " fill="#EBEBEB" transform="translate(174,525)"/>
<path d="M0 0 C1.8441089 2.76616336 2.38134169 4.04257047 3 7.16796875 C3.2475 8.38516602 3.2475 8.38516602 3.5 9.62695312 C3.7475 10.89442383 3.7475 10.89442383 4 12.1875 C4.33183215 13.84795696 4.66515211 15.50811732 5 17.16796875 C5.16113281 17.9779834 5.32226562 18.78799805 5.48828125 19.62255859 C5.97787893 21.89722566 6.56810502 24.12109222 7.1875 26.36328125 C7.95078022 29.77969415 7.97922297 30.8483431 7 34 C6.67 33.01 6.34 32.02 6 31 C3.69 30.67 1.38 30.34 -1 30 C-1.268125 30.61875 -1.53625 31.2375 -1.8125 31.875 C-3 34 -3 34 -6 36 C-4.79618552 33.50638429 -3.54571278 31.31856917 -2 29 C1.125 28.8125 1.125 28.8125 4 29 C4 27.35 4 25.7 4 24 C-1.78667531 24.98796896 -3.97586375 27.97148012 -7.25390625 32.46875 C-9.88439012 36.2820689 -12.48780968 40.10748533 -15 44 C-16.39195915 39.82412255 -14.82323219 37.86525224 -13 34 C-12.34 34 -11.68 34 -11 34 C-10.773125 33.29875 -10.54625 32.5975 -10.3125 31.875 C-8.18608593 27.21714062 -5.29726065 23.86484043 -1 21 C0.32 21 1.64 21 3 21 C2.67 19.783125 2.34 18.56625 2 17.3125 C1.19677787 14.12789396 0.79358027 11.3027157 1 8 C0.01 7.67 -0.98 7.34 -2 7 C-1.01 7 -0.02 7 1 7 C0.67 4.69 0.34 2.38 0 0 Z " fill="#D7D7D7" transform="translate(203,442)"/>
<path d="M0 0 C4 1 4 1 5.921875 3.50390625 C6.52515625 4.51324219 7.1284375 5.52257812 7.75 6.5625 C8.67039062 8.08037109 8.67039062 8.08037109 9.609375 9.62890625 C10.06828125 10.41136719 10.5271875 11.19382812 11 12 C11.33 8.04 11.66 4.08 12 0 C12.99 0 13.98 0 15 0 C15 6.27 15 12.54 15 19 C11 18 11 18 9.078125 15.49609375 C8.47484375 14.48675781 7.8715625 13.47742188 7.25 12.4375 C6.32960938 10.91962891 6.32960938 10.91962891 5.390625 9.37109375 C4.93171875 8.58863281 4.4728125 7.80617188 4 7 C3.67 10.96 3.34 14.92 3 19 C2.01 19 1.02 19 0 19 C0 12.73 0 6.46 0 0 Z " fill="#DADADA" transform="translate(688,572)"/>
<path d="M0 0 C0.33 0.66 0.66 1.32 1 2 C1.99 2.33 2.98 2.66 4 3 C3.34 3.66 2.68 4.32 2 5 C1.3162387 7.88717605 1.3162387 7.88717605 0.875 11.125 C0.70742188 12.22070312 0.53984375 13.31640625 0.3671875 14.4453125 C0.24601562 15.28835938 0.12484375 16.13140625 0 17 C0.845625 17.165 1.69125 17.33 2.5625 17.5 C8.41708286 20.05472706 12.03362093 24.64707706 14.4375 30.5 C14.623125 31.325 14.80875 32.15 15 33 C15.66 33 16.32 33 17 33 C17.33 35.31 17.66 37.62 18 40 C15 39 15 39 13.75390625 36.890625 C13.36074219 36.01921875 12.96757812 35.1478125 12.5625 34.25 C8.93605845 26.71815985 5.61717357 23.30940308 -2 20 C-2 21.65 -2 23.3 -2 25 C-0.02 25 1.96 25 4 25 C4 25.33 4 25.66 4 26 C1.69 26 -0.62 26 -3 26 C-4.81333617 16.51940548 -2.82537394 8.98541669 0 0 Z " fill="#BBBBBB" transform="translate(338,446)"/>
<path d="M0 0 C2.875 1.875 2.875 1.875 5 4 C5 4.66 5 5.32 5 6 C3.68 6 2.36 6 1 6 C1 5.34 1 4.68 1 4 C-2.41656024 3.83322718 -2.41656024 3.83322718 -6 4 C-8.37994368 5.94332332 -8.37994368 5.94332332 -8.25 9.5 C-8.37994368 13.05667668 -8.37994368 13.05667668 -6 15 C-2.91652174 15.16681109 -2.91652174 15.16681109 0 15 C0.66 13.68 1.32 12.36 2 11 C0.02 11 -1.96 11 -4 11 C-4 10.34 -4 9.68 -4 9 C-0.7 9 2.6 9 6 9 C5.41129032 14.2983871 5.41129032 14.2983871 3.9375 16.8125 C0.77589421 18.75025839 -2.36265028 19.32194998 -6 19 C-8.99980954 17.74323769 -9.82701131 16.66191114 -12 14 C-12.7398674 11.17143002 -12.687544 8.83611901 -12 6 C-8.65421837 0.75827545 -6.19002146 -0.60686485 0 0 Z " fill="#D9D9D9" transform="translate(586,572)"/>
<path d="M0 0 C1.32 0 2.64 0 4 0 C5.00399524 2.62353518 6.00334445 5.24867795 7 7.875 C7.28617188 8.62136719 7.57234375 9.36773438 7.8671875 10.13671875 C10 15.7734375 10 15.7734375 10 18 C9.01 18 8.02 18 7 18 C6.67 16.68 6.34 15.36 6 14 C3.36 14.33 0.72 14.66 -2 15 C-2.33 15.99 -2.66 16.98 -3 18 C-3.99 18 -4.98 18 -6 18 C-4.41039668 11.76559832 -2.72399099 5.83712355 0 0 Z " fill="#D8D8D8" transform="translate(517,573)"/>
<path d="M0 0 C2.31 0 4.62 0 7 0 C7 0.99 7 1.98 7 3 C7.99 3 8.98 3 10 3 C8.60073684 13.38747119 6.87242802 23.68916301 5 34 C4.67 34 4.34 34 4 34 C4.33 30.04 4.66 26.08 5 22 C4.34 22 3.68 22 3 22 C3 19.69 3 17.38 3 15 C2.34 15 1.68 15 1 15 C1.78175515 10.15311808 3.39844278 5.6233633 5 1 C3.35 1.33 1.7 1.66 0 2 C0 1.34 0 0.68 0 0 Z " fill="#AEAEAE" transform="translate(302,442)"/>
<path d="M0 0 C0.33 0.99 0.66 1.98 1 3 C1.99 3 2.98 3 4 3 C4.33 2.01 4.66 1.02 5 0 C5.27714844 0.71027344 5.55429688 1.42054688 5.83984375 2.15234375 C6.20207031 3.07144531 6.56429687 3.99054688 6.9375 4.9375 C7.29714844 5.85402344 7.65679687 6.77054687 8.02734375 7.71484375 C8.7996218 9.92418533 8.7996218 9.92418533 10 11 C9.90997602 13.02408755 9.75358962 15.04544287 9.5625 17.0625 C9.46066406 18.16722656 9.35882813 19.27195312 9.25390625 20.41015625 C9.17011719 21.26480469 9.08632812 22.11945313 9 23 C8.01 22.67 7.02 22.34 6 22 C6 23.65 6 25.3 6 27 C5.67 27 5.34 27 5 27 C4.87882813 26.35933594 4.75765625 25.71867187 4.6328125 25.05859375 C3.8735837 21.1398051 3.09813949 17.32328304 1.9375 13.5 C0.7394396 9.02724118 0.35219194 4.60629982 0 0 Z " fill="#A5A5A5" transform="translate(230,442)"/>
<path d="M0 0 C1.37480732 4.12442195 0.0376815 5.86152447 -1.7734375 9.65625 C-5.18816061 16.18119861 -9.01770178 21.04061532 -16 24 C-16.66 23.67 -17.32 23.34 -18 23 C-6.74200426 4.49466951 -6.74200426 4.49466951 0 0 Z " fill="#E4E4E4" transform="translate(374,533)"/>
<path d="M0 0 C3.36202939 1.42609159 5.23675579 3.14348515 7.5625 5.9375 C9.96665776 8.81575351 9.96665776 8.81575351 12.578125 11.5 C14.21760154 13.22955767 15.14437946 14.92430272 16.1875 17.0625 C16.53167969 17.75472656 16.87585938 18.44695313 17.23046875 19.16015625 C18 21 18 21 18 23 C12.11552878 22.4084394 9.80006924 19.14080937 6.09375 14.84765625 C2.97708069 10.6087534 0 5.40921438 0 0 Z " fill="#E6E6E6" transform="translate(167,533)"/>
<path d="M0 0 C3.3 0 6.6 0 10 0 C10 0.99 10 1.98 10 3 C7.69 3 5.38 3 3 3 C3 4.65 3 6.3 3 8 C5.31 8 7.62 8 10 8 C10 8.99 10 9.98 10 11 C7.69 11 5.38 11 3 11 C3 12.65 3 14.3 3 16 C5.31 16 7.62 16 10 16 C10 16.99 10 17.98 10 19 C6.7 19 3.4 19 0 19 C0 12.73 0 6.46 0 0 Z " fill="#DCDCDC" transform="translate(672,572)"/>
<path d="M0 0 C0.99 0 1.98 0 3 0 C3.33 4.95 3.66 9.9 4 15 C6.97 15.495 6.97 15.495 10 16 C10.33 11.05 10.66 6.1 11 1 C11.99 1 12.98 1 14 1 C14.10823773 3.24893954 14.18569645 5.49937575 14.25 7.75 C14.29640625 9.00296875 14.3428125 10.2559375 14.390625 11.546875 C14 15 14 15 12.171875 17.421875 C10 19 10 19 7 19.5 C3.22662165 18.87110361 2.27429135 18.05182685 0 15 C-0.2911521 12.26317029 -0.38322418 9.96059961 -0.25 7.25 C-0.23195313 6.55261719 -0.21390625 5.85523438 -0.1953125 5.13671875 C-0.14838554 3.42388461 -0.07664605 1.71176176 0 0 Z " fill="#D9D9D9" transform="translate(426,572)"/>
<path d="M0 0 C3.3 0 6.6 0 10 0 C10 0.66 10 1.32 10 2 C7.69 2 5.38 2 3 2 C3 3.65 3 5.3 3 7 C5.31 7 7.62 7 10 7 C10 7.99 10 8.98 10 10 C7.69 10 5.38 10 3 10 C3 11.65 3 13.3 3 15 C5.64 15 8.28 15 11 15 C11 15.99 11 16.98 11 18 C7.37 18 3.74 18 0 18 C0 12.06 0 6.12 0 0 Z " fill="#DCDCDC" transform="translate(726,573)"/>
<path d="M0 0 C3.3 0 6.6 0 10 0 C10 0.66 10 1.32 10 2 C7.69 2 5.38 2 3 2 C3 3.65 3 5.3 3 7 C5.31 7 7.62 7 10 7 C10 7.99 10 8.98 10 10 C7.69 10 5.38 10 3 10 C3 11.65 3 13.3 3 15 C5.64 15 8.28 15 11 15 C11 15.99 11 16.98 11 18 C7.37 18 3.74 18 0 18 C0 12.06 0 6.12 0 0 Z " fill="#DCDCDC" transform="translate(549,573)"/>
<path d="M0 0 C2.33099227 2.33099227 2.45385807 3.36245062 3.03515625 6.54296875 C3.20466797 7.45240234 3.37417969 8.36183594 3.54882812 9.29882812 C3.71833984 10.25208984 3.88785156 11.20535156 4.0625 12.1875 C4.23587891 13.12142578 4.40925781 14.05535156 4.58789062 15.01757812 C5.50292355 19.99942408 6.32648508 24.97988363 7 30 C5 27 5 27 4 25 C3.01 25.33 2.02 25.66 1 26 C0.3304744 23.37569876 -0.33573718 20.75063343 -1 18.125 C-1.19078125 17.37863281 -1.3815625 16.63226563 -1.578125 15.86328125 C-3 10.2265625 -3 10.2265625 -3 8 C-2.34 8 -1.68 8 -1 8 C-0.67 5.36 -0.34 2.72 0 0 Z " fill="#969696" transform="translate(220,442)"/>
<path d="M0 0 C2.55000247 0.57303426 3.50590559 1.41571491 5.0859375 3.46875 C5.0859375 4.12875 5.0859375 4.78875 5.0859375 5.46875 C1.2109375 4.59375 1.2109375 4.59375 0.0859375 3.46875 C-2.87223357 3.21869614 -2.87223357 3.21869614 -5.9140625 3.46875 C-8.29400618 5.41207332 -8.29400618 5.41207332 -8.1640625 8.96875 C-8.29400618 12.52542668 -8.29400618 12.52542668 -5.9140625 14.46875 C-2.07952981 14.72438551 1.35373637 14.34691497 5.0859375 13.46875 C0.97813081 18.30146375 0.97813081 18.30146375 -2.9140625 19.03125 C-6.57313754 18.34517343 -8.26573926 17.04140686 -10.9140625 14.46875 C-12.48341844 11.33003812 -12.26607353 8.93019178 -11.9140625 5.46875 C-8.61250418 0.46316159 -5.62631549 -0.07680977 0 0 Z " fill="#D9D9D9" transform="translate(660.9140625,572.53125)"/>
<path d="M0 0 C0.33 0.99 0.66 1.98 1 3 C1.66 3 2.32 3 3 3 C3 3.66 3 4.32 3 5 C3.66 5 4.32 5 5 5 C4.34 9.62 3.68 14.24 3 19 C2.01 19 1.02 19 0 19 C0 19.99 0 20.98 0 22 C-0.99 22 -1.98 22 -3 22 C-3.33 22.66 -3.66 23.32 -4 24 C-3.61387352 15.62504986 -2.54824033 7.99730769 0 0 Z " fill="#777777" transform="translate(321,445)"/>
<path d="M0 0 C1.79395695 1.79395695 3.56587042 3.59645801 5.3125 5.4375 C11.30671575 11.15291501 15.83865847 12.952412 24 13 C27.3554517 12.79885576 30.67064451 12.46044278 34 12 C33.67 12.66 33.34 13.32 33 14 C30.27734375 14.6328125 30.27734375 14.6328125 26.9375 15.125 C25.28041016 15.37636719 25.28041016 15.37636719 23.58984375 15.6328125 C22.30787109 15.81457031 22.30787109 15.81457031 21 16 C21 16.33 21 16.66 21 17 C13.07085702 16.87414059 8.58454456 14.65391779 3 9 C0.85507164 5.62011288 0 3.97046977 0 0 Z " fill="#CFCFCF" transform="translate(221,574)"/>
<path d="M0 0 C0.99 0 1.98 0 3 0 C6 5.75 6 5.75 6 8 C6.66 8 7.32 8 8 8 C8.309375 7.05125 8.61875 6.1025 8.9375 5.125 C10 2 10 2 11 0 C11.99 0 12.98 0 14 0 C13.58743995 2.88792033 13.1328104 4.8007844 11.5 7.25 C9.42441744 11.05523469 9.27006269 14.72555943 9 19 C7.68 19 6.36 19 5 19 C4.97421875 18.443125 4.9484375 17.88625 4.921875 17.3125 C4.53126873 12.05707023 3.44348335 8.21538881 0.83984375 3.62890625 C0 2 0 2 0 0 Z " fill="#DCDCDC" transform="translate(596,572)"/>
<path d="M0 0 C0.66 0 1.32 0 2 0 C2 1.98 2 3.96 2 6 C4.31 6 6.62 6 9 6 C10.62950412 10.12168689 11.26264601 12.70700357 10 17 C8.35 17 6.7 17 5 17 C4.67 17.99 4.34 18.98 4 20 C0.74031891 6.3667426 0.74031891 6.3667426 0 0 Z " fill="#A1A1A1" transform="translate(240,442)"/>
<path d="M0 0 C2.0625 0.4375 2.0625 0.4375 4 1 C3.34 1 2.68 1 2 1 C2 1.66 2 2.32 2 3 C2.7425 3.2475 3.485 3.495 4.25 3.75 C7.29296536 5.13316607 8.64343537 6.64343537 11 9 C13.22555402 10.570252 15.4930253 12.0579975 17.78125 13.53515625 C19.92057852 14.94756504 21.96533602 16.44163236 24 18 C23.34 18 22.68 18 22 18 C22 18.99 22 19.98 22 21 C12.15410892 17.44166042 4.71222817 9.56834226 -1 1 C-0.67 0.67 -0.34 0.34 0 0 Z " fill="#D7D7D7" transform="translate(360,460)"/>
<path d="M0 0 C0.9867097 3.11074833 0.96838493 5.16442757 0.22265625 8.328125 C-0.05288086 9.52695312 -0.05288086 9.52695312 -0.33398438 10.75 C-0.53314453 11.575 -0.73230469 12.4 -0.9375 13.25 C-1.13279297 14.09046875 -1.32808594 14.9309375 -1.52929688 15.796875 C-2.01142286 17.86648898 -2.50463863 19.93351395 -3 22 C-3.33 22 -3.66 22 -4 22 C-4 19.69 -4 17.38 -4 15 C-5.65 14.67 -7.3 14.34 -9 14 C-8.85950482 12.52031676 -8.71245174 11.04125484 -8.5625 9.5625 C-8.48128906 8.73878906 -8.40007812 7.91507812 -8.31640625 7.06640625 C-8 5 -8 5 -7 4 C-5.33382885 3.95936168 -3.66611905 3.957279 -2 4 C-1.34 2.68 -0.68 1.36 0 0 Z " fill="#444444" transform="translate(301,444)"/>
<path d="M0 0 C0.66 0.33 1.32 0.66 2 1 C1.34 1.66 0.68 2.32 0 3 C-0.99 3 -1.98 3 -3 3 C-3 4.32 -3 5.64 -3 7 C-3.33 7.66 -3.66 8.32 -4 9 C-7.6814807 10.22716023 -11.10410762 10.18406814 -14.9375 10.1875 C-15.65357422 10.19974609 -16.36964844 10.21199219 -17.10742188 10.22460938 C-20.89973108 10.23515333 -23.78599094 10.12309215 -27 8 C-27 7.34 -27 6.68 -27 6 C-26.12859375 6.05800781 -25.2571875 6.11601563 -24.359375 6.17578125 C-15.45340898 6.51312845 -8.87837191 5.20823718 -1 1 C-0.67 0.67 -0.34 0.34 0 0 Z " fill="#C4C4C4" transform="translate(179,506)"/>
<path d="M0 0 C0 1.65 0 3.3 0 5 C-0.928125 5.0825 -1.85625 5.165 -2.8125 5.25 C-6.02994485 5.71193894 -6.02994485 5.71193894 -7.8125 7.8125 C-8.94781962 9.90387824 -9.58322069 11.66603586 -10 14 C-10.66 14 -11.32 14 -12 14 C-12.66 16.64 -13.32 19.28 -14 22 C-14.66 21.01 -15.32 20.02 -16 19 C-16.66 19 -17.32 19 -18 19 C-16.57667134 14.94388206 -14.61408397 11.82462748 -12.0625 8.375 C-11.37285156 7.43398438 -10.68320313 6.49296875 -9.97265625 5.5234375 C-5.3177401 -0.43116812 -5.3177401 -0.43116812 0 0 Z " fill="#484848" transform="translate(207,466)"/>
<path d="M0 0 C1.216875 0.33 2.43375 0.66 3.6875 1 C9.7662494 2.37888565 15.80124915 2.17245366 22 2 C22 2.66 22 3.32 22 4 C17.76471505 6.04854473 14.2403527 6.26884331 9.5625 6.25 C8.28503906 6.25515625 7.00757813 6.2603125 5.69140625 6.265625 C2.11449245 6.00823861 -0.67316405 5.29576918 -4 4 C-2.68 3.34 -1.36 2.68 0 2 C0 1.34 0 0.68 0 0 Z " fill="#D2D2D2" transform="translate(369,510)"/>
<path d="M0 0 C0.99 0 1.98 0 3 0 C3 5.28 3 10.56 3 16 C4.98 16 6.96 16 9 16 C9 16.99 9 17.98 9 19 C6.03 19 3.06 19 0 19 C0 12.73 0 6.46 0 0 Z " fill="#DBDBDB" transform="translate(446,572)"/>
<path d="M0 0 C4.29 0 8.58 0 13 0 C13 0.66 13 1.32 13 2 C11.35 2 9.7 2 8 2 C8 7.28 8 12.56 8 18 C7.01 18 6.02 18 5 18 C5 12.72 5 7.44 5 2 C3.35 2 1.7 2 0 2 C0 1.34 0 0.68 0 0 Z " fill="#D6D6D6" transform="translate(459,573)"/>
<path d="M0 0 C3.96 0 7.92 0 12 0 C12 0.66 12 1.32 12 2 C10.35 2 8.7 2 7 2 C7 7.28 7 12.56 7 18 C6.01 18 5.02 18 4 18 C4 12.72 4 7.44 4 2 C2.68 2 1.36 2 0 2 C0 1.34 0 0.68 0 0 Z " fill="#D8D8D8" transform="translate(709,573)"/>
<path d="M0 0 C3.96 0 7.92 0 12 0 C12 0.66 12 1.32 12 2 C10.35 2 8.7 2 7 2 C7 7.28 7 12.56 7 18 C6.01 18 5.02 18 4 18 C4 12.72 4 7.44 4 2 C2.68 2 1.36 2 0 2 C0 1.34 0 0.68 0 0 Z " fill="#D8D8D8" transform="translate(532,573)"/>
<path d="M0 0 C0 0.66 0 1.32 0 2 C0.66 2.33 1.32 2.66 2 3 C-1.73196432 8.3545575 -7.13593579 13.0679679 -13 16 C-13 15.01 -13 14.02 -13 13 C-13.66 12.67 -14.32 12.34 -15 12 C-14.21753906 11.43410156 -13.43507812 10.86820312 -12.62890625 10.28515625 C-11.61699219 9.55167969 -10.60507813 8.81820313 -9.5625 8.0625 C-8.55316406 7.33160156 -7.54382813 6.60070312 -6.50390625 5.84765625 C-4.17707392 4.22678115 -4.17707392 4.22678115 -3 3 C-3.99 2.34 -4.98 1.68 -6 1 C-3 0 -3 0 0 0 Z " fill="#D9D9D9" transform="translate(182,460)"/>
<path d="M0 0 C4.46050765 0.5097723 6.79215539 1.8723515 10 5 C11.80742008 7.58981015 13.43570573 10.2574926 15 13 C14.34 13 13.68 13 13 13 C12.34 13.66 11.68 14.32 11 15 C10.70867187 14.36191406 10.41734375 13.72382813 10.1171875 13.06640625 C8.8742048 10.56089709 7.65053278 8.26041957 6 6 C2.84050318 4.78717711 2.84050318 4.78717711 0 5 C0 3.35 0 1.7 0 0 Z " fill="#373737" transform="translate(336,466)"/>
<path d="M0 0 C1.98856429 3.62084414 2.69877908 7.0442323 3.4375 11.07421875 C3.7159375 12.02748047 3.7159375 12.02748047 4 13 C4.66 13.33 5.32 13.66 6 14 C6.73075648 16.3140622 7.40138258 18.64828869 8 21 C4.34683329 19.75023244 3.21934164 19.32901247 1 16 C0.46083854 13.3397977 0.26629902 10.70737337 0 8 C-1.98 8.33 -3.96 8.66 -6 9 C-6 8.34 -6 7.68 -6 7 C-4.02 6.67 -2.04 6.34 0 6 C0 4.02 0 2.04 0 0 Z " fill="#D3D3D3" transform="translate(255,525)"/>
<path d="M0 0 C0.66 0.33 1.32 0.66 2 1 C1.67 2.65 1.34 4.3 1 6 C3.31 6.33 5.62 6.66 8 7 C4.98968256 7.93423645 4.13349732 8.04449911 1 7 C0.98582031 7.67546875 0.97164063 8.3509375 0.95703125 9.046875 C0.5626072 16.42367067 0.5626072 16.42367067 -2.5625 19.625 C-3.7690625 20.305625 -3.7690625 20.305625 -5 21 C-5.66 20.67 -6.32 20.34 -7 20 C-6.36771484 18.83984375 -6.36771484 18.83984375 -5.72265625 17.65625 C-2.56633682 11.65552977 -0.26182321 6.80740347 0 0 Z " fill="#D3D3D3" transform="translate(287,525)"/>
<path d="M0 0 C1.65 0.33 3.3 0.66 5 1 C4.01 1.495 4.01 1.495 3 2 C2.34 1.67 1.68 1.34 1 1 C1.16371094 1.65355469 1.32742187 2.30710937 1.49609375 2.98046875 C2.12848563 6.76991774 2.10696709 10.48490951 2.0625 14.3125 C2.05798828 15.05306641 2.05347656 15.79363281 2.04882812 16.55664062 C2.03712175 18.37112899 2.01918898 20.18557534 2 22 C1.67 22 1.34 22 1 22 C0.67 18.37 0.34 14.74 0 11 C-0.66 11 -1.32 11 -2 11 C-2.33 8.69 -2.66 6.38 -3 4 C-2.34 4 -1.68 4 -1 4 C-0.67 2.68 -0.34 1.36 0 0 Z " fill="#D6D6D6" transform="translate(216,526)"/>
<path d="M0 0 C0.99 0 1.98 0 3 0 C3 6.27 3 12.54 3 19 C2.01 19 1.02 19 0 19 C0 12.73 0 6.46 0 0 Z " fill="#DADADA" transform="translate(477,572)"/>
<path d="M0 0 C0.33 0.99 0.66 1.98 1 3 C1.66 3 2.32 3 3 3 C3 3.66 3 4.32 3 5 C3.66 5 4.32 5 5 5 C4.34 9.62 3.68 14.24 3 19 C2.01 19 1.02 19 0 19 C0.33 15.37 0.66 11.74 1 8 C0.34 9.32 -0.32 10.64 -1 12 C-1.08159574 7.83861737 -0.98248524 4.0527516 0 0 Z " fill="#A0A0A0" transform="translate(321,445)"/>
<path d="M0 0 C0.99 0 1.98 0 3 0 C3 5.61 3 11.22 3 17 C2.34 17 1.68 17 1 17 C0.67 13.7 0.34 10.4 0 7 C-0.99 7.33 -1.98 7.66 -3 8 C-1.125 2.25 -1.125 2.25 0 0 Z " fill="#D6D6D6" transform="translate(502,573)"/>
<path d="M0 0 C3.54243452 1.36591169 6.92627929 2.90931484 10.3125 4.625 C11.63701172 5.29402344 11.63701172 5.29402344 12.98828125 5.9765625 C13.98408203 6.48316406 13.98408203 6.48316406 15 7 C14.67 7.99 14.34 8.98 14 10 C13.44828125 9.71382812 12.8965625 9.42765625 12.328125 9.1328125 C9.84094711 7.92260849 7.32252247 6.8904694 4.75 5.875 C3.85796875 5.52179687 2.9659375 5.16859375 2.046875 4.8046875 C1.37140625 4.53914062 0.6959375 4.27359375 0 4 C-0.33 4.99 -0.66 5.98 -1 7 C-1.66 5.68 -2.32 4.36 -3 3 C-1.68 2.67 -0.36 2.34 1 2 C0.67 1.34 0.34 0.68 0 0 Z " fill="#C4C4C4" transform="translate(242,540)"/>
<path d="M0 0 C0.66 0.33 1.32 0.66 2 1 C1.54109375 1.51949219 1.0821875 2.03898437 0.609375 2.57421875 C-6.26342964 10.36358092 -6.26342964 10.36358092 -12 19 C-13 16 -13 16 -12.28515625 14.23828125 C-8.82147708 8.7827099 -4.71777416 4.401695 0 0 Z " fill="#545454" transform="translate(160,481)"/>
<path d="M0 0 C0.9867097 3.11074833 0.96838493 5.16442757 0.22265625 8.328125 C0.03896484 9.12734375 -0.14472656 9.9265625 -0.33398438 10.75 C-0.53314453 11.575 -0.73230469 12.4 -0.9375 13.25 C-1.13279297 14.09046875 -1.32808594 14.9309375 -1.52929688 15.796875 C-2.01142286 17.86648898 -2.50463863 19.93351395 -3 22 C-3.33 22 -3.66 22 -4 22 C-4.09688221 16.55306686 -4.12862175 11.36095333 -3 6 C-4.32 5.34 -5.64 4.68 -7 4 C-5.35 4 -3.7 4 -2 4 C-1.34 2.68 -0.68 1.36 0 0 Z " fill="#979797" transform="translate(301,444)"/>
<path d="M0 0 C2.02350324 3.03525486 2.32124018 4.19426202 2.625 7.6875 C2.69976562 8.49574219 2.77453125 9.30398438 2.8515625 10.13671875 C2.92503906 11.05904297 2.92503906 11.05904297 3 12 C2.34 11.01 1.68 10.02 1 9 C-2.56769552 8.26393501 -2.56769552 8.26393501 -6 8 C-6.268125 8.61875 -6.53625 9.2375 -6.8125 9.875 C-8 12 -8 12 -11 14 C-9.79618552 11.50638429 -8.54571278 9.31856917 -7 7 C-3.875 6.8125 -3.875 6.8125 -1 7 C-1 5.35 -1 3.7 -1 2 C-1.99 1.67 -2.98 1.34 -4 1 C-2.68 0.67 -1.36 0.34 0 0 Z " fill="#B8B8B8" transform="translate(208,464)"/>
<path d="M0 0 C0.99 0.33 1.98 0.66 3 1 C2.34 1 1.68 1 1 1 C1.12375 2.794375 1.12375 2.794375 1.25 4.625 C1.25 10.27062735 -1.46415592 13.37883125 -5.25 17.375 C-5.8275 17.91125 -6.405 18.4475 -7 19 C-7.33 18.34 -7.66 17.68 -8 17 C-8.66 17 -9.32 17 -10 17 C-10 16.01 -10 15.02 -10 14 C-8.88625 13.608125 -7.7725 13.21625 -6.625 12.8125 C-3.93434297 11.65161169 -3.16779689 11.28220386 -1.625 8.6875 C-0.95388149 5.8016904 -0.40946722 2.93451511 0 0 Z " fill="#4E4E4E" transform="translate(288,532)"/>
<path d="M0 0 C1 4 1 4 0 8 C5.28 8 10.56 8 16 8 C16 8.33 16 8.66 16 9 C10.06 9 4.12 9 -2 9 C-2.33 8.34 -2.66 7.68 -3 7 C-3.99 7 -4.98 7 -6 7 C-4.02 4.69 -2.04 2.38 0 0 Z " fill="#B3B3B3" transform="translate(321,589)"/>
<path d="M0 0 C0.33 0.66 0.66 1.32 1 2 C0.71125 2.845625 0.4225 3.69125 0.125 4.5625 C-1.22944857 8.70109286 -1.63515554 12.6794735 -2 17 C-2.66 17 -3.32 17 -4 17 C-4 15.02 -4 13.04 -4 11 C-4.66 11 -5.32 11 -6 11 C-4.74194623 6.49197399 -3.09592835 3.5087188 0 0 Z " fill="#AFAFAF" transform="translate(351,551)"/>
<path d="M0 0 C-2.18324408 4.96191837 -4.90855133 9.93103735 -9.8125 12.4375 C-10.8953125 12.7159375 -10.8953125 12.7159375 -12 13 C-11.46960703 8.942959 -9.42356448 7.05155434 -6.5625 4.25 C-5.75941406 3.45078125 -4.95632812 2.6515625 -4.12890625 1.828125 C-2 0 -2 0 0 0 Z " fill="#4B4B4B" transform="translate(159,472)"/>
<path d="M0 0 C0.33 0 0.66 0 1 0 C0.54775239 5.91492272 -0.1582605 11.35199888 -2 17 C-2.66 17 -3.32 17 -4 17 C-4 13.7 -4 10.4 -4 7 C-3.34 7 -2.68 7 -2 7 C-1.34 4.69 -0.68 2.38 0 0 Z " fill="#464646" transform="translate(309,446)"/>
<path d="M0 0 C1 3 1 3 -0.6875 6.5625 C-2.39805336 9.38759509 -3.7558811 10.95724749 -7 12 C-7.99 11.34 -8.98 10.68 -10 10 C-9.0925 9.278125 -8.185 8.55625 -7.25 7.8125 C-4.4298006 5.47347206 -2.19093342 2.94933345 0 0 Z " fill="#D2D2D2" transform="translate(321,574)"/>
<path d="M0 0 C2.475 0.495 2.475 0.495 5 1 C5 3.64 5 6.28 5 9 C4.01 9.33 3.02 9.66 2 10 C0.68373308 6.38026598 0 3.90432869 0 0 Z " fill="#363636" transform="translate(244,449)"/>
<path d="M0 0 C1.16306443 3.54950034 0.92365049 6.55823948 0.5625 10.25 C0.46066406 11.32765625 0.35882813 12.4053125 0.25390625 13.515625 C0.17011719 14.33546875 0.08632812 15.1553125 0 16 C-0.33 16 -0.66 16 -1 16 C-1.33 13.03 -1.66 10.06 -2 7 C-3.65 8.32 -5.3 9.64 -7 11 C-5.5140084 6.40693504 -3.14985318 3.56430755 0 0 Z " fill="#515151" transform="translate(141,491)"/>
<path d="M0 0 C0.33 0.99 0.66 1.98 1 3 C0.01 3.495 0.01 3.495 -1 4 C-1 3.01 -1 2.02 -1 1 C-2.01320313 1.46792969 -2.01320313 1.46792969 -3.046875 1.9453125 C-4.38492187 2.52925781 -4.38492187 2.52925781 -5.75 3.125 C-6.63171875 3.51945313 -7.5134375 3.91390625 -8.421875 4.3203125 C-11 5 -11 5 -13.328125 4.1171875 C-13.87984375 3.74851562 -14.4315625 3.37984375 -15 3 C-13.68 2.67 -12.36 2.34 -11 2 C-11 1.34 -11 0.68 -11 0 C-6.94952424 -1.35015859 -4.2079832 -0.62084998 0 0 Z " fill="#C2C2C2" transform="translate(302,543)"/>
<path d="M0 0 C0.33 0 0.66 0 1 0 C1 3.3 1 6.6 1 10 C2.32 9.34 3.64 8.68 5 8 C4.67 10.97 4.34 13.94 4 17 C3.01 16.67 2.02 16.34 1 16 C1 15.34 1 14.68 1 14 C0.01 13.67 -0.98 13.34 -2 13 C-1.01 13 -0.02 13 1 13 C0.67 12.34 0.34 11.68 0 11 C-0.07033769 9.12620395 -0.0843022 7.24998898 -0.0625 5.375 C-0.05347656 4.37210937 -0.04445312 3.36921875 -0.03515625 2.3359375 C-0.01775391 1.17964844 -0.01775391 1.17964844 0 0 Z " fill="#A2A2A2" transform="translate(253,499)"/>
<path d="M0 0 C2.54050545 2.54050545 3.69242902 4.63767462 5 8 C4.95987182 10.78890885 4.52325038 13.24104343 4 16 C3.34 16 2.68 16 2 16 C0.80911014 10.61972975 -0.2919519 5.54708616 0 0 Z " fill="#3E3E3E" transform="translate(233,446)"/>
<path d="M0 0 C0.33 0.66 0.66 1.32 1 2 C1.99 2.33 2.98 2.66 4 3 C3.34 3.66 2.68 4.32 2 5 C1.31822002 7.65719837 1.31822002 7.65719837 0.875 10.625 C0.70742188 11.62789063 0.53984375 12.63078125 0.3671875 13.6640625 C0.24601562 14.43492187 0.12484375 15.20578125 0 16 C-0.99 15.34 -1.98 14.68 -3 14 C-2.28547412 9.23649415 -1.20465156 4.65798604 0 0 Z " fill="#BCBCBC" transform="translate(338,446)"/>
<path d="M0 0 C1.65 0 3.3 0 5 0 C5.38218767 1.65614657 5.71395102 3.32457024 6 5 C5 6 5 6 2.4375 6.0625 C1.2309375 6.0315625 1.2309375 6.0315625 0 6 C0 4.02 0 2.04 0 0 Z " fill="#FDFDFD" transform="translate(746,575)"/>
<path d="M0 0 C1.98 0 3.96 0 6 0 C7.0257259 4.41062136 7.03684712 6.92630576 5 11 C4.34 11 3.68 11 3 11 C3 12.32 3 13.64 3 15 C2.34 15 1.68 15 1 15 C1.78175515 10.15311808 3.39844278 5.6233633 5 1 C3.35 1.33 1.7 1.66 0 2 C0 1.34 0 0.68 0 0 Z " fill="#898989" transform="translate(302,442)"/>
<path d="M0 0 C0.33 0 0.66 0 1 0 C1.33266291 6.20970773 0.45029331 10.28264895 -2 16 C-2.66 15.67 -3.32 15.34 -4 15 C-3.67 14.443125 -3.34 13.88625 -3 13.3125 C-1.8690399 10.69715478 -1.84337026 8.8193354 -2 6 C-2.99 6 -3.98 6 -5 6 C-4.01 4.68 -3.02 3.36 -2 2 C-1.67 2.33 -1.34 2.66 -1 3 C-0.67 2.01 -0.34 1.02 0 0 Z " fill="#BDBDBD" transform="translate(268,573)"/>
<path d="M0 0 C1.25541557 3.76624671 0.37061958 5.37188934 -1 9 C-1.66 8.01 -2.32 7.02 -3 6 C-5.31 7.98 -7.62 9.96 -10 12 C-7.48571291 6.97142583 -4.7047767 3.1365178 0 0 Z " fill="#D1D1D1" transform="translate(374,533)"/>
<path d="M0 0 C0.66 0 1.32 0 2 0 C2.66 2.64 3.32 5.28 4 8 C2.02 8 0.04 8 -2 8 C-1.34 5.36 -0.68 2.72 0 0 Z " fill="#F6F6F6" transform="translate(518,577)"/>
<path d="M0 0 C0.66 0 1.32 0 2 0 C2.66 1.98 3.32 3.96 4 6 C4.66 6 5.32 6 6 6 C5.7834375 6.8353125 5.7834375 6.8353125 5.5625 7.6875 C4.97230872 10.11384195 4.476571 12.54906345 4 15 C3.67 15 3.34 15 3 15 C2.86722656 14.25234375 2.73445312 13.5046875 2.59765625 12.734375 C2.42105469 11.74953125 2.24445313 10.7646875 2.0625 9.75 C1.88847656 8.77546875 1.71445313 7.8009375 1.53515625 6.796875 C1.09620271 4.50278205 0.59651408 2.25708029 0 0 Z " fill="#C8C8C8" transform="translate(192,553)"/>
<path d="M0 0 C0.66 0 1.32 0 2 0 C2.8125 1.6875 2.8125 1.6875 3 4 C0.5625 6.75 0.5625 6.75 -2 9 C-2 8.34 -2 7.68 -2 7 C-3.32 7 -4.64 7 -6 7 C-6 6.34 -6 5.68 -6 5 C-4.02 4.34 -2.04 3.68 0 3 C0 2.01 0 1.02 0 0 Z " fill="#E1E1E1" transform="translate(304,536)"/>
<path d="M0 0 C0 0.66 0 1.32 0 2 C0.66 2.33 1.32 2.66 2 3 C0.68 4.65 -0.64 6.3 -2 8 C-2.66 7.67 -3.32 7.34 -4 7 C-4 4 -4 4 -3 3 C-3.99 2.34 -4.98 1.68 -6 1 C-3 0 -3 0 0 0 Z " fill="#BBBBBB" transform="translate(182,460)"/>
<path d="M0 0 C0.99 0.33 1.98 0.66 3 1 C4.18224668 4.54674003 3.89329634 6.97522995 3.5625 10.6875 C3.40974609 12.45673828 3.40974609 12.45673828 3.25390625 14.26171875 C3.12822266 15.61716797 3.12822266 15.61716797 3 17 C2.67 17 2.34 17 2 17 C1.34 11.39 0.68 5.78 0 0 Z " fill="#AEAEAE" transform="translate(399,489)"/>
<path d="M0 0 C2.66735273 2.48952921 4.55746343 4.63408134 6 8 C5.34 8 4.68 8 4 8 C3.34 8.66 2.68 9.32 2 10 C-1.125 3.375 -1.125 3.375 0 0 Z " fill="#606060" transform="translate(345,471)"/>
<path d="M0 0 C0.66 0 1.32 0 2 0 C2.66 3.96 3.32 7.92 4 12 C3.01 12 2.02 12 1 12 C0.67 8.04 0.34 4.08 0 0 Z " fill="#9D9D9D" transform="translate(231,446)"/>
<path d="M0 0 C0.33 0.99 0.66 1.98 1 3 C-1.6875 4.625 -1.6875 4.625 -5 6 C-7.875 5.1875 -7.875 5.1875 -10 4 C-6.77484237 2.26337666 -3.48670834 1.1094072 0 0 Z " fill="#E0E0E0" transform="translate(313,584)"/>
<path d="M0 0 C0.66 0.33 1.32 0.66 2 1 C-1.3 4.3 -4.6 7.6 -8 11 C-8.66 10.67 -9.32 10.34 -10 10 C-7.02911382 6.00073014 -3.87051275 3.07881696 0 0 Z " fill="#CACACA" transform="translate(285,547)"/>
<path d="M0 0 C6.93 0.495 6.93 0.495 14 1 C14 1.33 14 1.66 14 2 C13.0925 2.144375 12.185 2.28875 11.25 2.4375 C8.15624001 2.89426761 8.15624001 2.89426761 5.875 3.6875 C3.36496253 4.10583958 2.12896883 3.29258822 0 2 C0 1.34 0 0.68 0 0 Z " fill="#ADADAD" transform="translate(152,512)"/>
<path d="M0 0 C1.82421875 0.9609375 1.82421875 0.9609375 3.6875 2.375 C4.31011719 2.83648438 4.93273437 3.29796875 5.57421875 3.7734375 C6.27998047 4.38058594 6.27998047 4.38058594 7 5 C7 5.33 7 5.66 7 6 C4.25 6.3125 4.25 6.3125 1 6 C-1.375 3.5 -1.375 3.5 -3 1 C-2.01 0.67 -1.02 0.34 0 0 Z " fill="#E2E2E2" transform="translate(238,537)"/>
<path d="M0 0 C-1.55603771 3.81936528 -3.95604931 6.26044438 -7 9 C-7.66 9 -8.32 9 -9 9 C-7.45665977 5.21180126 -4.44676575 0 0 0 Z " fill="#535353" transform="translate(344,513)"/>
<path d="M0 0 C0.99 0 1.98 0 3 0 C3 1.65 3 3.3 3 5 C0.69 5 -1.62 5 -4 5 C-2.1875 2.5 -2.1875 2.5 0 0 Z " fill="#303030" transform="translate(204,466)"/>
<path d="M0 0 C1.80411967 2.75924185 2.0127245 3.88972103 1.625 7.25 C1.41875 8.1575 1.2125 9.065 1 10 C0.67 9.34 0.34 8.68 0 8 C-1.98 8.33 -3.96 8.66 -6 9 C-6 8.34 -6 7.68 -6 7 C-4.02 6.67 -2.04 6.34 0 6 C0 4.02 0 2.04 0 0 Z " fill="#BEBEBE" transform="translate(255,525)"/>
<path d="M0 0 C5.61 0 11.22 0 17 0 C17 0.66 17 1.32 17 2 C12.91721966 3.08318662 9.82121165 2.83473185 5.6875 2.0625 C4.61886719 1.86785156 3.55023438 1.67320312 2.44921875 1.47265625 C1.64097656 1.31667969 0.83273437 1.16070313 0 1 C0 0.67 0 0.34 0 0 Z " fill="#B7B7B7" transform="translate(374,512)"/>
<path d="M0 0 C2.0625 0.4375 2.0625 0.4375 4 1 C3.34 1 2.68 1 2 1 C2 1.66 2 2.32 2 3 C3.2065625 3.433125 3.2065625 3.433125 4.4375 3.875 C7 5 7 5 8 7 C7.01 7.33 6.02 7.66 5 8 C3.02 5.69 1.04 3.38 -1 1 C-0.67 0.67 -0.34 0.34 0 0 Z " fill="#D6D6D6" transform="translate(360,460)"/>
<path d="M0 0 C-1.44077046 3.36179774 -3.24750021 5.59156268 -6 8 C-6.66 8 -7.32 8 -8 8 C-6.48291727 4.46014029 -4.24676932 0 0 0 Z " fill="#555555" transform="translate(291,548)"/>
<path d="M0 0 C0.33 0.66 0.66 1.32 1 2 C-0.98 4.97 -0.98 4.97 -3 8 C-3.33 7.34 -3.66 6.68 -4 6 C-4.66 5.67 -5.32 5.34 -6 5 C-4.02 3.35 -2.04 1.7 0 0 Z " fill="#CACACA" transform="translate(369,523)"/>
<path d="M0 0 C-3.52994613 1.17664871 -6.29455413 1.19850603 -10 1 C-10.99 0.34 -11.98 -0.32 -13 -1 C-11.58566794 -1.2236337 -10.16832382 -1.42826476 -8.75 -1.625 C-7.56664062 -1.79902344 -7.56664062 -1.79902344 -6.359375 -1.9765625 C-3.67847541 -2.00319395 -2.27305911 -1.36592084 0 0 Z " fill="#ECECEC" transform="translate(170,515)"/>
<path d="M0 0 C1.32 0 2.64 0 4 0 C4 0.66 4 1.32 4 2 C4.66 2.66 5.32 3.32 6 4 C5.01 4 4.02 4 3 4 C2.67 4.99 2.34 5.98 2 7 C1.34 6.67 0.68 6.34 0 6 C0 4.02 0 2.04 0 0 Z " fill="#C2C2C2" transform="translate(286,509)"/>
<path d="M0 0 C0.99 0 1.98 0 3 0 C2.8125 1.875 2.8125 1.875 2 4 C-0.5625 5.25 -0.5625 5.25 -3 6 C-1.125 1.125 -1.125 1.125 0 0 Z " fill="#F0F0F0" transform="translate(166,473)"/>
<path d="M0 0 C0.268125 0.61875 0.53625 1.2375 0.8125 1.875 C1.95556848 4.2995233 1.95556848 4.2995233 5 6 C5 6.66 5 7.32 5 8 C2.03 7.505 2.03 7.505 -1 7 C-0.67 4.69 -0.34 2.38 0 0 Z " fill="#E8E8E8" transform="translate(336,458)"/>
<path d="M0 0 C-1.49097658 3.7952131 -3.75700849 5.61042731 -7 8 C-7 5 -7 5 -4.625 2.3125 C-2 0 -2 0 0 0 Z " fill="#626262" transform="translate(262,491)"/>
<path d="M0 0 C0.33 0.66 0.66 1.32 1 2 C1.66 2.33 2.32 2.66 3 3 C1.35 5.31 -0.3 7.62 -2 10 C-3.39195915 5.82412255 -1.82323219 3.86525224 0 0 Z " fill="#BCBCBC" transform="translate(190,476)"/>
<path d="M0 0 C3.63 0.33 7.26 0.66 11 1 C11 1.66 11 2.32 11 3 C8.69 2.67 6.38 2.34 4 2 C3.67 2.66 3.34 3.32 3 4 C2.01 3.34 1.02 2.68 0 2 C0 1.34 0 0.68 0 0 Z " fill="#828282" transform="translate(362,461)"/>
<path d="M0 0 C0.66 0.33 1.32 0.66 2 1 C1.54625 1.5775 1.0925 2.155 0.625 2.75 C-0.84113516 4.7800333 -1.94857784 6.73539843 -3 9 C-3.66 7.68 -4.32 6.36 -5 5 C-3.35 3.35 -1.7 1.7 0 0 Z " fill="#585858" transform="translate(202,466)"/>
<path d="M0 0 C0 0.66 0 1.32 0 2 C0.66 2.66 1.32 3.32 2 4 C-3.625 4.25 -3.625 4.25 -7 2 C-4 0 -4 0 0 0 Z " fill="#919191" transform="translate(312,594)"/>
<path d="M0 0 C0.99 0 1.98 0 3 0 C3 0.66 3 1.32 3 2 C3.99 2.33 4.98 2.66 6 3 C5 4 5 4 3.15234375 4.09765625 C1.1015625 4.06510417 -0.94921875 4.03255208 -3 4 C-2.01 3.34 -1.02 2.68 0 2 C0 1.34 0 0.68 0 0 Z " fill="#A5A5A5" transform="translate(231,594)"/>
<path d="M0 0 C2.375 0.6875 2.375 0.6875 5 2 C6.3125 4.625 6.3125 4.625 7 7 C5.82780457 6.21654285 4.66236332 5.42297164 3.5 4.625 C2.8503125 4.18414062 2.200625 3.74328125 1.53125 3.2890625 C1.0259375 2.86367188 0.520625 2.43828125 0 2 C0 1.34 0 0.68 0 0 Z " fill="#F6F6F6" transform="translate(366,467)"/>
<path d="M0 0 C0.66 1.32 1.32 2.64 2 4 C2.99 4.33 3.98 4.66 5 5 C4.67 5.66 4.34 6.32 4 7 C3.34 6.67 2.68 6.34 2 6 C2 7.65 2 9.3 2 11 C1.67 11 1.34 11 1 11 C0.67 7.37 0.34 3.74 0 0 Z " fill="#C4C4C4" transform="translate(234,458)"/>
</svg>
