<?xml version="1.0" encoding="UTF-8"?>
<svg version="1.1" xmlns="http://www.w3.org/2000/svg" width="483" height="291">
<path d="M0 0 C3.63 0 7.26 0 11 0 C11.99 4.29 12.98 8.58 14 13 C14.33 10.36 14.66 7.72 15 5 C17.64 5 20.28 5 23 5 C23.99 7.31 24.98 9.62 26 12 C26.33 11.67 26.66 11.34 27 11 C29.9375 10.75 29.9375 10.75 33 11 C35 14 35 14 35 17 C36.98 17 38.96 17 41 17 C41 19.97 41 22.94 41 26 C39.68 26 38.36 26 37 26 C37 28.31 37 30.62 37 33 C34.69 33 32.38 33 30 33 C30 35.64 30 38.28 30 41 C27.03 41 24.06 41 21 41 C20.67 40.01 20.34 39.02 20 38 C20 41.96 20 45.92 20 50 C15.79405774 50.72795155 13.19895255 51.04973814 9 50 C8.01 46.04 7.02 42.08 6 38 C2.77141361 38.51150569 0.63610238 39.12698668 -1.3359375 41.83349609 C-2.64157777 44.25194521 -3.83948586 46.6961382 -5 49.1875 C-8.05817841 55.60474212 -11.13727479 60.77681115 -16 66 C-14.845 65.9175 -13.69 65.835 -12.5 65.75 C-5.39850547 65.80001052 -0.70755333 69.08438238 4.3125 73.875 C7.34373325 77.05511504 9.37262002 79.93155006 11 84 C11.495 82.515 11.495 82.515 12 81 C17.41245212 81.27756165 20.61215401 83.53097556 24.8515625 86.625 C27.00322419 88.00206348 28.47107918 88.70879094 31 89 C32.71513925 88.25569429 34.42912958 87.5069621 36.1171875 86.703125 C39.07154893 85.5998365 41.89450128 85.80986743 45 86 C45 84.35 45 82.7 45 81 C44.01 81 43.02 81 42 81 C39.5235679 72.88280591 39.54541254 64.90670132 42.85546875 56.94140625 C45.39641175 52.78255668 48.51234898 50.61193554 53.19140625 49.4609375 C59.92987866 48.3853128 65.09633378 49.61724235 71 53 C73.60210554 55.23037618 74.80454523 56.5384651 75.26171875 59.95703125 C75.34492599 63.40693135 75.09384874 66.71845377 74 70 C74.66 70 75.32 70 76 70 C75.52013969 75.56890517 74.70084819 80.67067568 73 86 C74.4540625 85.9071875 74.4540625 85.9071875 75.9375 85.8125 C79.25236554 85.75222972 81.4791547 86.55370403 84.5 87.875 C86.73644099 88.80040364 86.73644099 88.80040364 89 89 C91.22611879 87.80603059 92.67788465 86.45708686 94.39453125 84.61328125 C96.1809037 82.81821599 97.64184429 81.91182021 100 81 C101.32 81 102.64 81 104 81 C104.33 82.32 104.66 83.64 105 85 C105.30292969 84.40832031 105.60585938 83.81664063 105.91796875 83.20703125 C110.00544998 75.49741281 114.92569463 69.67924908 123 66 C126.00528388 65.36067719 128.93128613 65.07813855 132 65 C131.57589844 64.608125 131.15179688 64.21625 130.71484375 63.8125 C123.71368366 56.67285543 120.1256136 47.3768408 117 38 C114.69 38 112.38 38 110 38 C109.87044922 39.15628906 109.87044922 39.15628906 109.73828125 40.3359375 C109.52751953 41.84027344 109.52751953 41.84027344 109.3125 43.375 C109.18488281 44.37273438 109.05726563 45.37046875 108.92578125 46.3984375 C108 49 108 49 105.62109375 50.37109375 C102.42659673 51.1375826 100.16747147 50.79186787 97 50 C96.67 49.67 96.34 49.34 96 49 C96.06458393 47.0595464 96.20196332 45.12130184 96.375 43.1875 C96.46523438 42.12917969 96.55546875 41.07085937 96.6484375 39.98046875 C96.93438217 37.55629337 97.33127716 35.34052993 98 33 C97.34 33 96.68 33 96 33 C96.061875 34.11375 96.12375 35.2275 96.1875 36.375 C96.125625 37.57125 96.06375 38.7675 96 40 C93 42 93 42 89.875 41.6875 C87 41 87 41 86 40 C85.95907063 37.66702567 85.95758277 35.33294775 86 33 C83.69 33 81.38 33 79 33 C79 30.69 79 28.38 79 26 C77.68 26 76.36 26 75 26 C75 23.03 75 20.06 75 17 C76.98 17 78.96 17 81 17 C81.33 15.02 81.66 13.04 82 11 C85 11 88 11 91 11 C91.66 9.02 92.32 7.04 93 5 C95.64 5 98.28 5 101 5 C101.82638376 7.89234315 102 9.88742431 102 13 C102.99 8.71 103.98 4.42 105 0 C108.63 0 112.26 0 116 0 C116.02721176 1.89575251 116.04649136 3.79161979 116.0625 5.6875 C116.07410156 6.74324219 116.08570313 7.79898437 116.09765625 8.88671875 C116.00865425 11.72410262 115.64939838 14.2438919 115 17 C116.175625 17.309375 116.175625 17.309375 117.375 17.625 C120.550435 18.82947535 122.85905776 20.11953792 125.6875 21.9375 C129.27176492 24.16758987 132.3945495 25.53025427 136.5 26.5 C152.03004126 30.35528374 163.56682268 43.7896841 172.10546875 56.73828125 C174.50936535 60.8769486 176.19590763 64.21636947 175 69 C173.801138 71.18616012 172.43341606 72.95283539 170.8125 74.84765625 C166.03782895 80.51757813 162.41227097 87.13521373 159 93.6875 C152.6006285 105.46435384 143.03600423 112.70367058 130.11328125 116.578125 C126.68172206 117.26316824 123.48842081 117.1902775 120 117 C119.97421875 117.58265625 119.9484375 118.1653125 119.921875 118.765625 C118.96906332 132.53808478 113.60149019 145.42942298 103.55078125 155.05078125 C99.17324897 158.39593992 94.31089026 160.79245726 89.390625 163.23828125 C86.64968781 164.66243179 84.43846535 166.14836159 82 168 C81.34 168 80.68 168 80 168 C79.67 166.68 79.34 165.36 79 164 C78.52691406 164.62648437 78.05382812 165.25296875 77.56640625 165.8984375 C73.63228226 170.76049327 70.76883915 174.02678018 64.42578125 174.859375 C63.62527344 174.90578125 62.82476562 174.9521875 62 175 C61.08605469 175.06703125 60.17210937 175.1340625 59.23046875 175.203125 C53.35024529 175.42835928 49.07589012 175.04553407 44 172 C41.23262574 169.29904273 39.14214004 166.21321006 37 163 C36.67 164.65 36.34 166.3 36 168 C32.73268988 167.37730637 30.58562989 166.21794278 27.875 164.3125 C24.64164935 162.07198444 21.38077547 160.08687229 17.9375 158.1875 C8.41312111 152.46697522 1.98114744 143.27819781 -2 133 C-3.20928172 127.73141484 -3.66128903 122.38481324 -4 117 C-5.03511719 117.03351563 -6.07023437 117.06703125 -7.13671875 117.1015625 C-18.18450986 116.81112512 -29.33550375 111.08311517 -37 103.25 C-41.26275364 98.18636537 -44.24495101 92.41689482 -47.33959961 86.59912109 C-49.61516748 82.35098095 -51.92495053 78.56547827 -55.0625 74.875 C-57.60382384 71.74535059 -59.29070664 69.25762212 -59.453125 65.1484375 C-58.38686849 60.09291097 -54.99811463 56.08833813 -52 52 C-51.31164062 50.99195313 -50.62328125 49.98390625 -49.9140625 48.9453125 C-43.1921909 39.4085055 -34.5981083 30.2449581 -23 27 C-21.5849466 26.90794262 -20.16764872 26.84600806 -18.75 26.8125 C-12.46042802 26.24376211 -6.67041691 23.03890175 -2.17822266 18.67236328 C1.45250756 13.51892317 0.41834104 5.97336147 0 0 Z M111 29 C111 29.66 111 30.32 111 31 C111.66 30.67 112.32 30.34 113 30 C112.34 29.67 111.68 29.34 111 29 Z M86 31 C87 33 87 33 87 33 Z M141 37 C141.99 38.485 141.99 38.485 143 40 C143.66 39.67 144.32 39.34 145 39 C143.68 38.34 142.36 37.68 141 37 Z M145 40 C148.20552237 43.32601823 148.20552237 43.32601823 151.71484375 46.31640625 C157.89870314 51.06593502 161.11315146 57.04329112 162.8125 64.625 C162.874375 65.40875 162.93625 66.1925 163 67 C165.31702065 63.72891203 165.15941725 60.90426143 164.5390625 57.0234375 C162.40636997 49.01811335 155.29856568 45.09775106 148.76953125 40.953125 C147.04151336 39.84192809 147.04151336 39.84192809 145 40 Z M-41 47 C-43.90802461 49.21928194 -45.95312762 50.92969143 -48 54 C-48.24246783 57.20379124 -48.24246783 57.20379124 -48.125 60.6875 C-48.10695313 61.86699219 -48.08890625 63.04648438 -48.0703125 64.26171875 C-48.04710938 65.16535156 -48.02390625 66.06898437 -48 67 C-46.08454304 64.12681455 -45.11550693 61.74194201 -44 58.5 C-42.88449307 55.25805799 -41.91545696 52.87318545 -40 50 C-40.33 49.01 -40.66 48.02 -41 47 Z M-20 83 C-18.52841629 86.61497739 -16.58537669 88.40591511 -13.5 90.75 C-12.7059375 91.36359375 -11.911875 91.9771875 -11.09375 92.609375 C-9.14124635 94.1844216 -9.14124635 94.1844216 -7 94 C-7 94.66 -7 95.32 -7 96 C-4.36 96.66 -1.72 97.32 1 98 C-2.86449213 93.84342416 -7.00200836 90.77506682 -11.75 87.6875 C-12.43449219 87.23310547 -13.11898437 86.77871094 -13.82421875 86.31054688 C-16.69616266 84.03227583 -16.69616266 84.03227583 -20 83 Z M133 84 C132.28714844 84.53109375 131.57429688 85.0621875 130.83984375 85.609375 C125.69784383 89.40185947 120.63983179 92.99208971 115 96 C115 96.33 115 96.66 115 97 C121.76810324 96.71309128 124.81190752 95.22724755 129.5 90.4375 C130.03625 89.91736328 130.5725 89.39722656 131.125 88.86132812 C132.43177267 87.58955829 133.71810934 86.29684605 135 85 C134.34 84.67 133.68 84.34 133 84 Z M70 88 C71 90 71 90 71 90 Z M-26 90 C-24.83059623 94.96996601 -23.65027746 98.23910808 -20 102 C-19.01 102.33 -18.02 102.66 -17 103 C-18.34109296 97.50151887 -21.03476271 93.907435 -25 90 C-25.33 90 -25.66 90 -26 90 Z M141 90 C139.77776825 91.64136638 138.59686965 93.31364415 137.4375 95 C136.79683594 95.928125 136.15617188 96.85625 135.49609375 97.8125 C135.00238281 98.534375 134.50867188 99.25625 134 100 C134.33 100.66 134.66 101.32 135 102 C140.08930834 96.81716464 140.08930834 96.81716464 142 90 C141.67 90 141.34 90 141 90 Z M69 92 C70 94 70 94 70 94 Z M32 94 C32 94.66 32 95.32 32 96 C33.32 95.67 34.64 95.34 36 95 C34.68 94.67 33.36 94.34 32 94 Z M84 94 C83.67 94.66 83.34 95.32 83 96 C83.66 96 84.32 96 85 96 C84.67 95.34 84.34 94.68 84 94 Z M47 102 C48.03894142 104.71723142 49.12246329 107.21553539 50.5625 109.75 C52.87147641 114.9702945 53.33416271 119.74440173 52.5 125.375 C50.83435572 128.28987748 49.43098257 129.28139903 46.28515625 130.41015625 C41.58661023 131.62294334 36.80149605 132.32984045 32 133 C32 133.33 32 133.66 32 134 C38.16314225 135.23262845 45.41893513 136.50809792 51 133 C55.25555169 126.00873651 55.76787733 119.04693362 55 111 C53.76878691 107.29360206 52.10735831 104.70747892 48.75 102.5625 C48.1725 102.376875 47.595 102.19125 47 102 Z M66.2734375 103.57421875 C65.64695312 104.27160156 65.02046875 104.96898438 64.375 105.6875 C63.74335938 106.37199219 63.11171875 107.05648437 62.4609375 107.76171875 C60.7377138 110.40184489 60.70759206 111.90805678 61 115 C61.66 115 62.32 115 63 115 C63.50660156 113.96939453 63.50660156 113.96939453 64.0234375 112.91796875 C64.46945313 112.01691406 64.91546875 111.11585937 65.375 110.1875 C65.81585938 109.29417969 66.25671875 108.40085937 66.7109375 107.48046875 C68 105 68 105 70 102 C67.85690371 101.77541538 67.85690371 101.77541538 66.2734375 103.57421875 Z M62 124 C62.31968533 127.51653861 62.62242136 129.53431968 64.875 132.3125 C69.16038678 135.71560127 73.78251031 135.36069462 79 135 C81.73752845 134.48050203 84.31926894 133.77984904 87 133 C84.11753125 132.16459423 82.36068802 132.0319656 79.25 132.1875 C74.41474627 132.26868896 71.09981631 130.35997829 67 128 C66.28328125 127.66742188 65.5665625 127.33484375 64.828125 126.9921875 C63 126 63 126 62 124 Z M69.25 145.5 C67.64125 146.2425 67.64125 146.2425 66 147 C66 147.33 66 147.66 66 148 C70.55737263 147.56179109 73.57653445 147.14958831 77 144 C73.45934895 144 72.25416808 144.11346089 69.25 145.5 Z M43 145 C43.33 145.99 43.66 146.98 44 148 C45.98 148 47.96 148 50 148 C47.38058783 146.25372522 45.96175123 145.61277612 43 145 Z M75 152 C76 154 76 154 76 154 Z M40 153 C41.24976756 156.65316671 41.67098753 157.78065836 45 160 C45.99 159.67 46.98 159.34 48 159 C45.36 157.02 42.72 155.04 40 153 Z M73 155 C71.02 156.32 69.04 157.64 67 159 C68.83700789 159.77242269 68.83700789 159.77242269 71 160 C72.77190909 158.64555699 72.77190909 158.64555699 74 157 C73.67 156.34 73.34 155.68 73 155 Z " fill="#FFFFFF" transform="translate(175,14)"/>
<path d="M0 0 C10 0 10 0 12.359375 2.04296875 C12.90078125 3.01878906 13.4421875 3.99460938 14 5 C14.34353516 5.56928223 14.68707031 6.13856445 15.04101562 6.72509766 C16.15065139 8.56742808 17.20475272 10.43299054 18.25 12.3125 C18.61351562 12.95767578 18.97703125 13.60285156 19.3515625 14.26757812 C20.23836205 15.84281416 21.11974563 17.42109714 22 19 C26.00258823 14.30974243 28.61046905 9.22589871 31.4140625 3.765625 C33 1 33 1 35 0 C38.3 0 41.6 0 45 0 C45 12.87 45 25.74 45 39 C41.37 39 37.74 39 34 39 C33.505 31.575 33.505 31.575 33 24 C32.05125 25.60875 31.1025 27.2175 30.125 28.875 C28.53850149 31.56514964 27.21029533 33.78970467 25 36 C22.125 36.4375 22.125 36.4375 19 36 C15.97161045 32.97161045 14.22551426 29.70919044 12 26 C11.67 30.29 11.34 34.58 11 39 C7.37 39 3.74 39 0 39 C0 26.13 0 13.26 0 0 Z " fill="#FFFFFF" transform="translate(123,201)"/>
<path d="M0 0 C9 0 9 0 11.296875 2.05078125 C11.85890625 3.02402344 12.4209375 3.99726563 13 5 C13.34482422 5.55864746 13.68964844 6.11729492 14.04492188 6.69287109 C15.15463331 8.50332277 16.20650622 10.33819714 17.25 12.1875 C17.61351562 12.81591797 17.97703125 13.44433594 18.3515625 14.09179688 C21 18.74647556 21 18.74647556 21 21 C21.66 21 22.32 21 23 21 C23.23460937 20.34644531 23.46921875 19.69289062 23.7109375 19.01953125 C25.39755459 15.06875848 27.49426475 11.41295742 29.625 7.6875 C30.04523438 6.94693359 30.46546875 6.20636719 30.8984375 5.44335938 C31.92948495 3.62730989 32.96436046 1.81343467 34 0 C37.3 0 40.6 0 44 0 C44 12.87 44 25.74 44 39 C40.7 39 37.4 39 34 39 C33.505 31.575 33.505 31.575 33 24 C32.071875 25.60875 31.14375 27.2175 30.1875 28.875 C28.25806455 32.21935477 27.25904699 33.82730201 24 36 C21.0546875 35.94140625 21.0546875 35.94140625 18 35 C15.15549092 31.92981954 13.25228284 28.55860689 11 25 C10.67 29.62 10.34 34.24 10 39 C6.7 39 3.4 39 0 39 C0 26.13 0 13.26 0 0 Z " fill="#FFFFFF" transform="translate(415,201)"/>
<path d="M0 0 C11 0 11 0 14.375 2.703125 C15.28454109 3.85905475 16.15981504 5.04271884 17 6.25 C17.44988281 6.83652344 17.89976562 7.42304688 18.36328125 8.02734375 C19.60770127 9.66087445 20.8056441 11.32951573 22 13 C22.99862206 14.33436568 23.99789155 15.66825061 25 17 C25.06058594 15.85660156 25.12117188 14.71320313 25.18359375 13.53515625 C25.26798428 12.04425695 25.35263302 10.55337225 25.4375 9.0625 C25.47681641 8.30775391 25.51613281 7.55300781 25.55664062 6.77539062 C25.88671875 1.11328125 25.88671875 1.11328125 27 0 C30.3 0 33.6 0 37 0 C37 12.87 37 25.74 37 39 C26 39 26 39 22.625 36.296875 C21.71545891 35.14094525 20.84018496 33.95728116 20 32.75 C19.55011719 32.16347656 19.10023438 31.57695312 18.63671875 30.97265625 C17.39229873 29.33912555 16.1943559 27.67048427 15 26 C14.00137794 24.66563432 13.00210845 23.33174939 12 22 C11.93941406 23.14339844 11.87882813 24.28679687 11.81640625 25.46484375 C11.73201572 26.95574305 11.64736698 28.44662775 11.5625 29.9375 C11.50352539 31.06961914 11.50352539 31.06961914 11.44335938 32.22460938 C11.11328125 37.88671875 11.11328125 37.88671875 10 39 C6.7 39 3.4 39 0 39 C0 26.13 0 13.26 0 0 Z " fill="#FFFFFF" transform="translate(229,201)"/>
<path d="M0 0 C0.7734375 -0.020625 1.546875 -0.04125 2.34375 -0.0625 C7.97974754 -0.10032549 12.11155079 0.90003089 17.25 3.25 C20.74521907 6.74521907 23.15196508 10.31439886 23.3203125 15.35546875 C22.98524403 21.23887685 21.38992086 24.11007914 17.25 28.25 C17.683125 28.93707031 18.11625 29.62414062 18.5625 30.33203125 C19.119375 31.23308594 19.67625 32.13414062 20.25 33.0625 C20.806875 33.95582031 21.36375 34.84914062 21.9375 35.76953125 C23.25 38.25 23.25 38.25 23.25 41.25 C12.18913043 42.0326087 12.18913043 42.0326087 8.625 39.0625 C7.36515286 36.48553995 6.18053715 33.96406668 5.25 31.25 C2.61 30.92 -0.03 30.59 -2.75 30.25 C-2.75 33.55 -2.75 36.85 -2.75 40.25 C-6.05 40.25 -9.35 40.25 -12.75 40.25 C-12.75 27.38 -12.75 14.51 -12.75 1.25 C-8.3578377 0.15195943 -4.49631097 0.02938765 0 0 Z M-2.75 9.25 C-2.75 13.54 -2.75 17.83 -2.75 22.25 C2.01644369 22.44065775 5.91586616 22.36667001 10.25 20.25 C11.80747644 17.67677805 12.27303547 16.05624157 12.1875 13.0625 C11.35781358 11.08111009 11.35781358 11.08111009 9.25 10 C5.15263896 8.97565974 1.47095633 9.1240013 -2.75 9.25 Z " fill="#FFFFFF" transform="translate(331.75,199.75)"/>
<path d="M0 0 C2 3 2 3 1.8125 5 C0.83266728 7.41189593 0.19417354 8.56243803 -2 10 C-4.99775644 9.75528519 -7.30677828 9.34661086 -10 8 C-14.47508909 7.74669307 -18.05301229 7.74457845 -22 10 C-24.6130301 13.35961012 -24.36058891 16.88928645 -24 21 C-22.96666999 23.72595518 -22.96666999 23.72595518 -21 26 C-18.06568989 27.03179109 -18.06568989 27.03179109 -14.8125 27.3125 C-13.72582031 27.45300781 -12.63914062 27.59351563 -11.51953125 27.73828125 C-10.68808594 27.82464844 -9.85664062 27.91101563 -9 28 C-9 24.37 -9 20.74 -9 17 C-5.7 17 -2.4 17 1 17 C1 22.94 1 28.88 1 35 C-8.56555242 38.87465415 -15.95134429 40.78656307 -25.85546875 37.109375 C-30.64483372 34.63181644 -33.95883411 30.99179562 -36.4375 26.25 C-37.73044997 18.7796224 -38.04799311 11.65960158 -34 5 C-25.60699045 -4.62125485 -10.89040883 -7.45133236 0 0 Z " fill="#FFFFFF" transform="translate(66,203)"/>
<path d="M0 0 C3.63 0 7.26 0 11 0 C11.06058594 1.75828125 11.12117188 3.5165625 11.18359375 5.328125 C11.26800716 7.6354248 11.35265476 9.94271604 11.4375 12.25 C11.47681641 13.40886719 11.51613281 14.56773437 11.55664062 15.76171875 C11.61948242 17.43427734 11.61948242 17.43427734 11.68359375 19.140625 C11.72025146 20.16704102 11.75690918 21.19345703 11.79467773 22.25097656 C11.93975045 25.23954672 11.93975045 25.23954672 13 29 C16.63 29.33 20.26 29.66 24 30 C24.33 20.1 24.66 10.2 25 0 C28.96 0 32.92 0 37 0 C37.08125714 4.33371426 37.1406327 8.66589022 37.1875 13 C37.21263672 14.22074219 37.23777344 15.44148437 37.26367188 16.69921875 C37.38310211 31.42894777 37.38310211 31.42894777 31.75 37.375 C25.52131916 41.05558413 19.09102625 41.72909391 12 41 C6.68017492 39.26082641 2.94918817 35.7071733 0 31 C-0.87316098 27.48478405 -1.12837268 24.20058591 -1.1328125 20.5859375 C-1.13410156 19.57789063 -1.13539063 18.56984375 -1.13671875 17.53125 C-1.13285156 16.4896875 -1.12898438 15.448125 -1.125 14.375 C-1.12886719 13.32570312 -1.13273437 12.27640625 -1.13671875 11.1953125 C-1.13542969 10.18984375 -1.13414062 9.184375 -1.1328125 8.1484375 C-1.13168457 7.23239746 -1.13055664 6.31635742 -1.12939453 5.37255859 C-1 3 -1 3 0 0 Z " fill="#FFFFFF" transform="translate(365,201)"/>
<path d="M0 0 C3.96 0 7.92 0 12 0 C14.12720813 4.58561207 16.24479547 9.17550003 18.35375977 13.76953125 C19.0718625 15.33030062 19.79253568 16.88989009 20.51586914 18.44824219 C21.55780465 20.69417613 22.59028604 22.94425354 23.62109375 25.1953125 C23.94403915 25.8861795 24.26698456 26.57704651 24.59971619 27.28884888 C26.37282048 31.18798327 27.51039557 34.74131059 28 39 C24.04 39 20.08 39 16 39 C14 35 14 35 14 32 C8.72 32 3.44 32 -2 32 C-2.99 34.31 -3.98 36.62 -5 39 C-8.63 39 -12.26 39 -16 39 C-15.46696729 33.22040248 -13.80871109 28.68064904 -11.375 23.4375 C-11.02179688 22.65971191 -10.66859375 21.88192383 -10.3046875 21.08056641 C-7.04706619 13.96469985 -3.58003875 6.95870032 0 0 Z M5 11 C4.3291288 12.6232687 3.66342971 14.24867578 3 15.875 C2.62875 16.77992188 2.2575 17.68484375 1.875 18.6171875 C0.88509774 20.88983858 0.88509774 20.88983858 1 23 C3.97 23 6.94 23 10 23 C9.54965877 21.37276701 9.08944646 19.74826336 8.625 18.125 C8.36976563 17.22007812 8.11453125 16.31515625 7.8515625 15.3828125 C7.1395685 12.85430274 7.1395685 12.85430274 5 11 Z " fill="#FFFFFF" transform="translate(193,201)"/>
<path d="M0 0 C3.77524973 -0.48366189 7.24048086 -0.67226615 11 0 C15.43652738 3.49018396 17.65233782 8.6093513 19 14 C22.64839007 10.77257802 25.05370675 7.00825175 27.6328125 2.92578125 C29 1 29 1 31 0 C33.6723621 -0.13415472 36.32250488 -0.04318541 39 0 C40 3 40 3 38.7421875 5.78515625 C38.12601563 6.86667969 37.50984375 7.94820312 36.875 9.0625 C36.22070706 10.24182871 35.56706615 11.42151941 34.9140625 12.6015625 C33.78894078 14.59922759 32.66029729 16.59492909 31.5234375 18.5859375 C27.82491185 25.41573027 26.34964012 32.38495736 25 40 C21.7 40 18.4 40 15 40 C14.86464844 39.06800781 14.72929688 38.13601562 14.58984375 37.17578125 C12.71224337 26.05633949 8.9398155 17.09138003 2.0625 8 C-0.16420417 4.76115757 -0.20943961 3.7572197 0 0 Z " fill="#FFFFFF" transform="translate(75,200)"/>
<path d="M0 0 C11.55 0 23.1 0 35 0 C35 2.64 35 5.28 35 8 C31.04 8 27.08 8 23 8 C23 18.23 23 28.46 23 39 C19.7 39 16.4 39 13 39 C13 28.77 13 18.54 13 8 C8.71 8 4.42 8 0 8 C0 5.36 0 2.72 0 0 Z " fill="#FFFFFF" transform="translate(275,201)"/>
<path d="M0 0 C2.4375 1.5 2.4375 1.5 4 4 C4.5149217 6.90813732 4.33536988 8.98167108 4 12 C2.35544899 14.32669596 1.44527814 14.91870744 -1.375 15.43359375 C-2.24125 15.43488281 -3.1075 15.43617188 -4 15.4375 C-5.299375 15.46650391 -5.299375 15.46650391 -6.625 15.49609375 C-9 15 -9 15 -10.79296875 13.1953125 C-12.53364823 10.02941648 -12.3226852 7.54953724 -12 4 C-8.86313831 -0.70529254 -5.37417852 -0.47141917 0 0 Z M-5 4 C-6.29633621 5.06645115 -6.29633621 5.06645115 -6.0625 7.5625 C-6.041875 8.366875 -6.02125 9.17125 -6 10 C-4.68 10 -3.36 10 -2 10 C-2 8.35 -2 6.7 -2 5 C-2.99 4.67 -3.98 4.34 -5 4 Z " fill="#FFFFFF" transform="translate(151,257)"/>
<path d="M0 0 C0.66 0.33 1.32 0.66 2 1 C2 2.32 2 3.64 2 5 C-0.31 5 -2.62 5 -5 5 C-5 6.65 -5 8.3 -5 10 C-4.01 10 -3.02 10 -2 10 C-2 9.01 -2 8.02 -2 7 C-0.68 7 0.64 7 2 7 C2.04241723 9.33294775 2.04092937 11.66702567 2 14 C0.43058802 15.56941198 -1.14134994 15.2449847 -3.3125 15.3125 C-6.51634459 15.26148337 -7.76840103 15.14121889 -10.5625 13.4375 C-12.52577308 10.10847173 -12.41467826 7.80121737 -12 4 C-8.80059646 -0.79910531 -5.42798161 -0.19738115 0 0 Z " fill="#FFFFFF" transform="translate(188,257)"/>
<path d="M0 0 C9.1796875 -0.1953125 9.1796875 -0.1953125 12 0 C14.86382064 2.86382064 14.86475816 5.01036579 15 9 C13.75 11.9375 13.75 11.9375 11 14 C7.23140418 14.42234264 3.81401969 14.22702498 0 14 C0 9.38 0 4.76 0 0 Z M4 3 C4 4.98 4 6.96 4 9 C5.65 8.67 7.3 8.34 9 8 C8.67 6.35 8.34 4.7 8 3 C6.68 3 5.36 3 4 3 Z " fill="#FFFFFF" transform="translate(326,258)"/>
<path d="M0 0 C1.65 0 3.3 0 5 0 C5.66 0.66 6.32 1.32 7 2 C7.33 1.34 7.66 0.68 8 0 C9.65 0 11.3 0 13 0 C13 4.29 13 8.58 13 13 C11.865625 12.814375 10.73125 12.62875 9.5625 12.4375 C8.386875 12.293125 7.21125 12.14875 6 12 C5.67 12.33 5.34 12.66 5 13 C3.35 13 1.7 13 0 13 C0 8.71 0 4.42 0 0 Z " fill="#FFFFFF" transform="translate(159,258)"/>
<path d="M0 0 C1.85625 -0.061875 1.85625 -0.061875 3.75 -0.125 C4.79414063 -0.15980469 4.79414063 -0.15980469 5.859375 -0.1953125 C8 0 8 0 12 2 C12 6.29 12 10.58 12 15 C8.04 14.67 4.08 14.34 0 14 C0 9.38 0 4.76 0 0 Z M4 4 C4 4.99 4 5.98 4 7 C4.99 7 5.98 7 7 7 C7 6.01 7 5.02 7 4 C6.01 4 5.02 4 4 4 Z " fill="#FFFFFF" transform="translate(285,257)"/>
<path d="M0 0 C1.85625 -0.061875 1.85625 -0.061875 3.75 -0.125 C4.79414063 -0.15980469 4.79414063 -0.15980469 5.859375 -0.1953125 C8 0 8 0 12 2 C12 6.29 12 10.58 12 15 C8.04 14.67 4.08 14.34 0 14 C0 9.38 0 4.76 0 0 Z M4 4 C4 4.99 4 5.98 4 7 C4.99 7 5.98 7 7 7 C7 6.01 7 5.02 7 4 C6.01 4 5.02 4 4 4 Z " fill="#FFFFFF" transform="translate(211,257)"/>
<path d="M0 0 C1.85625 -0.061875 1.85625 -0.061875 3.75 -0.125 C4.79414063 -0.15980469 4.79414063 -0.15980469 5.859375 -0.1953125 C8 0 8 0 12 2 C12 6.29 12 10.58 12 15 C8.04 14.67 4.08 14.34 0 14 C0 9.38 0 4.76 0 0 Z M4 4 C4 4.99 4 5.98 4 7 C4.99 7 5.98 7 7 7 C7 6.01 7 5.02 7 4 C6.01 4 5.02 4 4 4 Z " fill="#FFFFFF" transform="translate(124,257)"/>
<path d="M0 0 C2.31 0 4.62 0 7 0 C7.67934107 1.22220737 8.34291523 2.45318451 9 3.6875 C9.37125 4.37199219 9.7425 5.05648438 10.125 5.76171875 C11 8 11 8 11 13 C6.05 13 1.1 13 -4 13 C-3.19131138 7.33917966 -2.63842176 4.70327357 0 0 Z " fill="#FFFFFF" transform="translate(347,258)"/>
<path d="M0 0 C1.37478516 0.01740234 1.37478516 0.01740234 2.77734375 0.03515625 C3.69644531 0.04417969 4.61554688 0.05320312 5.5625 0.0625 C6.27277344 0.07410156 6.98304687 0.08570313 7.71484375 0.09765625 C7.50859375 0.88140625 7.30234375 1.66515625 7.08984375 2.47265625 C6.96609375 3.33890625 6.84234375 4.20515625 6.71484375 5.09765625 C7.37484375 5.75765625 8.03484375 6.41765625 8.71484375 7.09765625 C8.96484375 9.59765625 8.96484375 9.59765625 8.71484375 12.09765625 C6.71484375 14.09765625 6.71484375 14.09765625 4.33203125 14.29296875 C3.42710938 14.26976562 2.5221875 14.2465625 1.58984375 14.22265625 C0.22472656 14.19558594 0.22472656 14.19558594 -1.16796875 14.16796875 C-1.86664063 14.14476562 -2.5653125 14.1215625 -3.28515625 14.09765625 C-3.31201563 11.95188988 -3.33148713 9.8060298 -3.34765625 7.66015625 C-3.35925781 6.46519531 -3.37085937 5.27023437 -3.3828125 4.0390625 C-3.25332939 0.13903117 -3.25332939 0.13903117 0 0 Z " fill="#FFFFFF" transform="translate(96.28515625,257.90234375)"/>
<path d="M0 0 C1.98 0 3.96 0 6 0 C6.66 1.98 7.32 3.96 8 6 C8.66 4.02 9.32 2.04 10 0 C11.65 0 13.3 0 15 0 C14.71517632 1.41805831 14.42181856 2.83440379 14.125 4.25 C13.96257812 5.03890625 13.80015625 5.8278125 13.6328125 6.640625 C13.00849925 8.96831144 12.15161458 10.89031952 11 13 C8.69 13 6.38 13 4 13 C3.32694982 11.39850114 2.66177773 9.79368971 2 8.1875 C1.62875 7.29417969 1.2575 6.40085937 0.875 5.48046875 C0 3 0 3 0 0 Z " fill="#FFFFFF" transform="translate(250,258)"/>
<path d="M0 0 C6.93 0.495 6.93 0.495 14 1 C13 6 13 6 11 9 C10.61500109 10.65549531 10.27206865 12.3222433 10 14 C8.02 14 6.04 14 4 14 C3.32739649 12.23141309 2.66211605 10.46003984 2 8.6875 C1.62875 7.70136719 1.2575 6.71523438 0.875 5.69921875 C0 3 0 3 0 0 Z " fill="#FFFFFF" transform="translate(360,257)"/>
<path d="M0 0 C2.375 -0.125 2.375 -0.125 5 0 C5.66 0.66 6.32 1.32 7 2 C7.33 1.34 7.66 0.68 8 0 C9.65 0 11.3 0 13 0 C12.68991116 1.60463449 12.37683713 3.20869231 12.0625 4.8125 C11.88847656 5.70582031 11.71445312 6.59914063 11.53515625 7.51953125 C11 10 11 10 10 13 C8.02 13 6.04 13 4 13 C3.32694982 11.39850114 2.66177773 9.79368971 2 8.1875 C1.62875 7.29417969 1.2575 6.40085937 0.875 5.48046875 C0 3 0 3 0 0 Z " fill="#FFFFFF" transform="translate(300,258)"/>
<path d="M0 0 C3.63 0 7.26 0 11 0 C11 0.99 11 1.98 11 3 C8.69 3 6.38 3 4 3 C4 3.66 4 4.32 4 5 C5.98 5 7.96 5 10 5 C10 5.99 10 6.98 10 8 C8.02 8 6.04 8 4 8 C4 8.66 4 9.32 4 10 C6.31 10 8.62 10 11 10 C11 10.99 11 11.98 11 13 C7.37 13 3.74 13 0 13 C0 8.71 0 4.42 0 0 Z " fill="#FFFFFF" transform="translate(269,258)"/>
<path d="M0 0 C3.63 0 7.26 0 11 0 C11 0.99 11 1.98 11 3 C8.69 3 6.38 3 4 3 C4 3.66 4 4.32 4 5 C5.98 5 7.96 5 10 5 C10 5.99 10 6.98 10 8 C8.02 8 6.04 8 4 8 C4 8.66 4 9.32 4 10 C6.31 10 8.62 10 11 10 C11 10.99 11 11.98 11 13 C7.37 13 3.74 13 0 13 C0 8.71 0 4.42 0 0 Z " fill="#FFFFFF" transform="translate(236,258)"/>
<path d="M0 0 C3.63 0 7.26 0 11 0 C11 0.99 11 1.98 11 3 C8.69 3 6.38 3 4 3 C4 3.66 4 4.32 4 5 C5.98 5 7.96 5 10 5 C10 5.99 10 6.98 10 8 C8.02 8 6.04 8 4 8 C4 8.66 4 9.32 4 10 C6.31 10 8.62 10 11 10 C11 10.99 11 11.98 11 13 C7.37 13 3.74 13 0 13 C0 8.71 0 4.42 0 0 Z " fill="#FFFFFF" transform="translate(195,258)"/>
<path d="M0 0 C3.96 0 7.92 0 12 0 C12 0.99 12 1.98 12 3 C10.68 3 9.36 3 8 3 C8 6.3 8 9.6 8 13 C6.68 13 5.36 13 4 13 C4 9.7 4 6.4 4 3 C2.68 3 1.36 3 0 3 C0 2.01 0 1.02 0 0 Z " fill="#FFFFFF" transform="translate(108,258)"/>
</svg>
