<svg version="1.1" id="Layer_1" xmlns="http://www.w3.org/2000/svg" xmlns:xlink="http://www.w3.org/1999/xlink" x="0px" y="0px"
	 width="165" viewBox="0 0 1080 223" enable-background="new 0 0 1080 223" xml:space="preserve">
<path fill="none" opacity="1.000000" stroke="none" 
	d="
M760.000000,224.000000 
	C506.666718,224.000000 253.833420,224.000000 1.000102,224.000000 
	C1.000068,149.666733 1.000068,75.333450 1.000034,1.000132 
	C360.999878,1.000088 720.999756,1.000088 1080.999756,1.000044 
	C1080.999756,75.333199 1080.999756,149.666397 1080.999878,223.999786 
	C974.166687,224.000000 867.333313,224.000000 760.000000,224.000000 
M247.791336,39.918587 
	C246.133453,39.992283 244.475571,40.065979 242.248352,39.799011 
	C236.533463,36.438515 230.818588,33.078018 224.911850,28.949799 
	C224.614670,25.643991 224.317474,22.338182 224.611603,18.568956 
	C227.161697,8.381991 226.800247,7.966686 215.353622,7.971975 
	C213.270584,14.337989 211.183990,20.714834 208.276596,27.394905 
	C207.360336,26.846527 206.444061,26.298149 205.636276,24.920231 
	C206.183914,21.456837 206.731552,17.993444 207.355682,14.046233 
	C204.093292,14.046233 201.692535,14.046233 198.812805,14.046233 
	C198.216431,17.249563 197.591003,20.608984 196.210190,24.322542 
	C195.055283,23.834824 193.900360,23.347105 192.579910,22.236841 
	C185.845383,20.976774 185.316574,21.380507 184.248123,27.932177 
	C182.617859,27.767485 180.593597,26.933014 179.454391,27.603123 
	C177.939529,28.494200 176.628906,30.409811 176.098831,32.149776 
	C175.141449,35.292465 175.975204,37.057072 178.749283,38.255501 
	C179.496704,38.211128 180.244110,38.166759 181.213104,38.699989 
	C181.597351,39.183380 181.981598,39.666771 182.160217,40.985001 
	C182.160217,42.868580 182.160217,44.752159 182.160217,46.635735 
	C182.622543,47.004375 183.084869,47.373016 183.547195,47.741653 
	C185.248001,46.487804 186.948807,45.233955 189.224915,43.796410 
	C189.482422,43.501022 189.739929,43.205639 190.647049,43.093121 
	C191.096344,43.103619 191.545624,43.114120 191.847809,43.604939 
	C191.922363,43.754860 191.996933,43.904785 191.919891,44.865349 
	C191.551575,48.444103 191.183273,52.022861 190.793686,55.808430 
	C194.687012,55.821388 198.846466,59.312336 200.751511,52.880310 
	C201.627716,51.385151 202.503906,49.889992 203.548218,48.107948 
	C203.890289,49.025593 204.111664,49.619446 204.185394,51.049198 
	C203.773376,56.268536 203.361359,61.487869 202.960861,66.561180 
	C213.130600,69.120392 213.460846,68.924866 215.655731,59.547108 
	C215.920181,58.417194 216.128525,57.274143 216.965759,55.935638 
	C217.978485,54.279037 218.991211,52.622433 220.860474,51.052864 
	C224.583725,50.490543 227.226730,51.370865 228.613068,55.431454 
	C229.646347,58.457958 231.610199,61.166759 233.177536,64.728218 
	C234.664856,67.852127 236.119034,70.992325 237.645935,74.096771 
	C241.577774,82.090919 247.057724,88.438591 255.790359,91.844849 
	C254.188385,92.233772 252.586395,92.622696 250.332504,92.738075 
	C248.824738,92.042336 247.047760,91.651917 245.854340,90.599663 
	C239.650497,85.129654 233.887131,88.409088 228.413055,91.597450 
	C221.549927,95.594872 217.418701,102.068481 213.423798,109.118553 
	C212.570557,107.532585 211.717300,105.946609 210.554962,103.786140 
	C208.557083,105.049965 206.686447,106.233284 204.142700,107.702126 
	C200.068466,111.124825 195.994232,114.547523 191.221375,117.882912 
	C189.796265,116.931183 188.371170,115.979446 186.229584,114.806213 
	C181.819595,113.792641 177.409622,112.779060 173.042786,110.985924 
	C172.721024,108.692596 172.399261,106.399269 172.798599,103.894112 
	C174.177124,100.477638 175.555664,97.061165 177.311722,92.709068 
	C174.181778,93.301857 172.710785,93.580452 171.126984,93.880409 
	C171.004074,92.622993 170.923615,91.799957 171.636047,90.811714 
	C172.732101,90.123398 174.755814,89.453766 174.770111,88.743660 
	C174.849060,84.824860 174.437714,80.896172 173.975693,76.306580 
	C171.812698,74.629272 169.506119,73.105972 167.512344,71.247169 
	C160.113297,64.349052 142.902634,67.566940 139.300018,76.913612 
	C138.107437,80.007637 138.615692,83.734764 138.173828,87.150116 
	C137.953705,88.851562 137.892181,91.221191 136.811066,92.045715 
	C133.134888,94.849350 134.823868,98.250069 136.520187,100.189651 
	C139.133911,103.178192 140.135910,106.301476 139.683624,110.084030 
	C138.395477,110.871483 137.107330,111.658936 135.015518,112.663643 
	C131.266602,113.952133 127.517685,115.240616 123.276833,116.855019 
	C123.165146,117.228607 123.053459,117.602203 122.243301,118.038033 
	C121.543457,118.003090 120.843620,117.968147 119.708397,117.422539 
	C114.624603,112.261063 109.112511,107.866470 101.215820,106.801163 
	C101.436821,108.519577 101.597687,109.770401 101.288857,111.452827 
	C100.696892,112.555115 100.104927,113.657402 99.256737,114.044121 
	C96.501534,108.965683 94.415932,103.349876 90.857613,98.915962 
	C82.343796,88.307129 73.957420,86.223106 62.703178,90.259499 
	C62.459637,89.479477 62.216095,88.699463 62.380234,87.398567 
	C70.085976,81.391800 75.849075,74.046165 78.770332,63.903694 
	C81.341827,57.757721 83.612541,51.308502 92.549820,50.979153 
	C92.999588,51.000404 93.449348,51.021660 94.063210,51.833355 
	C94.508339,53.925911 94.927841,56.024307 95.402969,58.110031 
	C97.694542,68.169579 97.930634,68.324684 108.162552,66.702164 
	C108.296204,66.680969 108.405914,66.508804 108.830086,66.151947 
	C108.830086,63.982178 108.830086,61.552364 109.030548,58.256035 
	C108.756271,56.010155 108.245506,53.758030 108.304565,51.520950 
	C108.335464,50.350945 109.367569,49.207375 110.297218,48.747746 
	C110.898872,51.279171 111.500534,53.810593 112.173119,56.640396 
	C115.227478,56.312065 118.065216,56.007019 121.091515,55.681705 
	C120.947830,53.402340 120.844933,51.770103 121.001129,49.321003 
	C121.702522,47.821598 122.403915,46.322197 123.772446,45.238068 
	C127.490173,47.083447 129.182663,45.862240 129.021698,41.789013 
	C128.970535,40.494217 128.976822,39.197151 129.661255,38.094807 
	C131.397476,38.094807 133.133698,38.094807 135.292694,38.094807 
	C134.356979,33.949966 133.676254,30.934677 132.804718,27.074118 
	C130.911957,27.843029 129.462143,28.431999 127.310097,28.726816 
	C127.014832,27.629353 126.655075,26.544500 126.437469,25.431849 
	C125.956642,22.973354 125.114464,21.392763 122.011971,21.433624 
	C118.700081,21.477245 118.381203,23.511198 117.478149,25.873148 
	C117.478149,25.873148 117.085594,26.170692 116.431892,25.806398 
	C115.823563,23.545954 115.215233,21.285511 114.453682,18.266645 
	C112.617630,13.456522 108.267891,11.783767 105.397057,15.444690 
	C103.967308,17.267918 105.081879,21.086355 104.585258,24.223103 
	C104.485886,24.724638 104.386513,25.226175 103.968178,26.039808 
	C103.968178,26.039808 103.654205,26.356922 102.996773,26.233295 
	C102.348015,26.138124 101.699257,26.042952 100.381912,25.492783 
	C99.621262,20.923347 98.618629,16.377831 98.163925,11.778150 
	C97.647491,6.553933 94.152542,7.739600 90.913719,7.826403 
	C86.920891,7.933414 85.614220,10.222758 86.121735,13.712996 
	C86.669067,17.477140 87.586731,21.187437 87.769730,25.311148 
	C86.102997,27.288038 84.436256,29.264929 82.124619,31.616001 
	C77.819061,34.467262 73.513504,37.318523 68.256462,40.239288 
	C66.262466,40.180542 64.196655,39.764145 62.291283,40.146755 
	C59.423710,40.722580 56.668381,41.857395 53.246021,43.069283 
	C49.171513,46.099693 45.097004,49.130104 40.366837,52.262726 
	C36.041149,56.090340 30.836891,59.271027 29.551481,65.971100 
	C27.680901,68.213371 25.810322,70.455650 23.421244,73.147621 
	C13.018098,83.100174 12.948657,86.563766 21.690502,97.930992 
	C25.921053,103.432076 29.695028,109.351982 33.095047,115.408249 
	C38.224411,124.544899 43.324787,132.939041 52.849136,139.021667 
	C61.083313,144.280334 69.408775,146.189240 78.831985,147.836548 
	C78.831985,144.868088 78.831985,142.431503 79.448936,139.809143 
	C79.852165,139.953003 80.255394,140.096878 80.891205,141.035583 
	C81.509125,145.617584 81.847794,150.259293 82.811905,154.767258 
	C84.179672,161.162613 85.496117,167.654724 87.814240,173.731766 
	C89.440369,177.994720 92.473335,181.805969 95.276169,185.518341 
	C102.236839,194.737808 110.897171,201.273285 123.505600,202.229019 
	C125.064224,201.040482 126.622841,199.851944 128.833084,198.991318 
	C131.634186,202.048203 134.926804,202.837204 139.941559,199.965378 
	C137.153915,197.730865 134.366287,195.496338 131.848190,192.427460 
	C132.274551,191.344162 132.700897,190.260880 133.662552,189.680374 
	C142.862244,202.267944 155.475708,205.976410 168.214584,200.099487 
	C169.961975,200.635803 171.709366,201.172134 174.093246,201.892166 
	C177.684647,200.816162 181.276062,199.740158 184.904434,198.653091 
	C184.927094,198.819580 185.110519,200.167236 185.444656,202.622131 
	C189.831085,201.673782 193.888931,200.796478 198.732925,199.985580 
	C201.138367,198.725418 205.486191,199.972687 205.711166,194.773300 
	C207.378693,193.772888 209.335724,193.060928 210.666672,191.725159 
	C219.133286,183.227646 225.139755,173.321350 227.809143,161.145279 
	C227.906830,160.425110 228.004532,159.704941 228.202301,158.150635 
	C228.167877,156.472626 228.133453,154.794601 228.646729,152.676514 
	C229.093918,150.190231 229.541092,147.703934 229.944778,145.459503 
	C231.476456,146.099472 232.859360,146.677292 234.992157,147.400787 
	C236.259155,147.344925 237.526138,147.289078 239.416626,147.517715 
	C240.265717,147.262787 241.114822,147.007858 242.717758,146.710648 
	C247.845810,144.060150 252.992554,141.445084 258.097931,138.751663 
	C268.254120,133.393616 274.388733,124.609673 279.331879,114.557251 
	C282.071350,108.986206 285.994324,104.009087 289.155151,98.629852 
	C292.198639,93.450272 298.918549,89.149971 294.996765,81.959747 
	C292.891052,78.099144 289.137451,75.137360 286.141144,71.047958 
	C284.109772,68.365051 282.078369,65.682152 279.971924,62.306900 
	C272.378448,55.818741 264.784973,49.330578 256.972412,42.075161 
	C253.986557,41.550961 251.000717,41.026764 247.791336,39.918587 
M708.162231,150.295563 
	C705.537842,144.728699 702.679749,139.256912 700.363342,133.564713 
	C698.529907,129.059372 695.731812,128.020508 690.999146,129.705002 
	C690.999146,140.212555 691.022766,150.677170 690.980164,161.141541 
	C690.971130,163.372986 691.175415,165.030975 694.113647,164.994797 
	C697.218994,164.956558 696.912231,162.952591 697.033752,160.919601 
	C697.368835,155.314224 697.800049,149.714600 698.260437,143.154755 
	C701.413574,150.038269 703.993591,155.978165 706.888489,161.760483 
	C707.558655,163.099121 709.319336,164.736374 710.550232,164.713760 
	C711.796753,164.690842 713.461853,163.013535 714.156250,161.657639 
	C716.992310,156.119751 719.527161,150.427536 722.792786,143.471970 
	C723.262146,150.595612 723.491394,156.185486 724.109375,161.732056 
	C724.237793,162.883987 725.643372,164.414230 726.768982,164.757095 
	C727.560486,164.998199 729.803467,163.539703 729.816589,162.811615 
	C730.016602,151.706818 729.955627,140.597336 729.955627,129.612106 
	C723.228271,128.446030 722.872009,128.650635 720.575012,133.893402 
	C717.537903,140.825165 714.453735,147.736221 711.076111,155.364670 
	C709.948486,153.424606 709.226868,152.183182 708.162231,150.295563 
M463.146088,147.905579 
	C463.512268,147.229126 463.878479,146.552673 464.776947,144.892944 
	C465.239532,151.393417 465.470215,156.782806 466.133575,162.118423 
	C466.263794,163.165726 467.966644,164.532425 469.133698,164.754135 
	C469.906525,164.900940 471.837738,163.282928 471.852417,162.430954 
	C472.040649,151.488190 471.976776,140.541092 471.976776,129.775711 
	C467.407928,127.918976 464.779205,129.150131 463.332367,133.235992 
	C462.613464,135.266205 461.677368,137.221420 460.802307,139.194046 
	C458.359619,144.700562 455.897522,150.198486 453.162689,156.328262 
	C449.631866,148.216644 446.293945,141.039062 443.388245,133.690582 
	C441.618286,129.214249 438.919037,127.911034 434.026398,129.720581 
	C434.026398,140.592590 433.962738,151.543442 434.153076,162.489853 
	C434.167572,163.322708 436.146515,164.915390 436.922272,164.754715 
	C438.082458,164.514404 439.737946,163.123932 439.870087,162.059708 
	C440.530640,156.740021 440.762939,151.367172 441.232971,144.794266 
	C444.185333,150.941513 446.464813,156.054977 449.116608,160.967422 
	C449.836945,162.301849 451.750305,163.912704 452.991577,163.815018 
	C454.581879,163.689804 456.660889,162.301697 457.446960,160.865387 
	C459.592255,156.945480 461.169067,152.714447 463.146088,147.905579 
M639.315552,144.960663 
	C635.652222,144.962418 631.970642,144.759430 628.336243,145.084808 
	C627.174316,145.188858 626.137573,146.692642 625.043579,147.556000 
	C626.199158,148.357803 627.284851,149.688995 628.524597,149.852539 
	C631.205872,150.206192 633.966003,149.961395 637.858948,149.961395 
	C636.263855,153.003510 635.655945,155.175781 634.275269,156.597519 
	C630.771973,160.204849 622.295715,159.834427 618.706299,156.222366 
	C613.962585,151.448700 613.493591,142.967712 617.737244,138.698181 
	C622.630859,133.774704 629.617920,133.195648 634.081238,137.631378 
	C636.835144,140.368240 639.584961,140.617813 642.910461,139.095428 
	C639.150513,130.437592 629.456665,126.385239 620.301758,129.401031 
	C611.509277,132.297409 606.252930,141.391891 608.242676,150.265671 
	C610.833374,161.819778 617.368225,166.367203 629.739441,164.924896 
	C638.037415,163.957458 644.580017,157.423080 644.547180,145.271484 
	C643.142151,145.169769 641.698059,145.065247 639.315552,144.960663 
M843.999634,139.405289 
	C848.671875,146.620056 853.369385,153.818604 858.004822,161.056931 
	C860.114136,164.350540 862.675415,166.092224 866.607605,164.282669 
	C866.607605,152.512573 866.607605,140.952255 866.607605,129.517899 
	C862.278259,128.070877 860.910278,129.441849 860.879517,133.599365 
	C860.836548,139.410522 860.118713,145.216705 859.624329,151.909073 
	C855.146851,144.991806 851.027222,138.966400 847.284363,132.715424 
	C845.106506,129.078079 842.407715,128.133957 837.998474,129.700455 
	C837.998474,140.014359 837.913391,150.460190 838.102844,160.901047 
	C838.127380,162.251968 839.570984,163.577148 840.357239,164.914215 
	C841.238770,163.505966 842.807861,162.134216 842.884888,160.683258 
	C843.254700,153.719498 843.221069,146.734314 843.999634,139.405289 
M971.003601,141.956985 
	C971.646423,136.577286 970.953125,131.330475 964.833923,130.109177 
	C959.232056,128.991104 953.329102,129.317108 947.555481,129.237625 
	C947.052002,129.230698 946.086121,130.939514 946.076111,131.859482 
	C945.966919,141.851562 945.922791,151.846954 946.127136,161.835999 
	C946.148743,162.888748 947.871094,163.906693 948.804443,164.940811 
	C949.868469,163.870651 951.704041,162.895599 951.849915,161.712265 
	C952.266541,158.332153 951.996460,154.867371 951.996460,149.893143 
	C954.767456,151.521683 956.727661,152.108551 957.779602,153.422638 
	C959.415100,155.465500 960.741577,157.889740 961.645691,160.355240 
	C963.327637,164.942032 966.294189,165.898865 971.339233,164.165146 
	C970.160156,161.809265 969.341431,159.490601 967.966797,157.569687 
	C965.126953,153.600845 963.908203,150.073654 968.724976,146.610748 
	C969.810913,145.830048 970.201843,144.082520 971.003601,141.956985 
M785.688782,138.139740 
	C787.955139,138.429886 790.221558,138.720032 792.917175,139.065140 
	C789.842407,130.206253 781.195068,125.992638 772.309998,128.424652 
	C761.250977,131.451752 757.429443,138.315582 758.335876,147.806580 
	C759.430176,159.264923 765.764099,166.720490 781.150330,165.035324 
	C787.321716,164.359390 791.337769,160.841019 791.385742,154.715851 
	C789.412842,155.136841 786.920105,154.904388 785.871216,156.024307 
	C781.212585,160.998154 775.602844,159.541245 770.594421,158.046585 
	C765.203735,156.437851 765.922607,151.082367 765.960083,146.582306 
	C765.968445,145.584152 765.941406,144.584778 765.980896,143.587967 
	C766.236755,137.134338 772.116882,132.642014 778.423157,134.380554 
	C780.758728,135.024429 782.853210,136.543121 785.688782,138.139740 
M504.791473,133.671570 
	C503.998230,130.781723 502.919159,128.783157 499.121613,128.802368 
	C495.497101,128.820740 494.217621,130.451431 493.216339,133.412155 
	C491.148712,139.525986 488.769409,145.534424 486.700531,151.647858 
	C485.298431,155.790970 484.206665,160.039108 482.957947,164.302399 
	C487.005768,165.607895 489.173798,165.009399 490.187439,161.021347 
	C490.513031,159.740295 492.969452,157.999771 494.260803,158.146301 
	C498.772339,158.658173 503.822449,155.851624 507.772461,160.043152 
	C507.964935,160.247375 507.926697,160.676193 507.980255,161.003006 
	C508.700531,165.398651 511.250671,165.682190 515.545898,163.903534 
	C511.984589,153.959976 508.489136,144.200211 504.791473,133.671570 
M337.552734,128.982285 
	C336.698517,130.431747 335.225830,131.828247 335.096405,133.339767 
	C334.516968,140.107727 334.346649,146.909912 333.976929,153.696899 
	C333.677277,159.196640 329.830902,159.077286 325.760162,159.043488 
	C321.839325,159.010925 319.983398,157.556046 319.912994,153.455414 
	C319.799286,146.829208 319.064331,140.207855 319.096954,133.586929 
	C319.120026,128.903976 317.254120,128.208786 312.990906,129.680603 
	C312.990906,137.410477 312.938293,145.038895 313.005951,152.666245 
	C313.071289,160.027466 318.275452,165.671295 325.137878,165.980072 
	C333.238861,166.344574 340.635956,160.622559 340.945984,153.295364 
	C341.241211,146.317230 341.116547,139.312683 340.883911,132.329498 
	C340.845856,131.187683 339.296112,130.096207 337.552734,128.982285 
M811.004883,156.387222 
	C811.004883,154.113281 811.004883,151.839325 811.004883,148.941437 
	C814.940857,148.941437 818.232361,149.067017 821.501770,148.853760 
	C822.326111,148.800018 823.079773,147.662506 823.865906,147.022980 
	C823.120056,146.345535 822.428345,145.171707 821.618225,145.083344 
	C819.149597,144.814056 816.616333,145.137421 814.147583,144.868637 
	C813.075806,144.751968 811.492004,143.974380 811.178772,143.117493 
	C808.992126,137.136322 811.351013,133.971741 817.741760,133.967346 
	C819.073364,133.966431 820.533936,134.306778 821.701172,133.867828 
	C822.931091,133.405334 823.880737,132.197708 824.952881,131.315643 
	C823.948425,130.532364 822.976746,129.127792 821.933899,129.072784 
	C817.286255,128.827728 812.606445,128.791519 807.966980,129.104965 
	C806.920959,129.175629 805.157166,130.933044 805.135559,131.944244 
	C804.921631,141.926605 804.937012,151.916489 805.108765,161.900452 
	C805.126343,162.922546 806.541931,164.748840 807.382751,164.792984 
	C812.527832,165.063126 817.696167,164.991486 822.851562,164.848053 
	C823.537598,164.828979 824.194336,163.758011 824.864685,163.174194 
	C824.169128,162.448792 823.525879,161.168411 822.768677,161.097061 
	C819.962708,160.832626 817.113708,160.850037 814.291443,160.984467 
	C811.527771,161.116089 810.793152,159.702011 811.004883,156.387222 
M924.579773,148.965210 
	C925.911499,148.963684 927.313721,149.222229 928.554688,148.885956 
	C929.745422,148.563278 930.768982,147.623779 931.865967,146.955307 
	C930.764954,146.291031 929.711182,145.174408 928.553345,145.053284 
	C925.840576,144.769440 923.077942,144.962494 920.453308,144.962494 
	C919.236145,134.030472 919.236145,134.030319 928.803284,133.965240 
	C929.469116,133.960709 930.300232,134.213989 930.768066,133.908630 
	C931.916931,133.158752 932.898499,132.152588 933.947327,131.249481 
	C932.922852,130.488007 931.931396,129.127747 930.868225,129.069260 
	C926.387268,128.822678 921.881836,129.063995 917.391541,128.926590 
	C914.721313,128.844894 913.946716,130.011597 913.967896,132.507385 
	C914.049866,142.161636 914.054626,151.817474 913.965271,161.471603 
	C913.941589,164.027634 914.833740,165.075989 917.445557,164.995956 
	C921.769531,164.863464 926.106995,165.090759 930.424438,164.876526 
	C931.597656,164.818314 932.719299,163.720764 933.864624,163.100220 
	C932.645630,162.386597 931.472290,161.173538 930.198792,161.057281 
	C926.968872,160.762451 923.693970,160.959351 920.010803,160.959351 
	C920.010803,157.510712 920.121887,154.869614 919.980530,152.242111 
	C919.831238,149.468307 921.280334,148.758743 924.579773,148.965210 
M559.997253,156.444489 
	C559.997314,157.442810 560.126282,158.461121 559.975098,159.436005 
	C559.305664,163.753143 560.873657,165.508850 565.410339,165.044037 
	C569.197632,164.655975 573.062683,165.085022 576.878113,164.875275 
	C577.902161,164.818970 578.870544,163.751038 579.864502,163.147507 
	C578.828491,162.419769 577.835815,161.151642 576.748474,161.064514 
	C573.343628,160.791702 569.903015,160.964264 566.369141,160.964264 
	C566.369141,156.617111 566.369141,153.058853 566.369141,148.955750 
	C569.511780,148.955750 572.319702,149.128052 575.085876,148.863083 
	C576.065063,148.769272 576.942200,147.609390 577.865906,146.936188 
	C576.925598,146.279846 576.027466,145.145035 575.036926,145.057556 
	C572.152588,144.802856 569.231201,144.967178 566.442871,144.967178 
	C565.256470,134.030640 565.256470,134.030487 574.807495,133.965240 
	C575.473022,133.960693 576.304077,134.214096 576.771362,133.908707 
	C577.919189,133.158539 578.899536,132.152054 579.947266,131.248672 
	C578.923279,130.487473 577.934143,129.131821 576.869202,129.069351 
	C572.557922,128.816437 568.215881,129.116867 563.899902,128.907745 
	C560.762573,128.755737 559.888794,130.037430 559.948303,132.996414 
	C560.098694,140.480652 559.997620,147.969955 559.997253,156.444489 
M652.576294,130.821365 
	C658.264648,140.562714 664.283630,150.156906 664.148560,162.104614 
	C664.138000,163.038940 666.060181,164.749512 667.056030,164.729095 
	C668.056030,164.708603 669.807922,163.021942 669.871826,161.981964 
	C670.250916,155.815994 671.187439,150.011124 674.522949,144.515427 
	C677.289185,139.957687 679.004578,134.762192 681.610901,128.890915 
	C669.283691,129.102264 672.297791,140.828812 667.160828,145.405197 
	C664.909119,140.817825 662.783325,136.243729 660.438110,131.785049 
	C658.503174,128.106323 655.604797,128.016144 652.576294,130.821365 
M388.996521,151.491852 
	C389.005371,155.144852 388.826874,158.814804 389.154510,162.438980 
	C389.236664,163.348328 390.927155,164.739624 391.908722,164.765549 
	C392.908600,164.791946 394.363708,163.608643 394.852417,162.587784 
	C395.372009,161.502472 395.001221,159.986069 395.001770,158.657898 
	C395.005066,150.586166 395.003418,142.514450 395.003418,133.932327 
	C398.056549,133.932327 400.382843,134.163254 402.620056,133.817520 
	C403.502563,133.681137 404.802460,132.248001 404.787689,131.425522 
	C404.772888,130.599670 403.377930,129.118927 402.553436,129.094696 
	C395.917236,128.899567 389.270691,128.897675 382.633820,129.077881 
	C381.754517,129.101730 380.912079,130.482498 380.052582,131.234848 
	C380.924866,132.139679 381.669983,133.589920 382.697418,133.829559 
	C384.525391,134.255920 386.524323,133.949371 388.996521,133.949371 
	C388.996521,139.951462 388.996521,145.223923 388.996521,151.491852 
M894.002441,151.491791 
	C894.002441,145.756393 894.002441,140.020996 894.002441,133.948761 
	C896.704468,133.948761 898.597656,134.266342 900.297852,133.830811 
	C901.334229,133.565323 902.073425,132.139893 902.946167,131.235504 
	C902.086304,130.483459 901.244812,129.105179 900.363770,129.079422 
	C893.894165,128.890381 887.413269,128.868118 880.945129,129.078049 
	C879.952576,129.110275 879.007568,130.605820 878.040527,131.424606 
	C878.981567,132.267929 879.814880,133.620911 880.886414,133.847488 
	C883.057495,134.306564 885.357605,134.155518 887.997559,134.273560 
	C887.997559,136.462509 887.997559,138.096283 887.997620,139.730057 
	C887.997864,146.703293 888.002441,153.676529 887.995728,160.649765 
	C887.993591,162.839203 887.680176,165.047745 891.097595,164.990295 
	C894.626221,164.931000 893.947510,162.510254 893.988953,160.456085 
	C894.042603,157.800705 894.002319,155.143402 894.002441,151.491791 
M543.336853,128.958008 
	C537.853882,128.961044 532.365601,128.841492 526.892944,129.080139 
	C525.907715,129.123077 524.986938,130.641037 524.036377,131.477997 
	C524.996948,132.303925 525.853638,133.623093 526.939941,133.851685 
	C529.109253,134.308197 531.404480,134.166656 533.997314,134.288544 
	C533.997314,136.678787 533.996948,138.485214 533.997375,140.291656 
	C533.998901,147.436111 533.932556,154.581924 534.076782,161.723511 
	C534.098083,162.781097 534.879883,164.219116 535.750549,164.729889 
	C536.370605,165.093643 538.161926,164.492920 538.646606,163.785507 
	C539.211243,162.961456 538.989136,161.552155 538.991760,160.396530 
	C539.011658,151.803452 539.002563,143.210297 539.002563,134.264160 
	C541.191528,134.143204 542.880005,134.318878 544.399353,133.892242 
	C546.001038,133.442520 548.592224,132.596817 548.745483,131.612015 
	C549.301636,128.038315 546.196899,129.233902 543.336853,128.958008 
M353.996826,160.315994 
	C353.382202,164.146194 355.145538,165.441132 358.793549,164.998535 
	C360.434875,164.799408 362.177795,165.237091 363.772583,164.901337 
	C366.180786,164.394363 369.555115,166.827438 370.866394,162.743698 
	C368.527954,162.148392 366.150757,160.944214 363.859528,161.090164 
	C359.663818,161.357468 358.815887,159.616699 358.932312,155.865677 
	C359.169861,148.211716 359.119934,140.541656 358.890167,132.887192 
	C358.850555,131.568604 357.338104,130.294250 356.505981,128.999466 
	C355.669922,130.290253 354.141510,131.564163 354.109589,132.874542 
	C353.894562,141.696518 353.997040,150.526245 353.996826,160.315994 
M415.997742,132.777542 
	C415.999298,142.431702 415.916687,152.087631 416.120392,161.737534 
	C416.143097,162.813171 417.793701,163.854462 418.689331,164.911682 
	C419.458405,163.894348 420.878326,162.887924 420.895630,161.858002 
	C421.063110,151.873779 421.049194,141.884842 420.908539,131.899780 
	C420.894958,130.936996 419.677826,129.991196 419.019379,129.037506 
	C418.014526,129.976593 417.009705,130.915695 415.997742,132.777542 
z"/>
<path fill="#faf5f6" opacity="1.000000" stroke="none" 
	d="
M255.942978,91.115738 
	C247.057724,88.438591 241.577774,82.090919 237.645935,74.096771 
	C236.119034,70.992325 234.664856,67.852127 233.548981,64.384949 
	C234.934906,64.039665 235.949417,64.037651 237.283447,64.040413 
	C239.470551,61.612507 239.611710,60.107895 238.062637,58.626846 
	C235.370407,50.287598 229.882431,44.964642 221.778107,41.811111 
	C222.956940,37.524273 224.030319,33.620899 225.103699,29.717522 
	C230.818588,33.078018 236.533463,36.438515 242.641968,40.296349 
	C245.038986,43.153130 247.042404,45.512569 249.192566,48.180519 
	C254.626724,52.664158 259.642548,57.255775 265.262695,60.920658 
	C274.611908,67.017265 279.389557,75.615631 281.031433,86.331673 
	C281.412811,88.820900 281.862396,91.299683 282.280609,93.783272 
	C287.632812,86.834511 285.821777,79.445419 285.449768,72.131470 
	C285.848846,71.983154 285.988129,71.876572 286.127441,71.769997 
	C289.137451,75.137360 292.891052,78.099144 294.996765,81.959747 
	C298.918549,89.149971 292.198639,93.450272 289.155151,98.629852 
	C285.994324,104.009087 282.071350,108.986206 279.331879,114.557251 
	C274.388733,124.609673 268.254120,133.393616 258.097931,138.751663 
	C252.992554,141.445084 247.845810,144.060150 242.159683,146.528809 
	C240.665451,146.642380 239.729294,146.937805 238.793137,147.233215 
	C237.526138,147.289078 236.259155,147.344925 234.565720,146.966156 
	C234.962204,141.474197 235.785110,136.416885 236.698013,130.806564 
	C229.450226,135.765671 225.669876,145.108231 228.099014,153.116592 
	C228.133453,154.794601 228.167877,156.472626 227.890442,158.788986 
	C227.505936,160.072601 227.433289,160.717865 227.360641,161.363129 
	C225.139755,173.321350 219.133286,183.227646 210.666672,191.725159 
	C209.335724,193.060928 207.378693,193.772888 205.060989,194.808716 
	C204.193253,194.203873 203.975708,193.563614 204.044861,192.656433 
	C205.088409,189.744690 205.845261,187.099854 206.602112,184.455032 
	C205.939056,184.141953 205.276001,183.828873 204.612946,183.515793 
	C203.398514,184.981125 202.184082,186.446457 200.561615,187.928558 
	C194.753494,185.904404 189.989746,186.843781 185.574463,190.985931 
	C184.476791,190.643387 183.714584,190.301407 182.941162,189.661514 
	C182.613434,188.907883 182.296906,188.452148 181.955048,187.668091 
	C182.013077,186.910294 182.096436,186.480835 182.554855,185.942490 
	C183.372803,182.383255 183.815704,178.932922 184.258591,175.482574 
	C183.825241,175.364243 183.391876,175.245895 182.958511,175.127563 
	C182.315262,175.713089 181.672028,176.298630 180.657028,176.875183 
	C173.179993,180.082382 166.074707,183.298553 157.912598,186.993088 
	C167.450058,189.375183 174.091354,186.454056 180.012299,181.459106 
	C180.074631,182.671692 180.130295,183.479385 180.071289,184.603394 
	C175.810699,189.824631 171.664764,194.729523 167.518829,199.634399 
	C155.475708,205.976410 142.862244,202.267944 133.411285,189.090973 
	C133.139008,186.819092 133.118011,185.136612 133.457886,183.593445 
	C135.056839,184.174240 136.507629,184.340805 137.495636,185.105408 
	C141.469284,188.180542 148.535904,188.940964 152.848251,186.542389 
	C152.714172,186.256073 152.642593,185.801193 152.424286,185.714111 
	C145.034439,182.765884 137.714676,179.604141 130.186935,177.058243 
	C127.230965,176.058548 128.106888,178.404068 128.576141,180.248291 
	C127.797401,185.188995 127.668068,189.745972 131.578674,193.261810 
	C134.366287,195.496338 137.153915,197.730865 139.941559,199.965378 
	C134.926804,202.837204 131.634186,202.048203 128.552643,198.415131 
	C127.593330,194.809631 129.409500,190.457077 123.802765,189.671631 
	C120.496689,188.443863 117.451210,187.447617 114.018005,186.324539 
	C114.018005,188.091644 114.018005,189.059204 113.709778,190.288132 
	C110.901543,188.772598 108.401520,186.995697 105.901466,185.218872 
	C106.477852,192.650116 110.081100,196.257065 116.693817,196.493271 
	C115.835068,194.438248 114.903900,192.209946 114.344055,189.880066 
	C117.798668,191.375443 120.881973,192.972397 123.938141,194.913361 
	C124.396164,196.984818 124.881340,198.712234 125.405022,200.576767 
	C124.682404,200.954315 123.846519,201.391037 123.010635,201.827759 
	C110.897171,201.273285 102.236839,194.737808 95.276169,185.518341 
	C92.473335,181.805969 89.440369,177.994720 87.814240,173.731766 
	C85.496117,167.654724 84.179672,161.162613 82.811905,154.767258 
	C81.847794,150.259293 81.509125,145.617584 80.850517,140.238205 
	C81.169304,135.931320 79.880203,133.467804 75.041702,131.647110 
	C76.638054,135.162964 77.735023,137.578949 78.831985,139.994934 
	C78.831985,142.431503 78.831985,144.868088 78.831985,147.836548 
	C69.408775,146.189240 61.083313,144.280334 52.849136,139.021667 
	C43.324787,132.939041 38.224411,124.544899 33.095047,115.408249 
	C29.695028,109.351982 25.921053,103.432076 21.690502,97.930992 
	C12.948657,86.563766 13.018098,83.100174 24.117987,73.104309 
	C24.831882,75.152519 24.895792,77.244911 24.856728,79.335373 
	C24.767780,84.095276 24.926327,88.764709 29.209538,93.197823 
	C29.111418,78.926582 35.037399,68.618729 46.387993,61.103844 
	C47.881077,60.369007 49.061527,59.677769 50.561844,58.791115 
	C53.592995,56.074142 56.304279,53.552586 59.252640,50.782562 
	C62.729126,47.079327 65.968536,43.624554 69.207939,40.169785 
	C73.513504,37.318523 77.819061,34.467262 82.800278,31.511818 
	C84.878647,31.109623 86.281349,30.811613 88.311401,30.380323 
	C88.311401,34.514465 88.311401,38.278374 87.989304,42.180832 
	C83.380577,46.786957 79.093941,51.254532 74.514282,55.922470 
	C73.006523,58.837299 71.791779,61.551773 70.577042,64.266243 
	C71.154854,64.536674 71.732674,64.807106 72.310486,65.077538 
	C73.170532,64.021965 74.030586,62.966400 75.286362,61.944996 
	C76.536301,62.779343 77.390511,63.579525 78.244720,64.379707 
	C75.849075,74.046165 70.085976,81.391800 61.776043,87.615562 
	C57.179100,89.159035 53.186348,90.485504 48.793495,91.664993 
	C44.361954,91.698135 40.330513,91.878265 35.288513,92.103546 
	C39.065121,96.769470 43.111103,96.151039 47.555477,95.740372 
	C53.629337,96.082672 59.186192,96.129478 62.965786,90.827591 
	C73.957420,86.223106 82.343796,88.307129 90.857613,98.915962 
	C94.415932,103.349876 96.501534,108.965683 99.238937,114.810913 
	C99.835449,119.600456 100.449760,123.623199 101.064079,127.645943 
	C101.854774,127.550941 102.645470,127.455940 103.436172,127.360939 
	C102.876968,121.914368 102.317757,116.467804 101.758553,111.021233 
	C101.597687,109.770401 101.436821,108.519577 101.215820,106.801163 
	C109.112511,107.866470 114.624603,112.261063 119.987244,118.016068 
	C121.620438,120.813622 122.974792,123.017647 124.329140,125.221672 
	C124.457253,124.892349 124.585358,124.563026 124.713470,124.233704 
	C128.139267,125.163010 131.565048,126.092323 135.187683,127.288330 
	C144.461319,133.717743 149.700073,142.076019 149.967438,153.226318 
	C149.993713,154.322052 149.939362,155.691910 149.334885,156.488907 
	C142.547211,165.438477 129.831375,169.903748 119.885338,165.417282 
	C114.756622,163.103806 110.902763,157.964096 106.351425,153.878296 
	C105.892342,154.172287 105.554703,154.689407 105.206329,155.606567 
	C106.177132,158.028992 106.811409,160.337402 108.200577,162.024048 
	C114.075256,169.156769 122.032120,171.799530 131.259338,172.117828 
	C132.664093,172.174622 133.823669,172.057449 135.429016,171.999741 
	C141.503387,172.288559 146.654251,171.673706 150.342545,166.465515 
	C157.625244,156.181747 154.944611,136.535553 144.873672,129.222076 
	C141.817642,127.002792 138.350311,125.349884 134.932877,123.143600 
	C131.226227,121.363853 127.658081,119.878067 124.058487,118.078476 
	C123.940964,117.352821 123.854866,116.940964 123.768768,116.529099 
	C127.517685,115.240616 131.266602,113.952133 135.794739,112.706886 
	C137.381393,112.844894 138.188797,112.939659 139.065369,113.230736 
	C139.268143,113.681503 139.462830,113.874283 139.744904,114.433472 
	C139.715683,121.848061 141.024628,123.824081 148.189407,125.593094 
	C145.292770,119.784599 142.845215,114.876625 140.397644,109.968651 
	C140.135910,106.301476 139.133911,103.178192 136.520187,100.189651 
	C134.823868,98.250069 133.134888,94.849350 136.811066,92.045715 
	C137.892181,91.221191 137.953705,88.851562 138.173828,87.150116 
	C138.615692,83.734764 138.107437,80.007637 139.300018,76.913612 
	C142.902634,67.566940 160.113297,64.349052 167.512344,71.247169 
	C169.506119,73.105972 171.812698,74.629272 173.778168,76.885277 
	C172.806488,80.519974 172.954407,85.237846 171.065994,86.285622 
	C167.148010,88.459496 169.489426,89.386093 170.843155,90.976921 
	C170.923615,91.799957 171.004074,92.622993 171.126984,93.880409 
	C172.710785,93.580452 174.181778,93.301857 177.311722,92.709068 
	C175.555664,97.061165 174.177124,100.477638 172.052124,104.037247 
	C170.457764,109.465706 169.609894,114.751015 168.385223,120.024750 
	C165.067139,122.441559 164.193848,126.874008 166.075638,129.408112 
	C156.361450,135.002228 156.370590,143.850677 157.164734,153.420166 
	C158.040451,157.835114 158.707718,161.930893 159.981918,165.828232 
	C161.225082,169.630676 164.257050,171.838608 168.297562,171.833542 
	C173.914505,171.826492 179.530945,171.429138 185.567383,171.252884 
	C188.582947,169.994385 192.820892,172.718109 194.411530,167.932816 
	C200.494080,166.956451 205.904373,160.546982 205.504822,154.817108 
	C204.970276,154.695206 204.473770,154.841858 203.697174,155.167389 
	C199.883881,158.458557 196.350677,161.570862 192.404724,164.700531 
	C187.325867,165.150848 182.659775,165.583786 177.614166,165.909836 
	C169.707901,165.204483 164.966232,161.210678 162.920227,153.559204 
	C162.060242,142.346283 166.286682,134.000046 175.254852,127.676270 
	C177.750046,126.705925 179.893433,125.773415 182.426743,124.804337 
	C188.512482,126.066055 191.005890,123.075645 191.919998,117.970215 
	C195.994232,114.547523 200.068466,111.124825 204.927704,107.667824 
	C207.106628,107.714546 208.500549,107.795578 209.423569,107.849236 
	C209.423569,114.883354 209.423569,121.422249 209.423569,127.961143 
	C209.752335,128.003143 210.081100,128.045151 210.409866,128.087143 
	C211.681717,121.781540 212.953583,115.475937 214.225433,109.170334 
	C217.418701,102.068481 221.549927,95.594872 228.413055,91.597450 
	C233.887131,88.409088 239.650497,85.129654 245.854340,90.599663 
	C247.047760,91.651917 248.824738,92.042336 250.831009,93.198921 
	C260.361328,97.541489 271.632355,96.907471 274.885956,92.016350 
	C268.440796,91.709923 262.191895,91.412827 255.942978,91.115738 
M119.515282,181.650192 
	C118.881386,181.195602 118.247490,180.741013 117.812714,179.647125 
	C118.284531,179.132263 118.753685,178.185715 119.228645,178.182785 
	C120.703575,178.173706 122.180710,178.522919 124.323494,178.828018 
	C120.277275,172.808151 117.355812,172.493744 114.231758,177.026566 
	C112.082535,175.630524 109.933311,174.234482 107.538361,172.678818 
	C106.967545,174.541306 106.505356,176.049362 106.087509,177.412750 
	C109.835449,181.823380 114.326225,183.846100 120.435844,183.766571 
	C120.830048,183.431152 121.224258,183.095718 121.618462,182.760300 
	C121.084000,182.497894 120.549530,182.235489 119.515282,181.650192 
M197.003998,176.395065 
	C196.239517,175.347366 195.041214,173.293167 194.777344,173.406891 
	C191.996933,174.605347 189.365646,176.149796 186.693176,177.598724 
	C187.269562,177.992096 187.845947,178.385468 188.422333,178.778824 
	C188.700684,180.766815 188.979019,182.754807 189.369888,185.546463 
	C190.943878,184.681122 192.471832,183.841080 194.786438,182.975922 
	C201.991867,182.205994 208.203476,173.886200 206.029068,167.852249 
	C203.046143,170.966492 200.077087,174.066269 197.003998,176.395065 
M235.062180,115.600937 
	C230.032471,118.780365 225.002762,121.959793 219.077271,125.705467 
	C232.642212,129.336578 251.921646,113.575722 254.260284,102.301270 
	C247.688171,106.861595 241.678040,111.031975 235.062180,115.600937 
M59.803974,109.561836 
	C70.074249,122.194885 79.521858,127.387604 91.152710,126.153786 
	C86.000214,122.575607 80.735168,118.851952 75.399498,115.232399 
	C69.827553,111.452568 64.187599,107.772980 58.222160,103.813805 
	C58.157848,105.015068 57.954300,105.708672 58.127522,106.290001 
	C58.406685,107.226868 58.934261,108.089714 59.803974,109.561836 
M259.790802,117.095314 
	C259.709106,115.739853 259.627411,114.384392 259.498352,112.242752 
	C249.608124,117.150398 246.280624,125.568787 243.558640,134.510086 
	C251.961792,131.861664 255.606705,124.673927 259.790802,117.095314 
M66.145515,130.279816 
	C63.274910,123.294418 59.796818,116.803726 52.450912,113.263260 
	C52.438839,123.992676 60.357960,134.103790 71.182655,135.347031 
	C69.065742,133.189148 67.881065,131.981537 66.145515,130.279816 
z"/>
<path fill="##faf5f6" opacity="1.000000" stroke="none" 
	d="
M708.333740,150.618668 
	C709.226868,152.183182 709.948486,153.424606 711.076111,155.364670 
	C714.453735,147.736221 717.537903,140.825165 720.575012,133.893402 
	C722.872009,128.650635 723.228271,128.446030 729.955627,129.612106 
	C729.955627,140.597336 730.016602,151.706818 729.816589,162.811615 
	C729.803467,163.539703 727.560486,164.998199 726.768982,164.757095 
	C725.643372,164.414230 724.237793,162.883987 724.109375,161.732056 
	C723.491394,156.185486 723.262146,150.595612 722.792786,143.471970 
	C719.527161,150.427536 716.992310,156.119751 714.156250,161.657639 
	C713.461853,163.013535 711.796753,164.690842 710.550232,164.713760 
	C709.319336,164.736374 707.558655,163.099121 706.888489,161.760483 
	C703.993591,155.978165 701.413574,150.038269 698.260437,143.154755 
	C697.800049,149.714600 697.368835,155.314224 697.033752,160.919601 
	C696.912231,162.952591 697.218994,164.956558 694.113647,164.994797 
	C691.175415,165.030975 690.971130,163.372986 690.980164,161.141541 
	C691.022766,150.677170 690.999146,140.212555 690.999146,129.705002 
	C695.731812,128.020508 698.529907,129.059372 700.363342,133.564713 
	C702.679749,139.256912 705.537842,144.728699 708.333740,150.618668 
z"/>
<path fill="#faf5f6" opacity="1.000000" stroke="none" 
	d="
M463.058594,148.256134 
	C461.169067,152.714447 459.592255,156.945480 457.446960,160.865387 
	C456.660889,162.301697 454.581879,163.689804 452.991577,163.815018 
	C451.750305,163.912704 449.836945,162.301849 449.116608,160.967422 
	C446.464813,156.054977 444.185333,150.941513 441.232971,144.794266 
	C440.762939,151.367172 440.530640,156.740021 439.870087,162.059708 
	C439.737946,163.123932 438.082458,164.514404 436.922272,164.754715 
	C436.146515,164.915390 434.167572,163.322708 434.153076,162.489853 
	C433.962738,151.543442 434.026398,140.592590 434.026398,129.720581 
	C438.919037,127.911034 441.618286,129.214249 443.388245,133.690582 
	C446.293945,141.039062 449.631866,148.216644 453.162689,156.328262 
	C455.897522,150.198486 458.359619,144.700562 460.802307,139.194046 
	C461.677368,137.221420 462.613464,135.266205 463.332367,133.235992 
	C464.779205,129.150131 467.407928,127.918976 471.976776,129.775711 
	C471.976776,140.541092 472.040649,151.488190 471.852417,162.430954 
	C471.837738,163.282928 469.906525,164.900940 469.133698,164.754135 
	C467.966644,164.532425 466.263794,163.165726 466.133575,162.118423 
	C465.470215,156.782806 465.239532,151.393417 464.776947,144.892944 
	C463.878479,146.552673 463.512268,147.229126 463.058594,148.256134 
z"/>
<path fill="#faf5f6" opacity="1.000000" stroke="none" 
	d="
M209.097397,27.091682 
	C211.183990,20.714834 213.270584,14.337989 215.353622,7.971975 
	C226.800247,7.966686 227.161697,8.381991 223.950775,18.914988 
	C221.641235,27.007284 219.891159,34.733883 218.382660,42.507359 
	C217.508545,47.011658 217.023178,51.591393 216.362869,56.137180 
	C216.128525,57.274143 215.920181,58.417194 215.655731,59.547108 
	C213.460846,68.924866 213.130600,69.120392 202.960861,66.561180 
	C203.361359,61.487869 203.773376,56.268536 204.611069,50.557854 
	C205.776688,48.852627 207.013199,47.700363 207.172760,46.414463 
	C207.969620,39.992809 208.483795,33.536076 209.097397,27.091682 
z"/>
<path fill="#faf5f6" opacity="1.000000" stroke="none" 
	d="
M108.830086,59.122551 
	C108.830086,61.552364 108.830086,63.982178 108.830086,66.151947 
	C108.405914,66.508804 108.296204,66.680969 108.162552,66.702164 
	C97.930634,68.324684 97.694542,68.169579 95.402969,58.110031 
	C94.927841,56.024307 94.508339,53.925911 94.042664,51.028252 
	C93.706200,46.135284 93.390274,42.047428 93.079697,37.565056 
	C91.504303,33.087437 89.923569,29.004330 88.342834,24.921227 
	C87.586731,21.187437 86.669067,17.477140 86.121735,13.712996 
	C85.614220,10.222758 86.920891,7.933414 90.913719,7.826403 
	C94.152542,7.739600 97.647491,6.553933 98.163925,11.778150 
	C98.618629,16.377831 99.621262,20.923347 100.713280,26.161051 
	C103.208321,37.354290 105.362404,47.881283 107.581818,58.394489 
	C107.648613,58.710915 108.398613,58.883110 108.830086,59.122551 
z"/>
<path fill="#faf5f6" opacity="1.000000" stroke="none" 
	d="
M639.784790,144.960693 
	C641.698059,145.065247 643.142151,145.169769 644.547180,145.271484 
	C644.580017,157.423080 638.037415,163.957458 629.739441,164.924896 
	C617.368225,166.367203 610.833374,161.819778 608.242676,150.265671 
	C606.252930,141.391891 611.509277,132.297409 620.301758,129.401031 
	C629.456665,126.385239 639.150513,130.437592 642.910461,139.095428 
	C639.584961,140.617813 636.835144,140.368240 634.081238,137.631378 
	C629.617920,133.195648 622.630859,133.774704 617.737244,138.698181 
	C613.493591,142.967712 613.962585,151.448700 618.706299,156.222366 
	C622.295715,159.834427 630.771973,160.204849 634.275269,156.597519 
	C635.655945,155.175781 636.263855,153.003510 637.858948,149.961395 
	C633.966003,149.961395 631.205872,150.206192 628.524597,149.852539 
	C627.284851,149.688995 626.199158,148.357803 625.043579,147.556000 
	C626.137573,146.692642 627.174316,145.188858 628.336243,145.084808 
	C631.970642,144.759430 635.652222,144.962418 639.784790,144.960693 
z"/>
<path fill="#faf5f6" opacity="1.000000" stroke="none" 
	d="
M843.665161,139.581009 
	C843.221069,146.734314 843.254700,153.719498 842.884888,160.683258 
	C842.807861,162.134216 841.238770,163.505966 840.357300,164.914246 
	C839.570984,163.577148 838.127380,162.251968 838.102844,160.901047 
	C837.913391,150.460190 837.998474,140.014359 837.998474,129.700455 
	C842.407715,128.133957 845.106506,129.078079 847.284363,132.715424 
	C851.027222,138.966400 855.146851,144.991806 859.624329,151.909073 
	C860.118713,145.216705 860.836548,139.410522 860.879517,133.599365 
	C860.910278,129.441849 862.278259,128.070877 866.607605,129.517899 
	C866.607605,140.952255 866.607605,152.512573 866.607605,164.282669 
	C862.675415,166.092224 860.114136,164.350540 858.004822,161.056931 
	C853.369385,153.818604 848.671875,146.620056 843.665161,139.581009 
z"/>
<path fill="#faf5f6" opacity="1.000000" stroke="none" 
	d="
M970.958130,142.368530 
	C970.201843,144.082520 969.810913,145.830048 968.724976,146.610748 
	C963.908203,150.073654 965.126953,153.600845 967.966797,157.569687 
	C969.341431,159.490601 970.160156,161.809265 971.339233,164.165146 
	C966.294189,165.898865 963.327637,164.942032 961.645691,160.355240 
	C960.741577,157.889740 959.415100,155.465500 957.779602,153.422638 
	C956.727661,152.108551 954.767456,151.521683 951.996460,149.893143 
	C951.996460,154.867371 952.266541,158.332153 951.849915,161.712265 
	C951.704041,162.895599 949.868469,163.870651 948.804443,164.940796 
	C947.871094,163.906693 946.148743,162.888748 946.127136,161.835999 
	C945.922791,151.846954 945.966919,141.851562 946.076111,131.859482 
	C946.086121,130.939514 947.052002,129.230698 947.555481,129.237625 
	C953.329102,129.317108 959.232056,128.991104 964.833923,130.109177 
	C970.953125,131.330475 971.646423,136.577286 970.958130,142.368530 
M964.062988,135.656174 
	C960.490601,134.949036 956.918152,134.241898 953.345764,133.534775 
	C952.747803,137.430679 952.149780,141.326584 951.564514,145.139664 
	C963.006042,147.384140 965.922424,145.165115 964.062988,135.656174 
z"/>
<path fill="#faf5f6" opacity="1.000000" stroke="none" 
	d="
M785.373169,137.901306 
	C782.853210,136.543121 780.758728,135.024429 778.423157,134.380554 
	C772.116882,132.642014 766.236755,137.134338 765.980896,143.587967 
	C765.941406,144.584778 765.968445,145.584152 765.960083,146.582306 
	C765.922607,151.082367 765.203735,156.437851 770.594421,158.046585 
	C775.602844,159.541245 781.212585,160.998154 785.871216,156.024307 
	C786.920105,154.904388 789.412842,155.136841 791.385742,154.715851 
	C791.337769,160.841019 787.321716,164.359390 781.150330,165.035324 
	C765.764099,166.720490 759.430176,159.264923 758.335876,147.806580 
	C757.429443,138.315582 761.250977,131.451752 772.309998,128.424652 
	C781.195068,125.992638 789.842407,130.206253 792.917175,139.065140 
	C790.221558,138.720032 787.955139,138.429886 785.373169,137.901306 
z"/>
<path fill="#faf5f6" opacity="1.000000" stroke="none" 
	d="
M504.892578,134.056015 
	C508.489136,144.200211 511.984589,153.959976 515.545898,163.903534 
	C511.250671,165.682190 508.700531,165.398651 507.980255,161.003006 
	C507.926697,160.676193 507.964935,160.247375 507.772461,160.043152 
	C503.822449,155.851624 498.772339,158.658173 494.260803,158.146301 
	C492.969452,157.999771 490.513031,159.740295 490.187439,161.021347 
	C489.173798,165.009399 487.005768,165.607895 482.957947,164.302399 
	C484.206665,160.039108 485.298431,155.790970 486.700531,151.647858 
	C488.769409,145.534424 491.148712,139.525986 493.216339,133.412155 
	C494.217621,130.451431 495.497101,128.820740 499.121613,128.802368 
	C502.919159,128.783157 503.998230,130.781723 504.892578,134.056015 
M494.516205,147.925446 
	C494.080841,149.411621 493.645477,150.897797 493.155975,152.568665 
	C497.394928,152.568665 500.912628,152.568665 505.133575,152.568665 
	C503.192413,147.282104 501.466248,142.581070 499.740051,137.880020 
	C499.082947,137.932678 498.425842,137.985336 497.768738,138.037994 
	C496.780426,141.085495 495.792145,144.132996 494.516205,147.925446 
z"/>
<path fill="#faf5f6" opacity="1.000000" stroke="none" 
	d="
M337.998901,128.981873 
	C339.296112,130.096207 340.845856,131.187683 340.883911,132.329498 
	C341.116547,139.312683 341.241211,146.317230 340.945984,153.295364 
	C340.635956,160.622559 333.238861,166.344574 325.137878,165.980072 
	C318.275452,165.671295 313.071289,160.027466 313.005951,152.666245 
	C312.938293,145.038895 312.990906,137.410477 312.990906,129.680603 
	C317.254120,128.208786 319.120026,128.903976 319.096954,133.586929 
	C319.064331,140.207855 319.799286,146.829208 319.912994,153.455414 
	C319.983398,157.556046 321.839325,159.010925 325.760162,159.043488 
	C329.830902,159.077286 333.677277,159.196640 333.976929,153.696899 
	C334.346649,146.909912 334.516968,140.107727 335.096405,133.339767 
	C335.225830,131.828247 336.698517,130.431747 337.998901,128.981873 
z"/>
<path fill="#faf5f6" opacity="1.000000" stroke="none" 
	d="
M811.005676,156.848114 
	C810.793152,159.702011 811.527771,161.116089 814.291443,160.984467 
	C817.113708,160.850037 819.962708,160.832626 822.768677,161.097061 
	C823.525879,161.168411 824.169128,162.448792 824.864685,163.174194 
	C824.194336,163.758011 823.537598,164.828979 822.851562,164.848053 
	C817.696167,164.991486 812.527832,165.063126 807.382751,164.792984 
	C806.541931,164.748840 805.126343,162.922546 805.108765,161.900452 
	C804.937012,151.916489 804.921631,141.926605 805.135559,131.944244 
	C805.157166,130.933044 806.920959,129.175629 807.966980,129.104965 
	C812.606445,128.791519 817.286255,128.827728 821.933899,129.072784 
	C822.976746,129.127792 823.948425,130.532364 824.952881,131.315643 
	C823.880737,132.197708 822.931091,133.405334 821.701172,133.867828 
	C820.533936,134.306778 819.073364,133.966431 817.741760,133.967346 
	C811.351013,133.971741 808.992126,137.136322 811.178772,143.117493 
	C811.492004,143.974380 813.075806,144.751968 814.147583,144.868637 
	C816.616333,145.137421 819.149597,144.814056 821.618225,145.083344 
	C822.428345,145.171707 823.120056,146.345535 823.865906,147.023010 
	C823.079773,147.662506 822.326111,148.800018 821.501770,148.853760 
	C818.232361,149.067017 814.940857,148.941437 811.004883,148.941437 
	C811.004883,151.839325 811.004883,154.113281 811.005676,156.848114 
z"/>
<path fill="#faf5f6" opacity="1.000000" stroke="none" 
	d="
M924.121094,148.966064 
	C921.280334,148.758743 919.831238,149.468307 919.980530,152.242111 
	C920.121887,154.869614 920.010803,157.510712 920.010803,160.959351 
	C923.693970,160.959351 926.968872,160.762451 930.198792,161.057281 
	C931.472290,161.173538 932.645630,162.386597 933.864624,163.100220 
	C932.719299,163.720764 931.597656,164.818314 930.424438,164.876526 
	C926.106995,165.090759 921.769531,164.863464 917.445557,164.995956 
	C914.833740,165.075989 913.941589,164.027634 913.965271,161.471603 
	C914.054626,151.817474 914.049866,142.161636 913.967896,132.507385 
	C913.946716,130.011597 914.721313,128.844894 917.391541,128.926590 
	C921.881836,129.063995 926.387268,128.822678 930.868225,129.069260 
	C931.931396,129.127747 932.922852,130.488007 933.947327,131.249481 
	C932.898499,132.152588 931.916931,133.158752 930.768066,133.908630 
	C930.300232,134.213989 929.469116,133.960709 928.803284,133.965240 
	C919.236145,134.030319 919.236145,134.030472 920.453308,144.962494 
	C923.077942,144.962494 925.840576,144.769440 928.553345,145.053284 
	C929.711182,145.174408 930.764954,146.291031 931.865967,146.955322 
	C930.768982,147.623779 929.745422,148.563278 928.554688,148.885956 
	C927.313721,149.222229 925.911499,148.963684 924.121094,148.966064 
z"/>
<path fill="#faf5f6" opacity="1.000000" stroke="none" 
	d="
M559.997253,155.950867 
	C559.997620,147.969955 560.098694,140.480652 559.948303,132.996414 
	C559.888794,130.037430 560.762573,128.755737 563.899902,128.907745 
	C568.215881,129.116867 572.557922,128.816437 576.869202,129.069351 
	C577.934143,129.131821 578.923279,130.487473 579.947266,131.248688 
	C578.899536,132.152054 577.919189,133.158539 576.771362,133.908707 
	C576.304077,134.214096 575.473022,133.960693 574.807495,133.965240 
	C565.256470,134.030487 565.256470,134.030640 566.442871,144.967178 
	C569.231201,144.967178 572.152588,144.802856 575.036926,145.057556 
	C576.027466,145.145035 576.925598,146.279846 577.865906,146.936188 
	C576.942200,147.609390 576.065063,148.769272 575.085876,148.863083 
	C572.319702,149.128052 569.511780,148.955750 566.369141,148.955750 
	C566.369141,153.058853 566.369141,156.617111 566.369141,160.964264 
	C569.903015,160.964264 573.343628,160.791702 576.748474,161.064514 
	C577.835815,161.151642 578.828491,162.419769 579.864502,163.147522 
	C578.870544,163.751038 577.902161,164.818970 576.878113,164.875275 
	C573.062683,165.085022 569.197632,164.655975 565.410339,165.044037 
	C560.873657,165.508850 559.305664,163.753143 559.975098,159.436005 
	C560.126282,158.461121 559.997314,157.442810 559.997253,155.950867 
z"/>
<path fill="#faf5f6" opacity="1.000000" stroke="none" 
	d="
M652.469299,130.469025 
	C655.604797,128.016144 658.503174,128.106323 660.438110,131.785049 
	C662.783325,136.243729 664.909119,140.817825 667.160828,145.405197 
	C672.297791,140.828812 669.283691,129.102264 681.610901,128.890915 
	C679.004578,134.762192 677.289185,139.957687 674.522949,144.515427 
	C671.187439,150.011124 670.250916,155.815994 669.871826,161.981964 
	C669.807922,163.021942 668.056030,164.708603 667.056030,164.729095 
	C666.060181,164.749512 664.138000,163.038940 664.148560,162.104614 
	C664.283630,150.156906 658.264648,140.562714 652.469299,130.469025 
z"/>
<path fill="#faf5f6" opacity="1.000000" stroke="none" 
	d="
M200.120209,53.105453 
	C198.846466,59.312336 194.687012,55.821388 190.793686,55.808430 
	C191.183273,52.022861 191.551575,48.444103 192.364868,44.383846 
	C194.195099,37.257698 195.580338,30.613052 196.965576,23.968407 
	C197.591003,20.608984 198.216431,17.249563 198.812805,14.046233 
	C201.692535,14.046233 204.093292,14.046233 207.355682,14.046233 
	C206.731552,17.993444 206.183914,21.456837 205.219452,25.459110 
	C204.348434,27.855352 203.767609,29.692181 203.462555,31.573721 
	C202.300217,38.743149 201.226837,45.926994 200.120209,53.105453 
z"/>
<path fill="#faf5f6" opacity="1.000000" stroke="none" 
	d="
M120.742035,50.137871 
	C120.844933,51.770103 120.947830,53.402340 121.091515,55.681705 
	C118.065216,56.007019 115.227478,56.312065 112.173119,56.640396 
	C111.500534,53.810593 110.898872,51.279171 110.120758,47.996201 
	C109.923172,46.170597 109.902054,45.096546 109.939987,43.585529 
	C109.002869,38.755474 108.006699,34.362381 106.720215,29.737919 
	C105.968445,27.671785 105.506981,25.837019 105.045517,24.002253 
	C105.081879,21.086355 103.967308,17.267918 105.397057,15.444690 
	C108.267891,11.783767 112.617630,13.456522 114.130707,18.750534 
	C113.587761,20.160128 113.025436,21.156979 113.200737,22.000544 
	C114.980721,30.565781 116.838501,39.115837 118.808235,47.639236 
	C119.023636,48.571301 120.077225,49.309662 120.742035,50.137871 
z"/>
<path fill="#faf5f6" opacity="1.000000" stroke="none" 
	d="
M388.996521,150.994110 
	C388.996521,145.223923 388.996521,139.951462 388.996521,133.949371 
	C386.524323,133.949371 384.525391,134.255920 382.697418,133.829559 
	C381.669983,133.589920 380.924866,132.139679 380.052582,131.234833 
	C380.912079,130.482498 381.754517,129.101730 382.633820,129.077881 
	C389.270691,128.897675 395.917236,128.899567 402.553436,129.094696 
	C403.377930,129.118927 404.772888,130.599670 404.787689,131.425522 
	C404.802460,132.248001 403.502563,133.681137 402.620056,133.817520 
	C400.382843,134.163254 398.056549,133.932327 395.003418,133.932327 
	C395.003418,142.514450 395.005066,150.586166 395.001770,158.657898 
	C395.001221,159.986069 395.372009,161.502472 394.852417,162.587784 
	C394.363708,163.608643 392.908600,164.791946 391.908722,164.765549 
	C390.927155,164.739624 389.236664,163.348328 389.154510,162.438980 
	C388.826874,158.814804 389.005371,155.144852 388.996521,150.994110 
z"/>
<path fill="#faf5f6" opacity="1.000000" stroke="none" 
	d="
M894.002441,151.989365 
	C894.002319,155.143402 894.042603,157.800705 893.988953,160.456085 
	C893.947510,162.510254 894.626221,164.931000 891.097595,164.990295 
	C887.680176,165.047745 887.993591,162.839203 887.995728,160.649765 
	C888.002441,153.676529 887.997864,146.703293 887.997620,139.730057 
	C887.997559,138.096283 887.997559,136.462509 887.997559,134.273560 
	C885.357605,134.155518 883.057495,134.306564 880.886414,133.847488 
	C879.814880,133.620911 878.981567,132.267929 878.040527,131.424606 
	C879.007568,130.605820 879.952576,129.110275 880.945129,129.078049 
	C887.413269,128.868118 893.894165,128.890381 900.363770,129.079422 
	C901.244812,129.105179 902.086304,130.483459 902.946167,131.235474 
	C902.073425,132.139893 901.334229,133.565323 900.297852,133.830811 
	C898.597656,134.266342 896.704468,133.948761 894.002441,133.948761 
	C894.002441,140.020996 894.002441,145.756393 894.002441,151.989365 
z"/>
<path fill="#faf5f6" opacity="1.000000" stroke="none" 
	d="
M543.810669,128.958008 
	C546.196899,129.233902 549.301636,128.038315 548.745483,131.612015 
	C548.592224,132.596817 546.001038,133.442520 544.399353,133.892242 
	C542.880005,134.318878 541.191528,134.143204 539.002563,134.264160 
	C539.002563,143.210297 539.011658,151.803452 538.991760,160.396530 
	C538.989136,161.552155 539.211243,162.961456 538.646606,163.785507 
	C538.161926,164.492920 536.370605,165.093643 535.750549,164.729889 
	C534.879883,164.219116 534.098083,162.781097 534.076782,161.723511 
	C533.932556,154.581924 533.998901,147.436111 533.997375,140.291656 
	C533.996948,138.485214 533.997314,136.678787 533.997314,134.288544 
	C531.404480,134.166656 529.109253,134.308197 526.939941,133.851685 
	C525.853638,133.623093 524.996948,132.303925 524.036377,131.477997 
	C524.986938,130.641037 525.907715,129.123077 526.892944,129.080139 
	C532.365601,128.841492 537.853882,128.961044 543.810669,128.958008 
z"/>
<path fill="#faf5f6" opacity="1.000000" stroke="none" 
	d="
M46.075356,61.147438 
	C35.037399,68.618729 29.111418,78.926582 29.209538,93.197823 
	C24.926327,88.764709 24.767780,84.095276 24.856728,79.335373 
	C24.895792,77.244911 24.831882,75.152519 24.377235,72.879471 
	C25.810322,70.455650 27.680901,68.213371 30.254560,65.843857 
	C33.652534,63.870052 36.347431,62.023506 39.403938,60.111523 
	C41.886475,58.841938 44.007401,57.637787 46.102699,56.911827 
	C46.076504,58.642494 46.075928,59.894966 46.075356,61.147438 
z"/>
<path fill="#faf5f6" opacity="1.000000" stroke="none" 
	d="
M353.996735,159.834717 
	C353.997040,150.526245 353.894562,141.696518 354.109589,132.874542 
	C354.141510,131.564163 355.669922,130.290253 356.505981,128.999451 
	C357.338104,130.294250 358.850555,131.568604 358.890167,132.887192 
	C359.119934,140.541656 359.169861,148.211716 358.932312,155.865677 
	C358.815887,159.616699 359.663818,161.357468 363.859528,161.090164 
	C366.150757,160.944214 368.527954,162.148392 370.866394,162.743698 
	C369.555115,166.827438 366.180786,164.394363 363.772583,164.901337 
	C362.177795,165.237091 360.434875,164.799408 358.793549,164.998535 
	C355.145538,165.441132 353.382202,164.146194 353.996735,159.834717 
z"/>
<path fill="#faf5f6" opacity="1.000000" stroke="none" 
	d="
M182.952393,189.959442 
	C183.714584,190.301407 184.476791,190.643387 185.692505,191.321793 
	C188.770630,191.408951 191.391586,191.104050 194.021255,190.932983 
	C195.415802,190.842270 196.825470,190.983932 198.077560,191.270325 
	C197.582367,191.985046 197.237900,192.450165 196.612457,193.077240 
	C195.670944,194.286102 195.010422,195.333008 194.847977,195.590454 
	C196.151505,197.411346 197.049133,198.665253 197.946762,199.919159 
	C193.888931,200.796478 189.831085,201.673782 185.444656,202.622131 
	C185.110519,200.167236 184.927094,198.819580 184.904434,198.653091 
	C181.276062,199.740158 177.684647,200.816162 173.642670,201.487213 
	C175.403793,198.357727 177.615509,195.633224 180.167358,192.897110 
	C181.322464,191.910156 182.137421,190.934799 182.952393,189.959442 
z"/>
<path fill="#faf5f6" opacity="1.000000" stroke="none" 
	d="
M216.664307,56.036407 
	C217.023178,51.591393 217.508545,47.011658 218.382660,42.507359 
	C219.891159,34.733883 221.641235,27.007284 223.655121,19.146698 
	C224.317474,22.338182 224.614670,25.643991 225.007782,29.333660 
	C224.030319,33.620899 222.956940,37.524273 221.778107,41.811111 
	C229.882431,44.964642 235.370407,50.287598 237.752106,58.793644 
	C237.318527,59.783558 237.182251,60.229324 236.687012,60.532677 
	C234.190704,57.420219 232.248779,54.280540 229.859924,51.528851 
	C227.566544,48.887135 224.809998,46.647526 221.341171,43.364441 
	C220.675385,47.149044 220.339661,49.057438 220.003937,50.965828 
	C218.991211,52.622433 217.978485,54.279037 216.664307,56.036407 
z"/>
<path fill="#faf5f6" opacity="1.000000" stroke="none" 
	d="
M257.191528,42.842407 
	C264.784973,49.330578 272.378448,55.818741 279.699738,62.708714 
	C279.237122,63.198479 279.046661,63.286434 278.518860,63.222130 
	C268.015442,58.727383 258.719238,53.086796 251.108307,44.688595 
	C251.106308,44.448807 251.039673,43.973866 251.330658,43.720253 
	C253.478271,43.258564 255.334900,43.050484 257.191528,42.842407 
z"/>
<path fill="#faf5f6" opacity="1.000000" stroke="none" 
	d="
M166.222046,129.080124 
	C164.193848,126.874008 165.067139,122.441559 168.813599,120.120323 
	C175.383255,119.259666 171.972504,114.626038 172.999634,111.765480 
	C177.409622,112.779060 181.819595,113.792641 186.752869,115.237091 
	C186.978592,116.774437 187.027039,118.313202 186.305862,118.890373 
	C185.094437,119.859924 183.393463,120.217796 181.521500,120.841461 
	C178.703842,122.153900 174.540573,121.461967 174.731995,125.958221 
	C171.707870,126.876625 168.964966,127.978371 166.222046,129.080124 
z"/>
<path fill="#faf5f6" opacity="1.000000" stroke="none" 
	d="
M416.001282,132.316162 
	C417.009705,130.915695 418.014526,129.976593 419.019379,129.037506 
	C419.677826,129.991196 420.894958,130.936996 420.908539,131.899780 
	C421.049194,141.884842 421.063110,151.873779 420.895630,161.858002 
	C420.878326,162.887924 419.458405,163.894348 418.689331,164.911682 
	C417.793701,163.854462 416.143097,162.813171 416.120392,161.737534 
	C415.916687,152.087631 415.999298,142.431702 416.001282,132.316162 
z"/>
<path fill="#faf5f6" opacity="1.000000" stroke="none" 
	d="
M200.435852,52.992882 
	C201.226837,45.926994 202.300217,38.743149 203.462555,31.573721 
	C203.767609,29.692181 204.348434,27.855352 205.165207,25.873882 
	C206.444061,26.298149 207.360336,26.846527 208.686996,27.243294 
	C208.483795,33.536076 207.969620,39.992809 207.172760,46.414463 
	C207.013199,47.700363 205.776688,48.852627 204.684891,50.139904 
	C204.111664,49.619446 203.890289,49.025593 203.548218,48.107948 
	C202.503906,49.889992 201.627716,51.385151 200.435852,52.992882 
z"/>
<path fill="#faf5f6" opacity="1.000000" stroke="none" 
	d="
M46.128319,56.433632 
	C44.007401,57.637787 41.886475,58.841938 39.385914,59.720486 
	C39.678349,56.983425 40.350422,54.571972 41.022495,52.160515 
	C45.097004,49.130104 49.171513,46.099693 53.960548,42.889893 
	C57.047993,42.533524 59.420906,42.356552 61.793823,42.179581 
	C61.857166,42.588585 61.920509,42.997589 61.983856,43.406597 
	C60.644569,44.565392 59.305286,45.724186 57.648682,46.991875 
	C55.553413,48.398930 53.775471,49.697090 51.677219,51.095932 
	C49.614048,52.942284 47.871181,54.687958 46.128319,56.433632 
z"/>
<path fill="#faf5f6" opacity="1.000000" stroke="none" 
	d="
M104.815384,24.112679 
	C105.506981,25.837019 105.968445,27.671785 106.671936,30.143328 
	C105.085793,37.068153 106.140701,41.776516 109.880928,44.022491 
	C109.902054,45.096546 109.923172,46.170597 109.945892,47.648258 
	C109.367569,49.207375 108.335464,50.350945 108.304565,51.520950 
	C108.245506,53.758030 108.756271,56.010155 108.930313,58.689293 
	C108.398613,58.883110 107.648613,58.710915 107.581818,58.394489 
	C105.362404,47.881283 103.208321,37.354290 101.047577,26.388550 
	C101.699257,26.042952 102.348015,26.138124 103.477463,26.449707 
	C104.067810,26.353317 104.177475,26.040514 104.287140,25.727713 
	C104.386513,25.226175 104.485886,24.724638 104.815384,24.112679 
z"/>
<path fill="#faf5f6" opacity="1.000000" stroke="none" 
	d="
M185.024429,28.005182 
	C185.316574,21.380507 185.845383,20.976774 192.324463,22.656097 
	C190.680710,26.322855 188.621170,29.464430 188.087418,32.846786 
	C187.520554,36.438866 188.401108,40.259357 188.649612,43.980103 
	C186.948807,45.233955 185.248001,46.487804 183.547195,47.741653 
	C183.084869,47.373016 182.622543,47.004375 182.160217,46.635735 
	C182.160217,44.752159 182.160217,42.868580 182.613373,40.476334 
	C183.719147,35.980175 184.371796,31.992678 185.024429,28.005182 
z"/>
<path fill="#faf5f6" opacity="1.000000" stroke="none" 
	d="
M78.507523,64.141701 
	C77.390511,63.579525 76.536301,62.779343 75.408218,61.657078 
	C75.491356,60.399246 75.848373,59.463490 76.433762,58.255249 
	C80.539223,52.449699 82.924316,45.120632 91.877670,44.882191 
	C91.877670,47.289936 91.877670,49.096348 91.877670,50.902760 
	C83.612541,51.308502 81.341827,57.757721 78.507523,64.141701 
z"/>
<path fill="#faf5f6" opacity="1.000000" stroke="none" 
	d="
M228.372864,152.896545 
	C225.669876,145.108231 229.450226,135.765671 236.698013,130.806564 
	C235.785110,136.416885 234.962204,141.474197 234.190765,146.893311 
	C232.859360,146.677292 231.476456,146.099472 229.944778,145.459503 
	C229.541092,147.703934 229.093918,150.190231 228.372864,152.896545 
z"/>
<path fill="#faf5f6" opacity="1.000000" stroke="none" 
	d="
M128.956818,37.901127 
	C128.976822,39.197151 128.970535,40.494217 129.021698,41.789013 
	C129.182663,45.862240 127.490173,47.083447 123.434959,44.649094 
	C123.027382,42.791119 122.957283,41.522125 122.921509,39.792820 
	C122.949875,37.507397 122.943916,35.682285 122.972122,33.454117 
	C122.335785,29.775732 121.665283,26.500397 120.994774,23.225061 
	C122.620285,23.637691 123.499847,24.597935 124.017517,25.724472 
	C125.701935,29.390078 127.254044,33.116486 128.826691,36.997238 
	C128.793427,37.429367 128.846939,37.671413 128.956818,37.901127 
z"/>
<path fill="#faf5f6" opacity="1.000000" stroke="none" 
	d="
M220.432205,51.009346 
	C220.339661,49.057438 220.675385,47.149044 221.341171,43.364441 
	C224.809998,46.647526 227.566544,48.887135 229.859924,51.528851 
	C232.248779,54.280540 234.190704,57.420219 236.647263,60.856720 
	C236.965622,62.227337 236.964783,63.131489 236.963928,64.035645 
	C235.949417,64.037651 234.934906,64.039665 233.540024,64.029358 
	C231.610199,61.166759 229.646347,58.457958 228.613068,55.431454 
	C227.226730,51.370865 224.583725,50.490543 220.432205,51.009346 
z"/>
<path fill="#faf5f6" opacity="1.000000" stroke="none" 
	d="
M188.937256,43.888256 
	C188.401108,40.259357 187.520554,36.438866 188.087418,32.846786 
	C188.621170,29.464430 190.680710,26.322855 192.407227,22.967369 
	C193.900360,23.347105 195.055283,23.834824 196.587891,24.145473 
	C195.580338,30.613052 194.195099,37.257698 192.440689,43.978527 
	C191.996933,43.904785 191.922363,43.754860 191.905060,42.941864 
	C192.706665,37.104607 193.450989,31.930428 194.195312,26.756247 
	C188.897995,31.452360 189.253738,37.143925 189.997437,42.910255 
	C189.739929,43.205639 189.482422,43.501022 188.937256,43.888256 
z"/>
<path fill="#faf5f6" opacity="1.000000" stroke="none" 
	d="
M92.213745,50.940956 
	C91.877670,49.096348 91.877670,47.289936 91.877670,44.882191 
	C82.924316,45.120632 80.539223,52.449699 76.291336,57.883675 
	C75.549461,57.097099 75.178383,56.409603 74.807304,55.722107 
	C79.093941,51.254532 83.380577,46.786957 88.260361,42.019794 
	C90.260460,40.466660 91.667412,39.213116 93.074356,37.959568 
	C93.390274,42.047428 93.706200,46.135284 93.960617,50.633030 
	C93.449348,51.021660 92.999588,51.000404 92.213745,50.940956 
z"/>
<path fill="#faf5f6" opacity="1.000000" stroke="none" 
	d="
M179.827225,192.908722 
	C177.615509,195.633224 175.403793,198.357727 173.324417,201.395355 
	C171.709366,201.172134 169.961975,200.635803 167.866699,199.866943 
	C171.664764,194.729523 175.810699,189.824631 180.398926,184.560562 
	C181.287399,184.818054 181.733597,185.434723 182.179794,186.051376 
	C182.096436,186.480835 182.013077,186.910294 181.678162,187.863251 
	C180.893478,189.894089 180.360352,191.401398 179.827225,192.908722 
z"/>
<path fill="#faf5f6" opacity="1.000000" stroke="none" 
	d="
M255.866669,91.480293 
	C262.191895,91.412827 268.440796,91.709923 274.885956,92.016350 
	C271.632355,96.907471 260.361328,97.541489 251.156967,93.335693 
	C252.586395,92.622696 254.188385,92.233772 255.866669,91.480293 
z"/>
<path fill="#faf5f6" opacity="1.000000" stroke="none" 
	d="
M213.824615,109.144440 
	C212.953583,115.475937 211.681717,121.781540 210.409866,128.087143 
	C210.081100,128.045151 209.752335,128.003143 209.423569,127.961143 
	C209.423569,121.422249 209.423569,114.883354 209.423569,107.849236 
	C208.500549,107.795578 207.106628,107.714546 205.264267,107.525063 
	C206.686447,106.233284 208.557083,105.049965 210.554962,103.786140 
	C211.717300,105.946609 212.570557,107.532585 213.824615,109.144440 
z"/>
<path fill="#faf5f6" opacity="1.000000" stroke="none" 
	d="
M122.887192,40.253128 
	C122.957283,41.522125 123.027382,42.791119 123.101395,44.441456 
	C122.403915,46.322197 121.702522,47.821598 120.871582,49.729435 
	C120.077225,49.309662 119.023636,48.571301 118.808235,47.639236 
	C116.838501,39.115837 114.980721,30.565781 113.200737,22.000544 
	C113.025436,21.156979 113.587761,20.160128 114.207321,19.129745 
	C115.215233,21.285511 115.823563,23.545954 116.757278,26.407059 
	C118.034088,32.268486 118.985519,37.529251 120.152824,43.983707 
	C121.781410,41.761772 122.334297,41.007450 122.887192,40.253128 
z"/>
<path fill="#faf5f6" opacity="1.000000" stroke="none" 
	d="
M62.834480,90.543549 
	C59.186192,96.129478 53.629337,96.082672 47.614502,95.460709 
	C47.887318,94.016846 48.540455,92.914406 49.193592,91.811974 
	C53.186348,90.485504 57.179100,89.159035 61.572205,87.875999 
	C62.216095,88.699463 62.459637,89.479477 62.834480,90.543549 
z"/>
<path fill="#faf5f6" opacity="1.000000" stroke="none" 
	d="
M57.966003,46.882988 
	C59.305286,45.724186 60.644569,44.565392 61.983856,43.406597 
	C61.920509,42.997589 61.857166,42.588585 61.793823,42.179581 
	C59.420906,42.356552 57.047993,42.533524 54.270203,42.732536 
	C56.668381,41.857395 59.423710,40.722580 62.291283,40.146755 
	C64.196655,39.764145 66.262466,40.180542 68.732201,40.204536 
	C65.968536,43.624554 62.729126,47.079327 59.227642,50.418446 
	C58.632378,49.162861 58.299194,48.022923 57.966003,46.882988 
z"/>
<path fill="#faf5f6" opacity="1.000000" stroke="none" 
	d="
M124.089928,118.392273 
	C127.658081,119.878067 131.226227,121.363853 134.924942,123.593140 
	C135.033951,125.231636 135.012390,126.126633 134.990845,127.021629 
	C131.565048,126.092323 128.139267,125.163010 124.713470,124.233704 
	C124.585358,124.563026 124.457253,124.892349 124.329140,125.221672 
	C122.974792,123.017647 121.620438,120.813622 120.204933,118.271408 
	C120.843620,117.968147 121.543457,118.003090 122.760010,118.166351 
	C123.276711,118.294670 123.658119,118.553818 123.658119,118.553818 
	C123.658119,118.553818 124.089928,118.392273 124.089928,118.392273 
z"/>
<path fill="#faf5f6" opacity="1.000000" stroke="none" 
	d="
M93.079697,37.565056 
	C91.667412,39.213116 90.260460,40.466660 88.582458,41.881245 
	C88.311401,38.278374 88.311401,34.514465 88.311401,30.380323 
	C86.281349,30.811613 84.878647,31.109623 83.122734,31.324726 
	C84.436256,29.264929 86.102997,27.288038 88.056282,25.116188 
	C89.923569,29.004330 91.504303,33.087437 93.079697,37.565056 
z"/>
<path fill="#faf5f6" opacity="1.000000" stroke="none" 
	d="
M184.636276,27.968679 
	C184.371796,31.992678 183.719147,35.980175 182.716187,40.058914 
	C181.981598,39.666771 181.597351,39.183380 181.087555,37.987709 
	C181.277008,35.649475 181.645386,34.031677 181.895538,32.395798 
	C182.367249,29.311123 180.930176,28.686470 178.009430,29.348223 
	C178.009430,32.509132 178.009430,35.316338 178.009430,38.123543 
	C175.975204,37.057072 175.141449,35.292465 176.098831,32.149776 
	C176.628906,30.409811 177.939529,28.494200 179.454391,27.603123 
	C180.593597,26.933014 182.617859,27.767485 184.636276,27.968679 
z"/>
<path fill="#faf5f6" opacity="1.000000" stroke="none" 
	d="
M138.996216,113.034424 
	C138.188797,112.939659 137.381393,112.844894 136.196579,112.598267 
	C137.107330,111.658936 138.395477,110.871483 140.040634,110.026337 
	C142.845215,114.876625 145.292770,119.784599 148.189407,125.593094 
	C141.024628,123.824081 139.715683,121.848061 139.795944,114.174179 
	C139.545837,113.336021 139.271027,113.185226 138.996216,113.034424 
z"/>
<path fill="#faf5f6" opacity="1.000000" stroke="none" 
	d="
M128.857071,36.819492 
	C127.254044,33.116486 125.701935,29.390078 124.017517,25.724472 
	C123.499847,24.597935 122.620285,23.637691 120.994774,23.225061 
	C121.665283,26.500397 122.335785,29.775732 122.686630,33.288578 
	C120.900658,30.958048 119.434364,28.390007 117.968063,25.821966 
	C118.381203,23.511198 118.700081,21.477245 122.011971,21.433624 
	C125.114464,21.392763 125.956642,22.973354 126.437469,25.431849 
	C126.655075,26.544500 127.014832,27.629353 127.706665,29.288895 
	C128.354507,32.173813 128.605789,34.496651 128.857071,36.819492 
z"/>
<path fill="#faf5f6" opacity="1.000000" stroke="none" 
	d="
M40.694664,52.211620 
	C40.350422,54.571972 39.678349,56.983425 39.024300,59.785919 
	C36.347431,62.023506 33.652534,63.870052 30.639706,65.810570 
	C30.836891,59.271027 36.041149,56.090340 40.694664,52.211620 
z"/>
<path fill="#faf5f6" opacity="1.000000" stroke="none" 
	d="
M128.826691,36.997238 
	C128.605789,34.496651 128.354507,32.173813 128.057770,29.435970 
	C129.462143,28.431999 130.911957,27.843029 132.804718,27.074118 
	C133.676254,30.934677 134.356979,33.949966 135.292694,38.094807 
	C133.133698,38.094807 131.397476,38.094807 129.309021,37.997967 
	C128.846939,37.671413 128.793427,37.429367 128.826691,36.997238 
z"/>
<path fill="#faf5f6" opacity="1.000000" stroke="none" 
	d="
M181.898453,120.833015 
	C183.393463,120.217796 185.094437,119.859924 186.305862,118.890373 
	C187.027039,118.313202 186.978592,116.774437 187.111115,115.347847 
	C188.371170,115.979446 189.796265,116.931183 191.570679,117.926567 
	C191.005890,123.075645 188.512482,126.066055 182.432083,124.403870 
	C181.997818,122.970985 181.948135,121.902000 181.898453,120.833015 
z"/>
<path fill="#faf5f6" opacity="1.000000" stroke="none" 
	d="
M117.723106,25.847557 
	C119.434364,28.390007 120.900658,30.958048 122.652458,33.691628 
	C122.943916,35.682285 122.949875,37.507397 122.921509,39.792816 
	C122.334297,41.007450 121.781410,41.761772 120.152824,43.983707 
	C118.985519,37.529251 118.034088,32.268486 117.084129,26.589207 
	C117.085594,26.170692 117.478149,25.873148 117.723106,25.847557 
z"/>
<path fill="#faf5f6" opacity="1.000000" stroke="none" 
	d="
M173.021210,111.375702 
	C171.972504,114.626038 175.383255,119.259666 169.190399,120.131912 
	C169.609894,114.751015 170.457764,109.465706 171.691574,104.143166 
	C172.399261,106.399269 172.721024,108.692596 173.021210,111.375702 
z"/>
<path fill="#faf5f6" opacity="1.000000" stroke="none" 
	d="
M198.339844,199.952362 
	C197.049133,198.665253 196.151505,197.411346 194.847977,195.590454 
	C195.010422,195.333008 195.670944,194.286102 196.844482,193.378784 
	C199.491043,193.320023 201.624603,193.121689 203.758148,192.923340 
	C203.975708,193.563614 204.193253,194.203873 204.742004,194.959137 
	C205.486191,199.972687 201.138367,198.725418 198.339844,199.952362 
z"/>
<path fill="#faf5f6" opacity="1.000000" stroke="none" 
	d="
M171.239594,90.894318 
	C169.489426,89.386093 167.148010,88.459496 171.065994,86.285622 
	C172.954407,85.237846 172.806488,80.519974 173.887573,77.217422 
	C174.437714,80.896172 174.849060,84.824860 174.770111,88.743660 
	C174.755814,89.453766 172.732101,90.123398 171.239594,90.894318 
z"/>
<path fill="#faf5f6" opacity="1.000000" stroke="none" 
	d="
M190.322250,43.001690 
	C189.253738,37.143925 188.897995,31.452360 194.195312,26.756247 
	C193.450989,31.930428 192.706665,37.104607 191.978622,42.701706 
	C191.545624,43.114120 191.096344,43.103619 190.322250,43.001690 
z"/>
<path fill="#faf5f6" opacity="1.000000" stroke="none" 
	d="
M131.713440,192.844635 
	C127.668068,189.745972 127.797401,185.188995 128.882294,180.360626 
	C130.675995,181.274841 131.886505,182.364471 133.097015,183.454117 
	C133.118011,185.136612 133.139008,186.819092 133.143631,188.839584 
	C132.700897,190.260880 132.274551,191.344162 131.713440,192.844635 
z"/>
<path fill="#faf5f6" opacity="1.000000" stroke="none" 
	d="
M101.523705,111.237030 
	C102.317757,116.467804 102.876968,121.914368 103.436172,127.360939 
	C102.645470,127.455940 101.854774,127.550941 101.064079,127.645943 
	C100.449760,123.623199 99.835449,119.600456 99.367050,115.168701 
	C100.104927,113.657402 100.696892,112.555115 101.523705,111.237030 
z"/>
<path fill="#faf5f6" opacity="1.000000" stroke="none" 
	d="
M123.258118,202.028381 
	C123.846519,201.391037 124.682404,200.954315 125.405022,200.576767 
	C124.881340,198.712234 124.396164,196.984818 123.946999,194.444397 
	C124.009781,192.388641 124.036560,191.145905 124.063347,189.903152 
	C129.409500,190.457077 127.593330,194.809631 128.226837,198.251160 
	C126.622841,199.851944 125.064224,201.040482 123.258118,202.028381 
z"/>
<path fill="#faf5f6" opacity="1.000000" stroke="none" 
	d="
M251.039673,43.973866 
	C251.039673,43.973866 251.106308,44.448807 250.820282,44.832508 
	C250.038116,46.101475 249.541977,46.986744 249.045822,47.872009 
	C247.042404,45.512569 245.038986,43.153130 242.926636,40.466682 
	C244.475571,40.065979 246.133453,39.992283 247.865250,40.623383 
	C248.972672,42.210072 250.006165,43.091969 251.039673,43.973866 
z"/>
<path fill="#faf5f6" opacity="1.000000" stroke="none" 
	d="
M178.379364,38.189522 
	C178.009430,35.316338 178.009430,32.509132 178.009430,29.348223 
	C180.930176,28.686470 182.367249,29.311123 181.895538,32.395798 
	C181.645386,34.031677 181.277008,35.649475 180.976761,37.698910 
	C180.244110,38.166759 179.496704,38.211128 178.379364,38.189522 
z"/>
<path fill="#faf5f6" opacity="1.000000" stroke="none" 
	d="
M278.856171,63.374397 
	C279.046661,63.286434 279.237122,63.198479 279.737274,63.054890 
	C282.078369,65.682152 284.109772,68.365051 286.134277,71.408981 
	C285.988129,71.876572 285.848846,71.983154 285.213959,71.872559 
	C282.764313,68.895058 280.810242,66.134727 278.856171,63.374397 
z"/>
<path fill="#faf5f6" opacity="1.000000" stroke="none" 
	d="
M79.140457,139.902039 
	C77.735023,137.578949 76.638054,135.162964 75.041702,131.647110 
	C79.880203,133.467804 81.169304,135.931320 80.734222,139.840790 
	C80.255394,140.096878 79.852165,139.953003 79.140457,139.902039 
z"/>
<path fill="#faf5f6" opacity="1.000000" stroke="none" 
	d="
M251.330658,43.720253 
	C250.006165,43.091969 248.972672,42.210072 247.977020,40.915367 
	C251.000717,41.026764 253.986557,41.550961 257.081970,42.458782 
	C255.334900,43.050484 253.478271,43.258564 251.330658,43.720253 
z"/>
<path fill="#faf5f6" opacity="1.000000" stroke="none" 
	d="
M239.104889,147.375458 
	C239.729294,146.937805 240.665451,146.642380 241.782761,146.549957 
	C241.114822,147.007858 240.265717,147.262787 239.104889,147.375458 
z"/>
<path fill="#faf5f6" opacity="1.000000" stroke="none" 
	d="
M227.584900,161.254211 
	C227.433289,160.717865 227.505936,160.072601 227.840408,159.206055 
	C228.004532,159.704941 227.906830,160.425110 227.584900,161.254211 
z"/>
<path fill="#faf5f6" opacity="1.000000" stroke="none" 
	d="
M124.058487,118.078476 
	C124.089928,118.392273 123.658119,118.553818 123.658119,118.553818 
	C123.658119,118.553818 123.276711,118.294670 123.109238,118.135239 
	C123.053459,117.602203 123.165146,117.228607 123.522797,116.692062 
	C123.854866,116.940964 123.940964,117.352821 124.058487,118.078476 
z"/>
<path fill="#faf5f6" opacity="1.000000" stroke="none" 
	d="
M135.187683,127.288330 
	C135.012390,126.126633 135.033951,125.231636 135.063431,123.887100 
	C138.350311,125.349884 141.817642,127.002792 144.873672,129.222076 
	C154.944611,136.535553 157.625244,156.181747 150.342545,166.465515 
	C146.654251,171.673706 141.503387,172.288559 135.219391,171.747894 
	C133.380692,171.605682 132.197418,171.774750 131.014145,171.943832 
	C122.032120,171.799530 114.075256,169.156769 108.200577,162.024048 
	C106.811409,160.337402 106.177132,158.028992 105.559296,155.374634 
	C106.106277,154.528915 106.289566,154.315170 106.472855,154.101425 
	C110.902763,157.964096 114.756622,163.103806 119.885338,165.417282 
	C129.831375,169.903748 142.547211,165.438477 149.334885,156.488907 
	C149.939362,155.691910 149.993713,154.322052 149.967438,153.226318 
	C149.700073,142.076019 144.461319,133.717743 135.187683,127.288330 
z"/>
<path fill="#faf5f6" opacity="1.000000" stroke="none" 
	d="
M278.518860,63.222134 
	C280.810242,66.134727 282.764313,68.895058 284.954193,71.914299 
	C285.821777,79.445419 287.632812,86.834511 282.280609,93.783272 
	C281.862396,91.299683 281.412811,88.820900 281.031433,86.331673 
	C279.389557,75.615631 274.611908,67.017265 265.262695,60.920658 
	C259.642548,57.255775 254.626724,52.664158 249.192566,48.180515 
	C249.541977,46.986744 250.038116,46.101475 250.822296,45.072296 
	C258.719238,53.086796 268.015442,58.727383 278.518860,63.222134 
z"/>
<path fill="#faf5f6" opacity="1.000000" stroke="none" 
	d="
M235.365036,115.401649 
	C241.678040,111.031975 247.688171,106.861595 254.260284,102.301270 
	C251.921646,113.575722 232.642212,129.336578 219.077271,125.705467 
	C225.002762,121.959793 230.032471,118.780365 235.365036,115.401649 
z"/>
<path fill="#faf5f6" opacity="1.000000" stroke="none" 
	d="
M185.147598,171.198853 
	C179.530945,171.429138 173.914505,171.826492 168.297562,171.833542 
	C164.257050,171.838608 161.225082,169.630676 159.981918,165.828232 
	C158.707718,161.930893 158.040451,157.835114 157.529236,153.417374 
	C159.586014,153.341919 161.221100,153.675293 162.856186,154.008652 
	C164.966232,161.210678 169.707901,165.204483 177.613068,166.288040 
	C180.376846,168.248383 182.762222,169.723618 185.147598,171.198853 
z"/>
<path fill="#faf5f6" opacity="1.000000" stroke="none" 
	d="
M59.580437,109.272835 
	C58.934261,108.089714 58.406685,107.226868 58.127522,106.290001 
	C57.954300,105.708672 58.157848,105.015068 58.222160,103.813805 
	C64.187599,107.772980 69.827553,111.452568 75.399498,115.232399 
	C80.735168,118.851952 86.000214,122.575607 91.152710,126.153786 
	C79.521858,127.387604 70.074249,122.194885 59.580437,109.272835 
z"/>
<path fill="#faf5f6" opacity="1.000000" stroke="none" 
	d="
M162.920227,153.559204 
	C161.221100,153.675293 159.586014,153.341919 157.586426,153.011353 
	C156.370590,143.850677 156.361450,135.002228 166.075638,129.408112 
	C168.964966,127.978371 171.707870,126.876625 174.668793,126.215027 
	C174.892227,127.008148 174.897629,127.361122 174.903046,127.714088 
	C166.286682,134.000046 162.060242,142.346283 162.920227,153.559204 
z"/>
<path fill="#faf5f6" opacity="1.000000" stroke="none" 
	d="
M259.720520,117.484497 
	C255.606705,124.673927 251.961792,131.861664 243.558640,134.510086 
	C246.280624,125.568787 249.608124,117.150398 259.498352,112.242752 
	C259.627411,114.384392 259.709106,115.739853 259.720520,117.484497 
z"/>
<path fill="#faf5f6" opacity="1.000000" stroke="none" 
	d="
M66.420944,130.526871 
	C67.881065,131.981537 69.065742,133.189148 71.182655,135.347031 
	C60.357960,134.103790 52.438839,123.992676 52.450912,113.263260 
	C59.796818,116.803726 63.274910,123.294418 66.420944,130.526871 
z"/>
<path fill="#faf5f6" opacity="1.000000" stroke="none" 
	d="
M133.457886,183.593445 
	C131.886505,182.364471 130.675995,181.274841 129.159302,180.072861 
	C128.106888,178.404068 127.230965,176.058548 130.186935,177.058243 
	C137.714676,179.604141 145.034439,182.765884 152.424286,185.714111 
	C152.642593,185.801193 152.714172,186.256073 152.848251,186.542389 
	C148.535904,188.940964 141.469284,188.180542 137.495636,185.105408 
	C136.507629,184.340805 135.056839,184.174240 133.457886,183.593445 
z"/>
<path fill="#B7B7B7" opacity="1.000000" stroke="none" 
	d="
M180.005646,181.054214 
	C174.091354,186.454056 167.450058,189.375183 157.912598,186.993088 
	C166.074707,183.298553 173.179993,180.082382 180.640610,177.237839 
	C180.665833,178.757721 180.335739,179.905960 180.005646,181.054214 
z"/>
<path fill="#C4C4C4" opacity="1.000000" stroke="none" 
	d="
M197.108017,177.166061 
	C200.077087,174.066269 203.046143,170.966492 206.029068,167.852249 
	C208.203476,173.886200 201.991867,182.205994 194.345642,182.626312 
	C194.859329,180.824692 195.813797,179.372696 196.876190,177.712555 
	C196.984131,177.504425 197.121780,177.056168 197.089966,177.080078 
	C197.058167,177.104004 197.108017,177.166061 197.108017,177.166061 
z"/>
<path fill="#D8D8D8" opacity="1.000000" stroke="none" 
	d="
M192.817490,164.683167 
	C196.350677,161.570862 199.883881,158.458557 203.957565,155.195312 
	C204.846329,155.058121 205.194595,155.071884 205.542862,155.085648 
	C205.904373,160.546982 200.494080,166.956451 194.115601,167.707199 
	C193.239990,166.613144 193.028748,165.648163 192.817490,164.683167 
z"/>
<path fill="#5B5B5B" opacity="1.000000" stroke="none" 
	d="
M196.768280,177.920700 
	C195.813797,179.372696 194.859329,180.824692 193.952316,182.638870 
	C192.471832,183.841080 190.943878,184.681122 189.369888,185.546463 
	C188.979019,182.754807 188.700684,180.766815 188.422333,178.778824 
	C187.845947,178.385468 187.269562,177.992096 186.693176,177.598724 
	C189.365646,176.149796 191.996933,174.605347 194.777344,173.406891 
	C195.041214,173.293167 196.239517,175.347366 197.056000,176.780563 
	C197.108017,177.166061 197.058167,177.104004 196.845886,177.066650 
	C196.344772,177.116226 196.055908,177.203186 195.767059,177.290131 
	C196.100800,177.500320 196.434540,177.710510 196.768280,177.920700 
z"/>
<path fill="#B7B7B7" opacity="1.000000" stroke="none" 
	d="
M192.404724,164.700531 
	C193.028748,165.648163 193.239990,166.613144 193.747162,167.803757 
	C192.820892,172.718109 188.582947,169.994385 185.567383,171.252884 
	C182.762222,169.723618 180.376846,168.248383 177.992569,166.394928 
	C182.659775,165.583786 187.325867,165.150848 192.404724,164.700531 
z"/>
<path fill="#E0E0E0" opacity="1.000000" stroke="none" 
	d="
M119.840683,183.508026 
	C114.326225,183.846100 109.835449,181.823380 106.087509,177.412750 
	C106.505356,176.049362 106.967545,174.541306 107.538361,172.678818 
	C109.933311,174.234482 112.082535,175.630524 114.612167,177.385712 
	C115.866249,178.592056 116.739914,179.439255 117.613586,180.286438 
	C118.247490,180.741013 118.881386,181.195602 119.730377,182.067780 
	C119.910530,182.826248 119.875603,183.167130 119.840683,183.508026 
z"/>
<path fill="#ADADAD" opacity="1.000000" stroke="none" 
	d="
M113.972740,189.981644 
	C114.903900,192.209946 115.835068,194.438248 116.693817,196.493271 
	C110.081100,196.257065 106.477852,192.650116 105.901466,185.218872 
	C108.401520,186.995697 110.901543,188.772598 113.700012,190.275299 
	C113.998474,190.001099 113.972740,189.981644 113.972740,189.981644 
z"/>
<path fill="#ADADAD" opacity="1.000000" stroke="none" 
	d="
M198.228302,191.020691 
	C196.825470,190.983932 195.415802,190.842270 194.021255,190.932983 
	C191.391586,191.104050 188.770630,191.408951 186.027985,191.322357 
	C189.989746,186.843781 194.753494,185.904404 200.546722,188.263916 
	C200.036026,189.395248 199.132156,190.207962 198.228302,191.020691 
z"/>
<path fill="#D9D9D9" opacity="1.000000" stroke="none" 
	d="
M57.648682,46.991879 
	C58.299194,48.022923 58.632378,49.162861 58.990562,50.666912 
	C56.304279,53.552586 53.592995,56.074142 50.517143,58.342113 
	C50.767559,55.724102 51.382542,53.359676 51.997528,50.995251 
	C53.775471,49.697090 55.553413,48.398930 57.648682,46.991879 
z"/>
<path fill="#B7B7B7" opacity="1.000000" stroke="none" 
	d="
M198.077545,191.270325 
	C199.132156,190.207962 200.036026,189.395248 200.954773,188.247162 
	C202.184082,186.446457 203.398514,184.981125 204.612946,183.515793 
	C205.276001,183.828873 205.939056,184.141953 206.602112,184.455032 
	C205.845261,187.099854 205.088409,189.744690 204.044861,192.656433 
	C201.624603,193.121689 199.491043,193.320023 197.125473,193.216827 
	C197.237900,192.450165 197.582367,191.985046 198.077545,191.270325 
z"/>
<path fill="#ADADAD" opacity="1.000000" stroke="none" 
	d="
M48.793495,91.664993 
	C48.540455,92.914406 47.887318,94.016846 47.175156,95.398941 
	C43.111103,96.151039 39.065121,96.769470 35.288513,92.103546 
	C40.330513,91.878265 44.361954,91.698135 48.793495,91.664993 
z"/>
<path fill="#ADADAD" opacity="1.000000" stroke="none" 
	d="
M123.802765,189.671631 
	C124.036560,191.145905 124.009781,192.388641 123.974136,194.100372 
	C120.881973,192.972397 117.798668,191.375443 114.344055,189.880066 
	C113.972740,189.981644 113.998474,190.001099 114.008240,190.013947 
	C114.018005,189.059204 114.018005,188.091644 114.018005,186.324539 
	C117.451210,187.447617 120.496689,188.443863 123.802765,189.671631 
z"/>
<path fill="#878787" opacity="1.000000" stroke="none" 
	d="
M117.713150,179.966782 
	C116.739914,179.439255 115.866249,178.592056 114.996033,177.385101 
	C117.355812,172.493744 120.277275,172.808151 124.323494,178.828018 
	C122.180710,178.522919 120.703575,178.173706 119.228645,178.182785 
	C118.753685,178.185715 118.284531,179.132263 117.713150,179.966782 
z"/>
<path fill="#5B5B5B" opacity="1.000000" stroke="none" 
	d="
M180.012299,181.459106 
	C180.335739,179.905960 180.665833,178.757721 181.012360,177.246811 
	C181.672028,176.298630 182.315262,175.713089 182.958511,175.127563 
	C183.391876,175.245895 183.825241,175.364243 184.258591,175.482574 
	C183.815704,178.932922 183.372803,182.383255 182.554855,185.942490 
	C181.733597,185.434723 181.287399,184.818054 180.513596,184.244232 
	C180.130295,183.479385 180.074631,182.671692 180.012299,181.459106 
z"/>
<path fill="#BEBEBE" opacity="1.000000" stroke="none" 
	d="
M51.677219,51.095932 
	C51.382542,53.359676 50.767559,55.724102 50.197273,58.537529 
	C49.061527,59.677769 47.881077,60.369007 46.387993,61.103844 
	C46.075928,59.894966 46.076504,58.642494 46.102699,56.911827 
	C47.871181,54.687958 49.614048,52.942284 51.677219,51.095932 
z"/>
<path fill="#ADADAD" opacity="1.000000" stroke="none" 
	d="
M175.254852,127.676270 
	C174.897629,127.361122 174.892227,127.008148 174.950012,126.398376 
	C174.540573,121.461967 178.703842,122.153900 181.521500,120.841461 
	C181.948135,121.902000 181.997818,122.970985 182.042160,124.440430 
	C179.893433,125.773415 177.750046,126.705925 175.254852,127.676270 
z"/>
<path fill="#ADADAD" opacity="1.000000" stroke="none" 
	d="
M74.514282,55.922466 
	C75.178383,56.409603 75.549461,57.097099 76.062965,58.156166 
	C75.848373,59.463490 75.491356,60.399246 75.012482,61.622917 
	C74.030586,62.966400 73.170532,64.021965 72.310486,65.077538 
	C71.732674,64.807106 71.154854,64.536674 70.577042,64.266243 
	C71.791779,61.551773 73.006523,58.837299 74.514282,55.922466 
z"/>
<path fill="#5B5B5B" opacity="1.000000" stroke="none" 
	d="
M237.283447,64.040421 
	C236.964783,63.131489 236.965622,62.227337 237.006226,60.999138 
	C237.182251,60.229324 237.318527,59.783558 237.765320,59.170998 
	C239.611710,60.107895 239.470551,61.612507 237.283447,64.040421 
z"/>
<path fill="#5B5B5B" opacity="1.000000" stroke="none" 
	d="
M180.167358,192.897110 
	C180.360352,191.401398 180.893478,189.894089 181.703491,188.191589 
	C182.296906,188.452148 182.613434,188.907883 182.941177,189.661530 
	C182.137421,190.934799 181.322464,191.910156 180.167358,192.897110 
z"/>
<path fill="#C4C4C4" opacity="1.000000" stroke="none" 
	d="
M131.259338,172.117828 
	C132.197418,171.774750 133.380692,171.605682 134.773590,171.688446 
	C133.823669,172.057449 132.664093,172.174622 131.259338,172.117828 
z"/>
<path fill="#ADADAD" opacity="1.000000" stroke="none" 
	d="
M120.138260,183.637299 
	C119.875603,183.167130 119.910530,182.826248 119.980263,182.229218 
	C120.549530,182.235489 121.084000,182.497894 121.618462,182.760300 
	C121.224258,183.095718 120.830048,183.431152 120.138260,183.637299 
z"/>
<path fill="#BEBEBE" opacity="1.000000" stroke="none" 
	d="
M205.504822,154.817108 
	C205.194595,155.071884 204.846329,155.058121 204.237671,155.016434 
	C204.473770,154.841858 204.970276,154.695206 205.504822,154.817108 
z"/>
<path fill="#C4C4C4" opacity="1.000000" stroke="none" 
	d="
M105.570030,154.974594 
	C105.554703,154.689407 105.892342,154.172287 106.351425,153.878296 
	C106.289566,154.315170 106.106277,154.528915 105.570030,154.974594 
z"/>
<path fill="#494949" opacity="1.000000" stroke="none" 
	d="
M139.065369,113.230736 
	C139.271027,113.185226 139.545837,113.336021 139.769623,113.746109 
	C139.462830,113.874283 139.268143,113.681503 139.065369,113.230736 
z"/>
<path fill="#FEFEFE" opacity="1.000000" stroke="none" 
	d="
M964.300537,135.990372 
	C965.922424,145.165115 963.006042,147.384140 951.564514,145.139664 
	C952.149780,141.326584 952.747803,137.430679 953.345764,133.534775 
	C956.918152,134.241898 960.490601,134.949036 964.300537,135.990372 
z"/>
<path fill="#FEFEFE" opacity="1.000000" stroke="none" 
	d="
M494.660034,147.552979 
	C495.792145,144.132996 496.780426,141.085495 497.768738,138.037994 
	C498.425842,137.985336 499.082947,137.932678 499.740051,137.880020 
	C501.466248,142.581070 503.192413,147.282104 505.133575,152.568665 
	C500.912628,152.568665 497.394928,152.568665 493.155975,152.568665 
	C493.645477,150.897797 494.080841,149.411621 494.660034,147.552979 
z"/>
<path fill="#878787" opacity="1.000000" stroke="none" 
	d="
M109.939987,43.585529 
	C106.140701,41.776516 105.085793,37.068153 106.962242,30.374695 
	C108.006699,34.362381 109.002869,38.755474 109.939987,43.585529 
z"/>
<path fill="#FEFEFE" opacity="1.000000" stroke="none" 
	d="
M104.127655,25.883760 
	C104.177475,26.040514 104.067810,26.353317 103.806175,26.511520 
	C103.654205,26.356922 103.968178,26.039808 104.127655,25.883760 
z"/>
<path fill="#343434" opacity="1.000000" stroke="none" 
	d="
M196.876205,177.712555 
	C196.434540,177.710510 196.100800,177.500320 195.767059,177.290131 
	C196.055908,177.203186 196.344772,177.116226 196.877701,177.042725 
	C197.121780,177.056168 196.984131,177.504425 196.876205,177.712555 
z"/>
</svg>