<?xml version="1.0" encoding="UTF-8"?>
<svg version="1.1" xmlns="http://www.w3.org/2000/svg" width="500" height="500">
<path d="M0 0 C1.32 5.61 2.64 11.22 4 17 C4.66 17 5.32 17 6 17 C5.505 11.555 5.505 11.555 5 6 C8.465 5.505 8.465 5.505 12 5 C12.99 7.97 13.98 10.94 15 14 C15.66 14 16.32 14 17 14 C17 13.34 17 12.68 17 12 C19.475 11.505 19.475 11.505 22 11 C22.99 12.98 23.98 14.96 25 17 C26.65 17 28.3 17 30 17 C30.495 21.455 30.495 21.455 31 26 C29.35 26 27.7 26 26 26 C26.495 28.97 26.495 28.97 27 32 C25.02 32.33 23.04 32.66 21 33 C21 32.01 21 31.02 21 30 C20.01 30 19.02 30 18 30 C18.15597656 30.71027344 18.31195313 31.42054688 18.47265625 32.15234375 C18.66730469 33.07144531 18.86195313 33.99054688 19.0625 34.9375 C19.25972656 35.85402344 19.45695312 36.77054688 19.66015625 37.71484375 C19.82837891 38.84599609 19.82837891 38.84599609 20 40 C19 41 19 41 15.4375 41.0625 C14.303125 41.041875 13.16875 41.02125 12 41 C11.01 38.03 10.02 35.06 9 32 C8.03759055 35.84963779 7.99324694 36.89579224 8.9375 40.5 C9.73647784 43.59008649 10 45.71929814 10 49 C6.78548731 50.60725635 3.56387464 50.05748185 0 50 C-1.32 45.71 -2.64 41.42 -4 37 C-7.03543055 37.24283444 -8.45989559 37.4226771 -11 39 C-13.49786974 42.77082259 -15.21870847 46.85199247 -17 51 C-20.76068874 59.65691011 -25.03534777 66.24261507 -34.125 69.875 C-37.36922632 70.92007686 -40.61439778 71.57679972 -44 72 C-36.62195174 71.72874823 -31.41998089 70.55841897 -25 67 C-21.26475856 65.46759326 -19.17431176 66.14415718 -15.5625 67.625 C-5.65509477 72.49668767 -1.43806523 79.46155233 2.375 89.6875 C2.684375 90.8321875 2.684375 90.8321875 3 92 C2.67 88.37 2.34 84.74 2 81 C9.28580261 82.93529132 13.66879831 85.69785118 19 91 C19.65226562 90.72285156 20.30453125 90.44570312 20.9765625 90.16015625 C25.64303689 88.22611598 29.93022603 86.53366042 35 86 C35 84.35 35 82.7 35 81 C34.34 81 33.68 81 33 81 C31.19769832 77.17010894 30.80377759 74.21878192 31 70 C31.66 69.67 32.32 69.34 33 69 C32.773125 67.989375 32.54625 66.97875 32.3125 65.9375 C31.94023605 61.24697417 32.63463822 59.04400563 35 55 C39.68180041 51.29357467 43.64061633 49.58861889 49.66796875 49.64453125 C54.17576178 50.33164878 58.22133097 52.50664032 62 55 C64.09740836 58.14611253 64.25328219 58.91188078 64.1875 62.5 C64.17783203 63.66015625 64.17783203 63.66015625 64.16796875 64.84375 C64 67 64 67 63 70 C63.99 70 64.98 70 66 70 C64.98408579 75.46864457 63.92908943 80.76390013 62 86 C63.155 86.0825 64.31 86.165 65.5 86.25 C70.22127498 86.81486683 73.9106739 88.66168853 78 91 C78.56847656 90.44570312 79.13695312 89.89140625 79.72265625 89.3203125 C84.3423401 84.98598475 87.69825078 82.07263816 94 81 C94 83.97 94 86.94 94 90 C94.30292969 89.20335937 94.60585938 88.40671875 94.91796875 87.5859375 C98.95632769 77.3719958 102.70159941 71.51558986 113 67 C116.7741598 65.76482043 118.84127126 65.50879977 122.515625 67.06640625 C124.25535124 67.95916051 125.97496938 68.8926201 127.66796875 69.87109375 C130.16823748 71.29047904 130.16823748 71.29047904 134 71 C133.41992188 70.76925781 132.83984375 70.53851563 132.2421875 70.30078125 C121.42239319 65.7836064 116.75839155 59.70669604 112.37890625 49.1171875 C112.08878662 48.43897949 111.79866699 47.76077148 111.49975586 47.06201172 C110.92482951 45.70677088 110.37395171 44.34102789 109.84985352 42.96533203 C108.98974135 40.78531635 108.98974135 40.78531635 107 38 C103.38458355 36.94159792 103.38458355 36.94159792 100 37 C99.69255859 38.28197266 99.69255859 38.28197266 99.37890625 39.58984375 C99.10949219 40.69457031 98.84007812 41.79929688 98.5625 42.9375 C98.29566406 44.03964844 98.02882813 45.14179688 97.75390625 46.27734375 C97 49 97 49 96 50 C89.53846154 50.35897436 89.53846154 50.35897436 86 48 C86.144375 47.25234375 86.28875 46.5046875 86.4375 45.734375 C86.623125 44.74953125 86.80875 43.7646875 87 42.75 C87.185625 41.77546875 87.37125 40.8009375 87.5625 39.796875 C88.10303017 36.81315721 88.10303017 36.81315721 88 33 C87.34 32.67 86.68 32.34 86 32 C85.855625 33.299375 85.71125 34.59875 85.5625 35.9375 C85.125 39.875 85.125 39.875 84 41 C81.0625 41.25 81.0625 41.25 78 41 C76 38 76 38 76.2421875 35.95703125 C76.828125 33.97135417 77.4140625 31.98567708 78 30 C77.34 30 76.68 30 76 30 C75.67 30.99 75.34 31.98 75 33 C72.03 32.505 72.03 32.505 69 32 C69.33 30.02 69.66 28.04 70 26 C68.35 26 66.7 26 65 26 C65.33 23.03 65.66 20.06 66 17 C67.65 17 69.3 17 71 17 C71.66 15.02 72.32 13.04 73 11 C78.75 11.75 78.75 11.75 81 14 C81.99 11.03 82.98 8.06 84 5 C86.31 5.33 88.62 5.66 91 6 C91.14285714 13.42857143 91.14285714 13.42857143 90 17 C90.66 17 91.32 17 92 17 C93.32 11.39 94.64 5.78 96 0 C104 0 104 0 106 1 C106.2396943 6.63281599 105.38529821 11.54538831 104 17 C104.73089844 17.268125 105.46179688 17.53625 106.21484375 17.8125 C108.9393574 18.97414397 111.13671098 20.3124946 113.5625 22 C117.73769283 24.89441444 120.68242781 26.87040274 125.8125 27.375 C136.38902543 28.56315479 145.8882031 38.16584372 152.41015625 45.9921875 C155.01299565 49.27931145 157.5403046 52.60462796 160 56 C160.78375 57.010625 161.5675 58.02125 162.375 59.0625 C164.4915816 62.88862828 164.80590853 64.67739972 164 69 C162.46366468 71.35952932 160.7491314 73.46222273 158.9375 75.6171875 C154.60165014 80.9495835 151.44211778 87.00343078 148.5 93.1875 C143.12209296 104.0109607 134.48212146 110.09536088 123.25 114.375 C119.15935689 115.74832925 115.29368429 116.61833917 111 117 C111 114.36 111 111.72 111 109 C109.70512691 111.58974619 109.69082538 114.06559731 109.45629883 116.91625977 C108.16952935 131.86258222 103.9060662 143.71474164 92.8125 154.1875 C88.90250107 157.38257813 84.42695457 159.38308319 79.890625 161.54296875 C76.26726587 163.36933761 73.20484352 165.52353001 70 168 C70.26041667 165.94921875 70.52083333 163.8984375 70.78125 161.84765625 C71.01959535 160.14458268 71.01959535 160.14458268 71 159 C70.11248047 160.24716797 70.11248047 160.24716797 69.20703125 161.51953125 C68.40933485 162.61753688 67.61113074 163.71517377 66.8125 164.8125 C66.23145508 165.63331055 66.23145508 165.63331055 65.63867188 166.47070312 C63.12499535 169.89844383 60.86873095 172.20291207 57 174 C53.4375 174.1875 53.4375 174.1875 50 174 C46.10080407 173.95075221 46.10080407 173.95075221 42.625 174.25 C38.16365552 173.94232107 36.50675762 172.7334726 33 170 C30.6640625 166.984375 30.6640625 166.984375 28.625 163.75 C27.93664062 162.67234375 27.24828125 161.5946875 26.5390625 160.484375 C26.03117187 159.66453125 25.52328125 158.8446875 25 158 C25.33 161.3 25.66 164.6 26 168 C24.80375 167.175 23.6075 166.35 22.375 165.5 C18.93265454 163.17791231 15.42633577 161.12978961 11.76391602 159.17431641 C-0.03810668 152.79765877 -6.21695373 144.6585467 -11.06640625 132.27734375 C-12.25092385 128.1191418 -12.66420183 124.04469329 -13.0625 119.75 C-13.37528235 114.20607507 -13.37528235 114.20607507 -15 109 C-15 111.64 -15 114.28 -15 117 C-27.34515891 115.76548411 -39.6868753 110.36750879 -47.87109375 100.81640625 C-51.95886553 94.93450023 -55.0711748 88.85996707 -58.15625 82.40234375 C-59.96789731 79.05924034 -61.95720309 76.43143499 -64.4375 73.5625 C-66.88740697 70.62452562 -67.94729874 69.2002648 -68.9375 65.4375 C-67.78473856 61.21070805 -65.86851193 58.77404022 -63.05859375 55.4609375 C-60.88646043 52.86426958 -58.98798216 50.15837025 -57.0625 47.375 C-53.51808476 42.48779668 -49.80030473 38.64349505 -45 35 C-44.28972656 34.443125 -43.57945312 33.88625 -42.84765625 33.3125 C-37.06789084 29.08687186 -31.21543919 27 -24 27 C-22.73773573 26.12947292 -21.51351094 25.20325819 -20.3125 24.25 C-16.68792267 21.45370816 -13.02213666 19.17865736 -9 17 C-9.33 11.72 -9.66 6.44 -10 1 C-8 0 -8 0 0 0 Z M-8 17 C-7 20 -7 20 -7 20 Z M103 17 C104 21 104 21 104 21 Z M-7 21 C-6 24 -6 24 -6 24 Z M91 21 C92 23 92 23 92 23 Z M102 22 C103 26 103 26 103 26 Z M-6 26 C-6.33 26.99 -6.66 27.98 -7 29 C-7.66 29.66 -8.32 30.32 -9 31 C-7.68 31 -6.36 31 -5 31 C-4.67 31.99 -4.34 32.98 -4 34 C-4.33 31.36 -4.66 28.72 -5 26 C-5.33 26 -5.66 26 -6 26 Z M101 26 C101 27.65 101 29.3 101 31 C103.97 31.495 103.97 31.495 107 32 C105.62514468 30.45833358 105.62514468 30.45833358 104 29 C103.34 29 102.68 29 102 29 C101.67 28.01 101.34 27.02 101 26 Z M124 30 C125.48736447 33.67754951 127.50841601 35.47243216 130.625 37.875 C131.96691406 38.92300781 131.96691406 38.92300781 133.3359375 39.9921875 C134.94904177 41.20792884 136.57586013 42.40613293 138.2265625 43.5703125 C144.38857412 47.92416627 149.98918279 53.50513584 152 61 C152.43128963 63.99365741 152.75047968 66.98605723 153 70 C155.85664959 67.14335041 155.71522904 64.59884552 156.02734375 60.671875 C155.98684786 56.71484778 155.18924558 53.32011416 153 50 C148.74201602 46.17023832 143.83366858 43.14702385 139.0625 40 C137.88397461 39.21882813 137.88397461 39.21882813 136.68164062 38.421875 C135.15571301 37.41054892 133.6292067 36.40009532 132.10205078 35.390625 C129.39661442 33.60082645 126.69773659 31.80137789 124 30 Z M-35.25 34.9375 C-40.41167374 38.93394367 -45.74610187 42.49415124 -51.36621094 45.81616211 C-55.05111999 48.07716389 -57.17393669 50.06837389 -59 54 C-60.28944843 60.0504888 -59.78894377 64.10700876 -58 70 C-57.67 70 -57.34 70 -57 70 C-56.92523438 69.32195312 -56.85046875 68.64390625 -56.7734375 67.9453125 C-55.44394319 58.53457827 -52.28451476 51.27589095 -44.6875 45.3125 C-43.13292453 44.1972039 -41.57019023 43.09320305 -40 42 C-38.36658652 40.78203608 -36.74135175 39.55301712 -35.125 38.3125 C-34.40570313 37.77238281 -33.68640625 37.23226562 -32.9453125 36.67578125 C-30.94344977 34.95128504 -29.50077306 33.16621017 -28 31 C-31.16895585 31 -32.78974758 33.01337211 -35.25 34.9375 Z M-11 31 C-11.33 31.66 -11.66 32.32 -12 33 C-11.01 32.67 -10.02 32.34 -9 32 C-9.66 31.67 -10.32 31.34 -11 31 Z M100 31 C101 35 101 35 101 35 Z M-13 33 C-13.66 34.32 -14.32 35.64 -15 37 C-14.01 36.34 -13.02 35.68 -12 35 C-12.33 34.34 -12.66 33.68 -13 33 Z M110 35 C111.31224548 38.93673644 112.91910327 41.22719294 116 44 C114.68775452 40.06326356 113.08089673 37.77280706 110 35 Z M-16 37 C-16.66 38.32 -17.32 39.64 -18 41 C-17.01 40.34 -16.02 39.68 -15 39 C-15.33 38.34 -15.66 37.68 -16 37 Z M-19 41 C-18 43 -18 43 -18 43 Z M116 44 C117 46 117 46 117 46 Z M35 68 C36 70 36 70 36 70 Z M34 70 C35 72 35 72 35 72 Z M61 70 C61.33 70.66 61.66 71.32 62 72 C62.33 71.34 62.66 70.68 63 70 C62.34 70 61.68 70 61 70 Z M-32 81 C-29.31042834 88.51535812 -24.50411043 92.54131109 -17.375 95.9375 C-13.72203182 97.5651119 -11.00263699 98.23842422 -7 98 C-10.29303739 95.28739007 -13.62960695 92.8798062 -17.25 90.625 C-22.22481975 87.49970618 -27.12858157 84.28369687 -32 81 Z M126 82 C125.09378906 82.66386719 124.18757813 83.32773438 123.25390625 84.01171875 C116.70934877 88.7686175 110.25084581 93.35539496 103 97 C103 97.33 103 97.66 103 98 C110.66535436 97.58188976 116.59691954 95.37805781 122.125 89.890625 C123.81473204 87.96923615 125.43705321 86.02529761 127 84 C126.67 83.34 126.34 82.68 126 82 Z M35 86 C35.11214648 91.62006722 35.11214648 91.62006722 38.0625 96 C38.701875 96.33 39.34125 96.66 40 97 C39.71125 96.29875 39.4225 95.5975 39.125 94.875 C37.97866412 91.94547497 36.97374346 88.99078347 36 86 C35.67 86 35.34 86 35 86 Z M-37 88 C-35.89079915 95.54256576 -32.40513651 99.95520592 -27 105 C-26.01 104.67 -25.02 104.34 -24 104 C-25.40863705 101.89005433 -26.82634614 99.78727787 -28.25 97.6875 C-28.64574219 97.09259766 -29.04148437 96.49769531 -29.44921875 95.88476562 C-31.65327018 92.65095246 -33.68081696 90.10874702 -37 88 Z M60 88 C59.34 90.31 58.68 92.62 58 95 C58.99 94.67 59.98 94.34 61 94 C61 92.02 61 90.04 61 88 C60.67 88 60.34 88 60 88 Z M131 89 C129.01788436 91.30065456 129.01788436 91.30065456 127 94.1875 C126.29875 95.15042969 125.5975 96.11335938 124.875 97.10546875 C123.19039261 99.70608141 122.02231565 102.08746531 121 105 C125.97874002 102.79081882 129.73799598 99.07167016 131.828125 93.984375 C132.2952452 92.34278114 132.65871613 90.67229095 133 89 C132.34 89 131.68 89 131 89 Z M20 92 C20.66 93.32 21.32 94.64 22 96 C23.98 96 25.96 96 28 96 C25.53721199 93.53721199 23.29323018 93.00228745 20 92 Z M68 95 C70.49064888 95.68707555 72.37886292 96 75 96 C75.33 95.01 75.66 94.02 76 93 C73.11604263 93 70.70522185 94.05905327 68 95 Z M32 98 C32.38671875 98.42410156 32.7734375 98.84820312 33.171875 99.28515625 C38.97265391 105.81821171 43.29193892 111.81639936 43.1484375 120.7421875 C42.96068543 123.59799524 42.54528237 125.57169913 41 128 C38.6875 129.1875 38.6875 129.1875 36 130 C35.22914063 130.33902344 34.45828125 130.67804688 33.6640625 131.02734375 C28.56027221 132.89075106 22.87380844 132.89655069 17.68359375 131.27734375 C13.31246883 129.22863814 10.19224516 126.5912758 7 123 C8.36271144 127.45978291 10.13449779 129.42299853 14 132 C21.92101954 135.81906299 30.28509454 137.58071853 38.9375 135.1875 C42.3549471 133.21987894 43.6287893 131.87918323 45.1875 128.1875 C46.78585616 121.65508789 47.64852125 113.70064597 44.8671875 107.45703125 C41.90881789 103.32925376 38.44012057 100.42188394 34 98 C33.34 98 32.68 98 32 98 Z M57.5625 101.1875 C56.78003906 101.77917969 55.99757813 102.37085938 55.19140625 102.98046875 C51.96760137 105.95142619 50.20057697 108.43636236 49.63671875 112.83203125 C49.73558929 124.98004862 49.73558929 124.98004862 56 135 C63.93880157 137.64066069 72.4380495 136.06389374 80 133 C83.9301414 131.02680917 86.17750794 129.0415449 88 125 C87.07767578 125.63228516 87.07767578 125.63228516 86.13671875 126.27734375 C85.32847656 126.82519531 84.52023437 127.37304688 83.6875 127.9375 C82.48673828 128.75541016 82.48673828 128.75541016 81.26171875 129.58984375 C76.16938208 132.76485849 70.81628385 132.56414775 65 132 C60.43186352 130.67645052 57.65374841 128.73546696 54.5 125.1875 C52.65133988 121.25909725 52.35334423 119.31103846 53 115 C55.52499923 108.33829991 59.16416625 103.1732175 64 98 C61.0890594 98 59.84677921 99.42834245 57.5625 101.1875 Z M88 123 C89 125 89 125 89 125 Z M7 136 C7.89366408 139.65589852 8.44476659 141.55866062 11.4375 143.9375 C14.04824019 145.34807153 14.04824019 145.34807153 17 144 C14.32752366 141.65712582 14.32752366 141.65712582 11 141 C10.71125 140.360625 10.4225 139.72125 10.125 139.0625 C9.17176549 136.84793921 9.17176549 136.84793921 7 136 Z M88 136 C87.27683594 136.72316406 87.27683594 136.72316406 86.5390625 137.4609375 C84.02604167 139.97395833 81.51302083 142.48697917 79 145 C81.70931419 144.84518205 83.46584039 144.51827919 85.4453125 142.59765625 C86.67679642 141.10228292 87.8429837 139.5537076 89 138 C88.67 137.34 88.34 136.68 88 136 Z M28 142 C28.72945795 145.06114267 28.72945795 145.06114267 30.9375 146.625 C35.20458457 148.54083389 39.36800351 148.73916913 44 149 C41.17791126 147.56645606 38.3293258 146.22438695 35.4375 144.9375 C34.67308594 144.59589844 33.90867187 144.25429688 33.12109375 143.90234375 C30.87947605 142.91516747 30.87947605 142.91516747 28 142 Z M60.625 144.875 C59.85414063 145.22304688 59.08328125 145.57109375 58.2890625 145.9296875 C56.17376938 146.91874947 54.08273702 147.94436617 52 149 C60.04622981 148.69589697 60.04622981 148.69589697 67 145 C67 144.34 67 143.68 67 143 C64.46811674 143 62.92740939 143.82705951 60.625 144.875 Z M26 146 C27 148 27 148 27 148 Z M7 148 C8.1678266 151.81413002 8.1678266 151.81413002 11.125 154.3125 C11.74375 154.539375 12.3625 154.76625 13 155 C12.19152271 153.83054208 11.37810888 152.66449539 10.5625 151.5 C10.11003906 150.8503125 9.65757812 150.200625 9.19140625 149.53125 C8.79824219 149.0259375 8.40507812 148.520625 8 148 C7.67 148 7.34 148 7 148 Z M27 148 C27.27597504 152.55358812 29.29300046 155.25958304 32.234375 158.55078125 C34.95225689 160.78160908 37.57189475 160.93143789 41 161 C40.278125 160.4225 39.55625 159.845 38.8125 159.25 C37.884375 158.5075 36.95625 157.765 36 157 C35.154375 156.360625 34.30875 155.72125 33.4375 155.0625 C30.90469131 152.91935419 28.98646583 150.64862111 27 148 Z M68 148 C67.10577086 149.2363168 66.23512109 150.48971562 65.375 151.75 C62.36419327 155.8715898 59.57042719 157.80619495 55 160 C56.74671588 160.79356801 56.74671588 160.79356801 59 161 C63.08303177 159.1626357 65.53032342 156.70451487 68 153 C68.78946609 150.31492671 68.78946609 150.31492671 69 148 C68.67 148 68.34 148 68 148 Z M88 148 C87.11208369 149.1411908 86.26383962 150.31346106 85.4375 151.5 C84.98246094 152.1496875 84.52742187 152.799375 84.05859375 153.46875 C83.70925781 153.9740625 83.35992187 154.479375 83 155 C85.99324263 153.9024777 86.84610901 153.32317108 88.25 150.375 C88.4975 149.59125 88.745 148.8075 89 148 C88.67 148 88.34 148 88 148 Z M15 150 C15.66 150.66 16.32 151.32 17 152 C19.10820797 151.6814823 19.10820797 151.6814823 21 151 C18.03 150.505 18.03 150.505 15 150 Z M78 150 C77.01 150.66 76.02 151.32 75 152 C76.98 151.67 78.96 151.34 81 151 C80.01 150.67 79.02 150.34 78 150 Z " fill="#ffffff" transform="translate(202,122)"/>
<path d="M0 0 C3.31981965 1.71130022 4.50241322 2.50361982 6.625 5.6875 C6.85546875 7.84375 6.85546875 7.84375 6.8125 10.1875 C6.80605469 10.9609375 6.79960937 11.734375 6.79296875 12.53125 C6.625 14.6875 6.625 14.6875 5.625 17.6875 C6.615 17.6875 7.605 17.6875 8.625 17.6875 C7.60908579 23.15614457 6.55408943 28.45140013 4.625 33.6875 C5.800625 33.790625 6.97625 33.89375 8.1875 34 C12.44985903 34.51664958 15.76587534 35.8383361 19.625 37.6875 C19.295 38.6775 18.965 39.6675 18.625 40.6875 C16.25390625 41.828125 16.25390625 41.828125 13.1875 42.9375 C5.40719107 46.01991356 -2.66257004 49.78399345 -6.375 57.6875 C-7.34326279 65.23578521 -6.78768391 73.41046944 -3 80.125 C0.43763426 83.43041756 5.38306771 82.9595287 9.8984375 82.90625 C17.04259593 82.3330797 22.93958216 79.95156338 28.625 75.6875 C29.285 75.3575 29.945 75.0275 30.625 74.6875 C30.625 77.3275 30.625 79.9675 30.625 82.6875 C31.285 82.6875 31.945 82.6875 32.625 82.6875 C31.44275332 85.05199336 30.08403319 86.12176315 28.0625 87.8125 C27.10150391 88.62074219 27.10150391 88.62074219 26.12109375 89.4453125 C25.62738281 89.85523438 25.13367188 90.26515625 24.625 90.6875 C25.553125 90.2234375 25.553125 90.2234375 26.5 89.75 C27.875 89.0625 29.25 88.375 30.625 87.6875 C29.47326645 90.15550047 28.57716435 91.73533565 26.625 93.6875 C23.5 93.8125 23.5 93.8125 20.625 93.6875 C20.625 94.3475 20.625 95.0075 20.625 95.6875 C21.945 95.6875 23.265 95.6875 24.625 95.6875 C25.96664079 95.9856424 27.30351173 96.30993192 28.625 96.6875 C28.13 98.6675 28.13 98.6675 27.625 100.6875 C30.12537734 98.51325883 31.06128586 96.95704202 31.625 93.6875 C33.75008244 96.87512365 34.1270163 98.95262223 34.625 102.6875 C33.62339844 103.20699219 32.62179687 103.72648437 31.58984375 104.26171875 C21.75266868 109.40048124 21.75266868 109.40048124 12.625 115.6875 C12.88541667 113.63671875 13.14583333 111.5859375 13.40625 109.53515625 C13.64459535 107.83208268 13.64459535 107.83208268 13.625 106.6875 C13.03332031 107.51894531 12.44164062 108.35039062 11.83203125 109.20703125 C11.03433485 110.30503688 10.23613074 111.40267377 9.4375 112.5 C8.85645508 113.32081055 8.85645508 113.32081055 8.26367188 114.15820312 C5.74999535 117.58594383 3.49373095 119.89041207 -0.375 121.6875 C-3.9375 121.875 -3.9375 121.875 -7.375 121.6875 C-11.27419593 121.63825221 -11.27419593 121.63825221 -14.75 121.9375 C-19.21134448 121.62982107 -20.86824238 120.4209726 -24.375 117.6875 C-26.7109375 114.671875 -26.7109375 114.671875 -28.75 111.4375 C-29.43835938 110.35984375 -30.12671875 109.2821875 -30.8359375 108.171875 C-31.34382813 107.35203125 -31.85171875 106.5321875 -32.375 105.6875 C-32.045 108.9875 -31.715 112.2875 -31.375 115.6875 C-33.169375 114.45 -33.169375 114.45 -35 113.1875 C-39.7073928 110.02425197 -44.58968938 107.25135657 -49.58837891 104.58007812 C-52.99450453 102.7033305 -55.31870709 101.01603169 -57.375 97.6875 C-51.22265625 97.58984375 -51.22265625 97.58984375 -49.375 97.6875 C-49.045 98.0175 -48.715 98.3475 -48.375 98.6875 C-48.705 97.6975 -49.035 96.7075 -49.375 95.6875 C-48.385 94.6975 -48.385 94.6975 -47.375 93.6875 C-47.6935177 91.57929203 -47.6935177 91.57929203 -48.375 89.6875 C-46.395 90.3475 -44.415 91.0075 -42.375 91.6875 C-45.6073413 88.15889034 -45.6073413 88.15889034 -49.625 85.6875 C-51.375 84.6875 -51.375 84.6875 -52.125 82.0625 C-52.24875 80.886875 -52.24875 80.886875 -52.375 79.6875 C-50.725 78.3675 -49.075 77.0475 -47.375 75.6875 C-46.8903125 76.02523437 -46.405625 76.36296875 -45.90625 76.7109375 C-38.0046406 81.96854683 -30.8459075 83.45497009 -21.375 82.6875 C-17.80704838 81.85244749 -16.79834877 81.26204475 -14.625 78.3125 C-11.417424 71.5765904 -10.74266554 62.50954924 -13.140625 55.42578125 C-18.22270628 47.46266094 -29.19443674 43.62113254 -37.375 39.6875 C-35.09768574 37.08172695 -33.16097238 36.0350813 -29.875 35 C-29.1015625 34.74863281 -28.328125 34.49726563 -27.53125 34.23828125 C-25.375 33.6875 -25.375 33.6875 -22.375 33.6875 C-22.375 32.0375 -22.375 30.3875 -22.375 28.6875 C-23.035 28.6875 -23.695 28.6875 -24.375 28.6875 C-26.17730168 24.85760894 -26.57122241 21.90628192 -26.375 17.6875 C-25.715 17.3575 -25.055 17.0275 -24.375 16.6875 C-24.7153125 15.1715625 -24.7153125 15.1715625 -25.0625 13.625 C-25.43476395 8.93447417 -24.74036178 6.73150563 -22.375 2.6875 C-15.07716896 -3.08994958 -8.30247391 -4.00104749 0 0 Z M-22.375 15.6875 C-21.375 17.6875 -21.375 17.6875 -21.375 17.6875 Z M-23.375 17.6875 C-22.375 19.6875 -22.375 19.6875 -22.375 19.6875 Z M3.625 17.6875 C3.955 18.3475 4.285 19.0075 4.625 19.6875 C4.955 19.0275 5.285 18.3675 5.625 17.6875 C4.965 17.6875 4.305 17.6875 3.625 17.6875 Z M-22.375 33.6875 C-22.26285352 39.30756722 -22.26285352 39.30756722 -19.3125 43.6875 C-18.673125 44.0175 -18.03375 44.3475 -17.375 44.6875 C-17.66375 43.98625 -17.9525 43.285 -18.25 42.5625 C-19.39633588 39.63297497 -20.40125654 36.67828347 -21.375 33.6875 C-21.705 33.6875 -22.035 33.6875 -22.375 33.6875 Z M2.625 35.6875 C1.965 37.9975 1.305 40.3075 0.625 42.6875 C1.615 42.3575 2.605 42.0275 3.625 41.6875 C3.625 39.7075 3.625 37.7275 3.625 35.6875 C3.295 35.6875 2.965 35.6875 2.625 35.6875 Z M-29.375 89.6875 C-28.64554205 92.74864267 -28.64554205 92.74864267 -26.4375 94.3125 C-22.17041543 96.22833389 -18.00699649 96.42666913 -13.375 96.6875 C-16.19708874 95.25395606 -19.0456742 93.91188695 -21.9375 92.625 C-22.70191406 92.28339844 -23.46632813 91.94179688 -24.25390625 91.58984375 C-26.49552395 90.60266747 -26.49552395 90.60266747 -29.375 89.6875 Z M3.25 92.5625 C2.47914063 92.91054688 1.70828125 93.25859375 0.9140625 93.6171875 C-1.20123062 94.60624947 -3.29226298 95.63186617 -5.375 96.6875 C2.67122981 96.38339697 2.67122981 96.38339697 9.625 92.6875 C9.625 92.0275 9.625 91.3675 9.625 90.6875 C7.09311674 90.6875 5.55240939 91.51455951 3.25 92.5625 Z M-31.375 93.6875 C-30.375 95.6875 -30.375 95.6875 -30.375 95.6875 Z M-30.375 95.6875 C-30.09902496 100.24108812 -28.08199954 102.94708304 -25.140625 106.23828125 C-22.42274311 108.46910908 -19.80310525 108.61893789 -16.375 108.6875 C-17.096875 108.11 -17.81875 107.5325 -18.5625 106.9375 C-19.490625 106.195 -20.41875 105.4525 -21.375 104.6875 C-22.220625 104.048125 -23.06625 103.40875 -23.9375 102.75 C-26.47030869 100.60685419 -28.38853417 98.33612111 -30.375 95.6875 Z M10.625 95.6875 C9.73077086 96.9238168 8.86012109 98.17721562 8 99.4375 C4.98919327 103.5590898 2.19542719 105.49369495 -2.375 107.6875 C-0.62828412 108.48106801 -0.62828412 108.48106801 1.625 108.6875 C5.70803177 106.8501357 8.15532342 104.39201487 10.625 100.6875 C11.41446609 98.00242671 11.41446609 98.00242671 11.625 95.6875 C11.295 95.6875 10.965 95.6875 10.625 95.6875 Z M-42.375 97.6875 C-41.715 98.3475 -41.055 99.0075 -40.375 99.6875 C-38.26679203 99.3689823 -38.26679203 99.3689823 -36.375 98.6875 C-39.345 98.1925 -39.345 98.1925 -42.375 97.6875 Z M20.625 97.6875 C19.635 98.3475 18.645 99.0075 17.625 99.6875 C19.605 99.3575 21.585 99.0275 23.625 98.6875 C22.635 98.3575 21.645 98.0275 20.625 97.6875 Z " fill="#ffffff" transform="translate(259.375,174.3125)"/>
<path d="M0 0 C3.31981965 1.71130022 4.50241322 2.50361982 6.625 5.6875 C6.85546875 7.84375 6.85546875 7.84375 6.8125 10.1875 C6.80605469 10.9609375 6.79960937 11.734375 6.79296875 12.53125 C6.625 14.6875 6.625 14.6875 5.625 17.6875 C6.615 17.6875 7.605 17.6875 8.625 17.6875 C7.60908579 23.15614457 6.55408943 28.45140013 4.625 33.6875 C6.3884375 33.8421875 6.3884375 33.8421875 8.1875 34 C12.44985903 34.51664958 15.76587534 35.8383361 19.625 37.6875 C19.295 38.6775 18.965 39.6675 18.625 40.6875 C16.25390625 41.828125 16.25390625 41.828125 13.1875 42.9375 C7.72366274 45.07864531 3.28133993 47.73941526 -1.4140625 51.234375 C-3.375 52.6875 -3.375 52.6875 -5.375 53.6875 C-5.375 53.0275 -5.375 52.3675 -5.375 51.6875 C-6.035 51.6875 -6.695 51.6875 -7.375 51.6875 C-7.705 53.3375 -8.035 54.9875 -8.375 56.6875 C-11.6989974 55.1786809 -14.36783241 53.2295187 -17.25 51 C-23.56099027 46.32867161 -30.29111674 42.99675933 -37.375 39.6875 C-35.09768574 37.08172695 -33.16097238 36.0350813 -29.875 35 C-29.1015625 34.74863281 -28.328125 34.49726563 -27.53125 34.23828125 C-25.375 33.6875 -25.375 33.6875 -22.375 33.6875 C-22.375 32.0375 -22.375 30.3875 -22.375 28.6875 C-23.035 28.6875 -23.695 28.6875 -24.375 28.6875 C-26.17730168 24.85760894 -26.57122241 21.90628192 -26.375 17.6875 C-25.715 17.3575 -25.055 17.0275 -24.375 16.6875 C-24.7153125 15.1715625 -24.7153125 15.1715625 -25.0625 13.625 C-25.43476395 8.93447417 -24.74036178 6.73150563 -22.375 2.6875 C-15.07716896 -3.08994958 -8.30247391 -4.00104749 0 0 Z M-22.375 15.6875 C-21.375 17.6875 -21.375 17.6875 -21.375 17.6875 Z M-23.375 17.6875 C-22.375 19.6875 -22.375 19.6875 -22.375 19.6875 Z M3.625 17.6875 C3.955 18.3475 4.285 19.0075 4.625 19.6875 C4.955 19.0275 5.285 18.3675 5.625 17.6875 C4.965 17.6875 4.305 17.6875 3.625 17.6875 Z M-22.375 33.6875 C-22.26285352 39.30756722 -22.26285352 39.30756722 -19.3125 43.6875 C-18.673125 44.0175 -18.03375 44.3475 -17.375 44.6875 C-17.66375 43.98625 -17.9525 43.285 -18.25 42.5625 C-19.39633588 39.63297497 -20.40125654 36.67828347 -21.375 33.6875 C-21.705 33.6875 -22.035 33.6875 -22.375 33.6875 Z M2.625 35.6875 C1.965 37.9975 1.305 40.3075 0.625 42.6875 C1.615 42.3575 2.605 42.0275 3.625 41.6875 C3.625 39.7075 3.625 37.7275 3.625 35.6875 C3.295 35.6875 2.965 35.6875 2.625 35.6875 Z " fill="#ffffff" transform="translate(259.375,174.3125)"/>
<path d="M0 0 C8 0 8 0 10 1 C10.2396943 6.63281599 9.38529821 11.54538831 8 17 C8.721875 17.268125 9.44375 17.53625 10.1875 17.8125 C12.97590126 18.98982498 15.44095724 20.39145884 18 22 C16.02 24.97 16.02 24.97 14 28 C14.474375 28.4125 14.94875 28.825 15.4375 29.25 C17.16266518 31.182185 17.56584875 32.48192275 18 35 C17.01 35.66 16.02 36.32 15 37 C15.63228516 37.81404297 15.63228516 37.81404297 16.27734375 38.64453125 C16.82519531 39.35996094 17.37304688 40.07539063 17.9375 40.8125 C18.48277344 41.52019531 19.02804687 42.22789062 19.58984375 42.95703125 C21 45 21 45 22 48 C20.68 48 19.36 48 18 48 C17.67 48.99 17.34 49.98 17 51 C16.64808594 50.07316406 16.29617188 49.14632812 15.93359375 48.19140625 C15.43988281 46.99386719 14.94617188 45.79632813 14.4375 44.5625 C13.96183594 43.36753906 13.48617187 42.17257813 12.99609375 40.94140625 C11.21749157 37.61352069 11.21749157 37.61352069 7.28515625 37.08984375 C6.20105469 37.06019531 5.11695313 37.03054687 4 37 C3.79503906 37.85464844 3.59007812 38.70929688 3.37890625 39.58984375 C3.10949219 40.69457031 2.84007812 41.79929688 2.5625 42.9375 C2.29566406 44.03964844 2.02882813 45.14179688 1.75390625 46.27734375 C1 49 1 49 0 50 C-6.46153846 50.35897436 -6.46153846 50.35897436 -10 48 C-9.7834375 46.87851563 -9.7834375 46.87851563 -9.5625 45.734375 C-9.376875 44.74953125 -9.19125 43.7646875 -9 42.75 C-8.814375 41.77546875 -8.62875 40.8009375 -8.4375 39.796875 C-7.89696983 36.81315721 -7.89696983 36.81315721 -8 33 C-8.66 32.67 -9.32 32.34 -10 32 C-10.144375 33.299375 -10.28875 34.59875 -10.4375 35.9375 C-10.875 39.875 -10.875 39.875 -12 41 C-14.9375 41.25 -14.9375 41.25 -18 41 C-20 38 -20 38 -19.7578125 35.95703125 C-19.171875 33.97135417 -18.5859375 31.98567708 -18 30 C-18.66 30 -19.32 30 -20 30 C-20.33 30.99 -20.66 31.98 -21 33 C-22.98 32.67 -24.96 32.34 -27 32 C-26.67 30.02 -26.34 28.04 -26 26 C-27.65 26 -29.3 26 -31 26 C-30.505 21.545 -30.505 21.545 -30 17 C-28.35 17 -26.7 17 -25 17 C-24.34 15.02 -23.68 13.04 -23 11 C-17.25 11.75 -17.25 11.75 -15 14 C-14.01 11.03 -13.02 8.06 -12 5 C-9.69 5.33 -7.38 5.66 -5 6 C-4.85714286 13.42857143 -4.85714286 13.42857143 -6 17 C-5.34 17 -4.68 17 -4 17 C-2.68 11.39 -1.36 5.78 0 0 Z M7 17 C8 21 8 21 8 21 Z M-5 21 C-4 23 -4 23 -4 23 Z M6 22 C7 26 7 26 7 26 Z M5 26 C5 27.65 5 29.3 5 31 C7.97 31.495 7.97 31.495 11 32 C9.62514468 30.45833358 9.62514468 30.45833358 8 29 C7.34 29 6.68 29 6 29 C5.67 28.01 5.34 27.02 5 26 Z M4 31 C5 35 5 35 5 35 Z " fill="#ffffff" transform="translate(298,122)"/>
<path d="M0 0 C1.32 5.61 2.64 11.22 4 17 C4.66 17 5.32 17 6 17 C5.67 13.37 5.34 9.74 5 6 C8.465 5.505 8.465 5.505 12 5 C12.99 7.97 13.98 10.94 15 14 C15.66 14 16.32 14 17 14 C17 13.34 17 12.68 17 12 C18.65 11.67 20.3 11.34 22 11 C22.99 12.98 23.98 14.96 25 17 C26.65 17 28.3 17 30 17 C30.495 21.455 30.495 21.455 31 26 C29.35 26 27.7 26 26 26 C26.495 28.97 26.495 28.97 27 32 C24.03 32.495 24.03 32.495 21 33 C21 32.01 21 31.02 21 30 C20.01 30 19.02 30 18 30 C18.15597656 30.71027344 18.31195313 31.42054688 18.47265625 32.15234375 C18.66730469 33.07144531 18.86195313 33.99054688 19.0625 34.9375 C19.25972656 35.85402344 19.45695312 36.77054688 19.66015625 37.71484375 C19.77230469 38.46894531 19.88445312 39.22304687 20 40 C19 41 19 41 15.4375 41.0625 C14.303125 41.041875 13.16875 41.02125 12 41 C11.01 38.03 10.02 35.06 9 32 C8.03759055 35.84963779 7.99324694 36.89579224 8.9375 40.5 C9.73647784 43.59008649 10 45.71929814 10 49 C6.78548731 50.60725635 3.56387464 50.05748185 0 50 C-1.32 45.71 -2.64 41.42 -4 37 C-7.05259235 37.24420739 -8.45672101 37.39452328 -11 39 C-13.44378852 42.81186877 -15.16965807 46.8689806 -17 51 C-17.66 51.99 -18.32 52.98 -19 54 C-19 53.01 -19 52.02 -19 51 C-19.66 50.67 -20.32 50.34 -21 50 C-21.88671875 48.28125 -21.88671875 48.28125 -22 46 C-20.26953125 43.34375 -20.26953125 43.34375 -17.8125 40.5 C-16.61560547 39.09234375 -16.61560547 39.09234375 -15.39453125 37.65625 C-9.00892211 30.57270316 -9.00892211 30.57270316 -5 30 C-5.66 29.67 -6.32 29.34 -7 29 C-6.979375 27.88625 -6.95875 26.7725 -6.9375 25.625 C-6.73619282 22.16784079 -6.73619282 22.16784079 -8 20 C-8.3929054 17.92362403 -8.74063178 15.83856713 -9.0625 13.75 C-9.23910156 12.63109375 -9.41570312 11.5121875 -9.59765625 10.359375 C-9.97615141 7.19912415 -10.07224185 4.17864123 -10 1 C-8 0 -8 0 0 0 Z " fill="#ffffff" transform="translate(202,122)"/>
<path d="M0 0 C9 0 9 0 11.21508789 1.92773438 C11.71258545 2.80751953 12.21008301 3.68730469 12.72265625 4.59375 C13.55893555 6.01494141 13.55893555 6.01494141 14.41210938 7.46484375 C14.95673828 8.46644531 15.50136719 9.46804688 16.0625 10.5 C16.64193359 11.50160156 17.22136719 12.50320313 17.81835938 13.53515625 C19.24314739 16.00792883 20.63443313 18.49418638 22 21 C24.40546456 18.80013442 25.87079619 16.64814145 27.3828125 13.76953125 C27.82882813 12.96708984 28.27484375 12.16464844 28.734375 11.33789062 C29.66104274 9.6550516 30.56487299 7.95943271 31.4453125 6.25195312 C31.8990625 5.45337891 32.3528125 4.65480469 32.8203125 3.83203125 C33.21492676 3.09702393 33.60954102 2.3620166 34.01611328 1.60473633 C36 0 36 0 45 0 C45 12.87 45 25.74 45 39 C41.7 39 38.4 39 35 39 C34.505 30.09 34.505 30.09 34 21 C31.41069465 25.23233754 31.41069465 25.23233754 28.82446289 29.46655273 C26.11111111 33.88888889 26.11111111 33.88888889 25 35 C22.2109375 35.46875 22.2109375 35.46875 19 35 C17.15189849 32.7501373 15.96865214 31.01196751 14.625 28.5 C13.42875 26.355 12.2325 24.21 11 22 C10.67 27.61 10.34 33.22 10 39 C6.7 39 3.4 39 0 39 C0 26.13 0 13.26 0 0 Z " fill="#ffffff" transform="translate(140,309)"/>
<path d="M0 0 C8 0 8 0 9.84765625 1.546875 C10.24855469 2.27390625 10.64945312 3.0009375 11.0625 3.75 C11.53300781 4.55824219 12.00351562 5.36648438 12.48828125 6.19921875 C13.23658203 7.58560547 13.23658203 7.58560547 14 9 C15.24351013 11.19119575 16.49358881 13.37867602 17.75 15.5625 C18.32234375 16.59503906 18.8946875 17.62757813 19.484375 18.69140625 C19.98453125 19.45324219 20.4846875 20.21507812 21 21 C21.66 21 22.32 21 23 21 C26.96 14.07 30.92 7.14 35 0 C37.97 0 40.94 0 44 0 C44 12.87 44 25.74 44 39 C41.03 39 38.06 39 35 39 C34.67 32.73 34.34 26.46 34 20 C31.28313235 24.92290403 31.28313235 24.92290403 28.61669922 29.87304688 C25.8069245 34.75624156 25.8069245 34.75624156 22 35.90625 C17.67449831 34.59958803 16.2428327 31.72778002 14.125 28 C12.76375 25.69 11.4025 23.38 10 21 C9.67 26.94 9.34 32.88 9 39 C6.03 39 3.06 39 0 39 C0 26.13 0 13.26 0 0 Z " fill="#ffffff" transform="translate(432,309)"/>
<path d="M0 0 C9 0 9 0 11.3125 1.58203125 C11.869375 2.31808594 12.42625 3.05414063 13 3.8125 C13.639375 4.62203125 14.27875 5.4315625 14.9375 6.265625 C15.9584375 7.61914062 15.9584375 7.61914062 17 9 C18.6615639 11.025031 20.32820986 13.04590315 22 15.0625 C23.32 16.691875 24.64 18.32125 26 20 C26.33 13.4 26.66 6.8 27 0 C30.3 0 33.6 0 37 0 C37 12.87 37 25.74 37 39 C28 39 28 39 25.6875 37.41796875 C25.130625 36.68191406 24.57375 35.94585937 24 35.1875 C23.360625 34.37796875 22.72125 33.5684375 22.0625 32.734375 C21.0415625 31.38085938 21.0415625 31.38085938 20 30 C18.3384361 27.974969 16.67179014 25.95409685 15 23.9375 C13.68 22.308125 12.36 20.67875 11 19 C10.67 25.6 10.34 32.2 10 39 C6.7 39 3.4 39 0 39 C0 26.13 0 13.26 0 0 Z " fill="#ffffff" transform="translate(246,309)"/>
<path d="M0 0 C5.754375 -0.0928125 5.754375 -0.0928125 11.625 -0.1875 C13.42251709 -0.22846802 13.42251709 -0.22846802 15.25634766 -0.27026367 C20.88772647 -0.31423666 25.20662686 -0.3324604 30 3 C33.93450145 7.35985296 35.30520146 9.95489991 35.21875 15.8984375 C34.88406541 19.11380013 33.7788785 21.33168225 32 24 C29.890625 25.1640625 29.890625 25.1640625 28 26 C28.49371094 26.77085937 28.98742187 27.54171875 29.49609375 28.3359375 C30.13675781 29.33882813 30.77742188 30.34171875 31.4375 31.375 C32.07558594 32.37273437 32.71367187 33.37046875 33.37109375 34.3984375 C35 37 35 37 36 39 C31.87823335 39.54023155 28.09713259 39.80046806 24 39 C21.96899339 36.84044867 20.81610701 34.68877627 19.4453125 32.0703125 C18.17475743 29.83877979 18.17475743 29.83877979 15.8671875 29.1796875 C13.40005364 28.86612974 13.40005364 28.86612974 10 29 C10 32.3 10 35.6 10 39 C6.7 39 3.4 39 0 39 C0 26.13 0 13.26 0 0 Z M10 8 C10 12.29 10 16.58 10 21 C16.74773644 21.28834762 16.74773644 21.28834762 23 19 C25.30787112 16.17537932 25.30787112 16.17537932 24.875 12.9375 C24.32284456 9.95387766 24.32284456 9.95387766 22.2734375 8.82421875 C19.62037086 7.86236813 17.56418279 7.80094256 14.75 7.875 C12.39875 7.936875 12.39875 7.936875 10 8 Z " fill="#ffffff" transform="translate(336,309)"/>
<path d="M0 0 C2.14828766 1.50009742 2.84341142 2.86309289 3.8125 5.265625 C2.1625 6.915625 0.5125 8.565625 -1.1875 10.265625 C-5.9375 8.390625 -5.9375 8.390625 -8.1875 7.265625 C-12.81963493 6.71049685 -16.16922127 6.6292008 -20.1875 9.140625 C-23.5102272 12.67102265 -23.53638349 15.31507175 -23.4609375 20.0078125 C-23.03829283 23.49764996 -21.84432937 25.01753861 -19.1875 27.265625 C-14.36560775 29.1943819 -12.39759378 29.30764376 -7.1875 28.265625 C-6.8575 24.635625 -6.5275 21.005625 -6.1875 17.265625 C-3.2175 17.265625 -0.2475 17.265625 2.8125 17.265625 C2.8125 22.875625 2.8125 28.485625 2.8125 34.265625 C-5.05335439 38.53185111 -12.76971171 40.03208464 -21.5859375 37.60546875 C-26.58563497 35.39295895 -30.16133354 31.77869678 -33.1875 27.265625 C-35.10311899 21.51876802 -35.40396949 14.4859882 -33.24609375 8.7734375 C-30.16633307 3.65659374 -26.61736651 0.21851383 -21 -1.984375 C-13.24737229 -3.50948209 -7.24620513 -3.26079231 0 0 Z " fill="#ffffff" transform="translate(81.1875,310.734375)"/>
<path d="M0 0 C3.3 0 6.6 0 10 0 C10.01458252 0.76666992 10.02916504 1.53333984 10.04418945 2.32324219 C10.1186922 5.79933493 10.21534646 9.27446968 10.3125 12.75 C10.33505859 13.9565625 10.35761719 15.163125 10.38085938 16.40625 C10.41630859 17.56640625 10.45175781 18.7265625 10.48828125 19.921875 C10.51446533 20.99018555 10.54064941 22.05849609 10.56762695 23.15917969 C11.0482376 26.31693544 11.77052221 27.74101047 14 30 C16.50880616 30.48261667 16.50880616 30.48261667 19.1875 30.25 C20.53908203 30.19585937 20.53908203 30.19585937 21.91796875 30.140625 C22.60503906 30.09421875 23.29210937 30.0478125 24 30 C25.00158069 26.6210018 25.19578116 23.43723472 25.31640625 19.921875 C25.35830078 18.76171875 25.40019531 17.6015625 25.44335938 16.40625 C25.48267578 15.1996875 25.52199219 13.993125 25.5625 12.75 C25.60568359 11.52796875 25.64886719 10.3059375 25.69335938 9.046875 C25.79937355 6.0313608 25.90143936 3.01576552 26 0 C29.3 0 32.6 0 36 0 C36.08735463 4.54154478 36.14051247 9.08287232 36.1875 13.625 C36.21263672 14.91019531 36.23777344 16.19539063 36.26367188 17.51953125 C36.27333984 18.76347656 36.28300781 20.00742187 36.29296875 21.2890625 C36.3086792 22.43068848 36.32438965 23.57231445 36.34057617 24.74853516 C35.88787465 29.07045546 34.43896573 32.42238392 31.5 35.64453125 C25.18688442 40.56021239 19.78359507 40.5574458 12 40 C6.70684337 38.26769419 4.15804998 35.42126997 1 31 C-0.19707919 27.58718887 -0.11460203 24.29563056 -0.09765625 20.703125 C-0.09443359 19.49785156 -0.09121094 18.29257812 -0.08789062 17.05078125 C-0.07951172 15.79652344 -0.07113281 14.54226563 -0.0625 13.25 C-0.05798828 11.98027344 -0.05347656 10.71054687 -0.04882812 9.40234375 C-0.03704556 6.26818164 -0.02059416 3.13411459 0 0 Z " fill="#ffffff" transform="translate(382,309)"/>
<path d="M0 0 C1.37478516 0.01740234 1.37478516 0.01740234 2.77734375 0.03515625 C3.69644531 0.04417969 4.61554688 0.05320312 5.5625 0.0625 C6.27277344 0.07410156 6.98304688 0.08570313 7.71484375 0.09765625 C9.97958238 5.00693675 12.23979273 9.91826671 14.49584961 14.83154297 C15.26381611 16.50236052 16.03301245 18.17261336 16.8034668 19.84228516 C17.91128914 22.24363829 19.014659 24.64699383 20.1171875 27.05078125 C20.46200668 27.79571838 20.80682587 28.54065552 21.16209412 29.3081665 C22.65887492 32.58173469 23.83832919 35.59159802 24.71484375 39.09765625 C21.08484375 39.09765625 17.45484375 39.09765625 13.71484375 39.09765625 C12.72484375 36.78765625 11.73484375 34.47765625 10.71484375 32.09765625 C5.10484375 31.76765625 -0.50515625 31.43765625 -6.28515625 31.09765625 C-6.94515625 33.07765625 -7.60515625 35.05765625 -8.28515625 37.09765625 C-8.61515625 37.75765625 -8.94515625 38.41765625 -9.28515625 39.09765625 C-12.58515625 39.09765625 -15.88515625 39.09765625 -19.28515625 39.09765625 C-18.62618527 34.52245172 -16.86132664 30.58544755 -14.94140625 26.42578125 C-14.6122522 25.70275818 -14.28309814 24.97973511 -13.94396973 24.23480225 C-13.25045331 22.71415427 -12.55439816 21.19466186 -11.85595703 19.67626953 C-10.7835236 17.34410582 -9.71926309 15.0083454 -8.65625 12.671875 C-7.9809423 11.19379397 -7.30517709 9.71592186 -6.62890625 8.23828125 C-6.3090979 7.53729309 -5.98928955 6.83630493 -5.65979004 6.11407471 C-2.89918232 0.12389668 -2.89918232 0.12389668 0 0 Z M1.71484375 11.09765625 C1.04397255 12.72092495 0.37827346 14.34633203 -0.28515625 15.97265625 C-0.65640625 16.87757813 -1.02765625 17.7825 -1.41015625 18.71484375 C-2.40005851 20.98749483 -2.40005851 20.98749483 -2.28515625 23.09765625 C1.01484375 23.09765625 4.31484375 23.09765625 7.71484375 23.09765625 C6.06484375 19.13765625 4.41484375 15.17765625 2.71484375 11.09765625 C2.38484375 11.09765625 2.05484375 11.09765625 1.71484375 11.09765625 Z " fill="#ffffff" transform="translate(213.28515625,308.90234375)"/>
<path d="M0 0 C3.98547259 -1.00568 7.06028291 -1.28798443 11 0 C15.0271228 4.22175773 17.49091805 9.79597817 20 15 C20.58007812 14.12988281 20.58007812 14.12988281 21.171875 13.2421875 C22.25141897 11.62287154 23.34043854 10.00984352 24.4375 8.40234375 C26.15009057 5.87415394 26.15009057 5.87415394 27.75 2.4375 C30 0 30 0 32.46875 -0.36328125 C35.00861122 -0.37398291 37.47454948 -0.26025635 40 0 C37.81380429 4.66901094 35.5663683 9.21976783 32.69921875 13.51171875 C26.96474432 22.19482738 24.58900868 28.33066531 25 39 C21.7 39 18.4 39 15 39 C15.07863281 38.24460937 15.15726563 37.48921875 15.23828125 36.7109375 C15.51712921 24.17745538 8.93127419 15.31411564 2.29101562 5.13793945 C1 3 1 3 0 0 Z " fill="#ffffff" transform="translate(92,309)"/>
<path d="M0 0 C11.55 0 23.1 0 35 0 C35 2.64 35 5.28 35 8 C31.04 8 27.08 8 23 8 C23 18.23 23 28.46 23 39 C19.7 39 16.4 39 13 39 C13 28.77 13 18.54 13 8 C8.71 8 4.42 8 0 8 C0 5.36 0 2.72 0 0 Z " fill="#ffffff" transform="translate(292,309)"/>
<path d="M0 0 C2.31 0.33 4.62 0.66 7 1 C7.14285714 8.42857143 7.14285714 8.42857143 6 12 C6.99 12.33 7.98 12.66 9 13 C9 13.99 9 14.98 9 16 C8.34 16 7.68 16 7 16 C7.33 17.32 7.66 18.64 8 20 C6.02 20.99 6.02 20.99 4 22 C4 23.65 4 25.3 4 27 C3.34 27 2.68 27 2 27 C1.855625 28.299375 1.71125 29.59875 1.5625 30.9375 C1.125 34.875 1.125 34.875 0 36 C-2.9375 36.25 -2.9375 36.25 -6 36 C-8 33 -8 33 -7.7578125 30.95703125 C-7.171875 28.97135417 -6.5859375 26.98567708 -6 25 C-6.66 25 -7.32 25 -8 25 C-8.33 25.99 -8.66 26.98 -9 28 C-10.98 27.67 -12.96 27.34 -15 27 C-14.67 25.02 -14.34 23.04 -14 21 C-15.65 21 -17.3 21 -19 21 C-18.505 16.545 -18.505 16.545 -18 12 C-16.35 12 -14.7 12 -13 12 C-12.34 10.02 -11.68 8.04 -11 6 C-5.25 6.75 -5.25 6.75 -3 9 C-2.01 6.03 -1.02 3.06 0 0 Z " fill="#ffffff" transform="translate(286,127)"/>
<path d="M0 0 C0.80824219 0.42152344 1.61648437 0.84304687 2.44921875 1.27734375 C3.51785156 1.82519531 4.58648437 2.37304688 5.6875 2.9375 C6.74324219 3.48277344 7.79898438 4.02804688 8.88671875 4.58984375 C11.66234047 5.8470576 14.00272126 6.56069569 17 7 C16.34 8.32 15.68 9.64 15 11 C15.99 11.33 16.98 11.66 18 12 C18.28875 12.598125 18.5775 13.19625 18.875 13.8125 C20.35537318 16.69100341 22.42278571 18.10099999 25 20 C24.360625 20.12375 23.72125 20.2475 23.0625 20.375 C22.381875 20.58125 21.70125 20.7875 21 21 C19.74160485 23.5167903 20.18072335 24.37831473 21 27 C21.33 27.66 21.66 28.32 22 29 C20.02 29.33 18.04 29.66 16 30 C16.33 33.3 16.66 36.6 17 40 C15.80375 39.175 14.6075 38.35 13.375 37.5 C8.6676072 34.33675197 3.78531062 31.56385657 -1.21337891 28.89257812 C-4.61950453 27.0158305 -6.94370709 25.32853169 -9 22 C-2.84765625 21.90234375 -2.84765625 21.90234375 -1 22 C-0.67 22.33 -0.34 22.66 0 23 C-0.33 22.01 -0.66 21.02 -1 20 C-0.34 19.34 0.32 18.68 1 18 C0.6814823 15.89179203 0.6814823 15.89179203 0 14 C1.98 14.66 3.96 15.32 6 16 C2.7676587 12.47139034 2.7676587 12.47139034 -1.25 10 C-3 9 -3 9 -4 6.625 C-4 4 -4 4 -2 1.8359375 C-1.34 1.23007813 -0.68 0.62421875 0 0 Z M17 18 C18 20 18 20 18 20 Z M6 22 C6.66 22.66 7.32 23.32 8 24 C10.10820797 23.6814823 10.10820797 23.6814823 12 23 C9.03 22.505 9.03 22.505 6 22 Z " fill="#ffffff" transform="translate(211,250)"/>
<path d="M0 0 C0.99 2.97 1.98 5.94 3 9 C3.66 9 4.32 9 5 9 C5 8.34 5 7.68 5 7 C6.65 6.67 8.3 6.34 10 6 C10.99 7.98 11.98 9.96 13 12 C14.65 12 16.3 12 18 12 C18.33 14.97 18.66 17.94 19 21 C17.35 21 15.7 21 14 21 C14.33 22.98 14.66 24.96 15 27 C13.02 27.33 11.04 27.66 9 28 C9 27.01 9 26.02 9 25 C8.01 25 7.02 25 6 25 C6.15597656 25.71027344 6.31195313 26.42054688 6.47265625 27.15234375 C6.76462891 28.53099609 6.76462891 28.53099609 7.0625 29.9375 C7.25972656 30.85402344 7.45695313 31.77054688 7.66015625 32.71484375 C7.77230469 33.46894531 7.88445312 34.22304687 8 35 C7 36 7 36 3.4375 36.0625 C2.303125 36.041875 1.16875 36.02125 0 36 C-0.99 33.03 -1.98 30.06 -3 27 C-3.99 27.33 -4.98 27.66 -6 28 C-6.38133299 26.0085944 -6.71325582 24.00720923 -7 22 C-6.67 21.67 -6.34 21.34 -6 21 C-5.78286777 14.26890078 -6.29953297 7.69196183 -7 1 C-4.53721199 -0.231394 -2.7204945 -0.07159196 0 0 Z " fill="#ffffff" transform="translate(214,127)"/>
<path d="M0 0 C-1.35715684 3.18058399 -2.69320873 4.80793825 -5.52734375 6.76953125 C-6.2322998 7.26227539 -6.93725586 7.75501953 -7.66357422 8.26269531 C-8.41396973 8.77413086 -9.16436523 9.28556641 -9.9375 9.8125 C-11.0824292 10.61252441 -11.0824292 10.61252441 -12.25048828 11.42871094 C-15.59511114 13.74872131 -18.94290169 16.01559425 -22.46484375 18.05859375 C-28.44361257 21.40268564 -28.44361257 21.40268564 -32.25 26.875 C-34.00461231 33.65775503 -32.25870771 39.77588043 -29.70703125 46.0859375 C-28.3140186 49.85707671 -27.3052757 53.45128654 -28.98828125 57.203125 C-29.32214844 57.79609375 -29.65601563 58.3890625 -30 59 C-30.36351562 58.443125 -30.72703125 57.88625 -31.1015625 57.3125 C-31.60429687 56.549375 -32.10703125 55.78625 -32.625 55 C-33.16640625 54.17757812 -33.7078125 53.35515625 -34.265625 52.5078125 C-35.86902233 50.18938663 -37.58444541 48.04924485 -39.375 45.875 C-41.34432112 43.22660263 -42.03035317 41.87158276 -42.8125 38.5625 C-41.80978868 34.16599653 -39.94253589 31.86131999 -37.05859375 28.4609375 C-34.88646043 25.86426958 -32.98798216 23.15837025 -31.0625 20.375 C-24.01933147 10.66355417 -12.72767363 0 0 0 Z " fill="#ffffff" transform="translate(176,149)"/>
<path d="M0 0 C2.64 0 5.28 0 8 0 C8.14930394 4.14414141 8.25765166 8.28682373 8.32958984 12.43286133 C8.35960197 13.84036556 8.40042758 15.24768527 8.45263672 16.65454102 C8.92972388 29.84927521 8.92972388 29.84927521 5.1015625 34.40234375 C1.26623254 38.00983809 -1.38683649 38.11385454 -6.625 38.0625 C-7.81351562 38.05347656 -9.00203125 38.04445313 -10.2265625 38.03515625 C-11.14179688 38.02355469 -12.05703125 38.01195312 -13 38 C-11.92598892 35.08482708 -11.22189824 33.22189824 -9 31 C-8.030625 30.87625 -7.06125 30.7525 -6.0625 30.625 C-2.98510894 30.28828945 -2.98510894 30.28828945 -1.3269043 28.34082031 C0.36845042 25.35000871 0.34335769 23.34832326 0.29296875 19.921875 C0.2784668 18.18164062 0.2784668 18.18164062 0.26367188 16.40625 C0.23853516 15.1996875 0.21339844 13.993125 0.1875 12.75 C0.17396484 11.52796875 0.16042969 10.3059375 0.14648438 9.046875 C0.1111398 6.03080502 0.0617956 3.01562513 0 0 Z " fill="#ffffff" transform="translate(409,310)"/>
<path d="M0 0 C2.97 0 5.94 0 9 0 C9 5.61 9 11.22 9 17 C3.56304299 19.71847851 0.83772948 20.40338803 -4.875 20.1875 C-5.56335938 20.17396484 -6.25171875 20.16042969 -6.9609375 20.14648438 C-8.64097001 20.1114837 -10.3205935 20.05768954 -12 20 C-13.125 15.25 -13.125 15.25 -12 13 C-9.49609375 12.3671875 -9.49609375 12.3671875 -6.4375 11.875 C-3.7459375 11.441875 -3.7459375 11.441875 -1 11 C-0.67 7.37 -0.34 3.74 0 0 Z " fill="#ffffff" transform="translate(75,328)"/>
<path d="M0 0 C2.12508244 3.18762365 2.5020163 5.26512223 3 9 C1.49759766 9.77923828 1.49759766 9.77923828 -0.03515625 10.57421875 C-9.87233132 15.71298124 -9.87233132 15.71298124 -19 22 C-18.73958333 19.94921875 -18.47916667 17.8984375 -18.21875 15.84765625 C-17.98040465 14.14458268 -17.98040465 14.14458268 -18 13 C-19.65 15.31 -21.3 17.62 -23 20 C-23.33 19.34 -23.66 18.68 -24 18 C-26.01669827 16.86649466 -26.01669827 16.86649466 -28 16 C-25.79080336 12.24436571 -23.43615728 8.61223321 -21 5 C-20.34 5.66 -19.68 6.32 -19 7 C-17.20620902 6.55005243 -15.41501072 6.08975857 -13.625 5.625 C-12.12839844 5.24214844 -12.12839844 5.24214844 -10.6015625 4.8515625 C-7.87458985 4.17595681 -7.87458985 4.17595681 -6 2 C-5.01 2.33 -4.02 2.66 -3 3 C-3.33 4.32 -3.66 5.64 -4 7 C-1.49962266 4.82575883 -0.56371414 3.26954202 0 0 Z M-27 18 C-27 21 -27 21 -27 21 Z " fill="#ffffff" transform="translate(291,268)"/>
<path d="M0 0 C0.78375 0.845625 1.5675 1.69125 2.375 2.5625 C4.60230246 4.46855691 5.65579213 4.98565801 8.625 5.109375 C11.11407237 4.84066832 13.5453925 4.4899513 16 4 C17.90608098 7.21182149 18.22266247 9.53882603 18.125 13.25 C18.10695312 14.14203125 18.08890625 15.0340625 18.0703125 15.953125 C18.04710937 16.62859375 18.02390625 17.3040625 18 18 C8.53139611 17.05313961 1.21326007 13.4843201 -7 9 C-5.27845212 5.23511958 -3.00765886 2.84936103 0 0 Z " fill="#ffffff" transform="translate(169,221)"/>
<path d="M0 0 C2.9719385 1.12451727 5.33440687 2.22293791 8 4 C8 5.66666667 8 7.33333333 8 9 C9.423125 8.9071875 9.423125 8.9071875 10.875 8.8125 C11.90625 8.874375 12.9375 8.93625 14 9 C14.99 10.485 14.99 10.485 16 12 C15.67 12.99 15.34 13.98 15 15 C15.33 16.134375 15.66 17.26875 16 18.4375 C16.97115339 21.89723397 17.01785931 22.78384732 16 26 C15.50113281 25.57589844 15.00226563 25.15179688 14.48828125 24.71484375 C8.94664615 20.18801436 3.22939058 16.85001732 -3.1796875 13.67578125 C-5.9528657 12.02800639 -7.31302013 10.70742573 -9 8 C-2.84765625 7.90234375 -2.84765625 7.90234375 -1 8 C-0.67 8.33 -0.34 8.66 0 9 C-0.33 8.01 -0.66 7.02 -1 6 C-0.34 5.34 0.32 4.68 1 4 C0.6814823 1.89179203 0.6814823 1.89179203 0 0 Z " fill="#ffffff" transform="translate(211,264)"/>
<path d="M0 0 C0.99 0.33 1.98 0.66 3 1 C2.01 3.31 1.02 5.62 0 8 C0.78375 7.649375 1.5675 7.29875 2.375 6.9375 C3.24125 6.628125 4.1075 6.31875 5 6 C5.66 6.33 6.32 6.66 7 7 C6.34 8.32 5.68 9.64 5 11 C4.34 10.67 3.68 10.34 3 10 C2.61521484 10.83917969 2.61521484 10.83917969 2.22265625 11.6953125 C0.37169936 15.18433668 -2.06766682 18.21865162 -4.44140625 21.3671875 C-6.1736781 24.29338104 -6.64267051 26.64208174 -7 30 C-7.66 29.67 -8.32 29.34 -9 29 C-9 28.01 -9 27.02 -9 26 C-9.99 25.34 -10.98 24.68 -12 24 C-13.32 25.65 -14.64 27.3 -16 29 C-16 26 -16 26 -14 23 C-14.12375 21.906875 -14.2475 20.81375 -14.375 19.6875 C-14 16 -14 16 -12.3671875 14.38671875 C-10.94099718 13.36838729 -9.49757035 12.37382336 -8.0390625 11.40234375 C-3.78528098 8.47685033 -1.64626651 4.80161065 0 0 Z " fill="#ffffff" transform="translate(330,201)"/>
<path d="M0 0 C10.89 0 21.78 0 33 0 C33 1.98 33 3.96 33 6 C18 6 18 6 15 5 C14.01 5.495 14.01 5.495 13 6 C10.7927077 6.07092842 8.58332548 6.08415025 6.375 6.0625 C5.18648438 6.05347656 3.99796875 6.04445313 2.7734375 6.03515625 C1.85820312 6.02355469 0.94296875 6.01195312 0 6 C0 4.02 0 2.04 0 0 Z " fill="#ffffff" transform="translate(293,310)"/>
<path d="M0 0 C11.95857194 0.83919803 20.99612308 8.35515748 28.875 17.0625 C31.74892571 20.49354607 33.93496514 24.03513306 36 28 C35.01 28.99 34.02 29.98 33 31 C32.71125 29.824375 32.4225 28.64875 32.125 27.4375 C29.89522542 21.53637565 25.17284052 19.19190159 20 16 C5.60295703 6.68535346 5.60295703 6.68535346 0 1 C0 0.67 0 0.34 0 0 Z " fill="#ffffff" transform="translate(324,149)"/>
<path d="M0 0 C-1.35715684 3.18058399 -2.69320873 4.80793825 -5.52734375 6.76953125 C-6.2322998 7.26227539 -6.93725586 7.75501953 -7.66357422 8.26269531 C-8.78916748 9.02984863 -8.78916748 9.02984863 -9.9375 9.8125 C-11.0824292 10.61252441 -11.0824292 10.61252441 -12.25048828 11.42871094 C-15.59511114 13.74872131 -18.94290169 16.01559425 -22.46484375 18.05859375 C-28.63260241 21.54154552 -28.63260241 21.54154552 -32.1875 27.4375 C-32.455625 28.613125 -32.72375 29.78875 -33 31 C-34.17578125 29.328125 -34.17578125 29.328125 -35 27 C-30.54281747 16.00220096 -20.1463153 7.62861287 -10 2 C-6.65314935 0.65088191 -3.63481991 0 0 0 Z " fill="#ffffff" transform="translate(176,149)"/>
<path d="M0 0 C0.82638376 2.89234315 1 4.88742431 1 8 C1.66 8 2.32 8 3 8 C1.81775332 10.36449336 0.45903319 11.43426315 -1.5625 13.125 C-2.52349609 13.93324219 -2.52349609 13.93324219 -3.50390625 14.7578125 C-3.99761719 15.16773438 -4.49132812 15.57765625 -5 16 C-4.38125 15.690625 -3.7625 15.38125 -3.125 15.0625 C-1.75 14.375 -0.375 13.6875 1 13 C-0.15173355 15.46800047 -1.04783565 17.04783565 -3 19 C-5.3329614 19.04166002 -7.6670386 19.04166002 -10 19 C-10.66 19.33 -11.32 19.66 -12 20 C-12 19.34 -12 18.68 -12 18 C-13.32 17.67 -14.64 17.34 -16 17 C-16 17.66 -16 18.32 -16 19 C-17.32 18.67 -18.64 18.34 -20 18 C-18.25 13.125 -18.25 13.125 -16 12 C-16 12.66 -16 13.32 -16 14 C-11.04485498 13.12527407 -11.04485498 13.12527407 -7.5625 9.875 C-7.376875 9.25625 -7.19125 8.6375 -7 8 C-7.99 8.33 -8.98 8.66 -10 9 C-10.66 8.34 -11.32 7.68 -12 7 C-10.95199219 6.49339844 -10.95199219 6.49339844 -9.8828125 5.9765625 C-8.97273438 5.53054687 -8.06265625 5.08453125 -7.125 4.625 C-6.22007812 4.18414062 -5.31515625 3.74328125 -4.3828125 3.2890625 C-1.90465528 2.09497301 -1.90465528 2.09497301 0 0 Z " fill="#ffffff" transform="translate(289,249)"/>
<path d="M0 0 C2 0.875 2 0.875 3.25 3.4375 C3.4975 4.241875 3.745 5.04625 4 5.875 C5.65 5.875 7.3 5.875 9 5.875 C9.33 8.845 9.66 11.815 10 14.875 C8.35 14.875 6.7 14.875 5 14.875 C5.33 16.855 5.66 18.835 6 20.875 C4.02 21.205 2.04 21.535 0 21.875 C-0.16802051 20.41682203 -0.33437143 18.9584516 -0.5 17.5 C-0.5928125 16.68789062 -0.685625 15.87578125 -0.78125 15.0390625 C-1 12.875 -1 12.875 -1 10.875 C-1.7425 9.7303125 -1.7425 9.7303125 -2.5 8.5625 C-4.11576996 5.66757883 -4.27854829 4.12473005 -4 0.875 C-2 -0.125 -2 -0.125 0 0 Z " fill="#ffffff" transform="translate(223,133.125)"/>
<path d="M0 0 C0.15855469 0.61488281 0.31710938 1.22976562 0.48046875 1.86328125 C1.90294275 7.16765421 1.90294275 7.16765421 5.6875 10.9375 C6.450625 11.288125 7.21375 11.63875 8 12 C8 12.66 8 13.32 8 14 C7.01 14 6.02 14 5 14 C5 14.66 5 15.32 5 16 C-1.66666667 12.66666667 -8.33333333 9.33333333 -15 6 C-12.60621961 3.47394526 -10.84094231 2.36489683 -7.5 1.3125 C-6.7265625 1.06113281 -5.953125 0.80976563 -5.15625 0.55078125 C-3 0 -3 0 0 0 Z " fill="#ffffff" transform="translate(237,208)"/>
<path d="M0 0 C5.66104589 0.49658297 9.87674471 1.54510684 15 4 C14 7 14 7 11.5234375 8.24609375 C10.48445313 8.63925781 9.44546875 9.03242188 8.375 9.4375 C3.6288411 11.30651246 -0.65806044 13.335628 -5 16 C-5 14.68 -5 13.36 -5 12 C-5.66 11.67 -6.32 11.34 -7 11 C-6.67 9.68 -6.34 8.36 -6 7 C-5.34 7 -4.68 7 -4 7 C-4 7.66 -4 8.32 -4 9 C-1.82961523 8.20700294 -1.82961523 8.20700294 -1.3671875 6.15234375 C-1.20476562 5.42144531 -1.04234375 4.69054687 -0.875 3.9375 C-0.62363281 2.83728516 -0.62363281 2.83728516 -0.3671875 1.71484375 C-0.24601562 1.14894531 -0.12484375 0.58304688 0 0 Z " fill="#ffffff" transform="translate(264,208)"/>
<path d="M0 0 C2.6645814 1.01070329 3.95195872 1.9399484 5.75 4.1875 C7.41922297 7.94325167 7.6819321 9.90840741 7 14 C5.01297163 17.32231144 2.81911169 20.337841 0 23 C-0.99 23 -1.98 23 -3 23 C-1.515 20.525 -1.515 20.525 0 18 C-1.32 18 -2.64 18 -4 18 C-4 15 -4 15 -3.0625 12.3125 C-2.20073721 9.62582778 -1.74478644 7.45307793 -1.4375 4.6875 C-1 1 -1 1 0 0 Z " fill="#ffffff" transform="translate(359,177)"/>
<path d="M0 0 C5 1 5 1 6.8125 3.0625 C7.204375 3.701875 7.59625 4.34125 8 5 C8.33 3.35 8.66 1.7 9 0 C10.32 0 11.64 0 13 0 C13 4.29 13 8.58 13 13 C7.375 11.875 7.375 11.875 5 9 C4.67 10.32 4.34 11.64 4 13 C2.68 13 1.36 13 0 13 C0 8.71 0 4.42 0 0 Z " fill="#ffffff" transform="translate(176,366)"/>
<path d="M0 0 C2.375 -0.125 2.375 -0.125 5 0 C5.66 0.66 6.32 1.32 7 2 C8.32 2 9.64 2 11 2 C10.67 3.65 10.34 5.3 10 7 C10.66 7 11.32 7 12 7 C12.33 9.31 12.66 11.62 13 14 C12.01 13.67 11.02 13.34 10 13 C9.67 13.99 9.34 14.98 9 16 C6.03 15.505 6.03 15.505 3 15 C3.33 13.02 3.66 11.04 4 9 C2.35 9 0.7 9 -1 9 C-0.67 6.03 -0.34 3.06 0 0 Z " fill="#ffffff" transform="translate(268,139)"/>
<path d="M0 0 C2.48669495 1.52410336 2.87204541 2.6526947 3.875 5.375 C4.04466185 8.93789883 3.36604164 10.33820316 1 13 C-2.53205948 13.96328895 -4.88189582 14.38250933 -8.375 13.1875 C-10 12 -10 12 -11 10 C-11.44621514 3.86454183 -11.44621514 3.86454183 -10 1.0625 C-6.76732578 -0.65485818 -3.57293012 -0.54451753 0 0 Z M-5 3 C-5.66 3.66 -6.32 4.32 -7 5 C-6.67958603 7.60280568 -6.67958603 7.60280568 -6 10 C-4.35 9.67 -2.7 9.34 -1 9 C-0.67 8.01 -0.34 7.02 0 6 C-1.37485532 4.45833358 -1.37485532 4.45833358 -3 3 C-3.66 3 -4.32 3 -5 3 Z " fill="#ffffff" transform="translate(168,366)"/>
<path d="M0 0 C9.625 -0.25 9.625 -0.25 13 2 C14.54167019 7.94644217 14.54167019 7.94644217 12.86328125 11.2109375 C11 13 11 13 8.30078125 13.390625 C5.53385417 13.26041667 2.76692708 13.13020833 0 13 C0 8.71 0 4.42 0 0 Z M4 3 C4 5.31 4 7.62 4 10 C5.65 9.67 7.3 9.34 9 9 C9.6814823 7.10820797 9.6814823 7.10820797 10 5 C9.34 4.34 8.68 3.68 8 3 C6.68 3 5.36 3 4 3 Z " fill="#ffffff" transform="translate(343,366)"/>
<path d="M0 0 C0.80824219 0.42152344 1.61648437 0.84304687 2.44921875 1.27734375 C3.51785156 1.82519531 4.58648437 2.37304688 5.6875 2.9375 C6.74324219 3.48277344 7.79898438 4.02804688 8.88671875 4.58984375 C11.66234047 5.8470576 14.00272126 6.56069569 17 7 C17 7.33 17 7.66 17 8 C14.69 8.66 12.38 9.32 10 10 C10 10.99 10 11.98 10 13 C9.01 13.33 8.02 13.66 7 14 C7.33 14.66 7.66 15.32 8 16 C2.98625661 13.87880087 -0.99546333 10.506805 -4 6 C-4 4 -4 4 -2 1.875 C-1.34 1.25625 -0.68 0.6375 0 0 Z " fill="#ffffff" transform="translate(211,250)"/>
<path d="M0 0 C1.423125 -0.061875 2.84625 -0.12375 4.3125 -0.1875 C5.51326172 -0.23970703 5.51326172 -0.23970703 6.73828125 -0.29296875 C9 0 9 0 10.81640625 1.29296875 C12.76256479 4.09980466 11.5756688 6.77625471 11 10 C11.33 10.99 11.66 11.98 12 13 C7.44615385 13.36923077 7.44615385 13.36923077 5.1875 11.5 C4.795625 11.005 4.40375 10.51 4 10 C4 10.99 4 11.98 4 13 C2.68 13 1.36 13 0 13 C0 8.71 0 4.42 0 0 Z M4 3 C4 4.32 4 5.64 4 7 C5.32 6.67 6.64 6.34 8 6 C7.67 5.01 7.34 4.02 7 3 C6.01 3 5.02 3 4 3 Z " fill="#ffffff" transform="translate(302,366)"/>
<path d="M0 0 C1.423125 -0.061875 2.84625 -0.12375 4.3125 -0.1875 C5.51326172 -0.23970703 5.51326172 -0.23970703 6.73828125 -0.29296875 C9 0 9 0 10.81640625 1.29296875 C12.76256479 4.09980466 11.5756688 6.77625471 11 10 C11.33 10.99 11.66 11.98 12 13 C7.44615385 13.36923077 7.44615385 13.36923077 5.1875 11.5 C4.795625 11.005 4.40375 10.51 4 10 C4 10.99 4 11.98 4 13 C2.68 13 1.36 13 0 13 C0 8.71 0 4.42 0 0 Z M4 3 C4 4.32 4 5.64 4 7 C5.32 6.67 6.64 6.34 8 6 C7.67 5.01 7.34 4.02 7 3 C6.01 3 5.02 3 4 3 Z " fill="#ffffff" transform="translate(141,366)"/>
<path d="M0 0 C1.423125 -0.061875 2.84625 -0.12375 4.3125 -0.1875 C5.51326172 -0.23970703 5.51326172 -0.23970703 6.73828125 -0.29296875 C9 0 9 0 10.81640625 1.29296875 C12.76256479 4.09980466 11.5756688 6.77625471 11 10 C11.33 10.99 11.66 11.98 12 13 C7.44615385 13.36923077 7.44615385 13.36923077 5.1875 11.5 C4.795625 11.005 4.40375 10.51 4 10 C4 10.99 4 11.98 4 13 C2.68 13 1.36 13 0 13 C0 8.71 0 4.42 0 0 Z M4 3 C4 4.32 4 5.64 4 7 C5.32 6.67 6.64 6.34 8 6 C7.67 5.01 7.34 4.02 7 3 C6.01 3 5.02 3 4 3 Z " fill="#ffffff" transform="translate(228,366)"/>
<path d="M0 0 C3.59391114 1.33488128 6.75490696 2.96022723 10 5 C8.02 7.97 8.02 7.97 6 11 C6.474375 11.4125 6.94875 11.825 7.4375 12.25 C9.16266518 14.182185 9.56584875 15.48192275 10 18 C9.01 18.33 8.02 18.66 7 19 C5.24609375 17.8203125 5.24609375 17.8203125 3.4375 16.125 C0.91862639 13.77689547 0.91862639 13.77689547 -2 12 C-2.05422947 10.5629191 -2.09289723 9.12524538 -2.125 7.6875 C-2.14820313 6.88699219 -2.17140625 6.08648437 -2.1953125 5.26171875 C-2 3 -2 3 0 0 Z " fill="#ffffff" transform="translate(306,139)"/>
<path d="M0 0 C0.66 0.33 1.32 0.66 2 1 C1.67 1.99 1.34 2.98 1 4 C-0.98 4 -2.96 4 -5 4 C-5.33 5.65 -5.66 7.3 -6 9 C-4.68 9.33 -3.36 9.66 -2 10 C-2 8.68 -2 7.36 -2 6 C-0.68 6 0.64 6 2 6 C2 7.98 2 9.96 2 12 C-0.60614131 13.70401547 -1.89975932 14.00613718 -5.0625 13.8125 C-9.43877551 12.60204082 -9.43877551 12.60204082 -11 10 C-11.36248449 6.61681143 -11.58433618 4.13215135 -10 1.0625 C-6.68476331 -0.69871949 -3.71856563 -0.23609941 0 0 Z " fill="#ffffff" transform="translate(205,366)"/>
<path d="M0 0 C3.25 0.25 3.25 0.25 6 1 C5.67 2.65 5.34 4.3 5 6 C3.453125 6.12375 3.453125 6.12375 1.875 6.25 C-1.23246299 7.08832166 -1.95596792 7.93131791 -3.73046875 10.69921875 C-5.23067562 13.77001257 -6.61575086 16.87579683 -8 20 C-8.66 20.99 -9.32 21.98 -10 23 C-10 22.01 -10 21.02 -10 20 C-10.66 19.67 -11.32 19.34 -12 19 C-12.88671875 17.28125 -12.88671875 17.28125 -13 15 C-11.26953125 12.34375 -11.26953125 12.34375 -8.8125 9.5 C-8.01457031 8.5615625 -7.21664062 7.623125 -6.39453125 6.65625 C-5.60433594 5.7796875 -4.81414062 4.903125 -4 4 C-3.30777344 3.22140625 -2.61554688 2.4428125 -1.90234375 1.640625 C-1.27457031 1.09921875 -0.64679688 0.5578125 0 0 Z " fill="#ffffff" transform="translate(193,153)"/>
<path d="M0 0 C2.05078125 0.03255208 4.1015625 0.06510417 6.15234375 0.09765625 C6.48234375 0.75765625 6.81234375 1.41765625 7.15234375 2.09765625 C6.82234375 2.75765625 6.49234375 3.41765625 6.15234375 4.09765625 C4.50234375 4.09765625 2.85234375 4.09765625 1.15234375 4.09765625 C3.13234375 5.08765625 5.11234375 6.07765625 7.15234375 7.09765625 C7.33984375 9.47265625 7.33984375 9.47265625 7.15234375 12.09765625 C2.97277925 14.88403258 1.00565698 13.89328137 -3.84765625 13.09765625 C-3.51765625 11.77765625 -3.18765625 10.45765625 -2.84765625 9.09765625 C-1.52765625 9.09765625 -0.20765625 9.09765625 1.15234375 9.09765625 C-0.49765625 8.10765625 -2.14765625 7.11765625 -3.84765625 6.09765625 C-2.77957394 0.14691194 -2.77957394 0.14691194 0 0 Z " fill="#ffffff" transform="translate(113.84765625,365.90234375)"/>
<path d="M0 0 C3.63 0 7.26 0 11 0 C11 0.99 11 1.98 11 3 C8.69 3 6.38 3 4 3 C4 3.66 4 4.32 4 5 C5.98 5 7.96 5 10 5 C10 5.99 10 6.98 10 8 C8.02 8 6.04 8 4 8 C4 8.66 4 9.32 4 10 C6.31 10 8.62 10 11 10 C11 10.99 11 11.98 11 13 C7.37 13 3.74 13 0 13 C0 8.71 0 4.42 0 0 Z " fill="#ffffff" transform="translate(212,366)"/>
<path d="M0 0 C3.63 0 7.26 0 11 0 C11 0.99 11 1.98 11 3 C8.69 3 6.38 3 4 3 C4 3.66 4 4.32 4 5 C5.98 5 7.96 5 10 5 C10 5.99 10 6.98 10 8 C8.02 8 6.04 8 4 8 C4 8.66 4 9.32 4 10 C6.31 10 8.62 10 11 10 C11 10.99 11 11.98 11 13 C7.37 13 3.74 13 0 13 C0 8.71 0 4.42 0 0 Z " fill="#ffffff" transform="translate(286,366)"/>
<path d="M0 0 C3.63 0 7.26 0 11 0 C11 0.99 11 1.98 11 3 C8.69 3 6.38 3 4 3 C4 3.66 4 4.32 4 5 C5.98 5 7.96 5 10 5 C10 5.99 10 6.98 10 8 C8.02 8 6.04 8 4 8 C4 8.66 4 9.32 4 10 C6.31 10 8.62 10 11 10 C11 10.99 11 11.98 11 13 C7.37 13 3.74 13 0 13 C0 8.71 0 4.42 0 0 Z " fill="#ffffff" transform="translate(253,366)"/>
<path d="M0 0 C1.65 0 3.3 0 5 0 C5.83790789 1.78953185 6.67019396 3.58169695 7.5 5.375 C7.9640625 6.37273437 8.428125 7.37046875 8.90625 8.3984375 C10 11 10 11 10 13 C9.33613281 12.91621094 8.67226563 12.83242188 7.98828125 12.74609375 C1.45279152 11.94574958 1.45279152 11.94574958 -5 13 C-4.54554036 11.58208592 -4.08625056 10.16571954 -3.625 8.75 C-3.24214844 7.56664062 -3.24214844 7.56664062 -2.8515625 6.359375 C-2.04826333 4.13372042 -1.10288338 2.09068328 0 0 Z M2 5 C1.67 5.99 1.34 6.98 1 8 C1.99 7.67 2.98 7.34 4 7 C3.34 6.34 2.68 5.68 2 5 Z " fill="#ffffff" transform="translate(365,366)"/>
<path d="M0 0 C0.66 0 1.32 0 2 0 C2.33 0.99 2.66 1.98 3 3 C2.01 4.485 2.01 4.485 1 6 C0.90866527 8.72006247 0.90405358 11.34961493 1 14.0625 C1.09396733 16.7335215 1.09322536 19.32268407 1 22 C0.34 22.66 -0.32 23.32 -1 24 C-2.32 24 -3.64 24 -5 24 C-4.97679687 22.74703125 -4.95359375 21.4940625 -4.9296875 20.203125 C-4.91092573 18.5520893 -4.89272597 16.90104715 -4.875 15.25 C-4.85824219 14.425 -4.84148437 13.6 -4.82421875 12.75 C-4.81777344 11.95078125 -4.81132812 11.1515625 -4.8046875 10.328125 C-4.79421387 9.5949707 -4.78374023 8.86181641 -4.77294922 8.10644531 C-5.03222456 5.70103924 -5.80774075 4.08748506 -7 2 C-5.33388095 1.957279 -3.66617115 1.95936168 -2 2 C-1.67 2.33 -1.34 2.66 -1 3 C-0.67 2.01 -0.34 1.02 0 0 Z " fill="#ffffff" transform="translate(252,226)"/>
<path d="M0 0 C2.5625 -0.0625 2.5625 -0.0625 6 1 C7.98108327 3.1046347 9.62582087 5.3136658 11.2890625 7.67578125 C12.95332716 10.07807241 12.95332716 10.07807241 15.2109375 12.10546875 C17 14 17 14 17 17 C15.68 17 14.36 17 13 17 C12.67 17.99 12.34 18.98 12 20 C11.64808594 19.07316406 11.29617188 18.14632812 10.93359375 17.19140625 C10.43988281 15.99386719 9.94617188 14.79632813 9.4375 13.5625 C8.96183594 12.36753906 8.48617188 11.17257813 7.99609375 9.94140625 C6.21749157 6.61352069 6.21749157 6.61352069 2.28515625 6.08984375 C1.20105469 6.06019531 0.11695313 6.03054687 -1 6 C-1 3 -1 3 0 0 Z " fill="#ffffff" transform="translate(303,153)"/>
<path d="M0 0 C1.65 0 3.3 0 5 0 C5.66 2.31 6.32 4.62 7 7 C7.66 7 8.32 7 9 7 C9.144375 6.21625 9.28875 5.4325 9.4375 4.625 C10 2 10 2 11 0 C12.32 0 13.64 0 15 0 C14.54554036 1.41791408 14.08625056 2.83428046 13.625 4.25 C13.36976563 5.03890625 13.11453125 5.8278125 12.8515625 6.640625 C12.04826333 8.86627958 11.10288338 10.90931672 10 13 C8.35 13 6.7 13 5 13 C3.35 8.71 1.7 4.42 0 0 Z " fill="#ffffff" transform="translate(267,366)"/>
<path d="M0 0 C1.32 0.33 2.64 0.66 4 1 C4 2.32 4 3.64 4 5 C4.3403125 6.2375 4.3403125 6.2375 4.6875 7.5 C5 10 5 10 4 12.25 C1.18790926 14.7105794 -1.35027177 14.72454881 -5 15 C-5.67081836 8.56014376 -3.75430238 5.16216577 0 0 Z " fill="#ffffff" transform="translate(318,224)"/>
<path d="M0 0 C4.55384615 -0.36923077 4.55384615 -0.36923077 6.8125 1.5 C7.204375 1.995 7.59625 2.49 8 3 C8.66 2.01 9.32 1.02 10 0 C11.32 0 12.64 0 14 0 C12.87548273 2.9719385 11.77706209 5.33440687 10 8 C9.61500109 9.65549531 9.27206865 11.3222433 9 13 C7.68 13 6.36 13 5 13 C4.80664062 12.39671875 4.61328125 11.7934375 4.4140625 11.171875 C4.15367187 10.37265625 3.89328125 9.5734375 3.625 8.75 C3.36976563 7.96109375 3.11453125 7.1721875 2.8515625 6.359375 C2.04826333 4.13372042 1.10288338 2.09068328 0 0 Z " fill="#ffffff" transform="translate(377,366)"/>
<path d="M0 0 C0.82638376 2.89234315 1 4.88742431 1 8 C1.66 8 2.32 8 3 8 C1.70332266 10.59335469 0.49394824 11.51711185 -2 13 C-5.25 13.1875 -5.25 13.1875 -8 13 C-7.67 11.35 -7.34 9.7 -7 8 C-7.99 8.33 -8.98 8.66 -10 9 C-10.66 8.34 -11.32 7.68 -12 7 C-11.30132812 6.66226563 -10.60265625 6.32453125 -9.8828125 5.9765625 C-8.97273438 5.53054687 -8.06265625 5.08453125 -7.125 4.625 C-6.22007812 4.18414062 -5.31515625 3.74328125 -4.3828125 3.2890625 C-1.90465528 2.09497301 -1.90465528 2.09497301 0 0 Z " fill="#ffffff" transform="translate(289,249)"/>
<path d="M0 0 C3.68754757 0.49831724 5.60490662 1.10067643 8 4 C8.33 2.68 8.66 1.36 9 0 C10.32 0 11.64 0 13 0 C12.71125 0.845625 12.4225 1.69125 12.125 2.5625 C10.99227296 6.02361041 9.98175684 9.49372557 9 13 C7.68 13 6.36 13 5 13 C4.35309078 11.3962669 3.70751236 9.79199694 3.0625 8.1875 C2.70285156 7.29417969 2.34320313 6.40085937 1.97265625 5.48046875 C1.26386514 3.6729091 0.6139753 1.84192591 0 0 Z " fill="#ffffff" transform="translate(317,366)"/>
<path d="M0 0 C3.3 0 6.6 0 10 0 C10 9.24 10 18.48 10 28 C9.67 28 9.34 28 9 28 C9 19.09 9 10.18 9 1 C6.36 1 3.72 1 1 1 C1.33 9.91 1.66 18.82 2 28 C1.01 28.33 0.02 28.66 -1 29 C-1.33 29.99 -1.66 30.98 -2 32 C-4.97 32 -7.94 32 -11 32 C-11 31.67 -11 31.34 -11 31 C-8.03 30.67 -5.06 30.34 -2 30 C-1.10968901 26.43875604 -0.80847791 23.56135629 -0.68359375 19.921875 C-0.64169922 18.76171875 -0.59980469 17.6015625 -0.55664062 16.40625 C-0.49766602 14.59640625 -0.49766602 14.59640625 -0.4375 12.75 C-0.39431641 11.52796875 -0.35113281 10.3059375 -0.30664062 9.046875 C-0.20062645 6.0313608 -0.09856064 3.01576552 0 0 Z " fill="#ffffff" transform="translate(408,309)"/>
<path d="M0 0 C3.465 1.98 3.465 1.98 7 4 C6.34 5.65 5.68 7.3 5 9 C4.34 9 3.68 9 3 9 C3 9.66 3 10.32 3 11 C6.3 11 9.6 11 13 11 C13 11.33 13 11.66 13 12 C0.33029613 12.55353075 0.33029613 12.55353075 -5 9 C-4.34 8.67 -3.68 8.34 -3 8 C-2.64984951 6.33678518 -2.31802943 4.66965451 -2 3 C-1.34 2.01 -0.68 1.02 0 0 Z " fill="#ffffff" transform="translate(393,337)"/>
<path d="M0 0 C3.53130596 3.69181986 4.40347944 8.06592283 5 13 C4.625 16.5625 4.625 16.5625 4 19 C2.66666667 17.33333333 1.33333333 15.66666667 0 14 C-0.7425 13.154375 -1.485 12.30875 -2.25 11.4375 C-4 9 -4 9 -4 5 C-2.5625 3.375 -2.5625 3.375 -1 2 C-0.67 1.34 -0.34 0.68 0 0 Z " fill="#ffffff" transform="translate(143,189)"/>
<path d="M0 0 C3.96 0 7.92 0 12 0 C12 0.99 12 1.98 12 3 C10.68 3 9.36 3 8 3 C8 6.3 8 9.6 8 13 C6.68 13 5.36 13 4 13 C4 9.7 4 6.4 4 3 C2.68 3 1.36 3 0 3 C0 2.01 0 1.02 0 0 Z " fill="#ffffff" transform="translate(125,366)"/>
<path d="M0 0 C0.65355469 0.59748047 0.65355469 0.59748047 1.3203125 1.20703125 C5.00994686 4.48936831 8.43077198 6.99399746 13 9 C12.401875 9.433125 11.80375 9.86625 11.1875 10.3125 C9.28532054 11.77989559 7.65603529 13.26869038 6 15 C5.34 15.66 4.68 16.32 4 17 C2.68 14.36 1.36 11.72 0 9 C0.66 9 1.32 9 2 9 C2.66 7.68 3.32 6.36 4 5 C2.68 4.34 1.36 3.68 0 3 C0 2.01 0 1.02 0 0 Z " fill="#ffffff" transform="translate(172,208)"/>
<path d="M0 0 C3.3125 -0.3125 3.3125 -0.3125 7 0 C9.0625 2.125 9.0625 2.125 10 5 C8.8 10.2 8.8 10.2 7 12 C5.00041636 12.04080783 2.99954746 12.04254356 1 12 C1 11.34 1 10.68 1 10 C1.99 10 2.98 10 4 10 C4.33 7.69 4.66 5.38 5 3 C4.34 3 3.68 3 3 3 C3 2.34 3 1.68 3 1 C2.01 0.67 1.02 0.34 0 0 Z " fill="#ffffff" transform="translate(162,367)"/>
<path d="M0 0 C2.31 0.66 4.62 1.32 7 2 C7 2.66 7 3.32 7 4 C7.99 4.66 8.98 5.32 10 6 C6.04 7.32 2.08 8.64 -2 10 C-2.6875 6.6875 -2.6875 6.6875 -3 3 C-1.5625 1.0625 -1.5625 1.0625 0 0 Z " fill="#ffffff" transform="translate(273,266)"/>
<path d="M0 0 C2.86024418 -0.24239357 5.19533098 -0.43953768 8 0 C10.6875 2.4375 10.6875 2.4375 13 5 C15.67790896 5.87238858 15.67790896 5.87238858 18 6 C17.01 6.33 16.02 6.66 15 7 C15.33 7.99 15.66 8.98 16 10 C10.27836585 8.53291432 5.63139763 5.58811438 1 2 C0.67 1.34 0.34 0.68 0 0 Z " fill="#ffffff" transform="translate(202,272)"/>
<path d="M0 0 C0.2475 0.639375 0.495 1.27875 0.75 1.9375 C1.81562433 4.18741541 1.81562433 4.18741541 4.125 4.75 C4.74375 4.8325 5.3625 4.915 6 5 C6 3.68 6 2.36 6 1 C7.32 1 8.64 1 10 1 C10 2.98 10 4.96 10 7 C7.31920844 8.75282525 6.13111361 9.01311136 2.875 8.6875 C0 8 0 8 -2 7 C-2 6.34 -2 5.68 -2 5 C-1.34 5 -0.68 5 0 5 C0 3.35 0 1.7 0 0 Z " fill="#ffffff" transform="translate(197,371)"/>
<path d="M0 0 C-1.45855647 3.68646141 -3.30229045 5.16143971 -6.625 7.25 C-7.44226563 7.77078125 -8.25953125 8.2915625 -9.1015625 8.828125 C-10.04128906 9.40820312 -10.04128906 9.40820312 -11 10 C-11 9.34 -11 8.68 -11 8 C-11.66 7.67 -12.32 7.34 -13 7 C-12.7734375 5.109375 -12.7734375 5.109375 -12 3 C-10.0390625 1.953125 -10.0390625 1.953125 -7.625 1.25 C-6.83351562 1.00765625 -6.04203125 0.7653125 -5.2265625 0.515625 C-3 0 -3 0 0 0 Z " fill="#ffffff" transform="translate(176,149)"/>
<path d="M0 0 C2.97 0 5.94 0 9 0 C8.67 0.99 8.34 1.98 8 3 C6.35 2.67 4.7 2.34 3 2 C3 3.65 3 5.3 3 7 C3.99 7.33 4.98 7.66 6 8 C5.01 8.495 5.01 8.495 4 9 C3.34786708 11.02463255 3.34786708 11.02463255 3 13 C2.01 13 1.02 13 0 13 C0 8.71 0 4.42 0 0 Z " fill="#ffffff" transform="translate(302,366)"/>
<path d="M0 0 C1.98 0.495 1.98 0.495 4 1 C4.02712066 2.43739513 4.04645067 3.87493863 4.0625 5.3125 C4.07410156 6.11300781 4.08570313 6.91351563 4.09765625 7.73828125 C4 10 4 10 3 13 C2.34 13 1.68 13 1 13 C1.33 13.99 1.66 14.98 2 16 C1.34 16 0.68 16 0 16 C-0.19672365 14.27185839 -0.38196799 12.54240803 -0.5625 10.8125 C-0.71912109 9.36810547 -0.71912109 9.36810547 -0.87890625 7.89453125 C-0.99758751 5.05766623 -0.67765639 2.74576329 0 0 Z " fill="#ffffff" transform="translate(262,179)"/>
<path d="M0 0 C2.12508244 3.18762365 2.5020163 5.26512223 3 9 C-3.625 13 -3.625 13 -7 13 C-7 12.34 -7 11.68 -7 11 C-8.32 10.67 -9.64 10.34 -11 10 C-9.3603125 9.62875 -9.3603125 9.62875 -7.6875 9.25 C-3.88668091 7.96158675 -2.82618485 7.44946027 -1 4 C-0.29485154 1.85266073 -0.29485154 1.85266073 0 0 Z " fill="#ffffff" transform="translate(291,268)"/>
<path d="M0 0 C2.97 0 5.94 0 9 0 C9 0.33 9 0.66 9 1 C6.69 1 4.38 1 2 1 C2 2.32 2 3.64 2 5 C3.98 5 5.96 5 8 5 C8 5.33 8 5.66 8 6 C6.02 6 4.04 6 2 6 C2 7.32 2 8.64 2 10 C4.31 10 6.62 10 9 10 C9 10.66 9 11.32 9 12 C6.03 12 3.06 12 0 12 C0 8.04 0 4.08 0 0 Z " fill="#ffffff" transform="translate(213,367)"/>
<path d="M0 0 C0.66 0 1.32 0 2 0 C2.33 0.99 2.66 1.98 3 3 C2.01 4.485 2.01 4.485 1 6 C0.54398739 8.50896686 0.54398739 8.50896686 0.375 11.1875 C0.30023438 12.08855469 0.22546875 12.98960937 0.1484375 13.91796875 C0.09945312 14.60503906 0.05046875 15.29210937 0 16 C-0.33 16 -0.66 16 -1 16 C-1.33 13.36 -1.66 10.72 -2 8 C-2.33 10.64 -2.66 13.28 -3 16 C-3.33 16 -3.66 16 -4 16 C-4.07347656 14.98679688 -4.07347656 14.98679688 -4.1484375 13.953125 C-4.22320312 13.06109375 -4.29796875 12.1690625 -4.375 11.25 C-4.44460937 10.36828125 -4.51421875 9.4865625 -4.5859375 8.578125 C-4.99850055 6.00933618 -5.71160957 4.24158985 -7 2 C-5.33388095 1.957279 -3.66617115 1.95936168 -2 2 C-1.67 2.33 -1.34 2.66 -1 3 C-0.67 2.01 -0.34 1.02 0 0 Z " fill="#ffffff" transform="translate(252,226)"/>
<path d="M0 0 C0.33 1.32 0.66 2.64 1 4 C4.465 3.505 4.465 3.505 8 3 C8.33 2.01 8.66 1.02 9 0 C8.814375 1.093125 8.62875 2.18625 8.4375 3.3125 C7.7421932 6.93624133 7.7421932 6.93624133 9 10 C4.44615385 10.36923077 4.44615385 10.36923077 2.1875 8.5 C1.795625 8.005 1.40375 7.51 1 7 C0.67 7.99 0.34 8.98 0 10 C0 6.7 0 3.4 0 0 Z " fill="#ffffff" transform="translate(144,369)"/>
<path d="M0 0 C3.12613393 2.96160056 5.04783565 5.09567131 7 9 C3.04 9 -0.92 9 -5 9 C-5 8.34 -5 7.68 -5 7 C-3.68 6.67 -2.36 6.34 -1 6 C-0.67 4.02 -0.34 2.04 0 0 Z " fill="#ffffff" transform="translate(365,339)"/>
<path d="M0 0 C0.33 0 0.66 0 1 0 C1.1875 2.375 1.1875 2.375 1 5 C-3.1795645 7.78637633 -5.14668677 6.79562512 -10 6 C-9.67 4.68 -9.34 3.36 -9 2 C-6.94921875 1.77213542 -4.8984375 1.54427083 -2.84765625 1.31640625 C-0.98859771 1.18113386 -0.98859771 1.18113386 0 0 Z " fill="#ffffff" transform="translate(120,373)"/>
<path d="M0 0 C2.9719385 1.12451727 5.33440687 2.22293791 8 4 C8 4.99 8 5.98 8 7 C6.68 7.33 5.36 7.66 4 8 C3.67 9.32 3.34 10.64 3 12 C1.68 10.35 0.36 8.7 -1 7 C-0.34 6.01 0.32 5.02 1 4 C0.69159401 1.84725052 0.69159401 1.84725052 0 0 Z " fill="#ffffff" transform="translate(211,264)"/>
<path d="M0 0 C1.32 0 2.64 0 4 0 C4.33 1.98 4.66 3.96 5 6 C4.34 6 3.68 6 3 6 C3 8.31 3 10.62 3 13 C2.01 13 1.02 13 0 13 C0 8.71 0 4.42 0 0 Z " fill="#ffffff" transform="translate(176,366)"/>
<path d="M0 0 C1.65 0.33 3.3 0.66 5 1 C4.50168276 4.68754757 3.89932357 6.60490662 1 9 C1 8.34 1 7.68 1 7 C-0.32 6.34 -1.64 5.68 -3 5 C-2.01 3.35 -1.02 1.7 0 0 Z M2 1 C1.67 1.66 1.34 2.32 1 3 C1.66 3 2.32 3 3 3 C2.67 2.34 2.34 1.68 2 1 Z M-2 7 C-2 10 -2 10 -2 10 Z " fill="#ffffff" transform="translate(266,279)"/>
<path d="M0 0 C0.66 0.66 1.32 1.32 2 2 C4.10820797 1.6814823 4.10820797 1.6814823 6 1 C6.33 1.99 6.66 2.98 7 4 C4.03 6.475 4.03 6.475 1 9 C1 8.34 1 7.68 1 7 C-0.32 6.34 -1.64 5.68 -3 5 C-2.01 3.35 -1.02 1.7 0 0 Z M-2 7 C-1.67 7.66 -1.34 8.32 -1 9 C-1.66 8.67 -2.32 8.34 -3 8 C-2.67 7.67 -2.34 7.34 -2 7 Z " fill="#ffffff" transform="translate(270,273)"/>
<path d="M0 0 C0.33 0 0.66 0 1 0 C1.66 3.3 2.32 6.6 3 10 C-2 10 -2 10 -3.8125 8.5 C-4.204375 8.005 -4.59625 7.51 -5 7 C-5.33 7.99 -5.66 8.98 -6 10 C-6 8.68 -6 7.36 -6 6 C-5.34 6 -4.68 6 -4 6 C-3.67 5.01 -3.34 4.02 -3 3 C-2.01 3 -1.02 3 0 3 C0 2.01 0 1.02 0 0 Z " fill="#ffffff" transform="translate(237,369)"/>
<path d="M0 0 C2.31 0 4.62 0 7 0 C7 0.33 7 0.66 7 1 C5.35 1 3.7 1 2 1 C2 3.97 2 6.94 2 10 C3.65 10 5.3 10 7 10 C7 10.66 7 11.32 7 12 C4.69 12 2.38 12 0 12 C0 8.04 0 4.08 0 0 Z " fill="#ffffff" transform="translate(344,367)"/>
<path d="M0 0 C0.33 0.99 0.66 1.98 1 3 C-2.72965139 5.03435531 -4.66905042 6 -9 6 C-9 4.68 -9 3.36 -9 2 C-5.5647952 -0.29013653 -4.014669 -0.17842973 0 0 Z " fill="#ffffff" transform="translate(282,257)"/>
<path d="M0 0 C0 3 0 3 -1 5 C-0.34 5.33 0.32 5.66 1 6 C-0.11375 6.680625 -1.2275 7.36125 -2.375 8.0625 C-6.41153884 10.90030913 -7.15768093 13.22685859 -8 18 C-9.19921875 16.34765625 -9.19921875 16.34765625 -10 14 C-8.76953125 11.30859375 -8.76953125 11.30859375 -6.8125 8.4375 C-6.17957031 7.48746094 -5.54664063 6.53742188 -4.89453125 5.55859375 C-3.36518288 3.49318513 -1.88442867 1.73274092 0 0 Z " fill="#ffffff" transform="translate(151,162)"/>
<path d="M0 0 C1.32 0.33 2.64 0.66 4 1 C3.42655063 3.86724686 3.1385485 4.8614515 1 7 C-2.44165321 6.64700993 -4.06872538 5.95418308 -7 4 C-6.030625 3.71125 -5.06125 3.4225 -4.0625 3.125 C-0.89335797 2.35785318 -0.89335797 2.35785318 0 0 Z " fill="#ffffff" transform="translate(284,270)"/>
<path d="M0 0 C1.65 0 3.3 0 5 0 C4.67 2.31 4.34 4.62 4 7 C2.35 7.33 0.7 7.66 -1 8 C-0.67 5.36 -0.34 2.72 0 0 Z " fill="#ffffff" transform="translate(268,139)"/>
<path d="M0 0 C2.31 0 4.62 0 7 0 C7 0.66 7 1.32 7 2 C5.35 2 3.7 2 2 2 C2 3.65 2 5.3 2 7 C2.99 7.33 3.98 7.66 5 8 C4.01 8 3.02 8 2 8 C2 9.32 2 10.64 2 12 C1.34 12 0.68 12 0 12 C0 8.04 0 4.08 0 0 Z " fill="#ffffff" transform="translate(142,367)"/>
<path d="M0 0 C0.33 0 0.66 0 1 0 C1 2.31 1 4.62 1 7 C2.11375 6.67 3.2275 6.34 4.375 6 C8 5 8 5 10 5 C10.33 4.01 10.66 3.02 11 2 C10.25 7.75 10.25 7.75 8 10 C7.01 10 6.02 10 5 10 C5 9.34 5 8.68 5 8 C3.35 8 1.7 8 0 8 C0 5.36 0 2.72 0 0 Z " fill="#ffffff" transform="translate(346,369)"/>
<path d="M0 0 C0.99 0.33 1.98 0.66 3 1 C2.875 2.875 2.875 2.875 2 5 C-1.0625 6.25 -1.0625 6.25 -4 7 C-4.66 6.34 -5.32 5.68 -6 5 C-5.34 4.01 -4.68 3.02 -4 2 C-2.68 2 -1.36 2 0 2 C0 1.34 0 0.68 0 0 Z " fill="#ffffff" transform="translate(170,326)"/>
<path d="M0 0 C1.258125 0.12375 2.51625 0.2475 3.8125 0.375 C4.87404297 0.47941406 4.87404297 0.47941406 5.95703125 0.5859375 C8 1 8 1 11 3 C10.34 3 9.68 3 9 3 C8.34 4.32 7.68 5.64 7 7 C5.83040013 6.02433888 4.66438823 5.044375 3.5 4.0625 C2.8503125 3.51722656 2.200625 2.97195312 1.53125 2.41015625 C1.0259375 1.94480469 0.520625 1.47945312 0 1 C0 0.67 0 0.34 0 0 Z " fill="#ffffff" transform="translate(324,149)"/>
<path d="M0 0 C0.66 0.33 1.32 0.66 2 1 C2.29382062 2.99145086 2.57988001 4.98536906 2.78125 6.98828125 C3.00633563 9.05826513 3.41708298 11.00142737 4 13 C2.02 13.99 2.02 13.99 0 15 C-0.38133299 13.0085944 -0.71325582 11.00720923 -1 9 C-0.67 8.67 -0.34 8.34 0 8 C0.07148199 6.64756083 0.08399454 5.29165633 0.0625 3.9375 C0.041875 2.638125 0.02125 1.33875 0 0 Z " fill="#ffffff" transform="translate(208,140)"/>
<path d="M0 0 C1.10844919 3.32534757 0.84454356 5.62182575 0 9 C-1.32 9 -2.64 9 -4 9 C-4 6.69 -4 4.38 -4 2 C-2.68 1.34 -1.36 0.68 0 0 Z " fill="#ffffff" transform="translate(386,370)"/>
<path d="M0 0 C0.66 0 1.32 0 2 0 C6 5.52941176 6 5.52941176 6 7 C1.44615385 7.36923077 1.44615385 7.36923077 -0.8125 5.5 C-1.204375 5.005 -1.59625 4.51 -2 4 C-2.33 4.99 -2.66 5.98 -3 7 C-2.67 5.35 -2.34 3.7 -2 2 C-1.34 2 -0.68 2 0 2 C0 1.34 0 0.68 0 0 Z " fill="#ffffff" transform="translate(308,372)"/>
<path d="M0 0 C1.32 0.33 2.64 0.66 4 1 C2.90751403 2.50852857 1.80061501 4.00662831 0.6875 5.5 C0.07261719 6.3353125 -0.54226563 7.170625 -1.17578125 8.03125 C-1.77777344 8.6809375 -2.37976563 9.330625 -3 10 C-3.99 10 -4.98 10 -6 10 C-4.625 7.5 -4.625 7.5 -3 5 C-2.34 5 -1.68 5 -1 5 C-0.67 3.35 -0.34 1.7 0 0 Z " fill="#ffffff" transform="translate(362,190)"/>
<path d="M0 0 C0.66 0 1.32 0 2 0 C2 3.96 2 7.92 2 12 C1.01 12 0.02 12 -1 12 C-1.33 10.35 -1.66 8.7 -2 7 C-1.34 7 -0.68 7 0 7 C0 4.69 0 2.38 0 0 Z " fill="#ffffff" transform="translate(186,367)"/>
<path d="M0 0 C1.65 0 3.3 0 5 0 C4.67 0.66 4.34 1.32 4 2 C3.01 1.67 2.02 1.34 1 1 C1 1.66 1 2.32 1 3 C1.66 3 2.32 3 3 3 C2.25 5.4375 2.25 5.4375 1 8 C-0.32 8.33 -1.64 8.66 -3 9 C-2.01 6.03 -1.02 3.06 0 0 Z " fill="#ffffff" transform="translate(365,366)"/>
<path d="M0 0 C2.9375 1.3125 2.9375 1.3125 6 3 C6.33 3.99 6.66 4.98 7 6 C6.01 6 5.02 6 4 6 C4 6.66 4 7.32 4 8 C2.68 7.34 1.36 6.68 0 6 C0 4.02 0 2.04 0 0 Z " fill="#ffffff" transform="translate(238,216)"/>
<path d="M0 0 C0.33 2.64 0.66 5.28 1 8 C-1.9375 6.75 -1.9375 6.75 -5 5 C-5.875 2.8125 -5.875 2.8125 -6 1 C-3 0 -3 0 0 0 Z " fill="#ffffff" transform="translate(237,208)"/>
<path d="M0 0 C1.32 0 2.64 0 4 0 C3.71125 0.845625 3.4225 1.69125 3.125 2.5625 C1.99227296 6.02361041 0.98175684 9.49372557 0 13 C-0.33 13 -0.66 13 -1 13 C-1.02696365 11.20841511 -1.04637917 9.41671527 -1.0625 7.625 C-1.07410156 6.62726563 -1.08570313 5.62953125 -1.09765625 4.6015625 C-1 2 -1 2 0 0 Z " fill="#ffffff" transform="translate(326,366)"/>
<path d="M0 0 C2.97 0.99 5.94 1.98 9 3 C8.01 4.32 7.02 5.64 6 7 C4.35 6.67 2.7 6.34 1 6 C0.67 4.02 0.34 2.04 0 0 Z " fill="#ffffff" transform="translate(214,271)"/>
<path d="M0 0 C2 0.66666667 4 1.33333333 6 2 C6.33 1.34 6.66 0.68 7 0 C7.33 1.65 7.66 3.3 8 5 C5.6875 5.6875 5.6875 5.6875 3 6 C1.1875 4.75 1.1875 4.75 0 3 C0 2.01 0 1.02 0 0 Z " fill="#ffffff" transform="translate(201,267)"/>
<path d="M0 0 C0.66 0 1.32 0 2 0 C2 0.66 2 1.32 2 2 C2.99 2 3.98 2 5 2 C5.33 3.32 5.66 4.64 6 6 C3.525 7.485 3.525 7.485 1 9 C1 7.68 1 6.36 1 5 C0.34 4.67 -0.32 4.34 -1 4 C-0.67 2.68 -0.34 1.36 0 0 Z " fill="#ffffff" transform="translate(258,215)"/>
<path d="M0 0 C3.67033927 3.27708863 5.69281189 6.71522208 8 11 C7.01 11.99 6.02 12.98 5 14 C4.38125 12.14375 4.38125 12.14375 3.75 10.25 C2.43144781 6.69180176 0.97016433 4.45806703 -2 2 C-1.34 2 -0.68 2 0 2 C0 1.34 0 0.68 0 0 Z " fill="#ffffff" transform="translate(352,166)"/>
<path d="M0 0 C3.15976452 4.11463842 5.23130028 6.95684755 4.625 12.3125 C4.41875 13.199375 4.2125 14.08625 4 15 C1.27893306 12.27893306 1.39344428 10.15223689 0.875 6.375 C0.70742187 5.18648437 0.53984375 3.99796875 0.3671875 2.7734375 C0.24601563 1.85820312 0.12484375 0.94296875 0 0 Z " fill="#ffffff" transform="translate(218,137)"/>
<path d="M0 0 C0.2475 0.61875 0.495 1.2375 0.75 1.875 C2.20628639 4.35068687 3.37812506 4.95125002 6 6 C6 6.99 6 7.98 6 9 C0.25 8.125 0.25 8.125 -2 7 C-2 6.34 -2 5.68 -2 5 C-1.34 5 -0.68 5 0 5 C0 3.35 0 1.7 0 0 Z " fill="#ffffff" transform="translate(197,371)"/>
<path d="M0 0 C1.32 0 2.64 0 4 0 C3.01 2.97 2.02 5.94 1 9 C0.67 8.01 0.34 7.02 0 6 C-0.66 6 -1.32 6 -2 6 C-1.34 4.02 -0.68 2.04 0 0 Z " fill="#ffffff" transform="translate(278,366)"/>
<path d="M0 0 C2.31 1.65 4.62 3.3 7 5 C6.34 5.66 5.68 6.32 5 7 C4.34 7 3.68 7 3 7 C2.67 7.66 2.34 8.32 2 9 C0.68 7.68 -0.64 6.36 -2 5 C-1 2 -1 2 0 0 Z " fill="#ffffff" transform="translate(229,264)"/>
<path d="M0 0 C2.97 0.495 2.97 0.495 6 1 C6.33 1.99 6.66 2.98 7 4 C4.69 4.33 2.38 4.66 0 5 C0 3.35 0 1.7 0 0 Z " fill="#ffffff" transform="translate(303,153)"/>
<path d="M0 0 C2.05078125 0.03255208 4.1015625 0.06510417 6.15234375 0.09765625 C6.48234375 0.75765625 6.81234375 1.41765625 7.15234375 2.09765625 C6.82234375 2.75765625 6.49234375 3.41765625 6.15234375 4.09765625 C5.20359375 3.93265625 4.25484375 3.76765625 3.27734375 3.59765625 C0.35065474 3.04499275 0.35065474 3.04499275 -1.84765625 3.09765625 C-2.50765625 4.08765625 -3.16765625 5.07765625 -3.84765625 6.09765625 C-2.77957394 0.14691194 -2.77957394 0.14691194 0 0 Z " fill="#ffffff" transform="translate(113.84765625,365.90234375)"/>
<path d="M0 0 C0.66 0.33 1.32 0.66 2 1 C1.01 3.97 0.02 6.94 -1 10 C-1.33 9.01 -1.66 8.02 -2 7 C-2.66 6.67 -3.32 6.34 -4 6 C-4 5.01 -4 4.02 -4 3 C-2 1.3125 -2 1.3125 0 0 Z " fill="#ffffff" transform="translate(185,166)"/>
<path d="M0 0 C0.99 0 1.98 0 3 0 C2.67 2.64 2.34 5.28 2 8 C1.01 8 0.02 8 -1 8 C-1.04241723 5.66705225 -1.04092937 3.33297433 -1 1 C-0.67 0.67 -0.34 0.34 0 0 Z " fill="#ffffff" transform="translate(195,368)"/>
<path d="M0 0 C2.64 0 5.28 0 8 0 C8 1.65 8 3.3 8 5 C4.75791433 4.64950425 3.38472296 4.43778819 1.1875 1.9375 C0.795625 1.298125 0.40375 0.65875 0 0 Z " fill="#ffffff" transform="translate(202,272)"/>
<path d="M0 0 C0.33 0.99 0.66 1.98 1 3 C-1.37375443 5.74855776 -3.66357897 6.6829917 -7 8 C-7.33 8.66 -7.66 9.32 -8 10 C-7.875 7.75 -7.875 7.75 -7 5 C-4 2.75 -4 2.75 -1 1 C-0.67 0.67 -0.34 0.34 0 0 Z " fill="#ffffff" transform="translate(188,161)"/>
<path d="M0 0 C0.99 0.33 1.98 0.66 3 1 C3 1.99 3 2.98 3 4 C2.34 4 1.68 4 1 4 C1.33 5.32 1.66 6.64 2 8 C1.01 8.495 1.01 8.495 0 9 C-1.3950848 6.70221327 -2.07438619 5.5207033 -1.6875 2.8125 C-1 1 -1 1 0 0 Z " fill="#ffffff" transform="translate(292,139)"/>
<path d="M0 0 C0 1.98 0 3.96 0 6 C-1.65 6.33 -3.3 6.66 -5 7 C-5 5.35 -5 3.7 -5 2 C-1.125 0 -1.125 0 0 0 Z " fill="#ffffff" transform="translate(279,135)"/>
<path d="M0 0 C2.97 0.495 2.97 0.495 6 1 C6.33 1.99 6.66 2.98 7 4 C5.5625 6.1875 5.5625 6.1875 4 8 C3.34 6.68 2.68 5.36 2 4 C1.34 4 0.68 4 0 4 C0 2.68 0 1.36 0 0 Z " fill="#ffffff" transform="translate(275,133)"/>
<path d="M0 0 C-1.07401108 2.91517292 -1.77810176 4.77810176 -4 7 C-4.33 6.34 -4.66 5.68 -5 5 C-5.99 5 -6.98 5 -8 5 C-5.92852697 0.85705393 -4.76663774 0 0 0 Z " fill="#ffffff" transform="translate(391,366)"/>
<path d="M0 0 C0.99 0.33 1.98 0.66 3 1 C0.36 3.97 -2.28 6.94 -5 10 C-5 6.11817249 -4.00478008 4.08207086 -1.375 1.25 C-0.92125 0.8375 -0.4675 0.425 0 0 Z " fill="#ffffff" transform="translate(331,220)"/>
<path d="M0 0 C0.66 0.33 1.32 0.66 2 1 C1.34 3.31 0.68 5.62 0 8 C-0.99 8 -1.98 8 -3 8 C-3.99 8.66 -4.98 9.32 -6 10 C-4.34832443 6.4213696 -2.21713508 3.25179812 0 0 Z " fill="#ffffff" transform="translate(190,155)"/>
<path d="M0 0 C1.093125 0.185625 2.18625 0.37125 3.3125 0.5625 C6.93624133 1.2578068 6.93624133 1.2578068 10 0 C10.66 1.32 11.32 2.64 12 4 C11.01 4.66 10.02 5.32 9 6 C8.67 5.34 8.34 4.68 8 4 C5.67843403 3.59270772 3.3431213 3.25561323 1 3 C0.67 2.01 0.34 1.02 0 0 Z " fill="#ffffff" transform="translate(301,156)"/>
<path d="M0 0 C2.97 0.33 5.94 0.66 9 1 C9 1.33 9 1.66 9 2 C7.88625 2.309375 6.7725 2.61875 5.625 2.9375 C2.2054845 3.82326483 2.2054845 3.82326483 0 5 C-0.66 4.67 -1.32 4.34 -2 4 C-1.34 2.68 -0.68 1.36 0 0 Z " fill="#ffffff" transform="translate(219,256)"/>
<path d="M0 0 C2 1.3125 2 1.3125 4 3 C4 3.99 4 4.98 4 6 C0.31245243 5.50168276 -1.60490662 4.89932357 -4 2 C-2.68 2.33 -1.36 2.66 0 3 C0 2.01 0 1.02 0 0 Z " fill="#ffffff" transform="translate(348,162)"/>
<path d="M0 0 C0.33 0.66 0.66 1.32 1 2 C0.67 2.99 0.34 3.98 0 5 C0.66 5 1.32 5 2 5 C2.33 7.31 2.66 9.62 3 12 C2.01 11.67 1.02 11.34 0 11 C-0.80078125 9.2578125 -0.80078125 9.2578125 -1.3125 7.125 C-1.58513672 6.07699219 -1.58513672 6.07699219 -1.86328125 5.0078125 C-2 3 -2 3 0 0 Z " fill="#ffffff" transform="translate(278,141)"/>
<path d="M0 0 C0.33 0 0.66 0 1 0 C1 2.31 1 4.62 1 7 C-0.98 7 -2.96 7 -5 7 C-5 6.34 -5 5.68 -5 5 C-4.01 5 -3.02 5 -2 5 C-1.34 3.35 -0.68 1.7 0 0 Z " fill="#ffffff" transform="translate(168,372)"/>
<path d="M0 0 C0.66 0 1.32 0 2 0 C2 1.98 2 3.96 2 6 C0.35 6.33 -1.3 6.66 -3 7 C-3 6.01 -3 5.02 -3 4 C-2.34 3.67 -1.68 3.34 -1 3 C-0.67 2.01 -0.34 1.02 0 0 Z " fill="#ffffff" transform="translate(276,372)"/>
<path d="M0 0 C0.33 0.66 0.66 1.32 1 2 C-0.32 3.65 -1.64 5.3 -3 7 C-3.66 6.67 -4.32 6.34 -5 6 C-5 4.68 -5 3.36 -5 2 C-3.35 1.34 -1.7 0.68 0 0 Z " fill="#ffffff" transform="translate(369,328)"/>
<path d="M0 0 C0.66 0 1.32 0 2 0 C2 0.66 2 1.32 2 2 C2.66 2 3.32 2 4 2 C3.67 2.99 3.34 3.98 3 5 C2.34 5 1.68 5 1 5 C0.67 5.99 0.34 6.98 0 8 C-0.38063221 5.6739143 -0.71269945 3.33944736 -1 1 C-0.67 0.67 -0.34 0.34 0 0 Z " fill="#ffffff" transform="translate(272,371)"/>
<path d="M0 0 C0.66 0.99 1.32 1.98 2 3 C1.01 3.33 0.02 3.66 -1 4 C-1.33 4.99 -1.66 5.98 -2 7 C-4.97 7 -7.94 7 -11 7 C-11 6.67 -11 6.34 -11 6 C-6.545 5.505 -6.545 5.505 -2 5 C-1.34 3.35 -0.68 1.7 0 0 Z " fill="#ffffff" transform="translate(408,334)"/>
<path d="M0 0 C3.63 0 7.26 0 11 0 C10.67 0.66 10.34 1.32 10 2 C8.02 2 6.04 2 4 2 C3.67 3.32 3.34 4.64 3 6 C0 2.25 0 2.25 0 0 Z " fill="#ffffff" transform="translate(92,309)"/>
<path d="M0 0 C2.47524576 2.90572328 3.69670231 5.15822926 4 9 C3.34 9.66 2.68 10.32 2 11 C-0.32590854 7.36576791 -0.16265833 4.22911669 0 0 Z " fill="#ffffff" transform="translate(254,237)"/>
<path d="M0 0 C2.97 0.495 2.97 0.495 6 1 C5.1875 3.4375 5.1875 3.4375 4 6 C3.01 6.33 2.02 6.66 1 7 C0.67 4.69 0.34 2.38 0 0 Z " fill="#ffffff" transform="translate(207,240)"/>
<path d="M0 0 C2.0625 0.4375 2.0625 0.4375 4 1 C3.34 2.32 2.68 3.64 2 5 C1.01 5 0.02 5 -1 5 C-1 1 -1 1 0 0 Z " fill="#ffffff" transform="translate(318,224)"/>
<path d="M0 0 C-1 2 -1 2 -3 4 C-3 4.66 -3 5.32 -3 6 C-5.475 5.01 -5.475 5.01 -8 4 C-5.29881977 1.17603885 -4.05589853 0 0 0 Z " fill="#ffffff" transform="translate(230,210)"/>
<path d="M0 0 C2.475 0.495 2.475 0.495 5 1 C5 2.65 5 4.3 5 6 C4.01 6 3.02 6 2 6 C2 4.68 2 3.36 2 2 C1.34 2 0.68 2 0 2 C0 1.34 0 0.68 0 0 Z " fill="#ffffff" transform="translate(366,367)"/>
<path d="M0 0 C1.98 0 3.96 0 6 0 C6 0.99 6 1.98 6 3 C5.34 3.66 4.68 4.32 4 5 C2.64567325 3.68799596 1.31266518 2.35368596 0 1 C0 0.67 0 0.34 0 0 Z " fill="#ffffff" transform="translate(225,258)"/>
<path d="M0 0 C0 3 0 3 -1.3125 4.38671875 C-2.875 5.59114583 -4.4375 6.79557292 -6 8 C-6 5 -6 5 -4.6875 3.61328125 C-3.125 2.40885417 -1.5625 1.20442708 0 0 Z " fill="#ffffff" transform="translate(158,166)"/>
<path d="M0 0 C0.99 0 1.98 0 3 0 C3 1.65 3 3.3 3 5 C1.68 5 0.36 5 -1 5 C-0.67 3.35 -0.34 1.7 0 0 Z " fill="#ffffff" transform="translate(333,152)"/>
<path d="M0 0 C0.33 0 0.66 0 1 0 C1 2.64 1 5.28 1 8 C0.01 8 -0.98 8 -2 8 C-2.20086443 4.28400809 -2.1519437 3.22791555 0 0 Z " fill="#ffffff" transform="translate(324,371)"/>
<path d="M0 0 C1.65 0 3.3 0 5 0 C4.67 1.32 4.34 2.64 4 4 C3.01 4 2.02 4 1 4 C0.67 4.66 0.34 5.32 0 6 C0 4.02 0 2.04 0 0 Z " fill="#ffffff" transform="translate(233,192)"/>
<path d="M0 0 C1.10844919 3.32534757 0.84454356 5.62182575 0 9 C-0.99 9 -1.98 9 -3 9 C-2.44271087 5.65626525 -1.64826111 2.96687001 0 0 Z " fill="#ffffff" transform="translate(281,137)"/>
<path d="M0 0 C1.65 0 3.3 0 5 0 C5 1.32 5 2.64 5 4 C3.35 4 1.7 4 0 4 C0 2.68 0 1.36 0 0 Z " fill="#ffffff" transform="translate(227,139)"/>
<path d="M0 0 C0.33 0.66 0.66 1.32 1 2 C1.66 2 2.32 2 3 2 C3 2.66 3 3.32 3 4 C2.34 4 1.68 4 1 4 C1 5.32 1 6.64 1 8 C0.34 8 -0.32 8 -1 8 C-1.125 2.25 -1.125 2.25 0 0 Z " fill="#ffffff" transform="translate(230,371)"/>
<path d="M0 0 C2.6875 0.3125 2.6875 0.3125 5 1 C4.67 1.99 4.34 2.98 4 4 C1.69 3.67 -0.62 3.34 -3 3 C-1.8125 1.4375 -1.8125 1.4375 0 0 Z " fill="#ffffff" transform="translate(115,371)"/>
<path d="M0 0 C0.66 0.33 1.32 0.66 2 1 C0.02 3.31 -1.96 5.62 -4 8 C-4.33 7.34 -4.66 6.68 -5 6 C-3.35 4.02 -1.7 2.04 0 0 Z " fill="#ffffff" transform="translate(54,312)"/>
<path d="M0 0 C0 3 0 3 -1 5 C-0.34 5.33 0.32 5.66 1 6 C-0.65 6.33 -2.3 6.66 -4 7 C-3.43628586 3.73045798 -2.50037734 2.17424117 0 0 Z " fill="#ffffff" transform="translate(151,162)"/>
<path d="M0 0 C0.66 0 1.32 0 2 0 C2.66 1.65 3.32 3.3 4 5 C2.68 5.33 1.36 5.66 0 6 C-0.38218767 4.34385343 -0.71395102 2.67542976 -1 1 C-0.67 0.67 -0.34 0.34 0 0 Z " fill="#ffffff" transform="translate(312,160)"/>
<path d="M0 0 C0.66 0.99 1.32 1.98 2 3 C1.34 4.32 0.68 5.64 0 7 C-0.33 6.34 -0.66 5.68 -1 5 C-1.66 5 -2.32 5 -3 5 C-1.125 1.125 -1.125 1.125 0 0 Z " fill="#ffffff" transform="translate(163,154)"/>
<path d="M0 0 C2.475 0.99 2.475 0.99 5 2 C3.35 3.65 1.7 5.3 0 7 C-0.66 5.68 -1.32 4.36 -2 3 C-1.34 2.01 -0.68 1.02 0 0 Z " fill="#ffffff" transform="translate(306,139)"/>
<path d="M0 0 C0.33 0.66 0.66 1.32 1 2 C1.66 1.67 2.32 1.34 3 1 C4.99960012 0.960008 7.00047242 0.95653201 9 1 C9 1.33 9 1.66 9 2 C5.38026598 3.31626692 2.90432869 4 -1 4 C-0.67 2.68 -0.34 1.36 0 0 Z " fill="#ffffff" transform="translate(361,375)"/>
<path d="M0 0 C2.475 0.495 2.475 0.495 5 1 C4.67 1.99 4.34 2.98 4 4 C3.01 4.33 2.02 4.66 1 5 C0.67 3.35 0.34 1.7 0 0 Z " fill="#ffffff" transform="translate(154,330)"/>
<path d="M0 0 C0.66 0.99 1.32 1.98 2 3 C0.35 3.33 -1.3 3.66 -3 4 C-3 3.34 -3 2.68 -3 2 C-4.32 1.67 -5.64 1.34 -7 1 C-4.46578263 -0.26710868 -2.80561762 -0.28056176 0 0 Z " fill="#ffffff" transform="translate(287,277)"/>
<path d="M0 0 C0.66 0.99 1.32 1.98 2 3 C0.95125002 5.62187494 0.35068687 6.79371361 -2.125 8.25 C-2.74375 8.4975 -3.3625 8.745 -4 9 C-3.2884375 7.88625 -3.2884375 7.88625 -2.5625 6.75 C-1.22130673 4.38949985 -0.487688 2.63351523 0 0 Z " fill="#ffffff" transform="translate(291,268)"/>
<path d="M0 0 C1.32 0.33 2.64 0.66 4 1 C3.67 1.99 3.34 2.98 3 4 C1.35 4.33 -0.3 4.66 -2 5 C-1.34 3.35 -0.68 1.7 0 0 Z " fill="#ffffff" transform="translate(275,211)"/>
<path d="M0 0 C1.98 0.99 1.98 0.99 4 2 C4 2.99 4 3.98 4 5 C3.34 5 2.68 5 2 5 C2.33 5.99 2.66 6.98 3 8 C2.34 8 1.68 8 1 8 C0.67 5.36 0.34 2.72 0 0 Z " fill="#ffffff" transform="translate(261,187)"/>
</svg>
