<?xml version="1.0" encoding="UTF-8"?>
<svg version="1.1" xmlns="http://www.w3.org/2000/svg" width="1080" height="1080" >
<path d="M0 0 C356.4 0 712.8 0 1080 0 C1080 356.4 1080 712.8 1080 1080 C723.6 1080 367.2 1080 0 1080 C0 723.6 0 367.2 0 0 Z " fill="none" transform="translate(0,0)"/>
<path d="M0 0 C0.99 5.94 0.99 5.94 2 12 C0.96875 12.495 -0.0625 12.99 -1.125 13.5 C-5.67068206 16.08966129 -8.13424003 19.72200673 -11 24 C-11.62455078 24.84691406 -11.62455078 24.84691406 -12.26171875 25.7109375 C-14.53762242 28.8572745 -15 29.95429856 -15 34 C-14.54109375 33.26394531 -14.0821875 32.52789063 -13.609375 31.76953125 C-12.99578125 30.79371094 -12.3821875 29.81789063 -11.75 28.8125 C-11.14671875 27.84957031 -10.5434375 26.88664063 -9.921875 25.89453125 C-6.8030205 21.1972321 -4.14821663 17.50810554 1 15 C1.99 15 2.98 15 4 15 C4 16.98 4 18.96 4 21 C2.948125 21.185625 1.89625 21.37125 0.8125 21.5625 C-2.89294012 22.66068487 -4.77660965 24.45707683 -6.89453125 27.75390625 C-8.18797298 30.3819239 -9.02058975 33.01133221 -9.875 35.8125 C-12.7658702 45.08882647 -18.13756734 52.32552937 -26 58 C-27.03125 58.763125 -28.0625 59.52625 -29.125 60.3125 C-35.86389621 63.97992651 -44.71066039 63.4359451 -52 62 C-52 62.66 -52 63.32 -52 64 C-49.00293305 64.86963087 -46.35043474 65.11763099 -43.234375 65.09765625 C-41.90019531 65.09282227 -41.90019531 65.09282227 -40.5390625 65.08789062 C-39.61867187 65.07951172 -38.69828125 65.07113281 -37.75 65.0625 C-36.81414063 65.05798828 -35.87828125 65.05347656 -34.9140625 65.04882812 C-32.60930959 65.03706918 -30.30468773 65.02063426 -28 65 C-28 64.34 -28 63.68 -28 63 C-26.77493102 62.34642722 -25.54470484 61.70251767 -24.3125 61.0625 C-23.28576172 60.52302734 -23.28576172 60.52302734 -22.23828125 59.97265625 C-17.85327742 58.06713102 -14.80570647 57.63713171 -10.3125 59.375 C-0.61828771 63.62253862 5.58002469 70.516665 9.8828125 80.0703125 C12.16471161 86.05431366 13.32990888 91.56677686 13 98 C13.66 98 14.32 98 15 98 C14.85845864 95.43719792 14.71191438 92.87484515 14.5625 90.3125 C14.52318359 89.59126953 14.48386719 88.87003906 14.44335938 88.12695312 C14.21814322 84.33292718 13.87160695 80.71348508 13 77 C21.13727944 77.82691058 27.85793259 83.14756599 33.0625 89.3125 C34.41095153 91.18293277 35.72095706 93.08143558 37 95 C37.70125 94.773125 38.4025 94.54625 39.125 94.3125 C43.84710473 93.79922775 46.51783113 95.8798476 50.20703125 98.66796875 C56.49923841 103.89582246 61.39792014 109.79342766 63 118 C63.22580645 124.5483871 63.22580645 124.5483871 62 127 C61.34 127 60.68 127 60 127 C59.835 127.721875 59.67 128.44375 59.5 129.1875 C57.01380193 133.84912138 52.54178433 136.1304422 47.625 137.8125 C46.75875 137.874375 45.8925 137.93625 45 138 C44.27039063 138.061875 43.54078125 138.12375 42.7890625 138.1875 C36.42585856 138.50076542 31.37094417 137.53270515 26 134 C22.80657641 130.9912069 20.42609187 127.63913781 18 124 C19.18452944 129.49190923 20.36658797 132.47860686 25 136 C32.0896835 140.31804548 38.78609216 141.45868956 46.9375 141.5 C47.75428223 141.50620361 48.57106445 141.51240723 49.41259766 141.51879883 C54.0416349 141.42082726 57.29035999 141.04999083 61 138 C65.53508009 129.2537741 66.72598257 118.36377607 64.25 108.75 C59.65612965 98.45189254 44.88646171 92.88832621 35 89 C36 86 36 86 37.8203125 85.05078125 C42.75517738 83.46995165 46.81897177 82.66929607 52 83 C52.09765625 84.953125 52.1953125 86.90625 52.29296875 88.859375 C53.32028273 91.96969579 55.38792643 93.15030197 58 95 C57.566875 93.90300781 57.13375 92.80601562 56.6875 91.67578125 C56.12456163 90.22152378 55.5620859 88.76708717 55 87.3125 C54.71382813 86.59126953 54.42765625 85.87003906 54.1328125 85.12695312 C52.6609498 81.28959679 51.60385002 78.18433411 52 74 C51.34 74 50.68 74 50 74 C50 73.01 50 72.02 50 71 C49.34 71 48.68 71 48 71 C47.505 67.04 47.505 67.04 47 63 C48.98 63.495 48.98 63.495 51 64 C51 64.66 51 65.32 51 66 C51.66 66 52.32 66 53 66 C53 63.36 53 60.72 53 58 C52.34 58.99 51.68 59.98 51 61 C49.36987162 59.36987162 49.79023544 57.55562555 49.75 55.3125 C49.84907785 48.98953188 51.34890974 45.72613981 55.75 41.125 C61.21012208 37.47317642 68.7445057 38.32238089 75 39 C78.69648241 40.39296482 78.69648241 40.39296482 80 43 C80.804375 43.268125 81.60875 43.53625 82.4375 43.8125 C85 45 85 45 86.3125 47.1875 C87.45595314 51.86526286 87.47361327 56.39495853 86 61 C85.01 61 84.02 61 83 61 C83 62.32 83 63.64 83 65 C84.65 64.34 86.3 63.68 88 63 C87.85892253 64.45880109 87.71197585 65.91703551 87.5625 67.375 C87.44068359 68.59316406 87.44068359 68.59316406 87.31640625 69.8359375 C87 72 87 72 86 74 C85.01 74 84.02 74 83 74 C83.061875 74.94875 83.12375 75.8975 83.1875 76.875 C83.21810541 81.84327831 81.57575543 86.3383902 80 91 C79.34 91 78.68 91 78 91 C77.67 92.65 77.34 94.3 77 96 C81.2945786 93.10582746 83.27006284 91.33845705 84.375 86.1875 C84.60664718 84.79534589 84.82307336 83.40016086 85 82 C90.80165739 82.97458672 95.83982722 84.01253155 101 87 C100.67 87.99 100.34 88.98 100 90 C97.62890625 90.921875 97.62890625 90.921875 94.5625 91.75 C88.04647941 93.79302783 83.24535329 96.67551769 78 101 C77.28199219 101.50402344 76.56398437 102.00804687 75.82421875 102.52734375 C72.84432384 105.0653304 71.2591514 107.2318357 70.68017578 111.18212891 C70.06374262 119.90269445 70.25120013 128.65110275 73 137 C73.99 137.66 74.98 138.32 76 139 C76 139.66 76 140.32 76 141 C79.31248078 141.02945031 82.62492711 141.04694801 85.9375 141.0625 C86.86369141 141.07087891 87.78988281 141.07925781 88.74414062 141.08789062 C94.58300303 141.10837786 100.20913053 140.75429787 106 140 C106 139.34 106 138.68 106 138 C107.0725 137.46375 108.145 136.9275 109.25 136.375 C113.00010777 134.23751464 114.95313163 131.84811254 117 128 C117 127.01 117 126.02 117 125 C116.36384766 125.79664063 116.36384766 125.79664063 115.71484375 126.609375 C114.83505859 127.66898438 114.83505859 127.66898438 113.9375 128.75 C113.36902344 129.44609375 112.80054688 130.1421875 112.21484375 130.859375 C107.41186851 135.50140398 103.22109652 137.49212924 96.63476562 137.49804688 C95.90966797 137.47806641 95.18457031 137.45808594 94.4375 137.4375 C93.70853516 137.44458984 92.97957031 137.45167969 92.22851562 137.45898438 C86.00152138 137.38612126 81.90509814 135.69342057 77.1875 131.5 C73.32589563 127.08673786 73.66731684 122.69987996 73.71484375 117.078125 C74.43820302 109.26980846 79.31260366 103.45868176 84.9375 98.3125 C89.81193698 94.63180269 92.95592992 93.86860717 99 94 C99.99 93.67 100.98 93.34 102 93 C102.37125 91.948125 102.37125 91.948125 102.75 90.875 C105.17800441 85.29058986 110.46470949 80.49088073 116 78 C119.8125 77.3125 119.8125 77.3125 123 77 C122.835 77.928125 122.67 78.85625 122.5 79.8125 C121.76299718 84.85733621 121.91723185 89.91435711 122 95 C122.23074219 94.03320312 122.46148437 93.06640625 122.69921875 92.0703125 C125.7690881 79.61930714 129.06694477 69.7153593 140 62 C144.93948653 59.11931099 149.17951123 57.40302679 155 58 C155 58.66 155 59.32 155 60 C156.3921875 60.433125 156.3921875 60.433125 157.8125 60.875 C161 62 161 62 164 64 C167.84898138 65.041334 171.52537346 65.13428651 175.5 65.125 C176.6034375 65.12757813 177.706875 65.13015625 178.84375 65.1328125 C181.68492244 65.01325821 184.23807642 64.64925815 187 64 C187 63.34 187 62.68 187 62 C185.515 62.495 185.515 62.495 184 63 C174.25972571 63.90434815 166.80070141 62.32356251 158.75 56.75 C152.24021835 50.24021835 148.78644398 43.71669798 145.53540039 35.16699219 C144.21395477 31.73131182 142.88473815 28.64093729 140.7890625 25.6015625 C139 23 139 23 139 21 C136.69 21 134.38 21 132 21 C132 19.35 132 17.7 132 16 C132.99 15.67 133.98 15.34 135 15 C141.61134608 18.98118014 145.91076047 25.64889985 150 32 C150 26.40454997 145.15259701 21.6504435 141.59375 17.546875 C139.34674535 15.36595872 136.88117507 14.16618991 134 13 C133.80705592 8.17639811 134.24252386 4.50353262 136 0 C147.45910429 2.3505855 155.35041464 10.88274179 163.03588867 19.04492188 C166.79793443 23.00246162 169.89076528 25.98193237 175 28 C175 28.66 175 29.32 175 30 C175.73089844 30.24492188 176.46179688 30.48984375 177.21484375 30.7421875 C184.01006205 33.81099576 189.42506212 40.39627979 192.359375 47.171875 C194.29521874 52.696112 194.11551879 58.22406074 194 64 C194.66 64 195.32 64 196 64 C197.0176403 58.98391475 197.11856434 54.21391694 197.0625 49.125 C197.05573242 47.949375 197.05573242 47.949375 197.04882812 46.75 C197.03714093 44.83329986 197.01920908 42.91663952 197 41 C207.01498688 48.88092089 207.01498688 48.88092089 207.875 55.75 C208.17941176 59.64117647 208.17941176 59.64117647 207 62 C206.34 62 205.68 62 205 62 C204.74863281 62.74121094 204.49726563 63.48242188 204.23828125 64.24609375 C202.90846811 67.20356461 201.47585914 68.79164265 199.1875 71.0625 C195.18953356 75.39182942 193.28233569 79.61179535 191.20703125 85.07421875 C187.16046051 94.8828967 179.90720108 103.34735316 171 109 C170.34 109 169.68 109 169 109 C169 109.66 169 110.32 169 111 C162.5 114 162.5 114 158 114 C158 114.66 158 115.32 158 116 C153.126739 117.5912689 149.19209404 118.21192221 144 118 C144.33 114.04 144.66 110.08 145 106 C140.55780665 111.92292447 140.72354887 116.94637829 140.48242188 124.04492188 C139.85339698 138.27512649 133.5012986 150.47827553 124 161 C119.6097561 165 119.6097561 165 117 165 C117 165.99 117 166.98 117 168 C116.28972656 168.20496094 115.57945312 168.40992188 114.84765625 168.62109375 C113.92855469 168.89050781 113.00945312 169.15992188 112.0625 169.4375 C111.14597656 169.70433594 110.22945312 169.97117187 109.28515625 170.24609375 C107.0597507 170.79026051 107.0597507 170.79026051 106 172 C104.48071962 172.07179964 102.95832518 172.08392007 101.4375 172.0625 C100.61121094 172.05347656 99.78492188 172.04445313 98.93359375 172.03515625 C98.29550781 172.02355469 97.65742188 172.01195312 97 172 C97.875 167.25 97.875 167.25 99 165 C98.21625 165.78375 97.4325 166.5675 96.625 167.375 C92 172 92 172 89.8359375 172.1953125 C89.02382812 172.17210937 88.21171875 172.14890625 87.375 172.125 C86.55773437 172.10695313 85.74046875 172.08890625 84.8984375 172.0703125 C84.27195313 172.04710937 83.64546875 172.02390625 83 172 C84.11375 171.2265625 84.11375 171.2265625 85.25 170.4375 C90.28954342 165.97063197 92.06714374 161.62327942 93 155 C92.46890625 155.77085937 91.9378125 156.54171875 91.390625 157.3359375 C90.68421875 158.33882812 89.9778125 159.34171875 89.25 160.375 C88.55390625 161.37273437 87.8578125 162.37046875 87.140625 163.3984375 C85.09732618 165.88171672 83.9017584 166.81573535 81 168 C80.2575 168.7734375 80.2575 168.7734375 79.5 169.5625 C75.52817424 173.36883302 68.58801149 172.3888654 63.48046875 172.3359375 C55.74193107 171.58900794 51.21359152 166.77021692 46.41015625 161.00390625 C44.62904558 158.47285424 43.67762324 156.01165884 43 153 C45.38564077 153.57584432 47.66682784 154.22227595 50 155 C50 155.66 50 156.32 50 157 C54.95 157.33 59.9 157.66 65 158 C65 157.34 65 156.68 65 156 C63.2984375 155.8453125 63.2984375 155.8453125 61.5625 155.6875 C52.89140981 154.55582333 46.68153123 151.62559442 40 146 C40.66 146.99 41.32 147.98 42 149 C41.835 149.70125 41.67 150.4025 41.5 151.125 C40.76676042 155.34112758 41.5844877 158.98687204 43 163 C44.81287195 165.39795381 44.81287195 165.39795381 47 167 C48.66666667 168.66666667 50.33333333 170.33333333 52 172 C46.89119171 172.61658031 46.89119171 172.61658031 44 172 C41.55696597 169.96073101 39.7722575 167.63153386 38 165 C38.66 164.67 39.32 164.34 40 164 C40 163.34 40 162.68 40 162 C39.40832031 161.80664062 38.81664063 161.61328125 38.20703125 161.4140625 C34.0853355 160.05585281 30.0049476 158.67949415 26 157 C27.90146188 159.2183722 29.15049501 160.05763639 31.9375 161.125 C36.29001137 163.78980288 37.33203731 167.31989291 39 172 C30.26913327 173.0537253 23.06115194 169.98399311 16 165 C10.10811883 160.01893272 5.0310388 154.59382839 3 147 C2.34 147 1.68 147 1 147 C0.18325204 145.25197854 -0.62823451 143.50149811 -1.4375 141.75 C-1.88996094 140.77546875 -2.34242187 139.8009375 -2.80859375 138.796875 C-4.4096782 135.03826362 -5.11217733 131.84613042 -5.17578125 127.76953125 C-5.37622836 115.35250328 -5.37622836 115.35250328 -10 104 C-10.99 103.505 -10.99 103.505 -12 103 C-11.505 103.99 -11.01 104.98 -10.5 106 C-8.69896419 110.13477234 -8.76484129 113.53198453 -9 118 C-15.52483134 117.61225388 -21.01597982 116.6280336 -27 114 C-28.01513672 113.57267578 -28.01513672 113.57267578 -29.05078125 113.13671875 C-30.70582416 112.43689099 -32.35373743 111.72023987 -34 111 C-34 110.34 -34 109.68 -34 109 C-34.680625 108.79375 -35.36125 108.5875 -36.0625 108.375 C-45.82388821 103.80583956 -50.10196251 94.95791314 -54.75 85.75 C-58.49466942 78.46715334 -62.57272766 72.16508125 -68 66 C-71.03828453 62.38667292 -72.87316998 59.08199461 -72.6640625 54.16796875 C-71.25770144 49.57661353 -67.56054147 46.08866248 -64 43 C-63.34 43 -62.68 43 -62 43 C-62.02320313 43.96421875 -62.04640625 44.9284375 -62.0703125 45.921875 C-62.08835937 47.18515625 -62.10640625 48.4484375 -62.125 49.75 C-62.14820313 51.00296875 -62.17140625 52.2559375 -62.1953125 53.546875 C-62.01537302 56.72820492 -61.68998582 58.36521896 -60 61 C-59.86464844 60.10539063 -59.72929688 59.21078125 -59.58984375 58.2890625 C-57.60413061 47.13577553 -53.59147632 39.29208283 -44.69140625 32.1640625 C-42.26981661 30.49747194 -39.62619915 29.31309957 -37 28 C-35.28641357 26.38161281 -33.6292274 24.70328319 -32 23 C-30.4040361 21.55339841 -28.79891898 20.11686553 -27.1875 18.6875 C-23.93782824 15.79890288 -20.86197724 12.84532998 -17.875 9.6875 C-14.28903182 6.03620041 -10.67084029 3.98216332 -6 2 C-4.95585937 1.45472656 -4.95585937 1.45472656 -3.890625 0.8984375 C-2 0 -2 0 0 0 Z " fill="#303030" transform="translate(87,506)"/>
<path d="M0 0 C1.60546875 1.09765625 1.60546875 1.09765625 2.60546875 3.09765625 C3.40984375 3.36578125 4.21421875 3.63390625 5.04296875 3.91015625 C7.60546875 5.09765625 7.60546875 5.09765625 8.91796875 7.28515625 C10.06142189 11.96291911 10.07908202 16.49261478 8.60546875 21.09765625 C7.61546875 21.09765625 6.62546875 21.09765625 5.60546875 21.09765625 C5.60546875 22.41765625 5.60546875 23.73765625 5.60546875 25.09765625 C7.25546875 24.43765625 8.90546875 23.77765625 10.60546875 23.09765625 C10.46439128 24.55645734 10.3174446 26.01469176 10.16796875 27.47265625 C10.08675781 28.28476562 10.00554687 29.096875 9.921875 29.93359375 C9.60546875 32.09765625 9.60546875 32.09765625 8.60546875 34.09765625 C7.61546875 34.09765625 6.62546875 34.09765625 5.60546875 34.09765625 C5.66734375 35.04640625 5.72921875 35.99515625 5.79296875 36.97265625 C5.82357416 41.94093456 4.18122418 46.43604645 2.60546875 51.09765625 C1.94546875 51.09765625 1.28546875 51.09765625 0.60546875 51.09765625 C0.27546875 52.74765625 -0.05453125 54.39765625 -0.39453125 56.09765625 C3.90004735 53.20348371 5.87553159 51.4361133 6.98046875 46.28515625 C7.21211593 44.89300214 7.42854211 43.49781711 7.60546875 42.09765625 C13.40712614 43.07224297 18.44529597 44.1101878 23.60546875 47.09765625 C23.27546875 48.08765625 22.94546875 49.07765625 22.60546875 50.09765625 C20.234375 51.01953125 20.234375 51.01953125 17.16796875 51.84765625 C10.65194816 53.89068408 5.85082204 56.77317394 0.60546875 61.09765625 C-0.11253906 61.60167969 -0.83054688 62.10570312 -1.5703125 62.625 C-4.55020741 65.16298665 -6.13537985 67.32949195 -6.71435547 71.27978516 C-7.33078863 80.0003507 -7.14333112 88.748759 -4.39453125 97.09765625 C-3.40453125 97.75765625 -2.41453125 98.41765625 -1.39453125 99.09765625 C-1.39453125 99.75765625 -1.39453125 100.41765625 -1.39453125 101.09765625 C5.20546875 101.42765625 11.80546875 101.75765625 18.60546875 102.09765625 C18.93546875 102.75765625 19.26546875 103.41765625 19.60546875 104.09765625 C12.4341305 110.87058682 3.56392473 115.71463871 -6.39453125 116.09765625 C-6.39453125 116.75765625 -6.39453125 117.41765625 -6.39453125 118.09765625 C-2.43453125 118.09765625 1.52546875 118.09765625 5.60546875 118.09765625 C5.60546875 117.43765625 5.60546875 116.77765625 5.60546875 116.09765625 C6.89460362 115.42610692 8.18687079 114.76056766 9.48046875 114.09765625 C10.19976562 113.72640625 10.9190625 113.35515625 11.66015625 112.97265625 C13.60546875 112.09765625 13.60546875 112.09765625 15.60546875 112.09765625 C15.06208734 116.19112956 13.84861669 118.5618658 11.29296875 121.78515625 C10.69871094 122.55214844 10.10445312 123.31914063 9.4921875 124.109375 C7.60041495 126.1029821 6.08703592 126.99473751 3.60546875 128.09765625 C3.11046875 128.61328125 2.61546875 129.12890625 2.10546875 129.66015625 C-1.86635701 133.46648927 -8.80651976 132.48652165 -13.9140625 132.43359375 C-21.65260018 131.68666419 -26.18093973 126.86787317 -30.984375 121.1015625 C-32.76548567 118.57051049 -33.71690801 116.10931509 -34.39453125 113.09765625 C-32.00889048 113.67350057 -29.72770341 114.3199322 -27.39453125 115.09765625 C-27.39453125 115.75765625 -27.39453125 116.41765625 -27.39453125 117.09765625 C-22.44453125 117.42765625 -17.49453125 117.75765625 -12.39453125 118.09765625 C-12.39453125 117.43765625 -12.39453125 116.77765625 -12.39453125 116.09765625 C-13.52890625 115.99453125 -14.66328125 115.89140625 -15.83203125 115.78515625 C-23.56629457 114.78586205 -29.87833558 112.75175681 -35.39453125 107.09765625 C-36.05078125 104.9375 -36.05078125 104.9375 -36.39453125 103.09765625 C-34.85732422 102.93330078 -34.85732422 102.93330078 -33.2890625 102.765625 C-31.92831258 102.6060888 -30.56763931 102.44589785 -29.20703125 102.28515625 C-28.19672852 102.17977539 -28.19672852 102.17977539 -27.16601562 102.07226562 C-22.90458041 101.5525784 -19.81028916 100.73338841 -16.39453125 98.09765625 C-11.85945116 89.35143035 -10.66854868 78.46143232 -13.14453125 68.84765625 C-17.7384016 58.54954879 -32.50806954 52.98598246 -42.39453125 49.09765625 C-41.39453125 46.09765625 -41.39453125 46.09765625 -39.57421875 45.1484375 C-34.63935387 43.5676079 -30.57555948 42.76695232 -25.39453125 43.09765625 C-25.296875 45.05078125 -25.19921875 47.00390625 -25.1015625 48.95703125 C-24.07424852 52.06735204 -22.00660482 53.24795822 -19.39453125 55.09765625 C-19.82765625 54.00066406 -20.26078125 52.90367187 -20.70703125 51.7734375 C-21.26996962 50.31918003 -21.83244535 48.86474342 -22.39453125 47.41015625 C-22.68070313 46.68892578 -22.966875 45.96769531 -23.26171875 45.22460938 C-24.73358145 41.38725304 -25.79068123 38.28199036 -25.39453125 34.09765625 C-26.05453125 34.09765625 -26.71453125 34.09765625 -27.39453125 34.09765625 C-27.39453125 33.10765625 -27.39453125 32.11765625 -27.39453125 31.09765625 C-28.05453125 31.09765625 -28.71453125 31.09765625 -29.39453125 31.09765625 C-29.72453125 28.45765625 -30.05453125 25.81765625 -30.39453125 23.09765625 C-29.07453125 23.42765625 -27.75453125 23.75765625 -26.39453125 24.09765625 C-26.39453125 24.75765625 -26.39453125 25.41765625 -26.39453125 26.09765625 C-25.73453125 26.09765625 -25.07453125 26.09765625 -24.39453125 26.09765625 C-24.39453125 23.45765625 -24.39453125 20.81765625 -24.39453125 18.09765625 C-25.05453125 19.08765625 -25.71453125 20.07765625 -26.39453125 21.09765625 C-28.02465963 19.46752787 -27.60429581 17.6532818 -27.64453125 15.41015625 C-27.5454534 9.08718813 -26.04562151 5.82379606 -21.64453125 1.22265625 C-16.04103778 -2.52505659 -6.13367599 -2.31138524 0 0 Z " fill="#313131" transform="translate(164.39453125,545.90234375)"/>
<path d="M0 0 C1.64630328 0.14042877 3.29204179 0.28749329 4.9375 0.4375 C6.31228516 0.55931641 6.31228516 0.55931641 7.71484375 0.68359375 C10 1 10 1 11 2 C10.91062197 3.52519276 10.75462854 5.04681929 10.5625 6.5625 C10.46066406 7.38878906 10.35882813 8.21507812 10.25390625 9.06640625 C10.17011719 9.70449219 10.08632812 10.34257812 10 11 C9.34 11 8.68 11 8 11 C8.05607422 12.45019531 8.05607422 12.45019531 8.11328125 13.9296875 C8.1098585 18.47281954 7.18014122 22.70859537 6.1875 27.125 C5.91510498 28.37579346 5.91510498 28.37579346 5.63720703 29.65185547 C4.35574221 35.50466711 3.02852691 41.34751063 1.65625 47.1796875 C1.03164388 49.86400665 0.44956608 52.55460915 -0.125 55.25 C-1 59 -1 59 -2 60 C-5.66344611 60.13568319 -8.50615721 60.16461426 -12 59 C-11.85780436 56.79142945 -11.71108153 54.58315013 -11.5625 52.375 C-11.48128906 51.14523437 -11.40007812 49.91546875 -11.31640625 48.6484375 C-11.03336056 45.38467612 -10.58961047 42.22056141 -10 39 C-12.7839183 40.39195915 -12.97898997 42.15575779 -14 45 C-14.66 45 -15.32 45 -16 45 C-16 46.32 -16 47.64 -16 49 C-18.64 48.67 -21.28 48.34 -24 48 C-23.67 44.04 -23.34 40.08 -23 36 C-23.99 36 -24.98 36 -26 36 C-26.33 36.99 -26.66 37.98 -27 39 C-28.98 39 -30.96 39 -33 39 C-33 36.36 -33 33.72 -33 31 C-34.65 31 -36.3 31 -38 31 C-39.26264601 26.70700357 -38.62950412 24.12168689 -37 20 C-34.69 20.33 -32.38 20.66 -30 21 C-29.855625 20.030625 -29.71125 19.06125 -29.5625 18.0625 C-29 15 -29 15 -28 14 C-26.00041636 13.95919217 -23.99954746 13.95745644 -22 14 C-22 14.99 -22 15.98 -22 17 C-20.68 17 -19.36 17 -18 17 C-17.34 13.37 -16.68 9.74 -16 6 C-10.25 5.875 -10.25 5.875 -8 7 C-8 11.29 -8 15.58 -8 20 C-7.34 20 -6.68 20 -6 20 C-5.18372554 17.60539412 -4.37188355 15.20943474 -3.5625 12.8125 C-3.33240234 12.13896484 -3.10230469 11.46542969 -2.86523438 10.77148438 C-1.66475915 7.20485509 -0.62722505 3.7128839 0 0 Z " fill="#343434" transform="translate(214,484)"/>
<path d="M0 0 C1.98598493 5.95795479 2.57045059 11.74892565 3 18 C3.66 18 4.32 18 5 18 C5.33 18.66 5.66 19.32 6 20 C6.66 20 7.32 20 8 20 C7.67 16.04 7.34 12.08 7 8 C12 6 12 6 14.1875 6.0625 C16 7 16 7 17.1875 9.125 C18.11356543 12.40184691 18.60246437 15.62094717 19 19 C19.99 18.67 20.98 18.34 22 18 C22 16.68 22 15.36 22 14 C23.98 14 25.96 14 28 14 C30.40816567 21.74053252 32.44079285 29.84533223 32 38 C28.37471432 38.20140476 26.13498292 37.85776765 23 36 C23.2475 37.0209375 23.2475 37.0209375 23.5 38.0625 C24.07089059 41.4164822 24.06659023 44.60389805 24 48 C19.545 48.495 19.545 48.495 15 49 C14.36523438 45.53320312 14.36523438 45.53320312 13.73046875 42.06640625 C13.48941406 41.38449219 13.24835938 40.70257812 13 40 C11.515 39.505 11.515 39.505 10 39 C10.2165625 39.90878906 10.2165625 39.90878906 10.4375 40.8359375 C11.80960489 47.0294665 12.18115509 52.65957181 12 59 C7.05 59.495 7.05 59.495 2 60 C0.03489073 57.0523361 -0.5091215 55.38502204 -1.21875 51.9921875 C-1.42886719 51.00476563 -1.63898438 50.01734375 -1.85546875 49 C-2.06816406 47.96875 -2.28085938 46.9375 -2.5 45.875 C-2.92694624 43.85153357 -3.35402781 41.82809569 -3.78125 39.8046875 C-3.9877417 38.81654053 -4.1942334 37.82839355 -4.40698242 36.81030273 C-4.9288629 34.33711782 -5.46749578 31.86893735 -6.01953125 29.40234375 C-7.11427141 24.50522816 -8.16802882 19.60083583 -9.1875 14.6875 C-9.37763672 13.80771484 -9.56777344 12.92792969 -9.76367188 12.02148438 C-9.93833984 11.17263672 -10.11300781 10.32378906 -10.29296875 9.44921875 C-10.4530542 8.68955811 -10.61313965 7.92989746 -10.77807617 7.1472168 C-11.02386438 4.76910097 -10.90798793 3.21437564 -10 1 C-6.52674819 -0.1577506 -3.63932552 -0.06866652 0 0 Z " fill="#333333" transform="translate(96,484)"/>
<path d="M0 0 C2.31 0 4.62 0 7 0 C7.43570313 0.94359375 7.87140625 1.8871875 8.3203125 2.859375 C8.92178182 4.15629322 9.52334978 5.45316569 10.125 6.75 C10.40859375 7.36488281 10.6921875 7.97976563 10.984375 8.61328125 C13.86529174 14.8135151 16.93760201 20.87520402 20 27 C23.96 18.09 27.92 9.18 32 0 C34.31 0 36.62 0 39 0 C39 11.88 39 23.76 39 36 C37.02 36 35.04 36 33 36 C32.67 28.74 32.34 21.48 32 14 C28.7 21.26 25.4 28.52 22 36 C20.35 36 18.7 36 17 36 C15.5184527 32.73023984 14.04017409 29.45901215 12.5625 26.1875 C12.14162109 25.25873047 11.72074219 24.32996094 11.28710938 23.37304688 C10.88427734 22.48037109 10.48144531 21.58769531 10.06640625 20.66796875 C9.69459229 19.84578857 9.32277832 19.0236084 8.93969727 18.17651367 C8 16 8 16 7 13 C6.67 20.59 6.34 28.18 6 36 C4.02 36 2.04 36 0 36 C0 24.12 0 12.24 0 0 Z " fill="#D8D8D8" transform="translate(690,605)"/>
<path d="M0 0 C2.31 0 4.62 0 7 0 C8.8392812 4.12237348 10.67041342 8.24831578 12.5 12.375 C13.02464844 13.550625 13.54929687 14.72625 14.08984375 15.9375 C14.58613281 17.05898438 15.08242188 18.18046875 15.59375 19.3359375 C16.05458984 20.37282715 16.51542969 21.4097168 16.99023438 22.47802734 C18 25 18 25 18 27 C18.66 27 19.32 27 20 27 C20.23589844 26.22269531 20.47179687 25.44539062 20.71484375 24.64453125 C22.40006843 19.86545942 24.46962145 15.29976789 26.5625 10.6875 C26.97435547 9.76904297 27.38621094 8.85058594 27.81054688 7.90429688 C30.86953546 1.13046454 30.86953546 1.13046454 32 0 C33.98 0 35.96 0 38 0 C38 11.88 38 23.76 38 36 C36.02 36 34.04 36 32 36 C31.67 29.07 31.34 22.14 31 15 C30.40832031 16.43214844 29.81664062 17.86429688 29.20703125 19.33984375 C28.40986116 21.20615961 27.61162874 23.07202197 26.8125 24.9375 C26.42513672 25.88302734 26.03777344 26.82855469 25.63867188 27.80273438 C25.24873047 28.70185547 24.85878906 29.60097656 24.45703125 30.52734375 C24.10616455 31.35999756 23.75529785 32.19265137 23.39379883 33.05053711 C22 35 22 35 19.34643555 35.77954102 C18.57211182 35.85229248 17.79778809 35.92504395 17 36 C15.89324381 33.8137775 14.78955622 31.62609052 13.6875 29.4375 C13.37876953 28.82841797 13.07003906 28.21933594 12.75195312 27.59179688 C12.29272461 26.67817383 12.29272461 26.67817383 11.82421875 25.74609375 C11.40789185 24.92129517 11.40789185 24.92129517 10.9831543 24.07983398 C9.57069952 21.09182746 8.3019144 18.03780026 7 15 C6.67 21.93 6.34 28.86 6 36 C4.02 36 2.04 36 0 36 C0 24.12 0 12.24 0 0 Z " fill="#D7D7D7" transform="translate(433,605)"/>
<path d="M0 0 C5.75 -0.125 5.75 -0.125 8 1 C7.65835958 8.29402289 6.47274482 15.39960294 5.125 22.5625 C4.96354492 23.43608154 4.80208984 24.30966309 4.63574219 25.2097168 C3.46628365 31.27103177 1.87799909 37.12080638 0 43 C-2.64 42.67 -5.28 42.34 -8 42 C-7.67 38.04 -7.34 34.08 -7 30 C-7.99 30 -8.98 30 -10 30 C-10.33 30.99 -10.66 31.98 -11 33 C-12.98 33 -14.96 33 -17 33 C-17 30.36 -17 27.72 -17 25 C-18.65 25 -20.3 25 -22 25 C-23.26264601 20.70700357 -22.62950412 18.12168689 -21 14 C-18.69 14.33 -16.38 14.66 -14 15 C-13.855625 14.030625 -13.71125 13.06125 -13.5625 12.0625 C-13 9 -13 9 -12 8 C-10.00041636 7.95919217 -7.99954746 7.95745644 -6 8 C-6 8.99 -6 9.98 -6 11 C-4.68 11 -3.36 11 -2 11 C-1.34 7.37 -0.68 3.74 0 0 Z " fill="#323232" transform="translate(198,490)"/>
<path d="M0 0 C18.0801105 0 18.0801105 0 23.84765625 4.4140625 C25.78801717 7.08452533 25.46327219 9.58250521 25.359375 12.77734375 C24.82837895 16.0614389 23.38402162 17.75220819 21 20 C20.01 20.66 19.02 21.32 18 22 C18.5053125 22.84304688 19.010625 23.68609375 19.53125 24.5546875 C20.1809375 25.65039062 20.830625 26.74609375 21.5 27.875 C22.1496875 28.96554687 22.799375 30.05609375 23.46875 31.1796875 C25 34 25 34 25 36 C22.69 36 20.38 36 18 36 C17.55269531 35.07316406 17.10539063 34.14632812 16.64453125 33.19140625 C16.03478777 31.98129996 15.42405885 30.77168986 14.8125 29.5625 C14.52052734 28.95083984 14.22855469 28.33917969 13.92773438 27.70898438 C12.93523219 25.6855257 12.93523219 25.6855257 11 23 C9.35 22.67 7.7 22.34 6 22 C6 26.62 6 31.24 6 36 C4.02 36 2.04 36 0 36 C0 24.12 0 12.24 0 0 Z " fill="#D6D6D6" transform="translate(945,605)"/>
<path d="M0 0 C2.64 0 5.28 0 8 0 C9.71298017 4.80408933 11.42187189 9.60960538 13.12695312 14.41650391 C13.70785534 16.05232195 14.28988247 17.68774096 14.87304688 19.32275391 C15.70997852 21.66986324 16.54288427 24.01836718 17.375 26.3671875 C17.63748535 27.10057343 17.8999707 27.83395935 18.17041016 28.58956909 C20 33.77225659 20 33.77225659 20 36 C18.02 36 16.04 36 14 36 C13.34 33.69 12.68 31.38 12 29 C6.72 29 1.44 29 -4 29 C-4.99 32.465 -4.99 32.465 -6 36 C-7.98 36 -9.96 36 -12 36 C-10.30108 28.26698481 -7.5717443 20.93152919 -4.875 13.5 C-4.40198845 12.187628 -3.92932927 10.87512895 -3.45703125 9.5625 C-2.30813841 6.3737362 -1.15570259 3.18630069 0 0 Z " fill="#D7D7D7" transform="translate(494,605)"/>
<path d="M0 0 C3.82172476 2.24807339 5.65110293 4.26255568 8.1875 7.875 C8.1875 8.535 8.1875 9.195 8.1875 9.875 C4.875 10.125 4.875 10.125 1.1875 9.875 C-0.5625 7.9375 -0.5625 7.9375 -1.8125 5.875 C-5.43180698 4.66856434 -8.00481005 4.55231441 -11.8125 4.875 C-14.86607079 6.48820721 -17.05083566 7.90560902 -19.1875 10.625 C-20.65355509 15.90279832 -20.55483868 19.53879038 -17.9375 24.25 C-15.30375504 27.85350003 -15.30375504 27.85350003 -11.3515625 29.2109375 C-5.48317248 29.42936593 -5.48317248 29.42936593 -0.25 27.1875 C1.49279348 24.53409783 1.49279348 24.53409783 3.1875 19.875 C-1.1025 19.875 -5.3925 19.875 -9.8125 19.875 C-9.8125 18.225 -9.8125 16.575 -9.8125 14.875 C-3.2125 14.875 3.3875 14.875 10.1875 14.875 C9.21795246 23.60092783 8.81756683 26.59908604 2.625 32.1875 C-2.86286967 35.98679439 -9.39269387 35.77695623 -15.8125 34.875 C-20.91186868 32.36078268 -23.83999053 28.65010561 -25.8125 23.375 C-27.29506469 17.6105544 -27.76681126 13.08971798 -24.8125 7.75 C-18.52790706 -1.29840552 -10.27543358 -3.03209516 0 0 Z " fill="#D8D8D8" transform="translate(633.8125,606.125)"/>
<path d="M0 0 C1.98 0 3.96 0 6 0 C8.14990234 2.203125 8.14990234 2.203125 10.0859375 5.25 C11.13974609 6.87421875 11.13974609 6.87421875 12.21484375 8.53125 C12.9353552 9.6872138 13.65540145 10.84346768 14.375 12 C15.11655753 13.15749006 15.86002716 14.3137575 16.60546875 15.46875 C18.42250143 18.30048924 20.21372954 21.14875594 22 24 C22.33 16.08 22.66 8.16 23 0 C24.98 0 26.96 0 29 0 C29 11.88 29 23.76 29 36 C27.02 36 25.04 36 23 36 C20.85009766 33.82861328 20.85009766 33.82861328 18.9140625 30.8203125 C18.21152344 29.74652344 17.50898437 28.67273438 16.78515625 27.56640625 C16.0650615 26.41929761 15.34500992 25.27216188 14.625 24.125 C13.8833298 22.98449187 13.1398585 21.84515284 12.39453125 20.70703125 C7 12.3500116 7 12.3500116 7 10 C6.34 10 5.68 10 5 10 C5 18.58 5 27.16 5 36 C3.35 36 1.7 36 0 36 C0 24.12 0 12.24 0 0 Z " fill="#D7D7D7" transform="translate(837,605)"/>
<path d="M0 0 C-4.501814 5.54069415 -9.32652356 10.63142314 -15 15 C-15.66 15 -16.32 15 -17 15 C-17.33 15.99 -17.66 16.98 -18 18 C-19.85546875 19.140625 -19.85546875 19.140625 -22.1875 20.25 C-26.95765786 22.77136915 -29.84981307 25.67451397 -33 30 C-34.11375 31.485 -34.11375 31.485 -35.25 33 C-38.91943837 39.29046578 -39.45582496 45.88276327 -40 53 C-42.98246033 48.5263095 -44.26901824 45.88440083 -44.1875 40.4375 C-44.18105469 39.48746094 -44.17460938 38.53742187 -44.16796875 37.55859375 C-44 35 -44 35 -43 32 C-43.66 31.67 -44.32 31.34 -45 31 C-43.625 28.5 -43.625 28.5 -42 26 C-41.34 26 -40.68 26 -40 26 C-39.73445313 25.24847656 -39.46890625 24.49695313 -39.1953125 23.72265625 C-35.95369307 16.33896754 -28.23060223 11.43601697 -22 6.625 C-21.33597168 6.10091553 -20.67194336 5.57683105 -19.98779297 5.03686523 C-13.7429827 0.3313984 -7.90912928 -1.97728232 0 0 Z " fill="#E6E6E6" transform="translate(68,517)"/>
<path d="M0 0 C13.1440678 1.59322034 13.1440678 1.59322034 17 6 C17 6.66 17 7.32 17 8 C17.69222656 8.21398437 18.38445312 8.42796875 19.09765625 8.6484375 C24.80634858 11.3068595 29.08102005 16.17079261 33.52050781 20.5546875 C34.70872173 21.71545093 35.93817244 22.83393106 37.1796875 23.9375 C42.04667543 28.96749709 41.52955844 34.8712323 41.48364258 41.47900391 C41.33046868 45.98917801 40.68047238 49.75816246 39 54 C38.34 54 37.68 54 37 54 C36.90203125 53.01 36.8040625 52.02 36.703125 51 C35.35700482 38.61349786 32.64397216 31.26898999 23 23 C21.35178756 21.96986723 19.69403834 20.95289657 18 20 C18 19.34 18 18.68 18 18 C17.15179688 17.80664062 16.30359375 17.61328125 15.4296875 17.4140625 C10.95851214 15.57059384 8.40473407 12.8476596 5.125 9.375 C4.53203125 8.76398437 3.9390625 8.15296875 3.328125 7.5234375 C1.87611093 6.02458427 0.43675037 4.51349075 -1 3 C-0.67 2.01 -0.34 1.02 0 0 Z " fill="#E8E8E8" transform="translate(244,516)"/>
<path d="M0 0 C0.66 0 1.32 0 2 0 C2 0.99 2 1.98 2 3 C2.66 3.33 3.32 3.66 4 4 C2.35 5.98 0.7 7.96 -1 10 C-1.33 9.34 -1.66 8.68 -2 8 C-11.27363938 10.25426412 -16.36484353 13.30231219 -21.921875 21.15625 C-24.43211082 25.44911705 -25.29347789 29.02888931 -25.3125 34 C-25.32925781 35.010625 -25.34601563 36.02125 -25.36328125 37.0625 C-24.7951548 41.6563827 -22.88968924 44.19927968 -19.5 47.25 C-15.1008516 50.32940388 -10.93583329 50.24601496 -5.75 50.3125 C-5.01136719 50.34150391 -4.27273437 50.37050781 -3.51171875 50.40039062 C3.19414157 50.47726557 7.31325297 48.59671494 12.21484375 43.859375 C12.78332031 43.16328125 13.35179687 42.4671875 13.9375 41.75 C14.52402344 41.04359375 15.11054688 40.3371875 15.71484375 39.609375 C16.13894531 39.07828125 16.56304687 38.5471875 17 38 C17.6015625 39.8125 17.6015625 39.8125 18 42 C15.6790847 46.2847667 13.05595409 49.29603061 9 52 C8.01 52 7.02 52 6 52 C6 52.66 6 53.32 6 54 C-0.18788464 55.8334473 -5.96449196 56.19260899 -12.375 56.1875 C-13.57068604 56.1884668 -13.57068604 56.1884668 -14.79052734 56.18945312 C-22.52548588 56.11705615 -22.52548588 56.11705615 -26.0625 53.4375 C-31.82542643 46.18736675 -30.95233725 33.98431482 -30.33740234 25.19091797 C-29.7213267 21.19043835 -27.92880691 18.96606537 -24.9296875 16.39453125 C-23.97449219 15.70423828 -23.97449219 15.70423828 -23 15 C-22.48695313 14.52949219 -21.97390625 14.05898438 -21.4453125 13.57421875 C-15.07258498 7.73542246 -8.18555172 5.17402983 0 3 C0 2.01 0 1.02 0 0 Z " fill="#EEEEEE" transform="translate(187,592)"/>
<path d="M0 0 C1.98 0 3.96 0 6 0 C6.01981934 0.83772949 6.03963867 1.67545898 6.06005859 2.53857422 C6.13810612 5.64365834 6.22479635 8.74834539 6.31738281 11.85302734 C6.37454036 13.85886971 6.42168596 15.86498918 6.46875 17.87109375 C6.50742187 19.12792969 6.54609375 20.38476562 6.5859375 21.6796875 C6.6173584 22.84226074 6.6487793 24.00483398 6.68115234 25.20263672 C6.72157869 28.13656482 6.72157869 28.13656482 9 30 C11.36802001 30.35685986 11.36802001 30.35685986 14 30.3125 C14.886875 30.32925781 15.77375 30.34601562 16.6875 30.36328125 C17.450625 30.24339844 18.21375 30.12351562 19 30 C21.32452624 26.51321064 21.29773734 24.93032429 21.4140625 20.80078125 C21.45273437 19.59228516 21.49140625 18.38378906 21.53125 17.13867188 C21.5621875 15.87603516 21.593125 14.61339844 21.625 13.3125 C21.66367187 12.03826172 21.70234375 10.76402344 21.7421875 9.45117188 C21.83657686 6.30092708 21.9221583 3.15069009 22 0 C23.98 0 25.96 0 28 0 C28.0872253 4.39570794 28.14046869 8.79119271 28.1875 13.1875 C28.21263672 14.43337891 28.23777344 15.67925781 28.26367188 16.96289062 C28.27333984 18.16494141 28.28300781 19.36699219 28.29296875 20.60546875 C28.3086792 21.71043701 28.32438965 22.81540527 28.34057617 23.95385742 C27.81723679 28.63464988 25.94726976 31.14745721 22.5 34.25 C18.33609864 37.16473095 15.00125265 37.49192649 10 37 C6.15084838 35.32554957 2.82088392 33.65019468 0.90600586 29.80078125 C-0.13521676 26.58199767 -0.22734933 23.9853545 -0.1953125 20.60546875 C-0.18886719 19.40341797 -0.18242187 18.20136719 -0.17578125 16.96289062 C-0.15902344 15.71701172 -0.14226562 14.47113281 -0.125 13.1875 C-0.11597656 11.92228516 -0.10695313 10.65707031 -0.09765625 9.35351562 C-0.07412394 6.23548436 -0.04124545 3.11783903 0 0 Z " fill="#D7D7D7" transform="translate(312,605)"/>
<path d="M0 0 C8.3852885 2.09632212 15.36609412 4.88827649 22.4375 9.875 C23.02837402 10.28548584 23.61924805 10.69597168 24.22802734 11.11889648 C28.58963804 14.31112601 31.82254403 17.80583753 33.734375 22.9921875 C34.8503501 31.42764637 34.68611074 40.20692336 31 48 C28.76436652 50.67185465 27.09531637 52.45234181 24 54 C12.33027121 54.81200896 0.94692088 55.18875254 -8.765625 47.625 C-10.125 46.3125 -10.125 46.3125 -12 44 C-12.66 43.34 -13.32 42.68 -14 42 C-14.40047444 39.67724823 -14.7397104 37.34260643 -15 35 C-12.28735279 37.635143 -9.94724599 40.0712892 -7.6875 43.125 C-3.79806137 47.28579481 -0.13925897 48.69001048 5.4921875 49.24609375 C13.37322159 49.44970709 19.70559111 47.97697447 26 43 C27.38868516 40.89960669 27.38868516 40.89960669 28 39 C28.66 39 29.32 39 30 39 C30.37542827 32.86800489 29.93041265 28.55767916 27 23 C26.50693359 22.02740234 26.50693359 22.02740234 26.00390625 21.03515625 C22.26320214 14.29153396 16.46870779 8.74700855 8.9375 6.5625 C7.968125 6.376875 6.99875 6.19125 6 6 C5.67 6.66 5.34 7.32 5 8 C3.35 5.36 1.7 2.72 0 0 Z " fill="#EAEAEA" transform="translate(119,594)"/>
<path d="M0 0 C3.36443233 1.93654029 5.17552616 3.40186546 7.01953125 6.859375 C7.26703125 7.9421875 7.26703125 7.9421875 7.51953125 9.046875 C1.11594381 9.54911715 1.11594381 9.54911715 -1.85546875 7.046875 C-5.16986791 4.5216185 -7.25066128 4.47191668 -11.32421875 4.6484375 C-14.52778545 5.24040091 -16.28188743 6.71088235 -18.48046875 9.046875 C-20.58961151 13.26516051 -19.98167306 18.46443557 -19.48046875 23.046875 C-18.28867496 26.35471083 -17.50473969 26.86939992 -14.48046875 29.046875 C-9.89023309 29.78101608 -4.8711762 29.69950208 -0.48046875 28.046875 C-0.15046875 27.056875 0.17953125 26.066875 0.51953125 25.046875 C2.82953125 25.046875 5.13953125 25.046875 7.51953125 25.046875 C6.45812051 29.17458345 4.47588371 31.72420158 0.9140625 34.09375 C-4.33049485 36.18130627 -9.97165522 35.76110292 -15.48046875 35.046875 C-20.0158574 32.93557339 -22.64583105 30.14135168 -25.48046875 26.046875 C-27.35258809 20.43051699 -27.75468408 13.36669162 -25.609375 7.77734375 C-19.82141001 -0.93306913 -9.75381148 -3.74792126 0 0 Z " fill="#D7D7D7" transform="translate(784.48046875,605.953125)"/>
<path d="M0 0 C0.66 0 1.32 0 2 0 C2.25287193 6.06892629 1.69832609 11.16200408 0 17 C1.03640625 16.55527344 2.0728125 16.11054687 3.140625 15.65234375 C4.51016935 15.08013686 5.87997488 14.50855483 7.25 13.9375 C7.93191406 13.64294922 8.61382812 13.34839844 9.31640625 13.04492188 C13.06066344 11.49996139 15.15346518 10.83127568 19 12 C21.12364481 12.22609337 21.12364481 12.22609337 22.625 10.5 C23.305625 9.7575 23.305625 9.7575 24 9 C24.36923077 15.4 24.36923077 15.4 22.5 18.4375 C22.005 18.953125 21.51 19.46875 21 20 C21.66 20.33 22.32 20.66 23 21 C23 21.66 23 22.32 23 23 C22.28972656 23.20496094 21.57945312 23.40992188 20.84765625 23.62109375 C19.46900391 24.02521484 19.46900391 24.02521484 18.0625 24.4375 C17.14597656 24.70433594 16.22945312 24.97117187 15.28515625 25.24609375 C13.0597507 25.79026051 13.0597507 25.79026051 12 27 C10.48071962 27.07179964 8.95832518 27.08392007 7.4375 27.0625 C6.61121094 27.05347656 5.78492188 27.04445313 4.93359375 27.03515625 C3.97646484 27.01775391 3.97646484 27.01775391 3 27 C3.875 22.25 3.875 22.25 5 20 C4.21625 20.78375 3.4325 21.5675 2.625 22.375 C-2 27 -2 27 -4.1640625 27.1953125 C-4.97617188 27.17210937 -5.78828125 27.14890625 -6.625 27.125 C-7.44226563 27.10695313 -8.25953125 27.08890625 -9.1015625 27.0703125 C-9.72804687 27.04710937 -10.35453125 27.02390625 -11 27 C-10.2575 26.484375 -9.515 25.96875 -8.75 25.4375 C-3.47897035 20.76545099 -1.55261703 16.04586719 -1 9 C-1 8.34 -1 7.68 -1 7 C-2.6396875 7.99 -2.6396875 7.99 -4.3125 9 C-6.93707538 10.58464929 -7.8256378 11 -11 11 C-11 11.66 -11 12.32 -11 13 C-14.96 13 -18.92 13 -23 13 C-23 12.34 -23 11.68 -23 11 C-21.71416016 10.63648438 -21.71416016 10.63648438 -20.40234375 10.265625 C-14.06897611 8.40917 -8.59693508 6.48253738 -3 3 C-2.34 3 -1.68 3 -1 3 C-0.67 2.01 -0.34 1.02 0 0 Z " fill="#434343" transform="translate(181,651)"/>
<path d="M0 0 C6.6 0 13.2 0 20 0 C20 1.65 20 3.3 20 5 C15.38 5 10.76 5 6 5 C6 8.63 6 12.26 6 16 C10.29 16 14.58 16 19 16 C19 17.32 19 18.64 19 20 C14.71 20 10.42 20 6 20 C6 23.96 6 27.92 6 32 C10.62 32 15.24 32 20 32 C20 33.32 20 34.64 20 36 C13.4 36 6.8 36 0 36 C0 24.12 0 12.24 0 0 Z " fill="#D7D7D7" transform="translate(804,605)"/>
<path d="M0 0 C6.6 0 13.2 0 20 0 C20 1.65 20 3.3 20 5 C15.38 5 10.76 5 6 5 C6 8.63 6 12.26 6 16 C9.96 16 13.92 16 18 16 C18 17.32 18 18.64 18 20 C14.04 20 10.08 20 6 20 C6 23.96 6 27.92 6 32 C10.62 32 15.24 32 20 32 C20 33.32 20 34.64 20 36 C13.4 36 6.8 36 0 36 C0 24.12 0 12.24 0 0 Z " fill="#D6D6D6" transform="translate(913,605)"/>
<path d="M0 0 C6.6 0 13.2 0 20 0 C20 1.65 20 3.3 20 5 C15.38 5 10.76 5 6 5 C6 8.63 6 12.26 6 16 C9.96 16 13.92 16 18 16 C18 17.32 18 18.64 18 20 C14.04 20 10.08 20 6 20 C6 23.96 6 27.92 6 32 C10.62 32 15.24 32 20 32 C20 33.32 20 34.64 20 36 C13.4 36 6.8 36 0 36 C0 24.12 0 12.24 0 0 Z " fill="#D6D6D6" transform="translate(559,605)"/>
<path d="M0 0 C2.31 0 4.62 0 7 0 C8.17407021 2.26727333 9.33939739 4.53834624 10.5 6.8125 C10.83386719 7.45509766 11.16773438 8.09769531 11.51171875 8.75976562 C13.00239084 11.69547699 14 13.66126517 14 17 C14.66 17 15.32 17 16 17 C16.17015625 16.443125 16.3403125 15.88625 16.515625 15.3125 C18.23315937 9.90409391 20.35342255 5.01937104 23 0 C25.31 0 27.62 0 30 0 C28.54555549 3.10600335 27.08577648 6.20947021 25.625 9.3125 C25.2125 10.19357422 24.8 11.07464844 24.375 11.98242188 C23.77558594 13.25375977 23.77558594 13.25375977 23.1640625 14.55078125 C22.79748535 15.33106689 22.4309082 16.11135254 22.05322266 16.9152832 C21 19 21 19 19 22 C18.70547416 24.38677076 18.5071783 26.78626094 18.375 29.1875 C18.30023437 30.45980469 18.22546875 31.73210938 18.1484375 33.04296875 C18.09945312 34.01878906 18.05046875 34.99460937 18 36 C16.02 36 14.04 36 12 36 C12.05542969 35.23300781 12.11085938 34.46601562 12.16796875 33.67578125 C12.23750635 21.7014057 6.85989061 12.95693557 0.99389648 2.8190918 C0 1 0 1 0 0 Z " fill="#D7D7D7" transform="translate(651,605)"/>
<path d="M0 0 C1.4540625 0.0309375 1.4540625 0.0309375 2.9375 0.0625 C2.9375 1.0525 2.9375 2.0425 2.9375 3.0625 C4.2575 3.0625 5.5775 3.0625 6.9375 3.0625 C5.81473429 10.12159078 4.56186599 17.10093148 2.9375 24.0625 C2.6075 23.4025 2.2775 22.7425 1.9375 22.0625 C0.9475 22.0625 -0.0425 22.0625 -1.0625 22.0625 C-1.3925 23.0525 -1.7225 24.0425 -2.0625 25.0625 C-4.0425 25.0625 -6.0225 25.0625 -8.0625 25.0625 C-8.0625 22.4225 -8.0625 19.7825 -8.0625 17.0625 C-9.7125 17.0625 -11.3625 17.0625 -13.0625 17.0625 C-14.32514601 12.76950357 -13.69200412 10.18418689 -12.0625 6.0625 C-9.7525 6.3925 -7.4425 6.7225 -5.0625 7.0625 C-4.918125 6.093125 -4.77375 5.12375 -4.625 4.125 C-3.88189799 0.07922241 -3.88189799 0.07922241 0 0 Z " fill="#3A3A3A" transform="translate(189.0625,497.9375)"/>
<path d="M0 0 C8.25 0 16.5 0 25 0 C25 1.65 25 3.3 25 5 C22.03 5 19.06 5 16 5 C16 15.23 16 25.46 16 36 C14.02 36 12.04 36 10 36 C10 25.77 10 15.54 10 5 C6.7 5 3.4 5 0 5 C0 3.35 0 1.7 0 0 Z " fill="#D7D7D7" transform="translate(877,605)"/>
<path d="M0 0 C8.25 0 16.5 0 25 0 C25 1.65 25 3.3 25 5 C21.7 5 18.4 5 15 5 C15 15.23 15 25.46 15 36 C13.02 36 11.04 36 9 36 C9 25.77 9 15.54 9 5 C6.03 5 3.06 5 0 5 C0 3.35 0 1.7 0 0 Z " fill="#D6D6D6" transform="translate(379,605)"/>
<path d="M0 0 C8.25 0 16.5 0 25 0 C25 1.65 25 3.3 25 5 C21.7 5 18.4 5 15 5 C15 15.23 15 25.46 15 36 C13.35 36 11.7 36 10 36 C10 25.77 10 15.54 10 5 C6.7 5 3.4 5 0 5 C0 3.35 0 1.7 0 0 Z " fill="#D6D6D6" transform="translate(523,605)"/>
<path d="M0 0 C0.99 0.495 0.99 0.495 2 1 C2.40729228 3.32156597 2.74438677 5.6568787 3 8 C3.99 7.67 4.98 7.34 6 7 C6 5.68 6 4.36 6 3 C7.98 3 9.96 3 12 3 C14.40816567 10.74053252 16.44079285 18.84533223 16 27 C12.02958963 27.22057835 10.76687864 26.88343932 7 25 C7.33 27.97 7.66 30.94 8 34 C5.66939579 30.50409368 5.25524631 27.87101793 4.5 23.75 C3.78404449 19.87450167 3.03261747 16.11367793 1.9453125 12.32421875 C1.1435937 9.50495141 0.64321157 6.96812534 0.375 4.0625 C0.30023438 3.29035156 0.22546875 2.51820313 0.1484375 1.72265625 C0.09945312 1.15417969 0.05046875 0.58570313 0 0 Z " fill="#8C8C8C" transform="translate(112,495)"/>
<path d="M0 0 C1.65 0 3.3 0 5 0 C5 10.56 5 21.12 5 32 C8.96 32 12.92 32 17 32 C17 33.32 17 34.64 17 36 C11.39 36 5.78 36 0 36 C0 24.12 0 12.24 0 0 Z " fill="#D6D6D6" transform="translate(353,605)"/>
<path d="M0 0 C0.66 0 1.32 0 2 0 C2 0.99 2 1.98 2 3 C2.66 3.33 3.32 3.66 4 4 C2.35 5.98 0.7 7.96 -1 10 C-1.33 9.34 -1.66 8.68 -2 8 C-11.27363938 10.25426412 -16.36484353 13.30231219 -21.921875 21.15625 C-24.73646849 25.96961278 -25.2292627 29.73444556 -25.125 35.3125 C-25.09792969 37.19388672 -25.09792969 37.19388672 -25.0703125 39.11328125 C-25.04710937 40.06589844 -25.02390625 41.01851562 -25 42 C-27 41 -27 41 -28 38 C-28.495 40.475 -28.495 40.475 -29 43 C-29.33 43 -29.66 43 -30 43 C-31.13885962 25.47908282 -31.13885962 25.47908282 -28.65234375 20.06640625 C-26.89195789 18.08161956 -25.14691542 16.5515158 -23 15 C-22.48695313 14.52949219 -21.97390625 14.05898438 -21.4453125 13.57421875 C-15.07258498 7.73542246 -8.18555172 5.17402983 0 3 C0 2.01 0 1.02 0 0 Z " fill="#E0E0E0" transform="translate(187,592)"/>
<path d="M0 0 C-1.52114704 4.25921171 -4.29589279 5.61096044 -8 8 C-10.06490863 9.43403796 -12.12733099 10.8716613 -14.1875 12.3125 C-30.08618106 23.36206035 -30.08618106 23.36206035 -35 25 C-32.76903581 16.81979796 -24.35589237 11.46422965 -17.875 6.625 C-16.84052734 5.82642578 -16.84052734 5.82642578 -15.78515625 5.01171875 C-10.46735635 1.01574291 -6.69212002 -0.19120343 0 0 Z " fill="#393939" transform="translate(64,517)"/>
<path d="M0 0 C-3.35662372 7.09145857 -8.39959489 13.64493818 -15 18 C-17.2109375 18.66015625 -17.2109375 18.66015625 -19 19 C-19 19.66 -19 20.32 -19 21 C-22.82745451 22.74685308 -26.12442723 23.34886333 -30.3125 23.625 C-31.38113281 23.69976563 -32.44976562 23.77453125 -33.55078125 23.8515625 C-34.76314453 23.92503906 -34.76314453 23.92503906 -36 24 C-33.25327686 21.02543808 -30.74274109 19.16737629 -27.125 17.375 C-21.56777264 14.46514276 -16.61154691 10.99269927 -11.59619141 7.25146484 C-7.19656471 4 -7.19656471 4 -5 4 C-5 3.34 -5 2.68 -5 2 C-2 0 -2 0 0 0 Z " fill="#DEDEDE" transform="translate(254,579)"/>
<path d="M0 0 C1.65 0 3.3 0 5 0 C5 11.88 5 23.76 5 36 C3.35 36 1.7 36 0 36 C0 24.12 0 12.24 0 0 Z " fill="#D6D6D6" transform="translate(415,605)"/>
<path d="M0 0 C4.32014818 2.85071002 8.62788303 5.70250721 12.8125 8.75 C15.19719442 10.43331371 17.34523973 11.83190548 20 13 C20 13.66 20 14.32 20 15 C20.94875 15.309375 21.8975 15.61875 22.875 15.9375 C26 17 26 17 28 18 C28 18.66 28 19.32 28 20 C29.98 20.66 31.96 21.32 34 22 C34 22.33 34 22.66 34 23 C27.09232563 22.63176001 21.3618858 21.76081837 15 19 C15 18.34 15 17.68 15 17 C13.89205078 16.64228516 13.89205078 16.64228516 12.76171875 16.27734375 C9.59062227 14.81065556 8.06284371 13.21329172 5.8125 10.5625 C5.13832031 9.78003906 4.46414062 8.99757813 3.76953125 8.19140625 C0 3.52317881 0 3.52317881 0 0 Z " fill="#E7E7E7" transform="translate(57,580)"/>
<path d="M0 0 C5.80165739 0.97458672 10.83982722 2.01253155 16 5 C15.67 5.99 15.34 6.98 15 8 C12.62890625 8.921875 12.62890625 8.921875 9.5625 9.75 C3.10447434 11.72994559 -1.72680088 14.84677237 -7 19 C-7.33 18.01 -7.66 17.02 -8 16 C-8.66 16 -9.32 16 -10 16 C-8.62141149 13.24282298 -6.62533685 12.53678254 -4 11 C-1.6870518 8.6870518 -1.50419025 7.52095125 -0.875 4.375 C-0.70742187 3.55773437 -0.53984375 2.74046875 -0.3671875 1.8984375 C-0.24601563 1.27195312 -0.12484375 0.64546875 0 0 Z " fill="#363636" transform="translate(172,588)"/>
<path d="M0 0 C5.26053037 -0.31563182 8.44573816 0.33409063 13 3 C13 3.66 13 4.32 13 5 C13.68449219 5.20625 14.36898438 5.4125 15.07421875 5.625 C18.97691387 7.45911039 21.69987219 10.05740426 24.8125 13 C25.7087207 13.81984375 25.7087207 13.81984375 26.62304688 14.65625 C28.12630533 16.05814589 29.56870925 17.52470177 31 19 C31 19.66 31 20.32 31 21 C26.22113387 19.6294299 22.30440999 17.53695927 18.1875 14.8125 C17.57874023 14.41466309 16.96998047 14.01682617 16.34277344 13.60693359 C3.34619787 5.0192968 3.34619787 5.0192968 0 0 Z " fill="#3D3D3D" transform="translate(248,519)"/>
<path d="M0 0 C0.103125 1.258125 0.20625 2.51625 0.3125 3.8125 C0.73421417 7.34745705 1.36238993 8.59174733 4 11 C4.1875 13.6875 4.1875 13.6875 4 16 C1.71651707 14.86099653 -0.56310889 13.71496001 -2.83984375 12.5625 C-3.86207031 12.046875 -4.88429687 11.53125 -5.9375 11 C-6.95714844 10.484375 -7.97679687 9.96875 -9.02734375 9.4375 C-11.65229737 8.16814003 -14.2784972 7.04249094 -17 6 C-16 3 -16 3 -14.1796875 2.05078125 C-9.24482262 0.46995165 -5.18102823 -0.33070393 0 0 Z " fill="#3B3B3B" transform="translate(139,589)"/>
<path d="M0 0 C0.33 0 0.66 0 1 0 C1.125 7.75 1.125 7.75 0 10 C0.99 10.33 1.98 10.66 3 11 C2.34 11 1.68 11 1 11 C0.34 15.29 -0.32 19.58 -1 24 C0.98 24.66 2.96 25.32 5 26 C10.34924895 30.66672915 15.06647237 36.09454419 17 43 C16.5546875 45.1953125 16.5546875 45.1953125 16 47 C15.70867187 46.5153125 15.41734375 46.030625 15.1171875 45.53125 C8.86215368 35.11093913 8.86215368 35.11093913 0 27 C-0.66 27 -1.32 27 -2 27 C-2.33 28.65 -2.66 30.3 -3 32 C-0.69 32 1.62 32 4 32 C4 32.33 4 32.66 4 33 C1.36 33 -1.28 33 -4 33 C-4.66 34.32 -5.32 35.64 -6 37 C-7.25869567 34.48260865 -6.85450072 33.66901915 -6.19140625 30.9765625 C-5.99949707 30.1712207 -5.80758789 29.36587891 -5.60986328 28.53613281 C-5.4086084 27.69920898 -5.20735352 26.86228516 -5 26 C-4.64965227 24.40479969 -4.30454962 22.80843789 -3.96484375 21.2109375 C-3.71057617 20.01597656 -3.71057617 20.01597656 -3.45117188 18.796875 C-3.28166016 17.99765625 -3.11214844 17.1984375 -2.9375 16.375 C-2.76412109 15.56804687 -2.59074219 14.76109375 -2.41210938 13.9296875 C-1.43097569 9.29843579 -0.61045039 4.69480405 0 0 Z " fill="#D3D3D3" transform="translate(222,495)"/>
<path d="M0 0 C0.33 0 0.66 0 1 0 C7.61764706 19.14705882 7.61764706 19.14705882 5 27 C2.69 27 0.38 27 -2 27 C-2 26.67 -2 26.34 -2 26 C-0.02 26 1.96 26 4 26 C4 24.02 4 22.04 4 20 C-3.68094096 22.9645737 -6.68409043 27.15949285 -11 34 C-11.96883347 35.38230028 -12.94664472 36.75839904 -13.9375 38.125 C-14.618125 39.07375 -15.29875 40.0225 -16 41 C-17 38 -17 38 -15.9375 35.3125 C-11.65337546 27.98802901 -6.72120984 20.86060492 1 17 C0.67 13.04 0.34 9.08 0 5 C-1.65 5.66 -3.3 6.32 -5 7 C-4.360625 6.401875 -3.72125 5.80375 -3.0625 5.1875 C-0.79689611 3.09189663 -0.79689611 3.09189663 0 0 Z " fill="#D2D2D2" transform="translate(87,501)"/>
<path d="M0 0 C8.17817372 -0.36080178 8.17817372 -0.36080178 11.5625 1.125 C13 3 13 3 13.4375 6 C13 9 13 9 11.796875 10.67578125 C9.37084019 12.46366343 7.79122294 12.30355414 4.8125 12.1875 C3.224375 12.125625 1.63625 12.06375 0 12 C0 8.04 0 4.08 0 0 Z " fill="#FEFEFE" transform="translate(951,610)"/>
<path d="M0 0 C7.44183991 4.25247995 11.4225107 9.8709953 14 18 C14.99 18.33 15.98 18.66 17 19 C17.6875 21.0625 17.6875 21.0625 18 23 C13.20377604 22.57680377 10.15982952 20.4853396 7 17 C3.05315608 11.57538429 0.29404285 6.76298547 0 0 Z " fill="#E2E2E2" transform="translate(51,589)"/>
<path d="M0 0 C0.33 0 0.66 0 1 0 C1 1.98 1 3.96 1 6 C1.66 6 2.32 6 3 6 C5.29612756 17.52164009 5.29612756 17.52164009 5 23 C4.01 23 3.02 23 2 23 C2.15597656 23.67546875 2.31195313 24.3509375 2.47265625 25.046875 C2.66730469 25.93890625 2.86195312 26.8309375 3.0625 27.75 C3.35833984 29.07257812 3.35833984 29.07257812 3.66015625 30.421875 C4.00298742 33.02266321 3.70340244 34.51848845 3 37 C1.99591695 32.82077134 0.99924491 28.63986432 0.00927734 24.45727539 C-0.32822906 23.03589774 -0.66772386 21.61499066 -1.00927734 20.19458008 C-1.50106229 18.14786577 -1.98557218 16.09954227 -2.46875 14.05078125 C-2.76201172 12.82012939 -3.05527344 11.58947754 -3.35742188 10.3215332 C-3.91668318 7.43067073 -4.13611113 4.92881985 -4 2 C-2.02 2.99 -2.02 2.99 0 4 C0 2.68 0 1.36 0 0 Z " fill="#999999" transform="translate(104,500)"/>
<path d="M0 0 C-0.65275142 7.96356736 -0.65275142 7.96356736 -4 11 C-5.50766406 12.994137 -6.95483123 15.02440237 -8.40234375 17.0625 C-10.11232891 19.13622284 -11.72289034 20.57402135 -14 22 C-14.99 22 -15.98 22 -17 22 C-15.53185897 15.80118231 -7.48395448 0 0 0 Z " fill="#ECECEC" transform="translate(259,589)"/>
<path d="M0 0 C0.33 0.99 0.66 1.98 1 3 C2.32 3 3.64 3 5 3 C3.87723429 10.05909078 2.62436599 17.03843148 1 24 C0.67 23.34 0.34 22.68 0 22 C-0.99 22 -1.98 22 -3 22 C-3.33 22.66 -3.66 23.32 -4 24 C-5.18608797 16.14861333 -5.56887972 11.58456195 -1 5 C-0.22514168 2.22861403 -0.22514168 2.22861403 0 0 Z " fill="#A8A8A8" transform="translate(191,498)"/>
<path d="M0 0 C0.33 0 0.66 0 1 0 C1 2.31 1 4.62 1 7 C1.66 7 2.32 7 3 7 C3.88770172 9.92414584 4.03497326 12.03507511 3.51171875 15.0390625 C3.38216797 15.78414062 3.25261719 16.52921875 3.11914062 17.296875 C2.97669922 18.06515625 2.83425781 18.8334375 2.6875 19.625 C2.55666016 20.40101563 2.42582031 21.17703125 2.29101562 21.9765625 C1.25438988 27.74561012 1.25438988 27.74561012 -1 30 C-1 28.68 -1 27.36 -1 26 C-3.7839183 27.39195915 -3.97898997 29.15575779 -5 32 C-6.28552599 28.36057169 -5.69726788 25.87905863 -4.75 22.1875 C-3.48021584 17.03814489 -2.33498011 11.89008282 -1.3125 6.6875 C-1.06113281 5.41261719 -0.80976563 4.13773437 -0.55078125 2.82421875 C-0.36902344 1.89222656 -0.18726563 0.96023438 0 0 Z " fill="#767676" transform="translate(205,497)"/>
<path d="M0 0 C0.33 0 0.66 0 1 0 C1.36923077 6.4 1.36923077 6.4 -0.5 9.4375 C-0.995 9.953125 -1.49 10.46875 -2 11 C-1.34 11.33 -0.68 11.66 0 12 C0 12.66 0 13.32 0 14 C-2.31 14.33 -4.62 14.66 -7 15 C-7 14.67 -7 14.34 -7 14 C-9.97 13.505 -9.97 13.505 -13 13 C-12.01 11.35 -11.02 9.7 -10 8 C-10.66 7.67 -11.32 7.34 -12 7 C-10.35 6.34 -8.7 5.68 -7 5 C-7.33 4.01 -7.66 3.02 -8 2 C-7.38125 2.165 -6.7625 2.33 -6.125 2.5 C-4.03936614 3.07634644 -4.03936614 3.07634644 -2 3 C-1.34 2.01 -0.68 1.02 0 0 Z " fill="#424242" transform="translate(204,660)"/>
<path d="M0 0 C2.44320765 1.1276343 4.47053875 2.3432165 6.65625 3.9375 C10.38009845 6.23445325 13.66365124 7.25429351 17.875 8.25 C18.56335938 8.42273438 19.25171875 8.59546875 19.9609375 8.7734375 C21.63805318 9.19271642 23.31869349 9.59785544 25 10 C25 10.66 25 11.32 25 12 C22.87506859 12.02693575 20.75004088 12.04636628 18.625 12.0625 C17.44164062 12.07410156 16.25828125 12.08570313 15.0390625 12.09765625 C12 12 12 12 10 11 C10 10.34 10 9.68 10 9 C9.401875 8.855625 8.80375 8.71125 8.1875 8.5625 C6.43849596 8.1127561 4.71322977 7.57107659 3 7 C3.350625 7.928125 3.70125 8.85625 4.0625 9.8125 C5.13333746 13.45334736 4.65303958 14.69392083 3 18 C0.76718678 13.08781092 -0.7469959 8.24098771 1 3 C0.67 2.01 0.34 1.02 0 0 Z " fill="#C9C9C9" transform="translate(127,652)"/>
<path d="M0 0 C0.6015625 1.8125 0.6015625 1.8125 1 4 C-1.3209153 8.2847667 -3.94404591 11.29603061 -8 14 C-8.99 14 -9.98 14 -11 14 C-11 14.66 -11 15.32 -11 16 C-13.97 16.33 -16.94 16.66 -20 17 C-20 16.67 -20 16.34 -20 16 C-21.134375 15.87625 -22.26875 15.7525 -23.4375 15.625 C-25.2009375 15.315625 -25.2009375 15.315625 -27 15 C-27.33 14.34 -27.66 13.68 -28 13 C-26.60587891 12.96132813 -26.60587891 12.96132813 -25.18359375 12.921875 C-13.89396664 12.40910906 -13.89396664 12.40910906 -5.03125 5.95703125 C-3.29586915 4.01161423 -1.6264667 2.03679112 0 0 Z " fill="#CDCDCD" transform="translate(204,630)"/>
<path d="M0 0 C0.66 0 1.32 0 2 0 C3.65 4.95 5.3 9.9 7 15 C3.04 15 -0.92 15 -5 15 C-1.85714286 4.28571429 -1.85714286 4.28571429 0 0 Z " fill="#FCFCFC" transform="translate(497,614)"/>
<path d="M0 0 C1.32 0 2.64 0 4 0 C4.73726166 2.44279362 5.47139485 4.88640495 6.19921875 7.33203125 C6.84306056 9.47712371 7.51137351 11.61486373 8.1875 13.75 C8.99313738 16.9725495 9.16126337 19.69410087 9 23 C7.33388095 23.042721 5.66617115 23.04063832 4 23 C3.67 22.67 3.34 22.34 3 22 C3.00591626 20.12454643 3.05524199 18.24916513 3.125 16.375 C3.18909709 10.98443465 2.42408185 7.74716029 0 3 C0 2.01 0 1.02 0 0 Z " fill="#404040" transform="translate(119,499)"/>
<path d="M0 0 C2.97 0.495 2.97 0.495 6 1 C1.498186 6.54069415 -3.32652356 11.63142314 -9 16 C-9.66 16 -10.32 16 -11 16 C-11.33 16.99 -11.66 17.98 -12 19 C-14.5625 20.1875 -14.5625 20.1875 -17 21 C-16.75643002 17.20030837 -16.5069346 15.48534454 -13.70703125 12.8046875 C-12.75183594 12.16789063 -11.79664063 11.53109375 -10.8125 10.875 C-9.82121094 10.19953125 -8.82992187 9.5240625 -7.80859375 8.828125 C-6.41833984 7.92320312 -6.41833984 7.92320312 -5 7 C-0.88150281 4.59568292 -0.88150281 4.59568292 2 1 C1.34 0.67 0.68 0.34 0 0 Z " fill="#EBEBEB" transform="translate(62,516)"/>
<path d="M0 0 C7.78701047 1.88776011 12.82376105 10.67236523 17 17 C17 17.66 17 18.32 17 19 C16.01 19 15.02 19 14 19 C13.67 19.99 13.34 20.98 13 22 C12.74605469 21.40832031 12.49210938 20.81664062 12.23046875 20.20703125 C10.37590221 15.94916874 8.40977263 11.97612484 6 8 C6 7.34 6 6.68 6 6 C3.69 6 1.38 6 -1 6 C-1.042721 4.33388095 -1.04063832 2.66617115 -1 1 C-0.67 0.67 -0.34 0.34 0 0 Z " fill="#4F4F4F" transform="translate(220,521)"/>
<path d="M0 0 C1.98 0 3.96 0 6 0 C5.67 1.32 5.34 2.64 5 4 C7.97 4.495 7.97 4.495 11 5 C10.01 5.495 10.01 5.495 9 6 C9 6.66 9 7.32 9 8 C5.93753253 9.78409802 3.77920727 10.22880021 0.25 10.125 C-0.54921875 10.10695313 -1.3484375 10.08890625 -2.171875 10.0703125 C-2.77515625 10.04710937 -3.3784375 10.02390625 -4 10 C-3.67 8.35 -3.34 6.7 -3 5 C-2.34 5 -1.68 5 -1 5 C-0.67 3.35 -0.34 1.7 0 0 Z " fill="#383838" transform="translate(188,668)"/>
<path d="M0 0 C0.66 0.33 1.32 0.66 2 1 C1.01 1.99 0.02 2.98 -1 4 C-0.67 4.99 -0.34 5.98 0 7 C-3.93392123 8.28057332 -7.90922375 8.18379459 -12 8.1875 C-12.7115625 8.19974609 -13.423125 8.21199219 -14.15625 8.22460938 C-17.934487 8.2351828 -20.79693658 8.11035168 -24 6 C-24 5.34 -24 4.68 -24 4 C-23.154375 4.02320313 -22.30875 4.04640625 -21.4375 4.0703125 C-10.16793173 4.32422213 -10.16793173 4.32422213 0 0 Z " fill="#CDCDCD" transform="translate(59,564)"/>
<path d="M0 0 C1.3805087 3.76668598 0.59568159 6.44789173 -0.4375 10.25 C-0.72496094 11.32765625 -1.01242188 12.4053125 -1.30859375 13.515625 C-1.65083984 14.74539063 -1.65083984 14.74539063 -2 16 C-2.33 15.01 -2.66 14.02 -3 13 C-4.65 13 -6.3 13 -8 13 C-9.26264601 8.70700357 -8.62950412 6.12168689 -7 2 C-4.69 2.33 -2.38 2.66 0 3 C0 2.01 0 1.02 0 0 Z " fill="#848484" transform="translate(184,502)"/>
<path d="M0 0 C0 1.98 0 3.96 0 6 C-1.051875 6.185625 -2.10375 6.37125 -3.1875 6.5625 C-7.88399978 7.87447767 -9.61040133 10.98153632 -12 15 C-12.99 16.485 -12.99 16.485 -14 18 C-14.66 18 -15.32 18 -16 18 C-16.66 18.33 -17.32 18.66 -18 19 C-16.57955322 14.99361164 -14.66906902 11.81977841 -12.1875 8.375 C-11.52105469 7.43398438 -10.85460937 6.49296875 -10.16796875 5.5234375 C-7.14883863 2.00927884 -4.71043045 0 0 0 Z " fill="#474747" transform="translate(91,521)"/>
<path d="M0 0 C0.66 0 1.32 0 2 0 C2 0.99 2 1.98 2 3 C2.66 3.33 3.32 3.66 4 4 C2.35 5.98 0.7 7.96 -1 10 C-1.33 9.34 -1.66 8.68 -2 8 C-7.80160774 9.48701402 -12.57763179 10.72504406 -17 15 C-17 14.34 -17 13.68 -17 13 C-18.65 13.66 -20.3 14.32 -22 15 C-15.6806683 8.1061836 -8.90577826 5.36531736 0 3 C0 2.01 0 1.02 0 0 Z " fill="#D1D1D1" transform="translate(187,592)"/>
<path d="M0 0 C9.00431697 2.25107924 16.52533303 5.46320965 24 11 C23.01 11.495 23.01 11.495 22 12 C21.67 12.66 21.34 13.32 21 14 C20.50371094 13.59007812 20.00742188 13.18015625 19.49609375 12.7578125 C15.06026897 9.23945432 11.55087651 7.15643261 6 6 C5.67 6.66 5.34 7.32 5 8 C2.525 4.04 2.525 4.04 0 0 Z " fill="#D6D6D6" transform="translate(119,594)"/>
<path d="M0 0 C0 3 0 3 -2.1875 5.625 C-5.00654002 8.00552268 -6.39755548 8.69121904 -10 9 C-10 9.66 -10 10.32 -10 11 C-13.96 11 -17.92 11 -22 11 C-22 10.34 -22 9.68 -22 9 C-21.16597656 8.76925781 -20.33195313 8.53851562 -19.47265625 8.30078125 C-12.42704617 6.25892632 -6.21278271 3.91710331 0 0 Z " fill="#C9C9C9" transform="translate(180,653)"/>
<path d="M0 0 C1.98073365 0.280828 3.95958448 0.57496614 5.9375 0.875 C7.59072266 1.11863281 7.59072266 1.11863281 9.27734375 1.3671875 C10.17582031 1.57601562 11.07429687 1.78484375 12 2 C12.33 2.66 12.66 3.32 13 4 C10.36 4 7.72 4 5 4 C5.47050781 4.39832031 5.94101563 4.79664063 6.42578125 5.20703125 C7.04839844 5.73683594 7.67101562 6.26664063 8.3125 6.8125 C8.92738281 7.33457031 9.54226562 7.85664062 10.17578125 8.39453125 C11.85424679 9.87172469 13.43882034 11.40039131 15 13 C14.67 13.99 14.34 14.98 14 16 C9.92623969 14.38989473 7.23492931 11.46177729 4.25 8.375 C3.74339844 7.859375 3.23679688 7.34375 2.71484375 6.8125 C1.47196098 5.54616661 0.23534724 4.2736856 -1 3 C-0.67 2.01 -0.34 1.02 0 0 Z " fill="#DEDEDE" transform="translate(244,516)"/>
<path d="M0 0 C0.33 0 0.66 0 1 0 C0.55470909 5.45481359 -0.56303685 9.64723162 -4 14 C-9.12820513 18 -9.12820513 18 -12 18 C-12.33 16.68 -12.66 15.36 -13 14 C-12.154375 13.54625 -11.30875 13.0925 -10.4375 12.625 C-6.34996087 9.95836733 -4.0519889 6.0705879 -1.41796875 2.046875 C-0.95003906 1.37140625 -0.48210937 0.6959375 0 0 Z " fill="#DBDBDB" transform="translate(180,660)"/>
<path d="M0 0 C0.66 0 1.32 0 2 0 C2 1.65 2 3.3 2 5 C1.34 5 0.68 5 0 5 C-0.04125 5.721875 -0.0825 6.44375 -0.125 7.1875 C-1.32518632 11.04524174 -3.53743486 13.1026029 -7 15 C-9.73431844 15.67253434 -12.16571354 15.85339898 -15 16 C-13.68 15.34 -12.36 14.68 -11 14 C-11 13.34 -11 12.68 -11 12 C-10.40574219 11.7525 -9.81148437 11.505 -9.19921875 11.25 C-6.66461241 9.80937117 -5.50030435 8.3603228 -3.8125 6 C-3.30332031 5.29875 -2.79414063 4.5975 -2.26953125 3.875 C-0.95983089 2.02895592 -0.95983089 2.02895592 0 0 Z " fill="#D0D0D0" transform="translate(204,644)"/>
<path d="M0 0 C0 1.65 0 3.3 0 5 C0.66 5 1.32 5 2 5 C1.00318287 11.45810245 -0.01636492 17.76571832 -2 24 C-2.33 24 -2.66 24 -3 24 C-3.05454409 21.64551325 -3.0939279 19.29232125 -3.125 16.9375 C-3.14820313 15.62652344 -3.17140625 14.31554687 -3.1953125 12.96484375 C-2.99417522 8.88175701 -2.27165462 5.85000947 -1 2 C-2.65 2.33 -4.3 2.66 -6 3 C-4.60722783 0.21445565 -3.01148006 0 0 0 Z " fill="#CBCBCB" transform="translate(211,581)"/>
<path d="M0 0 C0.268125 0.639375 0.53625 1.27875 0.8125 1.9375 C1.88667752 4.33131686 1.88667752 4.33131686 5 5 C5.433125 5.763125 5.86625 6.52625 6.3125 7.3125 C8.38912106 10.61971133 10.68381816 11.99647347 14 14 C14.99 14.66 15.98 15.32 17 16 C10.99540321 15.97276827 6.75023771 15.10415118 2.30859375 10.8984375 C-0.00013674 7.54905536 -0.06179537 3.97255971 0 0 Z " fill="#F7F7F7" transform="translate(104,644)"/>
<path d="M0 0 C2.71264721 2.635143 5.05275401 5.0712892 7.3125 8.125 C10.70880736 11.75825904 13.29411578 12.56430651 18 14 C16.375 15.125 16.375 15.125 14 16 C8.93183557 15.02950043 6.39771293 12.77523659 3 9 C2.34 8.34 1.68 7.68 1 7 C0.59952556 4.67724823 0.2602896 2.34260643 0 0 Z " fill="#D8D8D8" transform="translate(104,629)"/>
<path d="M0 0 C0.75023437 0.24556641 0.75023437 0.24556641 1.515625 0.49609375 C4.9263468 1.1878911 8.28735757 1.10504665 11.75 1.0625 C12.44738281 1.05798828 13.14476562 1.05347656 13.86328125 1.04882812 C15.57555803 1.0371002 17.28779033 1.01916653 19 1 C19 1.66 19 2.32 19 3 C15.05696552 4.85036255 11.90414065 5.27045532 7.5625 5.25 C5.92474609 5.25773438 5.92474609 5.25773438 4.25390625 5.265625 C0.88298422 4.99044769 -1.84875625 4.19775781 -5 3 C-3 2 -3 2 0 2 C0 1.34 0 0.68 0 0 Z " fill="#D4D4D4" transform="translate(255,567)"/>
<path d="M0 0 C0.99 0.33 1.98 0.66 3 1 C2.34 1 1.68 1 1 1 C1.09539062 1.72445312 1.19078125 2.44890625 1.2890625 3.1953125 C2.46956188 13.49036526 2.46956188 13.49036526 0 18 C-1.89882012 19.89378346 -3.83087884 21.39673653 -6 23 C-6.33 22.34 -6.66 21.68 -7 21 C-6.0625 18.875 -6.0625 18.875 -5 17 C-4.34 17 -3.68 17 -3 17 C-2.01 11.39 -1.02 5.78 0 0 Z " fill="#D3D3D3" transform="translate(170,580)"/>
<path d="M0 0 C1.65 0 3.3 0 5 0 C5.66 3.3 6.32 6.6 7 10 C5.35 10.33 3.7 10.66 2 11 C0.57741188 7.17679443 -0.24042276 4.08718695 0 0 Z " fill="#383838" transform="translate(127,504)"/>
<path d="M0 0 C1.58468677 0.45363171 3.16769924 0.91311452 4.75 1.375 C5.63171875 1.63023437 6.5134375 1.88546875 7.421875 2.1484375 C9.76080572 2.9209934 11.83442562 3.83625676 14 5 C14 8.27275026 13.70074844 10.846632 13 14 C12.34 13.67 11.68 13.34 11 13 C10.7525 11.865625 10.505 10.73125 10.25 9.5625 C9.8375 8.386875 9.425 7.21125 9 6 C6.10809595 4.59155349 6.10809595 4.59155349 3 4 C2.01 3.34 1.02 2.68 0 2 C0 1.34 0 0.68 0 0 Z " fill="#969696" transform="translate(113,663)"/>
<path d="M0 0 C1.60866022 3.18711085 3.1679823 6.39439217 4.6875 9.625 C5.14511719 10.58664062 5.60273438 11.54828125 6.07421875 12.5390625 C6.37972656 13.35117187 6.68523437 14.16328125 7 15 C6.67 15.66 6.34 16.32 6 17 C1.77202073 14.18134715 1.77202073 14.18134715 0 12 C-0.53855713 9.14353521 -0.29847264 6.93498095 0 4 C-1.65 4 -3.3 4 -5 4 C-4.34 3.34 -3.68 2.68 -3 2 C-2.01 2 -1.02 2 0 2 C0 1.34 0 0.68 0 0 Z " fill="#CACACA" transform="translate(139,585)"/>
<path d="M0 0 C6.4 0.49230769 6.4 0.49230769 9.4375 3.0625 C10.2109375 4.0215625 10.2109375 4.0215625 11 5 C8.03 4.505 8.03 4.505 5 4 C5 5.32 5 6.64 5 8 C1.18315774 6.44499019 -1.19195732 3.96404505 -4 1 C-2.68 1.33 -1.36 1.66 0 2 C0 1.34 0 0.68 0 0 Z " fill="#565656" transform="translate(113,650)"/>
<path d="M0 0 C1.98 0 3.96 0 6 0 C8.125 6.5 8.125 6.5 7 11 C6.34 7.7 5.68 4.4 5 1 C3.68 1 2.36 1 1 1 C1.30035156 1.60585938 1.60070312 2.21171875 1.91015625 2.8359375 C4.85645261 9.32777694 5.36677969 14.01753855 4 21 C3.67 21 3.34 21 3 21 C3.03480469 20.39671875 3.06960937 19.7934375 3.10546875 19.171875 C3.32671235 13.02100207 3.32671235 13.02100207 0 8 C-1.13453213 4.97458098 -0.98333463 3.05926331 0 0 Z " fill="#949494" transform="translate(118,498)"/>
<path d="M0 0 C0.66 0.33 1.32 0.66 2 1 C1.57847656 1.47050781 1.15695313 1.94101562 0.72265625 2.42578125 C0.17480469 3.04839844 -0.37304688 3.67101562 -0.9375 4.3125 C-1.75541016 5.23482422 -1.75541016 5.23482422 -2.58984375 6.17578125 C-4.20081559 8.05241958 -4.20081559 8.05241958 -5 11 C-10.37142857 15 -10.37142857 15 -13 15 C-11.21169455 8.44288001 -5.46175262 3.71399178 0 0 Z " fill="#565656" transform="translate(42,527)"/>
<path d="M0 0 C1.0828125 1.11375 1.0828125 1.11375 2.1875 2.25 C4.90711047 5.01267269 4.90711047 5.01267269 7.8125 7.1875 C8.534375 7.785625 9.25625 8.38375 10 9 C10 9.66 10 10.32 10 11 C11.32 11.66 12.64 12.32 14 13 C9.87537605 12.75737506 7.52197092 12.39437803 4.1875 9.875 C1.61655974 6.49604995 0.88637057 4.10953627 0 0 Z " fill="#CACACA" transform="translate(104,660)"/>
<path d="M0 0 C2.88437779 1.29299694 4.87219421 2.65941363 7 5 C6.34 5 5.68 5 5 5 C5 5.66 5 6.32 5 7 C4.34 7 3.68 7 3 7 C3.350625 7.928125 3.70125 8.85625 4.0625 9.8125 C5.13333746 13.45334736 4.65303958 14.69392083 3 18 C0.76718678 13.08781092 -0.7469959 8.24098771 1 3 C0.67 2.01 0.34 1.02 0 0 Z " fill="#989898" transform="translate(127,652)"/>
<path d="M0 0 C1.12758089 3.38274266 0.81750262 4.76778223 0.0625 8.1875 C-0.13214844 9.08855469 -0.32679688 9.98960937 -0.52734375 10.91796875 C-0.68332031 11.60503906 -0.83929688 12.29210937 -1 13 C-1.66 11.68 -2.32 10.36 -3 9 C-3.33 14.61 -3.66 20.22 -4 26 C-4.33 26 -4.66 26 -5 26 C-5.08138426 23.12442297 -5.14067851 20.25117738 -5.1875 17.375 C-5.21263672 16.56675781 -5.23777344 15.75851562 -5.26367188 14.92578125 C-5.32577278 9.83350692 -4.81054559 6.42337684 -2 2 C-1.34 1.34 -0.68 0.68 0 0 Z " fill="#BCBCBC" transform="translate(232,611)"/>
<path d="M0 0 C0.33 0.99 0.66 1.98 1 3 C0.34 3.66 -0.32 4.32 -1 5 C-1.6425235 7.06874034 -1.6425235 7.06874034 -2 9 C-3.32 9.33 -4.64 9.66 -6 10 C-5.67 9.01 -5.34 8.02 -5 7 C-6.32 7 -7.64 7 -9 7 C-8.25675659 4.60510457 -7.52942646 3.29222384 -5.30859375 2.06640625 C-3.55926499 1.32780077 -1.78065851 0.65950315 0 0 Z " fill="#6F6F6F" transform="translate(195,649)"/>
<path d="M0 0 C0.33 1.32 0.66 2.64 1 4 C-3.455 4.495 -3.455 4.495 -8 5 C-8 4.67 -8 4.34 -8 4 C-9.134375 3.87625 -10.26875 3.7525 -11.4375 3.625 C-12.613125 3.41875 -13.78875 3.2125 -15 3 C-15.33 2.34 -15.66 1.68 -16 1 C-13.70839646 0.83246763 -11.41671509 0.66599948 -9.125 0.5 C-7.84882813 0.4071875 -6.57265625 0.314375 -5.2578125 0.21875 C-3.50763316 0.10123196 -1.75412035 0 0 0 Z " fill="#BCBCBC" transform="translate(192,642)"/>
<path d="M0 0 C0.33 0 0.66 0 1 0 C1.4375 3.1875 1.4375 3.1875 1 7 C-1.01357045 9.23549622 -3.21365766 10.85443741 -6 12 C-6.99 11.67 -7.98 11.34 -9 11 C-7.52444734 9.16375669 -6.04446569 7.3310715 -4.5625 5.5 C-3.73878906 4.4790625 -2.91507813 3.458125 -2.06640625 2.40625 C-1.38449219 1.6121875 -0.70257813 0.818125 0 0 Z " fill="#C8C8C8" transform="translate(204,660)"/>
<path d="M0 0 C0.33 0 0.66 0 1 0 C5.38954869 13.22090261 5.38954869 13.22090261 3 18 C2.34 17.67 1.68 17.34 1 17 C0.5859375 14.27734375 0.5859375 14.27734375 0.375 10.9375 C0.30023438 9.83277344 0.22546875 8.72804688 0.1484375 7.58984375 C0.09945312 6.73519531 0.05046875 5.88054687 0 5 C-1.65 5.66 -3.3 6.32 -5 7 C-4.0409375 6.1028125 -4.0409375 6.1028125 -3.0625 5.1875 C-0.79689611 3.09189663 -0.79689611 3.09189663 0 0 Z " fill="#BBBBBB" transform="translate(87,501)"/>
<path d="M0 0 C0.33 0 0.66 0 1 0 C1 3.3 1 6.6 1 10 C1.66 10 2.32 10 3 10 C2.67 12.31 2.34 14.62 2 17 C1.67 15.68 1.34 14.36 1 13 C-1.7839183 14.39195915 -1.97898997 16.15575779 -3 19 C-4.67641098 14.90913548 -3.2409319 11.28488982 -2.0625 7.25 C-1.86720703 6.55261719 -1.67191406 5.85523438 -1.47070312 5.13671875 C-0.9891754 3.42201027 -0.49574843 1.71065123 0 0 Z " fill="#B1B1B1" transform="translate(203,510)"/>
<path d="M0 0 C3.45769083 1.72884542 4.43973546 5.50596122 5.75 9 C6.09898207 11.79185655 5.56024232 14.26103754 5 17 C4.34 17 3.68 17 3 17 C2.49453964 14.91798472 1.99583165 12.83432933 1.5 10.75 C1.2215625 9.58984375 0.943125 8.4296875 0.65625 7.234375 C0 4 0 4 0 0 Z " fill="#454545" transform="translate(116,502)"/>
<path d="M0 0 C0.33 0 0.66 0 1 0 C1.25706972 5.91260345 0.2982126 11.23918159 -1 17 C-1.66 17 -2.32 17 -3 17 C-4.46751243 10.10907206 -3.78003299 5.95395754 0 0 Z " fill="#414141" transform="translate(192,502)"/>
<path d="M0 0 C0.66 0.33 1.32 0.66 2 1 C2 6.28 2 11.56 2 17 C1.34 17 0.68 17 0 17 C-0.66 13.04 -1.32 9.08 -2 5 C-1.34 5 -0.68 5 0 5 C0 3.35 0 1.7 0 0 Z " fill="#B4B4B4" transform="translate(100,587)"/>
<path d="M0 0 C3.33727786 1.17255709 5.77437487 2.18868404 8 5 C8 5.66 8 6.32 8 7 C5.03 6.67 2.06 6.34 -1 6 C-1.042721 4.33388095 -1.04063832 2.66617115 -1 1 C-0.67 0.67 -0.34 0.34 0 0 Z " fill="#3C3C3C" transform="translate(220,521)"/>
<path d="M0 0 C1.26237731 2.52475462 1.09856404 4.31200466 1.0625 7.125 C1.05347656 8.03507813 1.04445312 8.94515625 1.03515625 9.8828125 C1.02355469 10.58148437 1.01195312 11.28015625 1 12 C1.99 11.01 2.98 10.02 4 9 C3.67 11.97 3.34 14.94 3 18 C2.34 18 1.68 18 1 18 C0.67 17.34 0.34 16.68 0 16 C-0.99 15.34 -1.98 14.68 -3 14 C-2.34 13.67 -1.68 13.34 -1 13 C-1.01160156 12.14535156 -1.02320313 11.29070313 -1.03515625 10.41015625 C-1.04417969 9.30542969 -1.05320313 8.20070313 -1.0625 7.0625 C-1.07410156 5.96035156 -1.08570313 4.85820313 -1.09765625 3.72265625 C-1 1 -1 1 0 0 Z " fill="#BBBBBB" transform="translate(137,554)"/>
<path d="M0 0 C1.98073365 0.280828 3.95958448 0.57496614 5.9375 0.875 C7.59072266 1.11863281 7.59072266 1.11863281 9.27734375 1.3671875 C10.17582031 1.57601562 11.07429687 1.78484375 12 2 C12.33 2.66 12.66 3.32 13 4 C10.36 4 7.72 4 5 4 C5.33 4.66 5.66 5.32 6 6 C5.01 6.33 4.02 6.66 3 7 C1.68 5.35 0.36 3.7 -1 2 C-0.67 1.34 -0.34 0.68 0 0 Z " fill="#CCCCCC" transform="translate(244,516)"/>
<path d="M0 0 C2.97 0.495 2.97 0.495 6 1 C5.06725891 2.12894876 4.12859878 3.25300876 3.1875 4.375 C2.66542969 5.00148438 2.14335938 5.62796875 1.60546875 6.2734375 C0 8 0 8 -3 10 C-3.99 9.34 -4.98 8.68 -6 8 C-5.50628906 7.66226563 -5.01257812 7.32453125 -4.50390625 6.9765625 C-3.86324219 6.53054688 -3.22257812 6.08453125 -2.5625 5.625 C-1.92441406 5.18414063 -1.28632812 4.74328125 -0.62890625 4.2890625 C1.13740928 3.07839147 1.13740928 3.07839147 2 1 C1.34 0.67 0.68 0.34 0 0 Z " fill="#D9D9D9" transform="translate(62,516)"/>
<path d="M0 0 C0.66 0 1.32 0 2 0 C1.01 5.28 0.02 10.56 -1 16 C0.65 16 2.3 16 4 16 C4 16.33 4 16.66 4 17 C1.69 17 -0.62 17 -3 17 C-2.88597936 14.72858891 -2.75841495 12.45785448 -2.625 10.1875 C-2.55539063 8.92292969 -2.48578125 7.65835938 -2.4140625 6.35546875 C-2 3 -2 3 0 0 Z " fill="#6D6D6D" transform="translate(234,607)"/>
<path d="M0 0 C0.66 0 1.32 0 2 0 C2.20190089 6.35987804 1.6277833 11.85221129 0 18 C-0.66 18 -1.32 18 -2 18 C-1.91621094 17.39671875 -1.83242187 16.7934375 -1.74609375 16.171875 C-1.64425781 15.37265625 -1.54242188 14.5734375 -1.4375 13.75 C-1.33308594 12.96109375 -1.22867188 12.1721875 -1.12109375 11.359375 C-0.88579015 9.01740369 -0.88579015 9.01740369 -1.53125 6.875 C-2.21280903 4.14876388 -1.16742926 2.47220314 0 0 Z " fill="#5D5D5D" transform="translate(181,651)"/>
<path d="M0 0 C0.66 0 1.32 0 2 0 C3.31626692 3.61973402 4 6.09567131 4 10 C2.35 10 0.7 10 -1 10 C-0.67 6.7 -0.34 3.4 0 0 Z " fill="#2E2E2E" transform="translate(124,512)"/>
<path d="M0 0 C3.4120992 0.8530248 6.67485327 1.86642725 10 3 C10 3.66 10 4.32 10 5 C8.68 5 7.36 5 6 5 C5.67 5.99 5.34 6.98 5 8 C2.525 4.04 2.525 4.04 0 0 Z " fill="#D8D8D8" transform="translate(119,594)"/>
<path d="M0 0 C0.66 0 1.32 0 2 0 C2 0.99 2 1.98 2 3 C2.66 3.33 3.32 3.66 4 4 C2.35 5.98 0.7 7.96 -1 10 C-1.33 9.01 -1.66 8.02 -2 7 C-3.32 7 -4.64 7 -6 7 C-6 6.34 -6 5.68 -6 5 C-4.02 4.34 -2.04 3.68 0 3 C0 2.01 0 1.02 0 0 Z " fill="#D7D7D7" transform="translate(187,592)"/>
<path d="M0 0 C2.46270288 3.69405432 2.22985417 5.63277072 2 10 C1.5 12.4375 1.5 12.4375 1 14 C0.01 14 -0.98 14 -2 14 C-2.33 14.99 -2.66 15.98 -3 17 C-3.33 14.36 -3.66 11.72 -4 9 C-2.515 9.99 -2.515 9.99 -1 11 C-0.4254048 7.26513121 0 3.78706732 0 0 Z " fill="#747474" transform="translate(172,553)"/>
<path d="M0 0 C0 0.99 0 1.98 0 3 C0.66 3.33 1.32 3.66 2 4 C2 4.66 2 5.32 2 6 C-0.31 6.33 -2.62 6.66 -5 7 C-5 6.67 -5 6.34 -5 6 C-7.97 5.505 -7.97 5.505 -11 5 C-8.74820691 3.74900384 -6.92245172 2.9852289 -4.375 2.5 C-1.82473909 2.18891761 -1.82473909 2.18891761 0 0 Z " fill="#838383" transform="translate(202,668)"/>
<path d="M0 0 C1.61949011 2.57213134 2.04408751 3.67669159 1.625 6.75 C1.41875 7.4925 1.2125 8.235 1 9 C3.31 9 5.62 9 8 9 C8 9.33 8 9.66 8 10 C5.36 10 2.72 10 0 10 C-0.66 11.32 -1.32 12.64 -2 14 C-3.29567138 11.40865723 -2.79191642 10.34436368 -2.125 7.5625 C-1.85042969 6.38880859 -1.85042969 6.38880859 -1.5703125 5.19140625 C-1.11497424 3.44178458 -0.57170875 1.71512624 0 0 Z " fill="#B1B1B1" transform="translate(218,518)"/>
<path d="M0 0 C1.32 0.33 2.64 0.66 4 1 C4.125 6.75 4.125 6.75 3 9 C2.01 9 1.02 9 0 9 C0 6.03 0 3.06 0 0 Z " fill="#2F2F2F" transform="translate(177,505)"/>
<path d="M0 0 C0 0.66 0 1.32 0 2 C-3.82942948 4.90108294 -7.27536912 5.53680089 -12 6 C-11 3 -11 3 -9.2578125 2.05078125 C-8.55398437 1.80714844 -7.85015625 1.56351563 -7.125 1.3125 C-6.42632812 1.06113281 -5.72765625 0.80976562 -5.0078125 0.55078125 C-3 0 -3 0 0 0 Z " fill="#C5C5C5" transform="translate(197,663)"/>
<path d="M0 0 C-0.33 2.64 -0.66 5.28 -1 8 C-1.66 8 -2.32 8 -3 8 C-3 6.68 -3 5.36 -3 4 C-5.31 5.98 -7.62 7.96 -10 10 C-8.38207319 6.76414639 -7.44195891 5.16753932 -5 2.75 C-4.484375 2.22921875 -3.96875 1.7084375 -3.4375 1.171875 C-2 0 -2 0 0 0 Z " fill="#B2B2B2" transform="translate(259,589)"/>
<path d="M0 0 C0.99 0.33 1.98 0.66 3 1 C2.34 1 1.68 1 1 1 C1.08378906 1.73605469 1.16757813 2.47210937 1.25390625 3.23046875 C1.35574219 4.20628906 1.45757812 5.18210937 1.5625 6.1875 C1.66691406 7.15042969 1.77132812 8.11335937 1.87890625 9.10546875 C1.99758751 11.94233377 1.67765639 14.25423671 1 17 C-0.55078125 15.421875 -0.55078125 15.421875 -2 13 C-1.85546875 9.765625 -1.85546875 9.765625 -1.1875 6.25 C-0.97480469 5.07953125 -0.76210937 3.9090625 -0.54296875 2.703125 C-0.36378906 1.81109375 -0.18460938 0.9190625 0 0 Z " fill="#A8A8A8" transform="translate(170,580)"/>
<path d="M0 0 C0.66 0 1.32 0 2 0 C0.52278578 3.45201639 -1.43794001 5.64961936 -4.125 8.25 C-4.84945312 8.95640625 -5.57390625 9.6628125 -6.3203125 10.390625 C-6.87460938 10.92171875 -7.42890625 11.4528125 -8 12 C-8 8.24111186 -7.049166 7.58681685 -4.5625 4.875 C-3.92441406 4.17117188 -3.28632813 3.46734375 -2.62890625 2.7421875 C-1.76410115 1.81724008 -0.89538137 0.89538137 0 0 Z " fill="#4A4A4A" transform="translate(198,587)"/>
<path d="M0 0 C1 3 1 3 -0.4375 6.1875 C-1.2109375 7.5796875 -1.2109375 7.5796875 -2 9 C-2.99 9 -3.98 9 -5 9 C-5.99 9.495 -5.99 9.495 -7 10 C-5.6062718 5.56541027 -3.39417765 3.12621626 0 0 Z " fill="#444444" transform="translate(80,530)"/>
<path d="M0 0 C3.06081203 2.75473082 4.89882863 4.99574049 6 9 C5.54296875 11.15625 5.54296875 11.15625 5 13 C4.15841464 11.73461631 3.32700252 10.46246221 2.5 9.1875 C1.80390625 8.12595703 1.80390625 8.12595703 1.09375 7.04296875 C-0.22462558 4.5804315 0 2.73760478 0 0 Z " fill="#C5C5C5" transform="translate(233,529)"/>
<path d="M0 0 C0.33 0 0.66 0 1 0 C1.125 7.75 1.125 7.75 0 10 C0.99 10.33 1.98 10.66 3 11 C2.34 11 1.68 11 1 11 C0.67 12.98 0.34 14.96 0 17 C-0.66 16.34 -1.32 15.68 -2 15 C-1.76924706 12.27711529 -1.44381281 9.68699709 -1 7 C-0.80993301 5.66703017 -0.62221107 4.33372255 -0.4375 3 C-0.293125 2.01 -0.14875 1.02 0 0 Z " fill="#B0B0B0" transform="translate(222,495)"/>
<path d="M0 0 C1.65 0 3.3 0 5 0 C4.67 0.99 4.34 1.98 4 3 C3.34 2.67 2.68 2.34 2 2 C2.26393501 5.43230448 2.26393501 5.43230448 3 9 C3.99 9.66 4.98 10.32 6 11 C4.35 10.67 2.7 10.34 1 10 C0.67 6.7 0.34 3.4 0 0 Z " fill="#666666" transform="translate(127,504)"/>
<path d="M0 0 C4.29 0.33 8.58 0.66 13 1 C13 1.33 13 1.66 13 2 C12.2575 2.144375 11.515 2.28875 10.75 2.4375 C8.08882188 2.92467376 8.08882188 2.92467376 5.9375 3.6875 C3.38790331 4.09872527 2.16333992 3.31345638 0 2 C0 1.34 0 0.68 0 0 Z " fill="#A6A6A6" transform="translate(35,568)"/>
<path d="M0 0 C0.33 0 0.66 0 1 0 C1.38854209 2.28940956 1.7604628 4.58164574 2.125 6.875 C2.33382812 8.15117188 2.54265625 9.42734375 2.7578125 10.7421875 C2.83773437 11.81726563 2.91765625 12.89234375 3 14 C2.34 14.66 1.68 15.32 1 16 C-1.48063781 5.62642369 -1.48063781 5.62642369 0 0 Z " fill="#8E8E8E" transform="translate(106,506)"/>
<path d="M0 0 C3.3 0.99 6.6 1.98 10 3 C10 3.66 10 4.32 10 5 C3.375 4.25 3.375 4.25 0 2 C0 1.34 0 0.68 0 0 Z " fill="#CBCBCB" transform="translate(113,663)"/>
<path d="M0 0 C0.66 0.99 1.32 1.98 2 3 C0.35 5.31 -1.3 7.62 -3 10 C-4 7 -4 7 -2.625 3.875 C-1 1 -1 1 0 0 Z " fill="#B4B4B4" transform="translate(74,532)"/>
<path d="M0 0 C0.33 0 0.66 0 1 0 C1 2.31 1 4.62 1 7 C1.66 7 2.32 7 3 7 C3.93065133 9.60582371 4.14917407 10.64198224 3.0625 13.25 C2.711875 13.8275 2.36125 14.405 2 15 C1.67 13.02 1.34 11.04 1 9 C0.01 9.495 0.01 9.495 -1 10 C-0.67 6.7 -0.34 3.4 0 0 Z " fill="#B6B6B6" transform="translate(205,497)"/>
<path d="M0 0 C0 3 0 3 -2 5.1875 C-2.66 5.785625 -3.32 6.38375 -4 7 C-4 6.34 -4 5.68 -4 5 C-5.65 5.33 -7.3 5.66 -9 6 C-7.71502463 3.43004926 -6.50087627 3.09565537 -3.9375 1.875 C-3.20402344 1.52179687 -2.47054687 1.16859375 -1.71484375 0.8046875 C-1.14894531 0.53914062 -0.58304688 0.27359375 0 0 Z " fill="#BFBFBF" transform="translate(180,653)"/>
<path d="M0 0 C0.66 0.33 1.32 0.66 2 1 C0.515 2.485 0.515 2.485 -1 4 C-0.67 4.66 -0.34 5.32 0 6 C-2.64 6 -5.28 6 -8 6 C-5.63404067 3.38499232 -3.13950774 1.61000397 0 0 Z " fill="#E0E0E0" transform="translate(59,564)"/>
<path d="M0 0 C0.33 0 0.66 0 1 0 C1 2.97 1 5.94 1 9 C1.99 9.33 2.98 9.66 4 10 C4 10.33 4 10.66 4 11 C2.35 11 0.7 11 -1 11 C-1.125 3.375 -1.125 3.375 0 0 Z " fill="#ECECEC" transform="translate(220,510)"/>
<path d="M0 0 C0.33 0 0.66 0 1 0 C0.25 6.625 0.25 6.625 -2 10 C-2 9.01 -2 8.02 -2 7 C-2.66 7 -3.32 7 -4 7 C-2.79618552 4.50638429 -1.54571278 2.31856917 0 0 Z " fill="#D2D2D2" transform="translate(180,660)"/>
<path d="M0 0 C2.64 1.32 5.28 2.64 8 4 C8 4.33 8 4.66 8 5 C6.56138706 4.91253716 5.12402492 4.80434652 3.6875 4.6875 C2.88699219 4.62949219 2.08648437 4.57148437 1.26171875 4.51171875 C-1.36272334 3.91793306 -2.30820672 3.04219706 -4 1 C-2.68 1.33 -1.36 1.66 0 2 C0 1.34 0 0.68 0 0 Z " fill="#CFCFCF" transform="translate(113,655)"/>
<path d="M0 0 C0 4.16212053 -1.87891434 5.83739265 -4.6875 8.75 C-5.3371875 9.36875 -5.3371875 9.36875 -6 10 C-6 9.01 -6 8.02 -6 7 C-6.66 7 -7.32 7 -8 7 C-6.62141149 4.24282298 -4.62533685 3.53678254 -2 2 C-1.34 1.34 -0.68 0.68 0 0 Z " fill="#454545" transform="translate(170,597)"/>
<path d="M0 0 C0.66 0.33 1.32 0.66 2 1 C1.01 2.32 0.02 3.64 -1 5 C-0.34 5.33 0.32 5.66 1 6 C-0.98 6.99 -2.96 7.98 -5 9 C-4.50769231 3.46153846 -4.50769231 3.46153846 -1.9375 1.125 C-1.298125 0.75375 -0.65875 0.3825 0 0 Z " fill="#C4C4C4" transform="translate(50,528)"/>
<path d="M0 0 C0.33 0.99 0.66 1.98 1 3 C-0.4375 5.1875 -0.4375 5.1875 -2 7 C-3.32 6.67 -4.64 6.34 -6 6 C-4.02 4.02 -2.04 2.04 0 0 Z " fill="#EEEEEE" transform="translate(176,669)"/>
<path d="M0 0 C4.8 3.44615385 4.8 3.44615385 5.8125 6.25 C5.874375 6.8275 5.93625 7.405 6 8 C5.01 8.33 4.02 8.66 3 9 C2.01 6.03 1.02 3.06 0 0 Z " fill="#A5A5A5" transform="translate(74,607)"/>
<path d="M0 0 C0 0.99 0 1.98 0 3 C-4.455 2.01 -4.455 2.01 -9 1 C-4.82091936 -1.08954032 -4.19589427 -1.16552619 0 0 Z " fill="#CACACA" transform="translate(134,599)"/>
<path d="M0 0 C0 0.66 0 1.32 0 2 C-4.79300133 3.39151652 -9.15135782 2.68662689 -14 2 C-14 1.67 -14 1.34 -14 1 C-12.22932584 0.83165067 -10.45845388 0.66538091 -8.6875 0.5 C-7.70136719 0.4071875 -6.71523438 0.314375 -5.69921875 0.21875 C-3 0 -3 0 0 0 Z " fill="#C1C1C1" transform="translate(274,568)"/>
<path d="M0 0 C-0.66 1.32 -1.32 2.64 -2 4 C-2.33 3.34 -2.66 2.68 -3 2 C-5.64 2.33 -8.28 2.66 -11 3 C-10.67 2.34 -10.34 1.68 -10 1 C-6.6322481 0.06451336 -3.4815554 -0.09947301 0 0 Z " fill="#848484" transform="translate(64,517)"/>
<path d="M0 0 C0.268125 0.639375 0.53625 1.27875 0.8125 1.9375 C1.88667752 4.33131686 1.88667752 4.33131686 5 5 C4 7 4 7 3 8 C2.67 8.66 2.34 9.32 2 10 C0.39644899 6.49223216 -0.22036864 3.85645121 0 0 Z " fill="#B2B2B2" transform="translate(104,644)"/>
<path d="M0 0 C4.875 4.625 4.875 4.625 6 8 C5.01 8.495 5.01 8.495 4 9 C3.38125 8.05125 2.7625 7.1025 2.125 6.125 C0.18029031 3.05554891 0.18029031 3.05554891 -2 1 C-1.34 0.67 -0.68 0.34 0 0 Z " fill="#A3A3A3" transform="translate(279,539)"/>
<path d="M0 0 C2.25 -0.25 2.25 -0.25 5 0 C7.3125 2 7.3125 2 9 4 C3.46153846 3.38461538 3.46153846 3.38461538 1.125 1.4375 C0.75375 0.963125 0.3825 0.48875 0 0 Z " fill="#A5A5A5" transform="translate(115,651)"/>
<path d="M0 0 C0 0.66 0 1.32 0 2 C-3 4 -3 4 -7 4 C-6.67 3.01 -6.34 2.02 -6 1 C-3 0 -3 0 0 0 Z " fill="#ECECEC" transform="translate(199,640)"/>
<path d="M0 0 C2.97851562 0.53710938 2.97851562 0.53710938 5.95703125 1.07421875 C5.95703125 1.40421875 5.95703125 1.73421875 5.95703125 2.07421875 C2.32703125 2.40421875 -1.30296875 2.73421875 -5.04296875 3.07421875 C-2.04296875 0.07421875 -2.04296875 0.07421875 0 0 Z " fill="#B8B8B8" transform="translate(179.04296875,597.92578125)"/>
<path d="M0 0 C0.99 0 1.98 0 3 0 C3.66 2.31 4.32 4.62 5 7 C3.0625 6.3125 3.0625 6.3125 1 5 C0.25 2.375 0.25 2.375 0 0 Z " fill="#D6D6D6" transform="translate(141,595)"/>
<path d="M0 0 C3 3 3 3 3.07421875 5.91796875 C2.94660156 6.99691406 2.81898438 8.07585938 2.6875 9.1875 C2.56761719 10.27417969 2.44773437 11.36085938 2.32421875 12.48046875 C2.21722656 13.31191406 2.11023438 14.14335938 2 15 C1.67 15 1.34 15 1 15 C0.67 10.05 0.34 5.1 0 0 Z " fill="#5C5C5C" transform="translate(284,547)"/>
<path d="M0 0 C0.33 0.66 0.66 1.32 1 2 C1.66 2.33 2.32 2.66 3 3 C1.68 4.32 0.36 5.64 -1 7 C-1.66 6.67 -2.32 6.34 -3 6 C-1.125 1.125 -1.125 1.125 0 0 Z " fill="#565656" transform="translate(82,525)"/>
<path d="M0 0 C2.97 0 5.94 0 9 0 C8.67 0.66 8.34 1.32 8 2 C5.93359375 2.4140625 5.93359375 2.4140625 3.4375 2.625 C2.61121094 2.69976563 1.78492188 2.77453125 0.93359375 2.8515625 C-0.02353516 2.92503906 -0.02353516 2.92503906 -1 3 C-0.67 2.01 -0.34 1.02 0 0 Z " fill="#505050" transform="translate(187,659)"/>
<path d="M0 0 C2.88437779 1.29299694 4.87219421 2.65941363 7 5 C6.01 5.33 5.02 5.66 4 6 C2.62437146 4.71034824 1.29233607 3.37310707 0 2 C0 1.34 0 0.68 0 0 Z " fill="#C1C1C1" transform="translate(127,652)"/>
<path d="M0 0 C0.99 0.33 1.98 0.66 3 1 C4.1875 4.0625 4.1875 4.0625 5 7 C2 6 2 6 0 3 C0 2.01 0 1.02 0 0 Z " fill="#E3E3E3" transform="translate(229,525)"/>
<path d="M0 0 C0.99 0.33 1.98 0.66 3 1 C1.68 2.32 0.36 3.64 -1 5 C-1.99 4.34 -2.98 3.68 -4 3 C-2.1875 1.4375 -2.1875 1.4375 0 0 Z " fill="#C5C5C5" transform="translate(60,521)"/>
<path d="M0 0 C1.64666203 0.1135629 3.29236082 0.24117381 4.9375 0.375 C5.85402344 0.44460938 6.77054688 0.51421875 7.71484375 0.5859375 C8.84599609 0.79089844 8.84599609 0.79089844 10 1 C10.33 1.66 10.66 2.32 11 3 C7.7 3 4.4 3 1 3 C0.67 2.01 0.34 1.02 0 0 Z " fill="#868686" transform="translate(246,517)"/>
<path d="M0 0 C0.66 0.66 1.32 1.32 2 2 C1.96712417 4.72869407 1.43602229 7.2966618 1 10 C-1.56687367 6.1496895 -0.83288724 4.41430237 0 0 Z " fill="#979797" transform="translate(181,508)"/>
<path d="M0 0 C0 1.98 0 3.96 0 6 C-1.32 5.67 -2.64 5.34 -4 5 C-3.625 3.0625 -3.625 3.0625 -3 1 C-1 0 -1 0 0 0 Z " fill="#797979" transform="translate(207,505)"/>
</svg>
